<?xml version="1.0" encoding="UTF-8"?>
<svg id="Layer_2" data-name="Layer 2" xmlns="http://www.w3.org/2000/svg" viewBox="0 0 287.78 769.47">
  <defs>
    <style>
      .cls-1, .cls-2, .cls-3, .cls-4 {
        fill: none;
      }

      .cls-5 {
        fill: #d07339;
      }

      .cls-6 {
        fill: #ca6830;
      }

      .cls-7 {
        fill: #ce6f39;
      }

      .cls-8 {
        fill: #cf6f37;
      }

      .cls-9 {
        font-family: MyriadPro-Regular, 'Myriad Pro';
        font-size: .5px;
      }

      .cls-10 {
        fill: #ca6a34;
      }

      .cls-11 {
        fill: #492528;
      }

      .cls-12 {
        fill: #cb6c32;
      }

      .cls-13 {
        fill: #cd6d33;
      }

      .cls-14 {
        fill: #1e425b;
      }

      .cls-15 {
        fill: #d0713a;
      }

      .cls-16 {
        fill: #c66631;
      }

      .cls-17 {
        fill: #cb662e;
      }

      .cls-18 {
        fill: #c9682e;
      }

      .cls-19 {
        fill: #c76730;
      }

      .cls-20 {
        fill: #ce6b35;
      }

      .cls-21 {
        fill: #cc6d37;
      }

      .cls-22 {
        fill: #262f3b;
      }

      .cls-23 {
        fill: #1d2b3b;
      }

      .cls-24 {
        fill: #cd6e38;
      }

      .cls-25 {
        fill: #e38e76;
      }

      .cls-26 {
        fill: #e8cda6;
      }

      .cls-27 {
        fill: #b55a47;
      }

      .cls-28 {
        fill: #e7633f;
      }

      .cls-29 {
        fill: #e1826e;
      }

      .cls-30 {
        fill: #cf723a;
      }

      .cls-31 {
        fill: #7b3c63;
      }

      .cls-32 {
        fill: #ac863f;
      }

      .cls-33 {
        fill: #9b8e40;
      }

      .cls-34 {
        fill: #ce6d35;
      }

      .cls-35 {
        fill: #cb6b31;
      }

      .cls-36 {
        fill: #aa9b41;
      }

      .cls-37 {
        fill: #cd6b34;
      }

      .cls-38 {
        fill: #d07338;
      }

      .cls-39 {
        fill: #ce7135;
      }

      .cls-40 {
        fill: #eab84b;
      }

      .cls-41 {
        fill: #db5937;
      }

      .cls-42 {
        fill: #cf7139;
      }

      .cls-43 {
        fill: #cf713a;
      }

      .cls-44 {
        fill: #cc6830;
      }

      .cls-45 {
        fill: #ce6d37;
      }

      .cls-46 {
        stroke-width: .5px;
      }

      .cls-46, .cls-3 {
        stroke: #000;
      }

      .cls-46, .cls-3, .cls-4 {
        stroke-miterlimit: 10;
      }

      .cls-47 {
        fill: #c76630;
      }

      .cls-48 {
        fill: #d06f38;
      }

      .cls-49 {
        fill: #ba9f77;
      }

      .cls-50 {
        fill: #c45e50;
      }

      .cls-51 {
        fill: #de9254;
      }

      .cls-52 {
        fill: #cc6931;
      }

      .cls-53 {
        fill: #cb6a2f;
      }

      .cls-2 {
        stroke-linecap: round;
        stroke-linejoin: round;
      }

      .cls-2, .cls-4 {
        stroke: #1d2b3b;
      }

      .cls-54 {
        fill: #f1a353;
      }

      .cls-55 {
        fill: #ce6c36;
      }

      .cls-56 {
        fill: #d78e5e;
      }

      .cls-57 {
        fill: #c9672f;
      }

      .cls-58 {
        fill: #cc6832;
      }

      .cls-59 {
        fill: #ce6c32;
      }

      .cls-60 {
        fill: #c86630;
      }

      .cls-61 {
        fill: #4f3e4e;
      }

      .cls-62 {
        fill: #ce6c35;
      }

      .cls-63 {
        fill: #cf6e37;
      }

      .cls-64 {
        fill: #cf6e35;
      }

      .cls-4 {
        stroke-width: .75px;
      }

      .cls-65 {
        fill: #93371e;
      }

      .cls-66 {
        fill: #c96a33;
      }

      .cls-67 {
        fill: #cc6b32;
      }

      .cls-68 {
        fill: #c39b41;
      }

      .cls-69 {
        fill: #cd6d35;
      }

      .cls-70 {
        fill: #cd6b35;
      }

      .cls-71 {
        fill: #cd6b30;
      }
    </style>
  </defs>
  <g id="_中景植物" data-name="中景植物">
    <g>
      <g>
        <path class="cls-41" d="M57.91,442.26c-9.98.68-17.69,9.59-20.88,19.07-3.19,9.48-3,19.7-4.17,29.63,1.86,4.25,2.49,7.77,3.67,12.27,1.18,4.49,3.2,9.07,7.07,11.64,2.94,1.96,6.56,2.51,9.87,3.75-.72-6.52-1.13-13.07-1.24-19.63-.32-19.27,2.08-37.79,5.69-56.73Z"/>
        <path class="cls-31" d="M113.5,514.14c-.68,2.64-1.42,5.33-2.93,7.6-1.95,2.92-5.04,4.92-8.28,6.27-10.27,4.28-21.92,2.72-32.91,1.03-7.15-1.1-15.4-3.02-18.43-9.59-1.14-2.46-1.33-5.24-1.47-7.95-1.47-28.38,1.08-56.97,7.54-84.64,1.44-6.17,3.08-12.32,5.53-18.17,4.12-9.87,10.74-18.96,19.9-24.48,9.16-5.52,21.04-7.04,30.7-2.47,9.05,4.28,15.42,14.4,14.45,24.51s-2.08,20.23-2.54,30.68c-1.15,26.05-5.02,51.98-11.54,77.22Z"/>
        <path class="cls-28" d="M121.94,371.4c-9.12-.62-18.26-.91-27.4-.87-7.94.04-16.37.47-22.95,4.93-7.1,4.81-10.64,13.39-12.56,21.74-1.93,8.36-2.67,17.06-5.98,24.97-1.58,3.77.41,8.83.59,12.91,2.89,1.73,6.49-.35,9.17-2.37,19.75-14.9,38.55-31.05,56.25-48.33,1.93-1.88,3.91-3.89,4.71-6.47s.85-6.34-1.84-6.52Z"/>
        <path class="cls-68" d="M59,461.91c11.52-.16,23.04-.32,34.56-.48,0-5.77,0-11.54,0-17.31-8.73.3-19.36-.99-27.86.96-7.54,1.73-6.97,9.78-6.71,16.84Z"/>
        <path class="cls-32" d="M60.63,502.99c9.46.32,18.9-.74,28.3-1.8.84-.09,1.71-.2,2.44-.63,1.74-1.04,1.95-3.42,1.98-5.45.1-8.81.2-17.62.31-26.44-7.32.01-27.21-3.66-33,1.25-3.23,2.74-1.67,33.07-.03,33.07Z"/>
      </g>
      <path class="cls-29" d="M224.93,392.77c.55-3.26,1.1-6.52,1.66-9.79.59-3.51,1.28-7.23,3.65-9.89.24-.27.53-.54.89-.56.71-.03,1.02.88,1.03,1.59.04,2.34-.48,5.36,1.6,6.44,1.44-6.64,2.88-13.28,4.32-19.92,1.63-.93,3.55,1.03,3.74,2.89s-.53,3.75-.25,5.6c.24-1.27.48-2.55.73-3.82.2-1.04.43-2.15,1.2-2.88s2.25-.79,2.73.16c.31,2.96.63,5.93.94,8.89-.66-2.5.34-5.35,2.42-6.88,1.62,2.88,2.04,6.42,1.12,9.6.51-1.2,1.02-2.39,1.52-3.59,1.96,9.45-2.34,19.09-7.72,27.1-1.42,2.12-3.45,4.43-5.99,4.1"/>
      <path class="cls-33" d="M132.44,386.75c-6.53,7.6-7.59,18.87-4.56,28.43,3.04,9.55,9.64,17.6,17.03,24.37s15.68,12.5,23.24,19.08c3.9,3.39,7.88,7.15,12.94,8.19,3.94.81,7.89-2.23,11.06-4.71,20.59-16.12,39.42-34.46,51.82-57.49.35-.65.71-1.35.68-2.1-.04-.91-.64-1.69-1.27-2.34-5.12-5.29-13.63-6.58-17.99-12.51-11.49,13-24.81,24.37-39.46,33.66-7.9-10.23-16.62-19.83-26.06-28.66-3.63-3.39-7.47-6.74-12.11-8.51-4.64-1.76-12.08-1.17-15.32,2.59Z"/>
      <path class="cls-26" d="M230.88,682.73l-28.76,10.49c5.02,11.42,10.31,22.72,15.87,33.88,7.72-2.68,15.43-5.35,23.15-8.03.57-.2,1.21-.45,1.46-1,.23-.51.06-1.09-.12-1.62-3.73-11.28-7.67-22.5-11.6-33.72Z"/>
      <path class="cls-50" d="M179.09,610.46c9.49-2.37,18.35-5.69,26.59-10.7-.32-1.57-.61-3.07-.85-4.39-.96-5.28-2.54-10.44-4.71-15.34l-11.31-9.13c-6.07,2.16-12.13,4.31-18.2,6.47-1.69.6-4.35-.25-5.89.66-1.29.75-2.57,1.5-3.86,2.26.23,1.23.31,2.47.69,3.66.55,1.72.59,3.68,1.61,5.17,1.61,2.36,2.4,5.89,3.42,8.56,1.52,3.99,2.95,7.83,4.22,11.91.02.08.05.16.07.23,2.65.35,5.37,1.18,8.22.67Z"/>
      <path class="cls-25" d="M230.88,682.73c-8.27-23.59-16.5-47.2-22.61-71.41-.82-3.26-1.8-7.64-2.6-11.57-8.23,5.01-17.09,8.33-26.59,10.7-2.85.52-5.57-.31-8.22-.67,8.84,28.37,19.28,56.24,31.25,83.44l28.76-10.49Z"/>
      <path class="cls-49" d="M50.18,701.62c-.59.86-1.22,1.88-.92,2.89.24.81,1.02,1.33,1.74,1.77,6.85,4.23,13.7,8.46,20.55,12.7,8.06-9.5,16.12-19,24.17-28.49l-24.34-19.58c-7.07,10.24-14.14,20.48-21.21,30.72Z"/>
      <path class="cls-27" d="M113.6,599.22c-2.75,4.58-3.23,10.84-5.37,15.76-2.96,6.8-7.19,12.98-11.39,19.06-8.48,12.29-16.97,24.58-25.45,36.86l24.34,19.58c3.84-4.53,7.69-9.06,11.53-13.59,11.18-13.18,22.48-26.54,29.97-42.11,6.13-12.75,9.53-26.61,12.88-40.36-9.89-.7-30.41-5.37-36.51,4.8Z"/>
      <path class="cls-23" d="M101.67,597.4c.04.98.09,2.02.66,2.83.75,1.06,2.17,1.42,3.46,1.68,18.27,3.75,36.94,5.64,55.61,5.61,3.12-34.4,5.21-68.89,6.24-103.41,0,.23-37.25,2.69-40.61,3-8.33.76-23.3-1.36-25.49,8.38-2.76,12.26-.64,27.68-.63,40.23.01,13.9.27,27.8.77,41.69Z"/>
      <path class="cls-14" d="M177.58,504.1c11.03,28.02,17.98,55.75,30.67,83.15.09.19-.19.49-.19.69,0,4.67-5.68,6.95-10.22,8.86-25.63,10.76-54.32,12.72-82.34,14.52,1.07-19.62-.76-39.27-2.6-58.84-1.5-15.99-3-31.97-4.5-47.96,21.07-.72,48.23,1.9,69.17-.42Z"/>
      <g>
        <path class="cls-61" d="M42.95,705.49l-20.07,20.55,48.51,40.71s7.03-3.32,4.81-13.77c-2.22-10.44-10.08-14.9-10.07-22.08.01-7.18,7.22-12.07,7.22-12.07l-22.55-21.56-7.86,8.22Z"/>
        <rect class="cls-22" x="15.09" y="743.65" width="64.22" height="5.87" transform="translate(490.94 144.33) rotate(40)"/>
      </g>
      <g>
        <path class="cls-14" d="M218.91,736.81l7.71,27.66,59.54-21.56s.65-7.75-9.5-11.07c-10.15-3.32-17.95,1.25-24.15-2.36-6.21-3.61-6.82-12.3-6.82-12.3l-29.96,8.7,3.17,10.93Z"/>
        <rect class="cls-22" x="224.48" y="750.81" width="64.22" height="5.87" transform="translate(-241.29 132.39) rotate(-19.91)"/>
      </g>
      <path class="cls-29" d="M187.06,303.71c3.22,3.96,5.14,8.96,5.39,14.06.09,1.79-.02,3.62.43,5.36.45,1.74,1.62,3.43,3.36,3.88.73.19,1.53.15,2.22.45,1.46.64,1.88,2.59,1.47,4.13-.41,1.54-1.43,2.83-2.15,4.25-1.76,3.46-1.74,7.51-2.09,11.38-.35,3.87-1.29,8.04-4.3,10.49-1.86,1.52-4.27,2.17-6.62,2.62-3.97.76-8.02,1.08-12.05.94-.91-.03-1.89-.07-2.66.42-.62.4-.99,1.07-1.33,1.72-2.42,4.61-4.54,9.39-6.32,14.29-7.93-.62-15.68-3.4-22.2-7.94-.59-.41-1.2-.87-1.43-1.55-.3-.84.07-1.76.43-2.57,1.98-4.42,4.16-8.76,6.55-12.98-2.18-1.88-4.47-3.9-6.65-5.79-9.42-8.14-14.78-21.28-11.61-33.32,3.17-12.04,13.98-21.61,26.27-23.58s25.43,4.09,33.29,13.74Z"/>
      <path class="cls-11" d="M190.34,304.28c2.87,1.99,5.95,4.87,5.36,8.31-.69,4-5.61,5.4-9.62,5.98-4.95.71-9.9,1.42-14.85,2.13-.46.07-.97.15-1.28.5-.37.4-.36,1-.38,1.55-.22,6.11-5.91,10.4-11.03,13.74.12-1.96.23-3.96-.32-5.85-.54-1.89-1.87-3.66-3.76-4.2-2.85-.8-5.82,1.61-6.68,4.45s-.17,5.89.61,8.75c.45,1.63,2.7,2.75,4.37,3.03-.13.25-.28.83-.41,1.08-.11.23.04.15.04.4,0,2.54-1.59,4.77-2.88,6.96-1.29,2.19-3.21,4.11-5.63,4.88-2.42.77-5.36.18-6.93-1.81.36-1.22.72-2.59.55-3.85-.17-1.26-1.03-2.52-2.29-2.73-3.41-.56-6.41-3.95-8.11-6.97-1.69-3.02-2.56-6.43-3.11-9.85-.18-1.12.55-2.63,1.36-3.43,4.36-17.26,20.74-31.55,38.44-33.45,9.89-1.06,18.39,4.7,26.56,10.37Z"/>
      <path class="cls-11" d="M185.62,342.33c-.26.35-.11.88.22,1.18s.77.41,1.2.49c1.22.24,2.46.35,3.7.31,1.58-.05,4.36-1.59,1.55-1.91-.3-.03-6.96.33-6.67-.07Z"/>
      <path class="cls-1" d="M131.11,288.56c-7.95,9.05-12.14,21.31-11.38,33.33.21,3.27.83,6.67,2.86,9.24,2.96-.4,5.93-.81,8.89-1.21"/>
      <path class="cls-51" d="M155.9,277.9c-14.75.5-28.66,10.27-34.62,23.77-3.66,8.29-4.4,18.19-.4,26.32.51,1.03,1.19,2.11,2.3,2.43.8.23,1.65,0,2.45-.22,28.55-7.97,56.85-16.83,84.84-26.58,1.34-.47,2.74-.97,3.71-2.01s1.34-2.79.42-3.88c-2.26-2.68-16.72,3.02-20,2.68-4.94-.51-6.19-6.08-9.34-9.66-7.27-8.26-18.33-13.23-29.35-12.85Z"/>
      <path class="cls-36" d="M110.95,379.88c-6.97,37.34-11.57,75.12-13.78,113.04-.62,10.61-.61,21.71-.95,32.33-.03.91-.01,1.94.66,2.55.6.55,1.5.56,2.32.54,28.17-.72,56.34-1.44,84.51-2.16.56-.01,1.18-.05,1.57-.45.4-.41.42-1.05.42-1.62-.36-36.21-.72-40.41-1.07-76.61-.09-9.29,1.6-.41,0-9.57-.53-3.02-9.83-54.13-11.33-56.81-3.15-5.61-3.21-11.15-9.44-12.76-17.87-4.61-38.2.34-52.9,11.51Z"/>
      <g>
        <g>
          <line class="cls-3" x1="116.54" y1=".5" x2="116.37" y2=".5"/>
          <g>
            <line class="cls-3" x1="116.54" y1=".5" x2="116.54" y2=".47"/>
            <line class="cls-3" x1="116.37" y1=".5" x2="116.37" y2=".47"/>
          </g>
        </g>
        <g>
          <g>
            <text class="cls-9" transform="translate(116.54 .69)"><tspan x="0" y="0">0,0</tspan></text>
            <text class="cls-9" transform="translate(116.54 .9)"><tspan x="0" y="0">0,2</tspan></text>
            <text class="cls-9" transform="translate(116.54 1.12)"><tspan x="0" y="0">0,4</tspan></text>
            <text class="cls-9" transform="translate(116.54 1.34)"><tspan x="0" y="0">0,6</tspan></text>
            <text class="cls-9" transform="translate(116.54 1.56)"><tspan x="0" y="0">0,8</tspan></text>
            <text class="cls-9" transform="translate(116.54 1.77)"><tspan x="0" y="0">1,0</tspan></text>
          </g>
          <line class="cls-3" x1="116.54" y1=".5" x2="116.54" y2="1.58"/>
          <g>
            <line class="cls-3" x1="116.54" y1=".5" x2="116.54" y2=".5"/>
            <line class="cls-3" x1="116.54" y1=".72" x2="116.54" y2=".72"/>
            <line class="cls-3" x1="116.54" y1=".93" x2="116.54" y2=".93"/>
            <line class="cls-3" x1="116.54" y1="1.15" x2="116.54" y2="1.15"/>
            <line class="cls-3" x1="116.54" y1="1.37" x2="116.54" y2="1.37"/>
            <line class="cls-3" x1="116.54" y1="1.58" x2="116.54" y2="1.58"/>
          </g>
        </g>
        <rect class="cls-46" x="116.39" y=".5" width=".12" height="1.08"/>
      </g>
      <g>
        <path class="cls-54" d="M135.61,583.31c-.56,2.34-1.84,4.28-2.76,6.36l-19.84,44.99c-4.11,9.5-103.58-20.79-103.58-20.79-6.44-1.83-8.02-6.41-7.58-12.22l2.95-39.33c.28-3.77,1.52-8.08-.41-11.12l1.63-1.62c42.78,11.23,85.75,21.74,128.9,31.52l.69,2.2Z"/>
        <path class="cls-45" d="M107.15,624.27c-2.76-.3-4.32-4.85-5.29-6.75l6.87-4.08,6.21,7.4-7.79,3.43Z"/>
        <path class="cls-7" d="M32.42,583.46c-3.03-.44-4.4-5.08-5.57-6.88l7.04-3.9,5.89,8.17c-2.19.67-4.55,3.02-7.36,2.61Z"/>
        <path class="cls-20" d="M74.81,601.63c-2.74-.11-4.43-4.55-5.45-6.53l7.29-3.23c2.71.58,4.79,4.36,5.87,6.74-2.29,1-4.81,3.13-7.7,3.01Z"/>
        <path class="cls-42" d="M52.86,574.34c-2.6-2.29-4.65-4.87-6.64-7.82,5.61-3.58,11.63-.65,14.68,4.14l-8.04,3.67Z"/>
        <path class="cls-58" d="M89.59,619.88c-2.37.16-4.61-4.19-5.68-6.05,2.32-2.19,4.64-3.37,7.49-4.44l5.29,6.81c-1.92,1.04-3.9,3.45-7.1,3.68Z"/>
        <path class="cls-62" d="M96.73,629.75c-2.59-.55-4.19-4.34-5.56-6.48l7.84-3.91c1.98,2.32,3.49,4.53,4.51,7.34-1.61,1.38-4.12,3.62-6.79,3.06Z"/>
        <path class="cls-70" d="M79.01,626.12c-2.56-2.04-3.97-4.25-5.96-6.84,2.65-1.96,4.79-3.24,7.77-4.21l5.29,6.85-7.1,4.2Z"/>
        <path class="cls-16" d="M11.86,594.52c-1.98.16-4.82-4.71-4.07-6.54.87-2.14,3.85-3.18,5.75-3.88,2.3,1.98,3.84,4.02,5.4,6.81-1.79,1.09-3.92,3.31-7.08,3.61Z"/>
        <path class="cls-13" d="M25.57,613.26c-2.66.19-4.88-4.37-5.14-6.45,2.42-1.69,4.14-2.9,6.81-3.65,2.23,1.95,3.7,4.22,4.66,6.8-1.77,1.21-3.49,3.1-6.33,3.3Z"/>
        <path class="cls-55" d="M112.23,595.33c-2.45-1.71-3.62-4.01-5.48-6.15l7.43-4.71c2.39,1.8,3.88,4.32,5.23,6.72l-7.18,4.13Z"/>
        <polygon class="cls-19" points="53.87 612.39 48.35 605.51 56.26 601.68 60.87 608.39 53.87 612.39"/>
        <path class="cls-69" d="M60.85,583.11c-2.69.21-4.83-3.98-5.8-6.22l8.03-3.56,4.85,6.15c-1.85.97-3.92,3.39-7.08,3.63Z"/>
        <path class="cls-60" d="M42.91,578.45c-2.85-.84-4.75-4.62-5.83-6.95,1.18-1.52,4.06-3.45,5.72-2.67,2.89,1.35,4.64,4.33,6.54,6.98-1.33,1-3.99,3.36-6.42,2.64Z"/>
        <path class="cls-8" d="M43.45,616.81c-2.57-.16-4.26-3.68-5.65-5.73,2.12-1.81,4.81-2.94,7.92-3.56l4.77,6.09c-1.83,1.44-4.04,3.38-7.05,3.2Z"/>
        <path class="cls-45" d="M78.41,587.68l-5.54-6.81,7.29-3.67c2.25,1.89,3.9,4.21,5.24,6.65l-6.99,3.83Z"/>
        <path class="cls-24" d="M22.1,588.85c-2.66-.82-3.89-4.88-4.97-6.81l6.39-3.54c1.77,2.33,4,4.15,5.15,7.14-1.44,1.23-4.3,3.91-6.58,3.21Z"/>
        <path class="cls-48" d="M35.7,607.44c-2.3-.49-4.19-3.94-5.3-5.99l7.9-4,5.04,6.79-7.63,3.2Z"/>
        <path class="cls-43" d="M67.92,591.99c-2.64.28-4.5-3.38-5.64-5.6,2.19-1.74,4.84-3.02,7.98-3.78l4.72,5.78c-1.88,1.06-3.97,3.27-7.06,3.6Z"/>
        <path class="cls-64" d="M99.38,614.73l-5.13-6.62,6.7-3.88c2.43,1.79,4.25,4,5.63,6.76-2.26,1.82-3.99,2.55-7.2,3.75Z"/>
        <path class="cls-15" d="M118.53,603.84l-4.72-5.92c2.9-2.02,5.55-3.33,8.63-4.22l4.12,5.2c-2.26,2.11-4.65,3.25-8.03,4.93Z"/>
        <path class="cls-6" d="M60.8,621.01c-2.43-.14-4.02-3.96-4.83-6.03,2.13-1.88,4.47-2.59,7.18-3.44l4.73,6.32c-1.92,1.44-4.06,3.32-7.09,3.15Z"/>
        <path class="cls-17" d="M82.32,610.5c-2.19.35-4.4-3.72-5.29-5.27l7.5-4.43c1.84,1.64,3.65,3.36,4.56,6.01-1.95,1.31-3.83,3.23-6.78,3.7Z"/>
        <path class="cls-48" d="M70.58,616.29l-3.93-6.4,6.99-3.72,4.98,6.09c-2.48,2.18-4.92,2.91-8.04,4.03Z"/>
        <path class="cls-7" d="M28.83,598.05c-2.51-.16-3.74-3.8-4.82-5.75,1.99-1.51,4.13-2.96,6.9-3.93l4.94,6.29c-1.88,1.27-4.12,3.57-7.02,3.39Z"/>
        <path class="cls-18" d="M46.45,601.89c-2.42-.68-3.57-4.11-5.29-5.97l7.16-3.28c2.26,1.72,3.87,3.59,4.82,6.31-1.55,1.24-4.25,3.63-6.69,2.94Z"/>
        <path class="cls-67" d="M39.06,592.78c-2.11-.55-3.26-4-4.47-6.08,1.9-.8,4.42-2.79,6.96-2.81,2.09.34,3.75,3.99,4.45,6.15-1.68,1.39-4.75,3.31-6.95,2.74Z"/>
        <path class="cls-52" d="M85.38,596.69l-5.14-6.49,7.36-3.38c2.35,1.72,3.84,3.72,4.94,6.52l-7.16,3.36Z"/>
        <path class="cls-15" d="M64.42,606.91c-2.39-1.71-3.87-3.83-5.11-6.49,2.18-1.71,4.15-2.3,6.7-3.12,2.12,1.91,3.88,4.13,5.16,6.62l-6.76,3Z"/>
        <path class="cls-35" d="M8.87,608.93c-2.08-.42-4.14-3.75-3.7-5.55.37-1.52,3.94-3.71,5.44-3.26,1.68.5,4.15,3.39,4.35,5.3.18,1.76-3.9,3.95-6.08,3.51Z"/>
        <path class="cls-47" d="M18.39,604.41c-1.01-1.66-3.46-3.9-3.79-6.26.2-2.28,4.29-3.73,6.26-3.88l4.5,5.92-6.98,4.22Z"/>
        <path class="cls-57" d="M49.78,587.81c-2.66-.35-4-4.21-4.79-5.81,1.98-1.34,4.49-3.32,6.81-2.8,2.29.52,3.62,4.08,4.5,5.69-1.84,1.17-3.9,3.28-6.52,2.93Z"/>
        <path class="cls-63" d="M109.88,608.6c-2.29.05-4.18-3.84-5.42-5.57l6.16-4.03c1.96,1.86,3.57,3.82,5.11,6.59-1.39.69-3.15,2.95-5.85,3.01Z"/>
        <path class="cls-34" d="M56.88,597.17c-2.58-.97-3.87-4.28-4.92-6.31l6.66-2.95c2.17,1.91,3.89,3.65,4.91,6.54-1.91,1.01-4.47,2.64-6.65,2.72Z"/>
        <path class="cls-44" d="M92.93,604.92c-2,.32-4.02-3.27-5.22-5.14,1.91-1.64,4.19-2.94,6.84-4.02,1.96,1.8,3.31,3.43,4.82,5.79-1.72.92-3.5,2.89-6.44,3.37Z"/>
        <polygon class="cls-21" points="24.89 574.33 19.84 567.53 27.13 564.03 31.33 570.33 24.89 574.33"/>
        <path class="cls-37" d="M102.76,599.83c-2.33-.46-3.99-3.76-5.33-5.71,1.45-1.35,4.27-3.43,6.52-2.88,2.44.61,3.77,3.84,4.69,5.51-1.78,1.07-3.26,2.67-5.87,3.08Z"/>
        <path class="cls-53" d="M71.35,578.17c-2.37-1.96-3.94-4.25-5.47-6.32,2.39-1.29,4.79-2.5,6.84-1.76,2.2.79,4.34,2.84,5.6,4.8l-6.97,3.28Z"/>
        <path class="cls-10" d="M14.93,578.75c-1.74-.11-3.34-3.89-3.78-5.57,1.35-1.36,4.05-3.69,5.89-3.24,1.99.48,3.38,3.76,3.89,5.67-1.42,1.29-3.46,3.31-5.99,3.15Z"/>
        <path class="cls-5" d="M122.34,588.97c-2.11-.25-3.54-4.09-4.17-5.52,4.44-2.07,9.13-.26,13.09,1.53-2.46,2.34-5.6,4.39-8.91,3.99Z"/>
        <path class="cls-59" d="M105.87,585.66c-2.35.48-4.87-3.49-5.37-6.01,3.75-2.66,8.66-.87,11.98,2.35-1.91,1.21-3.62,3.05-6.61,3.66Z"/>
        <path class="cls-38" d="M94.38,579.32c-.31,1.49-3.99,3.27-5.4,2.67-1.97-.84-4.81-4.05-4.46-6.13.32-1.92,4.13-2.05,5.41-1.31,1.44.84,4.82,2.63,4.45,4.76Z"/>
        <path class="cls-69" d="M95.41,590.69c-2.33-.69-3.4-4.08-4.16-5.57,1.46-1.28,3.95-3.19,5.65-2.66,2.26.72,3.98,3.7,4.72,5.72-1.59,1.11-4.13,3.13-6.2,2.51Z"/>
        <path class="cls-66" d="M8.6,570.68c-1.38-1.84-2.29-4.48-1.97-6.97.13-1.04,2.63-2.61,3.71-2.54,2.24.78,3.67,3.37,4.54,5.69-1.81,1.68-3.17,2.49-6.29,3.82Z"/>
        <path class="cls-71" d="M35.13,568.25c-2.45-.74-3.72-3.78-4.93-5.18,1.93-1.91,3.89-2.64,5.9-1.97,1.61.54,5.05,2.55,4.39,4.37-1.05,1.24-3.81,2.87-5.35,2.78Z"/>
        <path class="cls-30" d="M19.04,564.32c-1.71.4-5.13-3.54-4.11-4.96,1.12-1.47,3.9-2.12,5.16-2.18,1.73-.08,3.91,1.89,4.5,3.94-1.46,1.25-3.09,2.63-5.55,3.2Z"/>
        <path class="cls-39" d="M12.25,581.31c-1.82,2.12-3.62,2.85-5.88,3.84-.78-3.58-1.32-7.18,1.15-10.75,2.22,1.86,3.02,4.1,4.73,6.91Z"/>
        <path class="cls-12" d="M116.63,617.51c-1.78-1.44-3.06-3.02-4.41-5.5l6.06-3.46c.47.06,1.33.87,2.09,1.56-.73,2.26-1.66,4.27-3.74,7.4Z"/>
        <rect class="cls-65" x="-2.01" y="557.77" width="147.31" height="9.01" rx="4.5" ry="4.5" transform="translate(136.81 -.79) rotate(13.86)"/>
        <rect class="cls-56" x="3.4" y="557.88" width="138.3" height="1.38" rx=".69" ry=".69" transform="translate(135.95 -1.11) rotate(13.86)"/>
        <path class="cls-65" d="M39.43,554.32s17.78-42.81,41.44-36.97c23.66,5.84,22.19,52.67,22.19,52.67l-12.21-3.01s6.77-36.5-12.08-41.15c-18.84-4.65-27.38,31.42-27.38,31.42l-11.97-2.95Z"/>
      </g>
      <path class="cls-25" d="M74.12,507.56c-1.75,5.36-3.5,10.72-5.25,16.08-.37,1.12-.58,2.66.47,3.21.32.17.7.19,1.05.29,1.21.36,1.85,1.63,2.55,2.68.7,1.05,1.93,2.07,3.1,1.59.68-.28,1.13-1.02,1.86-1.19,1.91-.43,2.86,3.32,4.75,2.81.63-.17,1.07-.81,1.71-.95,1.35-.28,2.7,1.76,3.81.94,1.36-2.39,2.41-4.96,3.1-7.62.46.42,1.5-.13,1.84-.65s.38-1.18.39-1.8c.05-2.29.1-4.58.16-6.86.04-1.73-.04-3.74-.45-5.42-.41-1.68-1.49-3.29-3.12-3.89-.57-.21-1.17-.28-1.77-.35-1.88-.23-3.78-.46-5.67-.39-2.8.11-5.76,1.08-8.52,1.53Z"/>
      <path class="cls-40" d="M173.86,376.53c2.6-.02,4.24-2.8,2.76-4.93-1.15-1.65-2.6-3.18-4.09-4.51-14.11-12.63-33.89-18.08-53.23-20.62-3.54-.47-7.26-.83-10.62.32s-6.21,4.3-5.67,7.61c.52,3.13,3.8,6.2,2.13,8.95-.55.9-1.53,1.48-2.4,2.13-4.66,3.44-6.64,9.33-6.52,14.89.1,4.68,1.49,9.22,3.07,13.67.52,1.47,2.04,2.33,3.56,2.04,8.6-1.62,16.96-4.32,24.8-8.01,9.76-4.59,21.65-8.18,32.43-9.83,2.06-.32,4.13-.56,6.19-.81,2.44-.3,4.89-.59,7.33-.89.08,0,.16-.01.24-.01Z"/>
      <path class="cls-40" d="M166.16,374.2c6.03,21.74,5.31,44.57,2.61,66.76-.76,6.27-1.7,12.52-2.7,18.76-.21,1.33.34,2.68,1.74,3.06,1.19.33,2.85-.4,3.06-1.74,3.64-22.71,6.58-45.94,3.82-68.92-.78-6.5-1.98-12.94-3.73-19.25-.85-3.08-5.66-1.77-4.8,1.32h0Z"/>
      <path class="cls-31" d="M96.21,419.09c-.74-10.56,15.98-32.43,23.84-39.53s20.24-9.33,29.46-4.11c8,4.53,12.51,13.72,13.51,22.86,1,9.14-1.03,18.32-3.42,27.19-2.92,10.81-6.55,21.75-13.59,30.45-7.55,9.33-18.88,15.51-30.82,16.8-8,1.37-19.18.24-24.43-2.06-5.55-2.42,2.82-8.25,2.8-9.28-.05-2.06,12.03.48,21.48-.44,14.41-2.43,27.49-11.78,34.45-24.63,6.97-12.84,7.67-28.91,1.85-42.31-1.87-4.3-4.71-8.62-9.14-10.15-6.83-2.36-13.98,2.88-18.2,8.75-4.22,5.87-21.76,22.47-27.79,26.45Z"/>
      <path class="cls-40" d="M125.32,384.14c3.32-2.48,6.93-4.99,11.07-5.24,6.04-.36,11.55,4.58,13.12,10.42s-.2,12.17-3.41,17.3c-3.21,5.12-7.76,9.25-12.25,13.29-8.62,7.76-17.29,15.48-25.37,23.81-3.01,3.11-5.97,6.34-8.09,10.12-3.31,5.91-4.37,12.78-5.12,19.51-1.42,12.75-1.94,25.61-1.55,38.44-6.07-.09-12.15-.18-18.22-.27-.95-.01-2.01-.07-2.69-.73-.6-.58-.75-1.47-.87-2.3-1.56-10.93-2.9-21.89-4.02-32.87-.68-6.65-.03-12.77.6-19.31.69-7.17-.32-14.91,3.43-21.42,3.62-6.29,9.95-11.15,15.09-16.12,12.36-11.96,24.46-24.29,38.27-34.63Z"/>
      <ellipse class="cls-11" cx="182.91" cy="325.99" rx="1.64" ry="2.58"/>
      <path class="cls-11" d="M178.25,321.84c.27-.48.58-.94.91-1.39.04-.05.07-.1.11-.14.03-.04.16-.2.02-.02-.15.19,0,0,.04-.05.05-.06.09-.12.14-.17.17-.21.35-.41.54-.61.2-.21.4-.42.62-.61.1-.09.21-.18.32-.27.18-.15-.13.09-.06.05s.13-.09.19-.14c.25-.18.52-.32.8-.46.13-.07-.28.11-.14.06.03-.01.07-.03.1-.04.07-.03.14-.05.21-.07.13-.04.66-.12.17-.06.34-.04.63-.11.88-.36.22-.22.38-.57.36-.88-.03-.6-.55-1.33-1.24-1.24-.75.1-1.43.31-2.07.7-.58.35-1.12.79-1.6,1.27-.79.79-1.48,1.69-2.09,2.63-.12.18-.23.37-.34.56-.32.57-.16,1.38.45,1.7s1.36.16,1.7-.45h0Z"/>
      <path class="cls-23" d="M239.89,361.65c-3.06-.56-6.09.74-8.25,3.19,4.72.56,9.44,1.05,14.16,1.26-1.29-2.31-3.36-3.98-5.9-4.45Z"/>
      <path class="cls-28" d="M231.63,364.84c-1.41,1.6-2.47,3.68-2.9,6.07-1.11,6.04,2.08,11.7,7.13,12.63,5.05.93,10.05-3.22,11.16-9.26.55-3,.04-5.9-1.23-8.17-4.72-.21-9.44-.7-14.16-1.26Z"/>
      <line class="cls-4" x1="237.87" y1="364.84" x2="235.86" y2="383.54"/>
      <ellipse class="cls-23" cx="237.62" cy="366.51" rx="2.3" ry="1.66"/>
      <circle class="cls-23" cx="245.79" cy="370.7" r="1"/>
      <circle class="cls-23" cx="241.5" cy="380.13" r="1"/>
      <circle class="cls-23" cx="241.5" cy="374.1" r="1.54"/>
      <circle class="cls-23" cx="231.02" cy="369.04" r="1"/>
      <circle class="cls-23" cx="232.02" cy="379.12" r="1"/>
      <circle class="cls-23" cx="232.67" cy="373.83" r="1.54"/>
      <polyline class="cls-2" points="236.86 360.41 237.87 363.19 241.5 360.41"/>
    </g>
  </g>
</svg>