<?xml version="1.0" encoding="UTF-8"?>
<svg id="Layer_2" data-name="Layer 2" xmlns="http://www.w3.org/2000/svg" viewBox="0 0 264 574.43">
  <defs>
    <style>
      .cls-1 {
        fill: #34636d;
      }

      .cls-2 {
        fill: #283951;
      }

      .cls-3 {
        fill: #a44c3c;
      }

      .cls-4 {
        fill: #db816a;
      }

      .cls-5 {
        fill: #1d2b3b;
      }

      .cls-6 {
        fill: #3a7151;
      }

      .cls-7 {
        fill: #a85d4e;
      }

      .cls-8 {
        fill: #39596a;
      }

      .cls-9 {
        fill: #2a4b5f;
      }

      .cls-10 {
        fill: #522e30;
      }

      .cls-11 {
        fill: #bf5d3f;
      }

      .cls-12 {
        fill: #d09145;
      }

      .cls-13 {
        fill: #4f7190;
      }

      .cls-14 {
        fill: #f1bf5d;
      }

      .cls-15 {
        fill: #68854f;
      }

      .cls-16 {
        fill: #f6c870;
      }

      .cls-17 {
        fill: none;
        stroke: #a85d4e;
        stroke-miterlimit: 10;
      }

      .cls-18 {
        fill: #222e42;
      }

      .cls-19 {
        fill: #e18770;
      }
    </style>
  </defs>
  <g id="_人物" data-name="人物">
    <g>
      <path class="cls-19" d="M57.34,95.86c-3.65-5.99-7.41-12.11-12.95-16.4-1.33-1.03-3.03-1.98-4.61-1.41-.83.3-1.48.98-2.31,1.29-1.69.63-4.12-.24-5.04,1.31-.5.83-.18,1.92-.51,2.83-.79,2.2-4.66,2.18-5.05,4.48-.17,1.01.48,2.08.15,3.05-.19.55-.66.95-.9,1.48-.59,1.28.31,2.72,1.18,3.83,6.48,8.24,13.87,15.77,21.99,22.4.21.17.44.35.71.31.21-.03.39-.19.54-.34,3.4-3.41,6.4-7.22,8.9-11.34,1.12-1.84,2.29-3.16,1.8-5.14s-2.77-4.55-3.87-6.36Z"/>
      <path class="cls-6" d="M172.49,82.7c1.81,3.97,1.89,8.5,1.65,12.86-.79,14.93-4.81,29.69-11.69,42.96-2.41,4.66-4.57,9.43-7.55,13.75-5.89,8.51-11.15,17.47-17.55,25.6-3.92,4.98-8.25,9.93-14,12.59-5.75,2.66-13.28,2.46-17.7-2.08-21.38-21.95-43.48-43.35-59.82-69.27,4.5-6.77,9.7-13.07,15.51-18.77,16.25,14.95,33.36,28.96,51.21,41.94,1.86-16.21,7.03-32.03,15.11-46.21,3.55-6.24,7.76-12.27,13.5-16.59s14.42-6.19,21.26-4.02"/>
      <g>
        <path class="cls-3" d="M236.12,503.45l18.91,34.93-67.93,32.26s-7.49-6.25-1.48-18.24c6.01-11.99,16.98-14.92,19.25-23.65s-.09-16.69-.09-16.69l28.03-13.32,3.31,4.69Z"/>
        <rect class="cls-10" x="182.77" y="551.06" width="76.32" height="7.36" transform="translate(658.51 961.02) rotate(154.59)"/>
      </g>
      <g>
        <path class="cls-3" d="M114.19,524.4l2.09,39.67H41.08s-4.08-8.86,6.49-17.11c10.57-8.25,21.74-6.19,27.53-13.1s7.08-15.11,7.08-15.11h31.04s.97,5.66.97,5.66Z"/>
        <rect class="cls-10" x="40.3" y="560.53" width="76.32" height="7.36" transform="translate(156.93 1128.42) rotate(-180)"/>
      </g>
      <path class="cls-5" d="M168.19,272.89c-1,21.19-6.46,42.16-15.92,61.15-7.21,14.47-16.71,27.8-22.74,42.81-8.48,21.12-9.63,44.35-10.67,67.09-1.22,26.63-2.44,53.26-3.66,79.89-10.82-.79-21.64-1.57-32.46-2.36-.7-.05-1.49-.14-1.93-.69-.33-.4-.38-.96-.42-1.48-2.27-29.43-4.55-58.85-6.82-88.28-.61-7.93-1.23-15.86-1.15-23.81.22-23.59,6.46-46.66,12.65-69.42,6.13-22.54,12.26-45.08,18.4-67.62"/>
      <path class="cls-9" d="M190.84,363.17c-.54,9.69-1.07,19.51.83,29.03,1.5,7.55,4.49,14.71,7.47,21.82,12.19,29.14,24.38,58.27,36.58,87.41-10.21,4.76-20.42,9.53-30.63,14.29-5.86-7.42-10.59-15.65-15.29-23.85-11.35-19.76-22.7-39.52-34.04-59.29-2.84-4.95-5.7-9.93-7.68-15.28-1.62-4.37-2.64-8.93-3.65-13.48-9.51-42.61-19.02-85.23-28.53-127.84.45,2.02,66.93.75,75.46,8.95,7.25,6.97,2.46,24.56,1.97,33.4-.83,14.95-1.65,29.89-2.48,44.84Z"/>
      <g>
        <path class="cls-18" d="M248.18,97.77c1.91.23,3.86.47,5.57,1.33,2.19,1.1,3.79,3.12,5.02,5.24,4.26,7.33,4.83,16.18,5.05,24.65.22,8.54.18,17.09.15,25.63-.05,10.53-.09,21.06-.14,31.59-.1,23.53-.22,47.23-4.88,70.29-1.11,5.46-2.57,11.1-6.21,15.32-5.97,6.92-16.12,8.28-25.25,7.97-5.94-.2-11.84-.9-17.74-1.6-10.03-1.19-20.05-2.38-30.08-3.57-5.3-.63-11.01-1.45-14.82-5.19-2.41-2.37-3.73-5.64-4.66-8.89-1.49-5.2-2.16-10.6-2.75-15.97-4.52-40.72-5.24-81.86-2.15-122.72.42-5.53.93-11.14,2.91-16.32,1.99-5.18,5.67-9.96,10.81-12.03,10.72-4.33,26.18-.98,37.34-.02,13.96,1.2,27.9,2.63,41.82,4.28Z"/>
        <path class="cls-1" d="M204.47,137.43c-.11,1.54-.16,3.26.86,4.42.96,1.1,2.56,1.33,4.02,1.47,14.29,1.41,28.68,1.78,43.02,1.12.83-.04,1.74-.11,2.36-.66.77-.67.87-1.81.9-2.83.15-4.46.16-8.92.02-13.37-.26-8.51-1.58-18.02-8.3-23.24-4.53-3.52-10.58-4.27-16.32-4.45-7.19-.23-19.32-1.78-23.39,5.75-4.33,8.01-2.56,22.85-3.18,31.78Z"/>
        <path class="cls-8" d="M255.22,152.91c2.35,27.82,1.61,55.91-2.2,83.57-.63,4.6-1.72,9.77-5.69,12.19-2.84,1.73-6.4,1.54-9.71,1.3-9.18-.68-18.37-1.36-27.55-2.03-1.41-11.35-2.08-22.8-2.01-34.24.12-20.52-1.39-40.5-1.99-61.01,0-.33,0-.7.2-.96.24-.29.66-.34,1.03-.37,15.42-1.22,32.59-.5,47.92,1.56Z"/>
        <path class="cls-18" d="M215.32,174.76c-1.35,1.43-.59,3.96,1,5.11s3.68,1.3,5.64,1.41c9.71.54,19.84,1.91,29.51,1.49-.28-9.34-4.73-7.58-12.97-7.69-3.51-.05-21.06-2.56-23.19-.31Z"/>
      </g>
      <path class="cls-4" d="M114.21,18.35c-3.1,2.5-6.09,5.37-7.6,9.06-.61,1.49-.95,3.07-1.5,4.57-2.12,5.82-7.04,10.09-11.76,14.1.43,3.32,3.8,5.25,6.49,7.24.56.41,1.12.87,1.4,1.5.28.63.24,1.34.2,2.02-.25,4.49-.51,8.97-.76,13.46-.14,2.41-.24,4.97.95,7.06,1.17,2.07,3.45,3.33,5.77,3.82s4.74.32,7.11.14c4.15-.31,8.29-.61,12.44-.92.82-.06,1.67-.12,2.46.11,1.94.57,2.96,2.65,3.6,4.56,1.52,4.53,2.17,9.34,1.92,14.11,9.05-.1,17.76-3.24,26.27-6.34.49-.18,1.01-.37,1.34-.78.66-.8.3-1.99-.08-2.96-2.75-6.88-5.49-13.76-8.24-20.65,2.22-.91,3.87-2.8,5.3-4.73,4.22-5.72,7.18-12.44,8.05-19.49s-.43-14.44-4.11-20.52c-7.37-12.2-24.37-17.34-37.57-12.36-4.26,1.61-8.15,4.12-11.68,6.96Z"/>
      <path class="cls-2" d="M173.52,43.57c2.28-9.09.7-19.07-4.26-27.01s-13.25-13.73-22.42-15.67c-8.35-1.76-17-.42-25.53-.05-5.66.25-11.36.06-16.95.98s-11.19,3.09-15.01,7.27c-.91,1-1.72,2.12-2.16,3.4-1.06,3.13.3,6.6,2.27,9.26,5.23,7.04,14.11,10.14,22.5,12.7,8.88,2.71,17.95,5.24,27.23,5.31-1.87,1.84-2.24,4.81-1.6,7.36s2.15,4.78,3.62,6.96c1.41-3.07,4.33-6.24,7.6-5.38,1.36.36,2.46,1.39,3.22,2.58,1.63,2.56,1.74,6.14-.1,8.56s-5.65,3.22-8.09,1.42c.57,1.12,1.27,2.44,1.84,3.56,1.99,3.96,4.32,7.8,7.52,10.87,1.13,1.09,2.37,2.11,3.83,2.71s3.16.73,4.58.06c2.49-1.18,3.33-4.33,3.31-7.08s-.62-5.58.17-8.22c2.3-.01,4.32-1.94,5.4-3.97s1.41-4.36,1.71-6.64c.4-3.02.58-6,1.32-8.96Z"/>
      <path class="cls-2" d="M113.52,40.08c.19,1.24.04,2.53-.42,3.69-.31.79-.93,1.61-1.77,1.58-.68-.03-1.21-.66-1.35-1.32s.04-1.35.26-1.99c.4-1.16,1.31-2.46,2.51-2.22"/>
      <path class="cls-2" d="M110.63,62.33c.08.5-.51.82-1,.94-1.94.5-4.02.45-5.93-.14-.41-.13-.83-.29-1.1-.63-1.5-1.87,2.56-.51,3.06-.42.42.08,5.01.47,4.98.23Z"/>
      <path class="cls-7" d="M113.81,64.14c.02.64.16,1.5.72,1.52.45-1.87-.04-3.89-.86-5.6-.69-1.43-1.66-2.65-2.35-4.06,1.59,2.23,2.42,5.28,2.49,8.14Z"/>
      <path class="cls-2" d="M118.99,36.87c.51.62.92,1.32,1.2,2.07.06.17.12.35.06.52-.08.23-.34.35-.58.37-.65.06-1.26-.38-1.66-.9s-.66-1.14-1.05-1.67c-.46-.63-1.11-1.12-1.83-1.41-.38-.15-.86-.57-.55-.83.1-.08.25-.08.38-.07,1.61.11,3.16.87,4.22,2.08"/>
      <path class="cls-2" d="M179.65,54.88c3.94.74,7.56,2.63,11.05,4.59,3.03,1.7,6.17,3.63,7.82,6.69,1.89,3.51,1.45,7.76.96,11.71-.22,1.75-.51,3.65-1.82,4.83,4.99,1.55,9.06,5.41,11.62,9.96s3.75,9.77,4.29,14.97c.28,2.71.3,5.75-1.51,7.79-.98,1.11-2.39,1.77-3.83,2.14-6.47,1.67-13.05-1.93-18.47-5.83-4.62-3.33-9.03-7-12.81-11.26-3.78-4.27-6.88-9.08-9.78-13.99-2.99-5.06-5.84-10.44-6.29-16.31-.87-11.51,8.16-17.28,18.75-15.29Z"/>
      <path class="cls-14" d="M174.3,97.79c-.16,0,.75.93.59.93,10.64,12.3,16.63,28.07,19.59,44.06,2.96,15.99,3.08,32.35,3.19,48.62.2,30.23-1.14,60.43,1.02,90.58.08,1.12.11,2.39-.67,3.19-.69.71-1.78.79-2.77.83-14.56.59-29.14.53-43.69-.16-9.68-.46-19.86-1.8-29.53-2.45-6.74-.45-13.36-2.04-20.04-3.03-1.39-.21-3.32-.56-4.65-1.04.5-45.22.99-90.44,1.49-135.65.04-3.83.1-7.73,1.28-11.38,1-3.06,2.75-5.8,4.48-8.51,3.28-5.12,6.56-10.24,9.84-15.36.16,0-1.11.39-.95.39,20.56-2.64,40.28-13.87,60.81-11.01Z"/>
      <path class="cls-18" d="M163.63,108.69c-5.99,5.51-8.16,14.03-8.97,22.13-1.89,18.85,1.98,37.82,7.44,55.96-5.06,1.31-10.54-1.14-14.06-5s-5.42-8.92-6.86-13.95c-2.53-8.81-3.9-17.9-5.1-26.99-.67-5.12-1.29-10.37-.25-15.43.95-4.63,3.23-8.87,5.49-13.03,3.45-6.36,7.17-13.01,13.32-16.83,6.01-3.73,13.95-4.11,20.29-.99,3.37,1.66,12.84,8.76,7,10.61-2.17.69-6.18-1.09-8.65-.82-3.53.39-7.03,1.92-9.65,4.33Z"/>
      <path class="cls-18" d="M142.31,166.74s2.88,33.36,55.27,50.77l5.43-6.23s-25.88.85-43.88-35.16"/>
      <path class="cls-11" d="M112.65,92.24c-.75.26-1.61.66-1.74,1.44-.11.7.44,1.31.95,1.8,1.65,1.59,3.31,3.19,4.96,4.78-3.44.62-6.32,3.11-8.21,6.05s-2.94,6.33-3.97,9.68c-.16.51-.32,1.07-.14,1.58.45,1.26,2.3,1.02,3.54.53,12.66-4.94,25.32-9.89,37.98-14.83,8.78-3.43,18.01-6.92,27.36-5.79-.17-.02-4.27-12.08-6.56-13.4-4.29-2.47-13.03-1.53-17.77-1.16-12.56.98-24.62,5.15-36.42,9.31Z"/>
      <g>
        <path class="cls-18" d="M24.11,79.09l2.07,23.08,27.42-1.64c2.73.1,4.52-3.28,4.14-7.55h0c-.38-4.27-2.82-8.17-5.6-8.75l-28.02-5.13Z"/>
        <path class="cls-18" d="M5.76,75.01l2.6,29.04,34.5-2.06c3.44.13,5.69-4.13,5.21-9.5h0c-.48-5.37-3.55-10.28-7.05-11.02l-35.26-6.46Z"/>
        <path class="cls-9" d="M9.25,104.08c4,.15,6.55-5.93,5.87-13.55s-4.39-14.47-8.45-15.33c-4.27-.9-7.3,5.12-6.55,13.47s4.93,15.26,9.13,15.41Z"/>
        <path class="cls-18" d="M8.8,100.1c2.9.11,4.75-4.3,4.26-9.83s-3.18-10.5-6.13-11.11c-3.1-.65-5.29,3.71-4.75,9.77s3.57,11.06,6.62,11.17Z"/>
      </g>
      <g>
        <path class="cls-18" d="M41.66,94.43l2.07,23.08,27.42-1.64c2.73.1,4.52-3.28,4.14-7.55h0c-.38-4.27-2.82-8.17-5.6-8.75l-28.02-5.13Z"/>
        <path class="cls-18" d="M23.31,90.35l2.6,29.04,34.5-2.06c3.44.13,5.69-4.13,5.21-9.5h0c-.48-5.37-3.55-10.28-7.05-11.02l-35.26-6.46Z"/>
        <path class="cls-9" d="M26.8,119.42c4,.15,6.55-5.93,5.87-13.55-.68-7.63-4.39-14.47-8.45-15.33-4.27-.9-7.3,5.12-6.55,13.47.75,8.35,4.93,15.26,9.13,15.41Z"/>
        <path class="cls-18" d="M26.35,115.44c2.9.11,4.75-4.3,4.26-9.83s-3.18-10.5-6.13-11.11c-3.1-.65-5.29,3.71-4.75,9.77s3.57,11.06,6.62,11.17Z"/>
      </g>
      <g>
        <path class="cls-18" d="M202.87,266.45c.49.2-.33.74-.84.57-12.95-4.31-25.58-9.6-37.74-15.81-3.25-1.66-6.5-3.4-9.33-5.71-3.83-3.13-6.83-7.27-8.61-11.89-.92-2.39-1.5-5.09-.57-7.47,1.46-3.74,5.88-5.2,9.78-6.16,14.84-3.64,32.32-6.54,47.45-8.69"/>
        <path class="cls-18" d="M100.02,236.07c-1.13,0-2.46-.08-3.08-1.03-.36-.56-.37-1.27-.37-1.93.03-3.76.05-7.51.08-11.27,9.86.57,19.73,1.13,29.59,1.7,7.4.43,29.56-.31,35.91,3.99,1.94,1.32-5.83,6.82-7.6,9.99s-18.22-.32-21.63-.54c-10.96-.68-21.92-.93-32.9-.93Z"/>
      </g>
      <path class="cls-7" d="M144.19,54.08c.21-.62.52-1.2.94-1.71.63-.78,1.56-1.39,2.56-1.36s1.99.9,1.89,1.89c-.52-.68-1.56-.53-2.39-.32-.54.14-1.08.28-1.62.42-.56.14-1.13.29-1.59.63"/>
      <g>
        <path class="cls-19" d="M69.88,124.24c-3.65-5.99-7.41-12.11-12.95-16.4-1.33-1.03-3.03-1.98-4.61-1.41-.83.3-1.48.98-2.31,1.29-1.69.63-4.12-.24-5.04,1.31-.5.83-.18,1.92-.51,2.83-.79,2.2-4.66,2.18-5.05,4.48-.17,1.01.48,2.08.15,3.05-.19.55-.66.95-.9,1.48-.59,1.28.31,2.72,1.18,3.83,6.48,8.24,13.87,15.77,21.99,22.4.21.17.44.35.71.31.21-.03.39-.19.54-.34,3.4-3.41,6.4-7.22,8.9-11.34,1.12-1.84,2.29-3.16,1.8-5.14s-2.77-4.55-3.87-6.36Z"/>
        <g>
          <path class="cls-12" d="M185.04,111.08c-.05,4.37,1.89,8.5,1.65,12.86-.79,14.93-4.81,29.69-11.69,42.96-2.41,4.66-4.57,9.43-7.55,13.75-5.89,8.51-11.15,17.47-17.55,25.6-3.92,4.98-8.25,9.93-14,12.59-5.75,2.66-13.28,2.46-17.7-2.08-21.38-21.95-43.48-43.35-59.82-69.27,4.5-6.77,9.7-13.07,15.51-18.77,16.25,14.95,33.36,28.96,51.21,41.94,1.86-16.21,7.03-32.03,15.11-46.21,3.55-6.24,7.76-12.27,13.5-16.59,5.73-4.32,14.42-6.19,21.26-4.02,0,0,10.13,1.57,10.07,7.23Z"/>
          <path class="cls-15" d="M167.11,141.07c-1.16-.56-2.13-1.46-3.03-2.37-1.44-1.46-2.87-3.28-2.65-5.32.07-.61.28-1.2.51-1.77,1.44-3.64,3.7-5.82,7.77-5.7,2.81.09,5.43,1.22,6.71,3.84,2.84,5.84-2.4,14.67-9.31,11.32Z"/>
          <path class="cls-16" d="M71.3,143.08c8.74,9.18,17.94,17.92,27.57,26.17-4.56,3.92-8.11,8.99-10.23,14.61-.83-.93-1.67-1.86-2.5-2.78,2.94-3.76,5.75-7.63,8.4-11.59-3.44-3.28-6.87-6.57-10.31-9.85-4.14-3.96-8.3-7.93-11.79-12.48-2.02,1.45-7.42,8.67-8.74,5.98-1.51-3.07,7.91-9.74,7.6-10.06Z"/>
        </g>
      </g>
      <path class="cls-13" d="M119.03,131.43c.02,1.03.03,2.07.05,3.1.02.93,11.89,1.4,13.04,1.3-.86-3.09-.59-3.59-3.72-3.83s-6.18.07-9.37-.57Z"/>
      <path class="cls-12" d="M197.56,271.76c2.37,1.27,1.59,3.99,1.13,10.2-.2,2.68,1.28,6.18.16,8.47-1.77,3.6-9.5,1.95-12.91,1.7-23.77-1.75-47.55-3.49-71.32-5.24-5.95-.44-11.93-.88-17.71-2.34-.32-6.48-.11-12.98.63-19.43,2.4.57,4.86.84,7.31,1.1,19.05,2.02,38.16,3.54,57.29,4.55,6.17.33,12.35-.39,18.53.08,5.74.44,11.11,1.74,16.91.9"/>
      <path class="cls-17" d="M110.64,47.56s3.18,1.43,4.07,0"/>
    </g>
  </g>
</svg>