<?xml version="1.0" encoding="UTF-8"?>
<svg id="Layer_2" data-name="Layer 2" xmlns="http://www.w3.org/2000/svg" viewBox="0 0 428.23 642.94">
  <defs>
    <style>
      .cls-1, .cls-2, .cls-3, .cls-4 {
        fill: none;
      }

      .cls-5 {
        fill: #d07339;
      }

      .cls-6 {
        fill: #ca6830;
      }

      .cls-7 {
        fill: #ce6f39;
      }

      .cls-8 {
        fill: #cf6f37;
      }

      .cls-9 {
        font-family: MyriadPro-Regular, 'Myriad Pro';
        font-size: .5px;
      }

      .cls-10 {
        fill: #ca6a34;
      }

      .cls-11 {
        fill: #492528;
      }

      .cls-12 {
        fill: #cb6c32;
      }

      .cls-13 {
        fill: #cd6d33;
      }

      .cls-14 {
        fill: #1e425b;
      }

      .cls-15 {
        fill: #d0713a;
      }

      .cls-16 {
        fill: #c66631;
      }

      .cls-17 {
        fill: #cb662e;
      }

      .cls-18 {
        fill: #c9682e;
      }

      .cls-19 {
        fill: #c76730;
      }

      .cls-20 {
        fill: #ce6b35;
      }

      .cls-21 {
        fill: #cc6d37;
      }

      .cls-22 {
        fill: #262f3b;
      }

      .cls-2 {
        stroke-width: .53px;
      }

      .cls-2, .cls-23, .cls-3 {
        stroke-miterlimit: 10;
      }

      .cls-2, .cls-4 {
        stroke: #1d2b3b;
      }

      .cls-24 {
        fill: #1d2b3b;
      }

      .cls-25 {
        fill: #cd6e38;
      }

      .cls-26 {
        fill: #e38e76;
      }

      .cls-27 {
        fill: #e8cda6;
      }

      .cls-28 {
        fill: #b55a47;
      }

      .cls-29 {
        fill: #e7633f;
      }

      .cls-30 {
        fill: #e1826e;
      }

      .cls-31 {
        fill: #cf723a;
      }

      .cls-32 {
        fill: #7b3c63;
      }

      .cls-33 {
        fill: #ac863f;
      }

      .cls-34 {
        fill: #9b8e40;
      }

      .cls-35 {
        fill: #ce6d35;
      }

      .cls-36 {
        fill: #cb6b31;
      }

      .cls-37 {
        fill: #aa9b41;
      }

      .cls-38 {
        fill: #cd6b34;
      }

      .cls-39 {
        fill: #d07338;
      }

      .cls-40 {
        fill: #ce7135;
      }

      .cls-41 {
        fill: #eab84b;
      }

      .cls-42 {
        fill: #db5937;
      }

      .cls-43 {
        fill: #cf7139;
      }

      .cls-44 {
        fill: #cf713a;
      }

      .cls-45 {
        fill: #cc6830;
      }

      .cls-46 {
        fill: #ce6d37;
      }

      .cls-23 {
        stroke-width: .5px;
      }

      .cls-23, .cls-3 {
        stroke: #000;
      }

      .cls-47 {
        fill: #c76630;
      }

      .cls-48 {
        fill: #d06f38;
      }

      .cls-49 {
        fill: #ba9f77;
      }

      .cls-50 {
        fill: #c45e50;
      }

      .cls-51 {
        fill: #65884b;
      }

      .cls-51, .cls-52 {
        fill-rule: evenodd;
      }

      .cls-53 {
        fill: #de9254;
      }

      .cls-54 {
        fill: #cc6931;
      }

      .cls-55 {
        fill: #cb6a2f;
      }

      .cls-56 {
        fill: #f1a353;
      }

      .cls-57 {
        fill: #ce6c36;
      }

      .cls-58 {
        fill: #d78e5e;
      }

      .cls-52 {
        fill: #613e39;
      }

      .cls-59 {
        fill: #c9672f;
      }

      .cls-60 {
        fill: #cc6832;
      }

      .cls-61 {
        fill: #ce6c32;
      }

      .cls-62 {
        fill: #c86630;
      }

      .cls-63 {
        fill: #274d43;
      }

      .cls-64 {
        fill: #4f3e4e;
      }

      .cls-65 {
        fill: #ce6c35;
      }

      .cls-66 {
        fill: #cf6e37;
      }

      .cls-67 {
        fill: #cf6e35;
      }

      .cls-4 {
        stroke-linecap: round;
        stroke-linejoin: round;
        stroke-width: .71px;
      }

      .cls-68 {
        fill: #93371e;
      }

      .cls-69 {
        fill: #c96a33;
      }

      .cls-70 {
        fill: #cc6b32;
      }

      .cls-71 {
        fill: #c39b41;
      }

      .cls-72 {
        fill: #cd6d35;
      }

      .cls-73 {
        fill: #81ab5b;
      }

      .cls-74 {
        fill: #cd6b35;
      }

      .cls-75 {
        fill: #cd6b30;
      }
    </style>
  </defs>
  <g id="Layer_7" data-name="Layer 7">
    <g>
      <g>
        <path class="cls-52" d="M353.44,328.55s-2.91-3-3.51-3.11c-.6-.12-8.65,10.02-23.09,17.41-10.6,5.43-15.49,4.63-18.82,3.79,1.01-11.85,1.75-20.94,2.23-22.83,1.27-5.05-12.66,1.89-12.66,1.89,0,0,.27,20.79-1.89,43.13-2.44-1.02-5.54-3.14-9.59-7.86-8.77-10.23-11.76-20.56-12.26-20.66-.5-.1-3.69,1.29-3.69,1.29,0,0,1.47,4.16,4.06,9.66,0,0,0,0,0,0,.02.04.04.09.07.14.26.56.54,1.13.83,1.71.04.09.09.17.13.26.3.6.6,1.21.92,1.82.04.08.08.16.13.24.33.62.66,1.25,1.01,1.89.04.08.09.16.13.24.35.64.71,1.28,1.09,1.92.04.08.09.15.13.23.38.65.77,1.3,1.17,1.94.04.07.08.13.13.2.41.65.83,1.3,1.26,1.95.04.05.07.1.11.16.44.66.89,1.3,1.36,1.94.02.03.05.06.07.09.48.66.97,1.3,1.47,1.93,3.7,4.63,7.4,8.1,10.41,10.47-2.19,16.92-5.98,33.17-12.54,40.46-16.46,18.3-20.91,17-28.82,17.94-4.71.56-6.28-40.65-6.78-74.12.28-.19.57-.39.87-.6.1-.07.2-.14.3-.21.21-.15.42-.3.63-.46.12-.09.25-.18.37-.28.2-.15.41-.31.62-.47.13-.1.26-.2.4-.31.21-.17.43-.34.65-.51.13-.11.27-.21.4-.32.24-.19.47-.39.72-.59.12-.1.24-.2.37-.31.3-.26.61-.53.92-.8.07-.06.13-.11.2-.17.38-.34.77-.69,1.16-1.05.08-.08.17-.16.25-.23.31-.29.62-.58.93-.88.04-.04.08-.07.11-.11,0,0,0,0,0,0,2.48-2.38,5.1-5.2,7.74-8.5,10.88-13.62,17.84-33.41,17.84-33.41,0,0-4.05-1.77-4.68-1.64-.63.13-4.43,13.24-15.56,26.23-6.45,7.53-10.99,9.85-14.39,10.73-.13-16.2-.03-28.13-.03-28.13l-20.89,1.26s.07,4.4.11,11.31c0,.42,0,.86,0,1.3,0,.15,0,.3,0,.45,0,.57,0,1.15,0,1.74,0,.03,0,.06,0,.09.04,8.87.04,20.69-.15,32.56v.11c-.02.9-.03,1.8-.05,2.7-3.89-1.61-8.83-4.97-15.3-12.52-.44-.51-.87-1.02-1.28-1.53-.16-.2-.32-.4-.48-.6-.25-.31-.5-.62-.75-.93-.18-.23-.36-.46-.54-.69-.22-.28-.43-.56-.64-.83-.19-.25-.37-.5-.56-.75-.19-.26-.38-.51-.57-.77-.19-.25-.36-.51-.55-.76-.18-.25-.36-.5-.53-.75-.18-.25-.35-.5-.52-.75-.17-.25-.34-.49-.51-.74-.17-.25-.33-.5-.5-.75-.16-.24-.33-.49-.48-.73-.16-.24-.31-.49-.47-.73-.16-.24-.31-.49-.47-.73-.15-.24-.3-.48-.45-.72-.15-.24-.3-.48-.44-.71-.15-.24-.29-.48-.43-.72-.14-.23-.28-.46-.41-.69-.14-.24-.27-.47-.41-.71-.13-.22-.26-.45-.38-.67-.13-.24-.26-.47-.39-.7-.12-.21-.24-.43-.36-.64-.13-.23-.25-.46-.37-.68-.11-.21-.23-.42-.34-.62-.12-.22-.23-.44-.35-.66-.11-.2-.22-.41-.32-.61-.11-.22-.22-.43-.33-.65-.1-.19-.2-.38-.29-.57-.11-.22-.22-.43-.32-.65-.09-.18-.18-.35-.26-.53-3-6.1-4.37-10.21-4.77-10.29-.79-.16-5.86,2.05-5.86,2.05,0,0,.94,2.68,2.69,6.88,0,0,0,0,0,0,.03.07.06.15.09.23.06.15.12.3.19.45.05.12.1.24.15.36.05.12.11.25.16.38.06.13.11.26.17.39.07.17.15.35.22.52.08.17.15.35.23.53.07.15.13.3.2.46.06.14.12.27.18.41.06.14.13.29.19.43.06.14.12.28.19.42.1.23.2.46.31.69.07.15.14.31.21.47.08.17.15.33.23.5.07.14.13.29.2.43.07.16.15.32.23.49.07.15.13.29.2.44.13.28.26.56.4.84.06.13.12.26.18.39.09.19.18.37.27.56.07.15.14.3.21.45.09.18.18.37.27.55.07.14.14.28.21.42.15.3.29.6.44.9.07.13.13.27.2.4.1.2.2.4.3.6.07.15.15.29.22.44.11.21.21.42.32.63.07.13.13.26.2.39.16.32.33.64.49.95.07.13.13.25.2.38.12.22.23.45.35.67.07.14.15.28.22.42.12.23.25.46.37.7.06.12.13.24.19.35.18.33.36.66.54.99.07.12.13.24.2.36.13.24.26.47.4.71.07.13.15.26.22.39.15.26.3.52.44.78.06.1.11.19.17.29.2.34.4.68.6,1.02.07.11.13.23.2.34.15.25.29.5.44.74.08.12.15.25.23.37.17.28.34.56.51.84.05.07.09.15.13.22.21.35.43.69.65,1.04.07.11.14.21.2.32.16.25.32.51.49.76.08.12.15.23.23.35.2.3.39.6.59.9.03.05.07.1.1.15.23.34.46.68.69,1.02.07.1.14.21.21.31.17.25.35.5.52.75.08.11.15.22.23.32.22.31.44.62.67.93.02.03.04.06.06.08.24.34.49.67.74,1,.07.1.14.19.22.29.19.25.37.49.56.74.07.1.15.19.22.29.25.33.51.65.77.97,6.44,8.06,12.88,13.9,17.86,17.66-.52,13.39-1.43,24.53-2.96,28.26-.07.18-.15.34-.24.49-.03.05-.06.09-.1.14-.06.1-.13.19-.2.28-.04.05-.09.09-.13.14-.07.07-.14.15-.21.21-.05.04-.11.08-.16.12-.08.06-.15.11-.23.16-.06.04-.12.06-.19.1-.08.04-.17.08-.26.12-.07.03-.14.05-.21.07-.09.03-.18.05-.28.07-.08.02-.15.03-.23.04-.1.01-.2.03-.3.04-.08,0-.17,0-.25.01-.11,0-.22,0-.33,0-.09,0-.18,0-.27-.02-.12,0-.23-.02-.35-.04-.09-.01-.19-.03-.28-.04-.12-.02-.25-.05-.38-.08-.1-.02-.19-.04-.29-.07-.13-.04-.27-.08-.41-.12-.1-.03-.2-.06-.3-.09-.14-.05-.29-.1-.44-.16-.1-.04-.2-.07-.31-.12-.16-.06-.32-.14-.49-.21-.1-.04-.2-.08-.3-.13-.18-.09-.37-.18-.56-.28-.08-.04-.17-.08-.25-.12-.28-.14-.56-.29-.84-.46,0,0,0,0,0,0-.29-.16-.58-.34-.88-.52-.09-.05-.17-.11-.26-.17-.21-.13-.43-.27-.64-.41-.11-.08-.23-.16-.35-.24-.19-.13-.39-.26-.58-.4-.13-.09-.26-.19-.39-.28-.19-.14-.37-.27-.56-.41-.14-.1-.28-.21-.42-.32-.19-.14-.37-.28-.56-.43-.15-.12-.29-.23-.44-.35-.19-.15-.37-.3-.56-.46-.15-.12-.3-.25-.45-.38-.19-.16-.38-.32-.57-.49-.15-.13-.31-.27-.46-.41-.19-.17-.38-.34-.57-.51-.16-.14-.32-.29-.48-.44-.19-.18-.39-.36-.58-.54-.16-.15-.32-.3-.49-.46-.2-.19-.39-.38-.59-.57-.16-.16-.33-.32-.49-.48-.2-.2-.4-.4-.6-.61-.16-.16-.32-.33-.49-.49-.21-.21-.42-.43-.63-.65-.16-.17-.32-.33-.48-.5-.22-.23-.43-.47-.65-.7-.15-.17-.31-.33-.46-.5-.24-.26-.47-.53-.71-.79-.14-.15-.27-.3-.41-.46-.3-.34-.61-.69-.91-1.05-.07-.09-.15-.17-.22-.25-.37-.44-.75-.88-1.13-1.34-.13-.16-.27-.33-.4-.49-.25-.3-.49-.6-.74-.91-.16-.2-.31-.4-.47-.6-.22-.28-.45-.56-.67-.85-.17-.21-.33-.43-.5-.65-.21-.28-.43-.55-.64-.84-.17-.23-.34-.46-.52-.69-.21-.28-.42-.56-.62-.84-.17-.24-.35-.48-.52-.72-.21-.28-.41-.57-.62-.86-.17-.25-.35-.49-.52-.74-.2-.29-.41-.58-.61-.88-.18-.25-.35-.51-.52-.77-.2-.3-.4-.59-.6-.89-.18-.26-.35-.53-.53-.79-.2-.3-.4-.61-.6-.91-.17-.27-.35-.54-.52-.81-.2-.31-.4-.63-.6-.95-.17-.27-.34-.54-.51-.81-.2-.33-.4-.65-.6-.98-.17-.27-.33-.54-.5-.82-.2-.34-.4-.68-.6-1.02-.16-.27-.32-.55-.48-.82-.21-.36-.41-.71-.61-1.07-.15-.27-.31-.53-.46-.8-.22-.39-.44-.79-.65-1.18-.13-.24-.27-.48-.4-.73-.28-.51-.55-1.03-.82-1.55-.07-.14-.14-.27-.21-.4-.34-.66-.68-1.32-1.02-1.98-.1-.2-.2-.4-.3-.61-.23-.47-.47-.94-.7-1.42-.13-.26-.25-.53-.38-.79-.2-.42-.4-.85-.6-1.27-.13-.29-.26-.57-.39-.86-.19-.41-.38-.82-.56-1.23-.13-.3-.27-.61-.4-.91-.18-.4-.36-.81-.53-1.22-.13-.31-.26-.63-.4-.94-.17-.41-.34-.81-.51-1.22-.13-.32-.26-.64-.39-.96-.16-.41-.33-.82-.49-1.23-.13-.32-.25-.65-.38-.98-.16-.42-.32-.83-.47-1.25-.12-.33-.24-.66-.36-.99-.15-.42-.31-.85-.46-1.28-.12-.33-.23-.66-.34-.99-.15-.44-.3-.87-.44-1.31-.11-.33-.22-.65-.32-.98-.15-.45-.29-.9-.43-1.35-.1-.32-.2-.64-.3-.97-.14-.47-.28-.94-.42-1.41-.09-.31-.18-.62-.27-.93-.14-.5-.28-1.01-.42-1.51-.08-.29-.16-.57-.24-.86-.15-.57-.3-1.13-.44-1.7-.06-.23-.12-.46-.18-.69-.19-.78-.38-1.56-.56-2.34,0-.03-.01-.05-.02-.08-.76-3.34-1.4-6.75-1.9-10.22.33,2.13-7.59-.68-7.59-.68,2.63,12.04,5.62,23.03,8.89,33.17-3.31.58-8.19.45-17.16-4.15-14.44-7.4-22.49-17.53-23.09-17.41-.6.12-3.51,3.11-3.51,3.11,0,0,.57.63,1.58,1.7.04.04.08.08.12.12.09.09.19.2.28.3.06.07.13.13.19.2.09.1.19.2.29.3.08.08.16.17.25.25.1.1.2.21.3.31.09.09.19.19.28.29.11.11.21.21.32.32.11.11.22.22.33.33.11.11.21.21.32.32.16.15.32.31.48.47.12.12.24.23.36.35.19.19.38.37.58.57.11.1.22.21.33.31.15.15.31.29.46.44.12.12.25.23.37.35.15.15.31.29.47.44.13.12.26.24.39.36.16.15.33.3.49.46.13.12.27.25.4.37.17.16.35.32.53.48.13.12.26.24.4.36.2.18.4.36.6.54.12.11.24.22.36.32.32.28.64.57.97.85.1.09.2.17.3.26.24.21.48.42.73.63.14.12.28.24.42.36.21.18.42.36.63.54.15.13.31.26.46.38.21.17.42.34.63.52.16.13.32.26.48.39.21.17.43.35.65.52.16.13.32.25.48.38.23.18.46.36.7.54.15.12.3.23.45.35.28.22.56.43.85.64.11.08.21.16.32.24.39.29.78.58,1.17.86.12.09.25.18.38.27.28.2.55.4.83.59.16.11.31.22.47.33.25.17.5.35.75.52.17.11.34.23.5.34.25.16.49.33.74.49.17.11.34.22.51.33.25.16.51.32.76.48.16.1.33.21.49.31.28.17.56.34.84.51.14.08.28.17.43.25.42.25.84.49,1.27.73,8.33,4.63,15.7,6.95,20.35,7.91,12.36,33.55,27.83,57.65,42.87,81.66,4.69,7.49,3.12,19.95,2.69,36.17-1.29,49.08-.09,76.89-11.6,117.51h60.23c-7.46-35.24-11.1-145.32-1.77-153.18,26.68-22.45,31.22-22.51,37.36-50.81,2.54-11.72,4.61-31.72,6.19-49.37,4.66-1.12,11.36-3.41,18.82-7.57.47-.26.94-.53,1.41-.81.13-.08.26-.16.4-.24.34-.2.67-.4,1.01-.61.16-.1.31-.2.47-.3.31-.19.61-.39.92-.59.17-.11.33-.22.5-.33.29-.19.58-.39.87-.58.17-.12.35-.24.52-.36.28-.19.56-.38.83-.58.18-.13.35-.25.53-.38.27-.19.53-.38.8-.58.18-.13.36-.27.54-.4.25-.19.51-.38.76-.57.19-.14.37-.28.55-.42.24-.18.48-.37.71-.55.11-.09.22-.17.33-.26,0,0,0,0,0,0,9.45-7.41,16.53-15.36,16.53-15.36Z"/>
        <path class="cls-51" d="M385.79,230.71c17.75-9.42,29.83-28.09,29.83-49.59,0-26.77-18.75-49.16-43.84-54.76.1-1.57.15-3.15.15-4.74,0-41.49-32.99-75.27-74.17-76.55-1.75-4.94-4.59-9.57-8.54-13.52-11.68-11.68-29.35-13.71-43.12-6.11-5.87-14.9-20.39-25.45-37.38-25.45-22.18,0-40.16,17.98-40.16,40.16,0,3.76.52,7.4,1.48,10.85-2.12-.16-4.26-.25-6.42-.25-43.58,0-78.91,33.49-78.91,74.81,0,6.71.94,13.22,2.69,19.41-43.11,2.7-77.26,39.4-77.26,84.29,0,41.14,28.69,75.41,66.68,82.92-5.25,5.04-8.53,12.12-8.53,19.97,0,15.28,12.39,27.66,27.66,27.66,1.52,0,3.01-.13,4.46-.36,7.91,30.33,34.49,52.64,66.07,52.64,25.15,0,47.13-14.15,59.03-35.24,11.89,8.51,26.45,13.52,42.19,13.52,17.09,0,32.79-5.91,45.19-15.79,10.5,5.01,22.26,7.82,34.67,7.82,44.55,0,80.66-36.11,80.66-80.66,0-30.72-17.17-57.42-42.44-71.04Z"/>
      </g>
      <g>
        <path class="cls-73" d="M350.26,177.83c-12.17,6.6-26.06,5.61-38.11.95,2.99-8.59,7.21-14.6,12.27-21,13.38-11.62,28.79-13.69,46.43-7.57-3.5,11.11-9.71,21.72-20.59,27.62Z"/>
        <path class="cls-73" d="M257.2,186.14c-13.14-22.56-7.8-50.1,15.33-61.97,13.51,21.26,7.63,48.51-15.33,61.97Z"/>
        <path class="cls-73" d="M265.67,236.55c16.24,21.57,17.56,46.29-3.14,62.36-16.85-18.23-15.67-46.97,3.14-62.36Z"/>
        <path class="cls-73" d="M374.59,187.99c-1.12,21.34-19.65,34.64-40.32,32.32.21-8.4,2.84-16.92,9-23.01,8.07-7.97,19.11-10.82,31.32-9.31Z"/>
        <path class="cls-73" d="M376.04,337.44c-9.13,1.99-18.3-.43-25.07-6.05-7.31-6.06-9.25-16.63-5.4-25.1,16.64,1.99,28.66,13.69,30.47,31.15Z"/>
        <path class="cls-73" d="M270.31,86.15c3.12,2.32-.12,32.68-26.34,34.8-3.56-16.74,6.7-32.93,23.85-34.98.95-.11,2.03-.16,2.5.19Z"/>
        <path class="cls-73" d="M336.38,324.83c-9.97,6.94-23.12,4.67-31.17-4.2-3.01-3.32-5.48-6.68-7.02-11.53,14.56-6.93,31.95-1.16,38.19,15.73Z"/>
        <path class="cls-73" d="M210.14,142.25c-2.65,6.43-27.6-10.35-29.74-33.48-.72-7.83-.55-16.4,2.15-23.37,1.71-4.42,5.9-2.11,8.53-.39,18.93,12.34,28.19,35.11,19.06,57.24Z"/>
        <path class="cls-73" d="M164.61,296.18c1.12,3.13-12.15,23.33-35.86,21.1-6.94-.65-13.15-2.97-17.13-9.53,10.94-17.29,32.63-23.52,50.94-14.27,1.1.56,1.8,2.02,2.04,2.7Z"/>
        <path class="cls-73" d="M160.91,241.27c-7.95.95-13.33-3.28-18.52-8.73-9.07-9.52-10.49-23.4-7.22-36.03,21.53,3.97,33.07,24.6,25.74,44.76Z"/>
        <path class="cls-73" d="M156.56,99.85c5.46,6.61,5.37,15.55,3.75,24.04-18.62-.17-32.7-16.85-28.39-35.39,9.66-1.77,18.11,3.45,24.64,11.35Z"/>
        <g>
          <path class="cls-73" d="M119.53,233.48c-2.78-1.3-5.64-2.69-7.76-4.96-9.9-10.57-20.8-23.14-26.45-36.18,7.66,1.39,15.95,3.07,22.4,8.03,10.17,7.81,15.58,19.14,14.95,32.08.04.66-1.66,1.22-3.14,1.02Z"/>
          <path class="cls-73" d="M119.53,233.48c-22.97-2.04-37.43-15.09-35.78-38.7-.26-1.28.33-2.65,1.56-2.43,11.34,13.97,22.5,28.01,34.21,41.14Z"/>
        </g>
        <path class="cls-73" d="M124.96,180.15c-6.92.9-13.96-.26-18.41-5.41-3.89-4.51-4.82-10.55-5.42-15.89,7.09-.91,13.73-.21,18.25,4.33,4.22,4.23,5.66,10.19,5.58,16.97Z"/>
      </g>
      <path class="cls-63" d="M209.23,621.91h-29.27c-3.06-.01-5.65-2.88-6.46-4.8-1.29-3.05-.34-6.69,2.87-9.08-5.85-2.73-8.6-8.75-7.51-14.84,1.15-6.5,6.55-10.63,14.27-10.21-2.24-6.19-1.46-12.13,1.97-17.39,5.89-9.03,17.52-11.24,26.52-4.22,2.03-8.53,9.61-13.68,17.92-13.44,8.75.25,15.95,6.75,16.78,16.56,7.02-4.53,14.92-3.85,21.08,1.34,5.94,5,7.58,13.6,4.31,20.77,6.64-.15,11.29,3.05,12.96,8.24,1.67,5.18-.29,10.7-6.02,14,2.88,2.05,4.37,5,3.42,7.9-1.01,3.07-3.54,5.36-6.71,5.43l-25.98.14"/>
      <g>
        <g>
          <path class="cls-42" d="M26.42,410.54c-7.09.48-12.57,6.81-14.83,13.54-2.26,6.73-2.13,13.99-2.96,21.05,1.32,3.02,1.77,5.52,2.61,8.71s2.27,6.44,5.02,8.27c2.09,1.39,4.66,1.78,7.01,2.67-.51-4.63-.8-9.29-.88-13.94-.23-13.69,1.48-26.84,4.04-40.29Z"/>
          <path class="cls-32" d="M65.9,461.6c-.48,1.88-1.01,3.78-2.08,5.39-1.38,2.08-3.58,3.49-5.88,4.45-7.29,3.04-15.57,1.93-23.38.73-5.08-.78-10.94-2.15-13.09-6.81-.81-1.75-.95-3.72-1.05-5.65-1.04-20.16.76-40.46,5.35-60.12,1.02-4.38,2.19-8.75,3.92-12.9,2.93-7.01,7.63-13.47,14.13-17.39,6.51-3.92,14.94-5,21.81-1.75,6.43,3.04,10.95,10.23,10.26,17.41-.7,7.28-1.48,14.37-1.81,21.79-.82,18.5-3.57,36.92-8.2,54.85Z"/>
          <path class="cls-29" d="M71.89,360.21c-6.48-.44-12.97-.65-19.46-.62-5.64.03-11.63.34-16.3,3.5-5.04,3.42-7.55,9.51-8.92,15.44-1.37,5.93-1.9,12.12-4.24,17.74-1.12,2.68.29,6.27.42,9.17,2.05,1.23,4.61-.25,6.51-1.69,14.02-10.58,27.38-22.06,39.95-34.33,1.37-1.34,2.78-2.76,3.35-4.59s.6-4.5-1.31-4.63Z"/>
          <path class="cls-71" d="M27.18,424.5c8.18-.11,16.37-.23,24.55-.34,0-4.1,0-8.2,0-12.29-6.2.21-13.75-.7-19.79.68-5.35,1.23-4.95,6.94-4.76,11.96Z"/>
          <path class="cls-33" d="M28.34,453.68c6.72.23,13.42-.52,20.1-1.28.6-.07,1.22-.14,1.73-.45,1.23-.74,1.39-2.43,1.4-3.87.07-6.26.14-12.52.22-18.78-5.2,0-19.33-2.6-23.44.89-2.3,1.95-1.19,23.49-.02,23.49Z"/>
        </g>
        <path class="cls-30" d="M145.04,375.39c.39-2.32.78-4.63,1.18-6.95.42-2.49.91-5.13,2.59-7.02.17-.19.38-.38.63-.39.5-.02.72.63.73,1.13.03,1.66-.34,3.81,1.14,4.57,1.02-4.72,2.05-9.43,3.07-14.15,1.16-.66,2.52.73,2.66,2.05s-.38,2.66-.18,3.98c.17-.9.34-1.81.52-2.71.14-.74.31-1.53.85-2.05s1.6-.56,1.94.11c.22,2.11.45,4.21.67,6.32-.47-1.77.25-3.8,1.72-4.88,1.15,2.05,1.45,4.56.8,6.82.36-.85.72-1.7,1.08-2.55,1.39,6.71-1.66,13.56-5.48,19.25-1.01,1.51-2.45,3.14-4.25,2.91"/>
        <path class="cls-34" d="M79.35,371.12c-4.64,5.4-5.39,13.4-3.24,20.19,2.16,6.79,6.85,12.5,12.1,17.31s11.14,8.88,16.51,13.55c2.77,2.41,5.6,5.08,9.19,5.81,2.8.57,5.6-1.58,7.85-3.34,14.63-11.45,28-24.48,36.8-40.83.25-.47.5-.96.48-1.49-.03-.65-.45-1.2-.9-1.66-3.64-3.76-9.68-4.67-12.78-8.88-8.16,9.23-17.62,17.31-28.03,23.91-5.61-7.27-11.81-14.08-18.51-20.35-2.58-2.41-5.31-4.79-8.6-6.04s-8.58-.83-10.88,1.84Z"/>
        <path class="cls-27" d="M149.27,581.34l-20.42,7.45c3.57,8.11,7.32,16.14,11.27,24.07,5.48-1.9,10.96-3.8,16.44-5.71.41-.14.86-.32,1.03-.71.16-.36.04-.78-.08-1.15-2.65-8.01-5.44-15.98-8.24-23.95Z"/>
        <path class="cls-50" d="M112.48,530.01c6.74-1.69,13.03-4.04,18.88-7.6-.23-1.12-.43-2.18-.6-3.12-.68-3.75-1.81-7.41-3.34-10.9l-8.03-6.48c-4.31,1.53-8.62,3.06-12.92,4.59-1.2.43-3.09-.18-4.19.47-.91.53-1.83,1.07-2.74,1.6.16.87.22,1.76.49,2.6.39,1.22.42,2.61,1.14,3.67,1.14,1.68,1.71,4.18,2.43,6.08,1.08,2.84,2.1,5.56,3,8.46.02.06.04.11.05.17,1.88.25,3.81.84,5.84.47Z"/>
        <path class="cls-26" d="M149.27,581.34c-5.87-16.76-11.72-33.52-16.06-50.72-.58-2.31-1.28-5.43-1.84-8.22-5.85,3.56-12.14,5.92-18.88,7.6-2.02.37-3.95-.22-5.84-.47,6.28,20.15,13.7,39.94,22.2,59.26l20.42-7.45Z"/>
        <path class="cls-49" d="M20.92,594.76c-.42.61-.87,1.34-.65,2.05.17.58.72.94,1.24,1.26,4.87,3.01,9.73,6.01,14.6,9.02,5.72-6.75,11.45-13.49,17.17-20.24l-17.29-13.9c-5.02,7.27-10.04,14.54-15.06,21.82Z"/>
        <path class="cls-28" d="M65.96,522.03c-1.95,3.26-2.29,7.7-3.81,11.2-2.1,4.83-5.11,9.22-8.09,13.54-6.03,8.73-12.05,17.46-18.08,26.18l17.29,13.9c2.73-3.22,5.46-6.43,8.19-9.65,7.94-9.36,15.97-18.85,21.29-29.91,4.36-9.06,6.77-18.9,9.15-28.67-7.03-.49-21.6-3.81-25.93,3.41Z"/>
        <path class="cls-24" d="M57.49,520.73c.02.7.06,1.44.47,2.01.53.75,1.54,1.01,2.46,1.19,12.98,2.67,26.24,4,39.5,3.98,2.22-24.43,3.7-48.93,4.43-73.45,0,.16-26.46,1.91-28.84,2.13-5.92.54-16.55-.96-18.11,5.95-1.96,8.71-.46,19.66-.45,28.58.01,9.87.19,19.74.54,29.61Z"/>
        <path class="cls-14" d="M111.41,454.47c7.84,19.9,12.77,39.6,21.79,59.06.06.13-.13.34-.13.49,0,3.32-4.03,4.94-7.26,6.29-18.2,7.64-38.58,9.03-58.48,10.31.76-13.94-.54-27.89-1.85-41.79-1.06-11.35-2.13-22.71-3.19-34.06,14.97-.51,34.26,1.35,49.13-.3Z"/>
        <g>
          <path class="cls-64" d="M15.79,597.5l-14.25,14.59,34.45,28.91s4.99-2.36,3.42-9.78c-1.57-7.42-7.16-10.58-7.15-15.68s5.13-8.57,5.13-8.57l-16.01-15.31-5.58,5.84Z"/>
          <rect class="cls-22" x="-4" y="624.61" width="45.61" height="4.17" transform="translate(407.23 134.53) rotate(40)"/>
        </g>
        <g>
          <path class="cls-14" d="M140.76,619.75l5.48,19.65,42.29-15.31s.46-5.5-6.75-7.86c-7.21-2.36-12.75.89-17.15-1.68-4.41-2.56-4.84-8.73-4.84-8.73l-21.28,6.18,2.25,7.76Z"/>
          <rect class="cls-22" x="144.72" y="629.69" width="45.61" height="4.17" transform="translate(-205.09 94.78) rotate(-19.91)"/>
        </g>
        <path class="cls-30" d="M118.14,312.14c2.29,2.81,3.65,6.37,3.83,9.99.06,1.27-.02,2.57.31,3.8.32,1.23,1.15,2.44,2.39,2.75.52.13,1.08.1,1.58.32,1.03.46,1.34,1.84,1.04,2.93s-1.01,2.01-1.53,3.02c-1.25,2.46-1.24,5.34-1.48,8.08-.25,2.75-.91,5.71-3.05,7.45-1.32,1.08-3.03,1.54-4.7,1.86-2.82.54-5.69.76-8.56.67-.65-.02-1.34-.05-1.89.3-.44.28-.7.76-.95,1.22-1.72,3.28-3.22,6.67-4.49,10.15-5.63-.44-11.14-2.41-15.77-5.64-.42-.29-.85-.62-1.02-1.1-.21-.6.05-1.25.31-1.83,1.41-3.14,2.96-6.22,4.65-9.22-1.55-1.34-3.17-2.77-4.72-4.11-6.69-5.78-10.5-15.12-8.24-23.67s9.93-15.35,18.66-16.75c8.73-1.4,18.06,2.9,23.64,9.76Z"/>
        <path class="cls-11" d="M120.47,312.54c2.04,1.41,4.23,3.46,3.81,5.91-.49,2.84-3.98,3.84-6.84,4.25-3.52.5-7.03,1.01-10.55,1.51-.33.05-.69.11-.91.35-.26.28-.26.71-.27,1.1-.15,4.34-4.2,7.38-7.84,9.76.08-1.39.16-2.81-.22-4.15s-1.33-2.6-2.67-2.98c-2.03-.57-4.14,1.14-4.74,3.16s-.12,4.19.44,6.22c.32,1.16,1.92,1.95,3.1,2.15-.09.18-.2.59-.29.77-.08.16.03.1.03.28,0,1.8-1.13,3.39-2.05,4.94s-2.28,2.92-4,3.47-3.8.13-4.92-1.29c.26-.86.51-1.84.39-2.74-.12-.89-.73-1.79-1.62-1.94-2.42-.4-4.56-2.81-5.76-4.95-1.2-2.14-1.82-4.57-2.21-6.99-.13-.79.39-1.87.96-2.44,3.09-12.26,14.73-22.41,27.3-23.76,7.02-.76,13.06,3.34,18.86,7.37Z"/>
        <path class="cls-11" d="M117.12,339.57c-.18.25-.08.63.15.84s.55.29.85.35c.86.17,1.75.25,2.63.22,1.12-.03,3.1-1.13,1.1-1.36-.21-.02-4.94.24-4.74-.05Z"/>
        <path class="cls-1" d="M78.4,301.38c-5.65,6.43-8.62,15.13-8.08,23.67.15,2.32.59,4.74,2.03,6.56,2.11-.29,4.21-.57,6.32-.86"/>
        <path class="cls-53" d="M96.01,293.81c-10.48.36-20.35,7.29-24.59,16.88-2.6,5.89-3.13,12.92-.29,18.69.36.73.85,1.5,1.63,1.73.57.16,1.17,0,1.74-.15,20.28-5.66,40.38-11.96,60.26-18.88.95-.33,1.95-.69,2.64-1.43s.95-1.98.3-2.75c-1.61-1.91-11.87,2.14-14.21,1.9-3.51-.36-4.4-4.32-6.63-6.86-5.16-5.87-13.02-9.39-20.85-9.13Z"/>
        <path class="cls-37" d="M64.08,366.24c-4.95,26.52-8.22,53.36-9.78,80.29-.44,7.54-.43,15.42-.67,22.96-.02.64,0,1.38.47,1.81.43.39,1.07.4,1.65.39,20.01-.51,40.01-1.02,60.02-1.53.4-.01.83-.04,1.11-.32.29-.29.3-.75.3-1.15-.25-25.71-.51-28.7-.76-54.42-.07-6.6,1.14-.29,0-6.79-.37-2.15-6.98-38.45-8.05-40.35-2.24-3.98-2.28-7.92-6.71-9.06-12.69-3.27-27.13.24-37.57,8.17Z"/>
        <g>
          <g>
            <line class="cls-3" x1="356.07" y1="136.26" x2="355.9" y2="136.26"/>
            <g>
              <line class="cls-3" x1="356.07" y1="136.26" x2="356.07" y2="136.24"/>
              <line class="cls-3" x1="355.9" y1="136.26" x2="355.9" y2="136.24"/>
            </g>
          </g>
          <g>
            <g>
              <text class="cls-9" transform="translate(356.07 136.45)"><tspan x="0" y="0">0,0</tspan></text>
              <text class="cls-9" transform="translate(356.07 136.67)"><tspan x="0" y="0">0,2</tspan></text>
              <text class="cls-9" transform="translate(356.07 136.88)"><tspan x="0" y="0">0,4</tspan></text>
              <text class="cls-9" transform="translate(356.07 137.1)"><tspan x="0" y="0">0,6</tspan></text>
              <text class="cls-9" transform="translate(356.07 137.32)"><tspan x="0" y="0">0,8</tspan></text>
              <text class="cls-9" transform="translate(356.07 137.54)"><tspan x="0" y="0">1,0</tspan></text>
            </g>
            <line class="cls-3" x1="356.07" y1="136.26" x2="356.07" y2="137.35"/>
            <g>
              <line class="cls-3" x1="356.07" y1="136.26" x2="356.08" y2="136.26"/>
              <line class="cls-3" x1="356.07" y1="136.48" x2="356.08" y2="136.48"/>
              <line class="cls-3" x1="356.07" y1="136.7" x2="356.08" y2="136.7"/>
              <line class="cls-3" x1="356.07" y1="136.91" x2="356.08" y2="136.91"/>
              <line class="cls-3" x1="356.07" y1="137.13" x2="356.08" y2="137.13"/>
              <line class="cls-3" x1="356.07" y1="137.35" x2="356.08" y2="137.35"/>
            </g>
          </g>
          <rect class="cls-23" x="355.93" y="136.26" width=".12" height="1.08"/>
        </g>
        <g>
          <path class="cls-56" d="M114.98,506.12c.01,1.71-.54,3.26-.82,4.86l-6.02,34.4c-1.22,7.25-74.96,3.29-74.96,3.29-4.76-.16-6.62-3.06-7.31-7.14l-4.66-27.62c-.45-2.65-.32-5.83-2.17-7.6l.85-1.39c31.41.46,62.83.4,94.25-.2l.85,1.4Z"/>
          <path class="cls-46" d="M102.33,539.21c-1.95.26-3.8-2.61-4.8-3.75l4.04-3.98,5.54,4.04-4.79,3.69Z"/>
          <path class="cls-7" d="M43.85,523.78c-2.16.21-3.9-2.75-5.01-3.8l4.19-3.89,5.45,4.63c-1.4.83-2.62,2.86-4.63,3.05Z"/>
          <path class="cls-20" d="M76.18,529.1c-1.91.39-3.83-2.38-4.87-3.57l4.47-3.47c1.97-.06,4.05,2.19,5.19,3.65-1.41,1.08-2.79,2.98-4.8,3.39Z"/>
          <path class="cls-43" d="M56.4,514.02c-2.18-1.14-4.04-2.57-5.91-4.26,3.26-3.43,7.91-2.43,10.83.36l-4.92,3.9Z"/>
          <path class="cls-60" d="M89.47,539.17c-1.6.52-3.89-2.1-4.95-3.21,1.22-1.9,2.63-3.12,4.41-4.34l4.81,3.8c-1.14,1.05-2.1,3.05-4.27,3.74Z"/>
          <path class="cls-65" d="M96.08,544.76c-1.88.06-3.63-2.28-4.93-3.52l4.74-4.03c1.76,1.26,3.18,2.53,4.36,4.29-.88,1.22-2.23,3.2-4.16,3.26Z"/>
          <path class="cls-74" d="M83.24,545.27c-2.11-.97-3.46-2.25-5.27-3.7,1.49-1.8,2.75-3.05,4.64-4.23l4.81,3.82-4.18,4.1Z"/>
          <path class="cls-16" d="M31.56,534.91c-1.34.45-4.12-2.43-3.92-3.82.24-1.63,2.11-2.85,3.31-3.65,1.93.97,3.33,2.12,4.88,3.78-1.05,1.05-2.14,2.95-4.27,3.69Z"/>
          <path class="cls-13" d="M44.21,545.5c-1.8.58-4.11-2.18-4.64-3.57,1.38-1.58,2.36-2.7,4.08-3.68,1.87.97,3.27,2.28,4.37,3.9-1.01,1.13-1.88,2.73-3.81,3.35Z"/>
          <path class="cls-57" d="M100.91,518.39c-1.98-.76-3.18-2.15-4.82-3.31l4.32-4.51c1.96.84,3.41,2.32,4.75,3.75l-4.25,4.07Z"/>
          <polygon class="cls-19" points="63.57 540.08 58.59 536.28 63.4 532.29 67.72 536.14 63.57 540.08"/>
          <path class="cls-72" d="M63.4,518.71c-1.82.6-4.01-1.93-5.06-3.3l4.93-3.82,4.39,3.42c-1.11.98-2.13,3.01-4.26,3.71Z"/>
          <path class="cls-62" d="M50.24,518.54c-2.11-.1-4.06-2.38-5.21-3.8.56-1.25,2.22-3.07,3.49-2.82,2.22.44,3.94,2.2,5.7,3.7-.74.92-2.18,3-3.98,2.92Z"/>
          <path class="cls-8" d="M57.13,544.9c-1.8.33-3.56-1.81-4.87-2.99,1.16-1.61,2.81-2.85,4.86-3.8l4.33,3.39c-1.02,1.31-2.21,3.02-4.32,3.4Z"/>
          <path class="cls-46" d="M76.28,518.87l-4.98-3.76,4.4-3.77c1.87.92,3.41,2.24,4.74,3.69l-4.17,3.83Z"/>
          <path class="cls-25" d="M37.65,529.25c-1.97-.11-3.52-2.7-4.58-3.85l3.8-3.53c1.62,1.31,3.47,2.18,4.77,4.04-.79,1.1-2.3,3.43-3.99,3.33Z"/>
          <path class="cls-48" d="M50.2,539.77c-1.67.05-3.56-2-4.68-3.23l4.77-4.11,4.63,3.83-4.72,3.5Z"/>
          <path class="cls-44" d="M69.79,523.62c-1.77.64-3.68-1.56-4.84-2.9,1.21-1.57,2.82-2.91,4.86-3.97l4.24,3.18c-1.11,1.05-2.18,2.93-4.26,3.69Z"/>
          <path class="cls-67" d="M95.35,533.95l-4.67-3.7,3.96-3.82c1.98.82,3.61,2.03,5.03,3.7-1.25,1.64-2.32,2.44-4.33,3.81Z"/>
          <path class="cls-15" d="M106.7,523.18l-4.26-3.28c1.65-1.89,3.26-3.24,5.23-4.38l3.73,2.88c-1.2,1.84-2.66,3.03-4.7,4.77Z"/>
          <path class="cls-6" d="M69.82,544.85c-1.7.32-3.44-2.05-4.36-3.33,1.15-1.66,2.64-2.55,4.37-3.59l4.34,3.55c-1.08,1.32-2.24,2.98-4.35,3.38Z"/>
          <path class="cls-17" d="M82.86,533.94c-1.45.61-3.67-1.81-4.54-2.73l4.42-4.34c1.55.82,3.09,1.7,4.17,3.37-1.12,1.23-2.09,2.88-4.04,3.7Z"/>
          <path class="cls-48" d="M75.75,539.93l-3.8-3.74,4.19-3.76,4.47,3.35c-1.34,1.93-2.9,2.84-4.86,4.15Z"/>
          <path class="cls-7" d="M43.86,534.46c-1.76.32-3.23-1.98-4.3-3.14,1.11-1.38,2.34-2.74,4.09-3.88l4.47,3.49c-1.08,1.2-2.23,3.17-4.26,3.53Z"/>
          <path class="cls-18" d="M56.66,534.11c-1.79-.06-3.16-2.23-4.67-3.22l4.38-3.48c1.85.81,3.28,1.82,4.4,3.53-.85,1.12-2.31,3.23-4.11,3.16Z"/>
          <path class="cls-70" d="M50.02,529.08c-1.55-.02-2.93-2.2-4.12-3.44,1.18-.87,2.57-2.67,4.32-3.12,1.5-.12,3.27,2.11,4.12,3.49-.92,1.24-2.71,3.09-4.32,3.07Z"/>
          <path class="cls-54" d="M82.62,523.89l-4.65-3.6,4.5-3.58c1.91.79,3.28,1.91,4.52,3.65l-4.36,3.53Z"/>
          <path class="cls-15" d="M69.91,534.51c-1.94-.77-3.32-1.98-4.63-3.61,1.21-1.55,2.47-2.29,4.09-3.29,1.79.96,3.37,2.19,4.69,3.69l-4.15,3.22Z"/>
          <path class="cls-36" d="M31.95,545.36c-1.5.07-3.5-1.88-3.5-3.2,0-1.11,2.09-3.23,3.2-3.17,1.25.06,3.44,1.63,3.9,2.91.43,1.18-2.02,3.39-3.6,3.46Z"/>
          <path class="cls-47" d="M37.74,540.62c-.98-.97-3.05-2.1-3.68-3.68-.25-1.61,2.32-3.3,3.66-3.74l4.11,3.32-4.09,4.1Z"/>
          <path class="cls-59" d="M56.57,523.83c-1.9.21-3.48-2.22-4.29-3.19,1.14-1.26,2.53-3.06,4.22-3.09s3.19,2.2,4.07,3.16c-1.07,1.12-2.13,2.92-4,3.13Z"/>
          <path class="cls-66" d="M101.54,527.94c-1.57.42-3.54-1.94-4.69-2.92l3.56-3.83c1.67.95,3.11,2.03,4.65,3.67-.84.72-1.67,2.57-3.52,3.07Z"/>
          <path class="cls-35" d="M63.06,529.08c-1.94-.23-3.4-2.3-4.47-3.51l4.09-3.17c1.82.95,3.3,1.85,4.5,3.67-1.15,1.02-2.63,2.58-4.12,3.01Z"/>
          <path class="cls-45" d="M89.23,528.28c-1.32.56-3.33-1.57-4.48-2.65,1.04-1.45,2.39-2.74,4.03-3.93,1.65.91,2.87,1.8,4.31,3.17-1.03.92-1.93,2.59-3.87,3.42Z"/>
          <polygon class="cls-21" points="37.11 518.77 32.47 514.94 36.9 511.29 40.87 514.92 37.11 518.77"/>
          <path class="cls-38" d="M95.15,523.1c-1.68.08-3.39-1.91-4.65-3.03.77-1.18,2.36-3.1,4.01-3.09,1.78,0,3.25,2,4.17,3-1.05,1.04-1.79,2.4-3.53,3.12Z"/>
          <path class="cls-55" d="M69.8,513.51c-1.97-.95-3.44-2.26-4.84-3.43,1.43-1.3,2.88-2.54,4.41-2.38,1.65.17,3.48,1.22,4.68,2.36l-4.25,3.45Z"/>
          <path class="cls-10" d="M31,523.51c-1.22.22-2.96-2.12-3.56-3.2.7-1.17,2.16-3.23,3.51-3.24,1.46,0,2.97,2.02,3.64,3.25-.76,1.13-1.83,2.87-3.6,3.19Z"/>
          <path class="cls-5" d="M106.8,512.28c-1.5.18-3.14-2.22-3.82-3.1,2.71-2.19,6.25-1.73,9.28-1.17-1.3,2.03-3.12,3.98-5.47,4.27Z"/>
          <path class="cls-61" d="M94.88,512.8c-1.54.73-3.96-1.58-4.73-3.23,2.13-2.47,5.82-2.08,8.66-.42-1.11,1.16-1.97,2.72-3.93,3.65Z"/>
          <path class="cls-39" d="M85.88,510.39c.04,1.08-2.2,2.93-3.27,2.76-1.5-.24-4-1.98-4.12-3.46-.11-1.38,2.5-2.12,3.51-1.82,1.14.34,3.77.99,3.88,2.53Z"/>
          <path class="cls-72" d="M88.52,518.05c-1.72-.08-3.04-2.24-3.82-3.13.79-1.13,2.18-2.87,3.44-2.8,1.68.11,3.37,1.88,4.23,3.14-.91,1.04-2.32,2.86-3.85,2.79Z"/>
          <path class="cls-69" d="M25.25,519.03c-1.27-1.04-2.34-2.7-2.54-4.47-.08-.74,1.37-2.24,2.13-2.39,1.68.16,3.1,1.7,4.1,3.15-.96,1.47-1.77,2.26-3.69,3.7Z"/>
          <path class="cls-75" d="M43.14,512.83c-1.82-.1-3.21-1.97-4.28-2.73,1-1.65,2.23-2.49,3.73-2.36,1.2.1,3.92.9,3.77,2.27-.52,1.03-2.14,2.63-3.22,2.83Z"/>
          <path class="cls-31" d="M31.37,512.86c-1.11.56-4.14-1.57-3.68-2.72.52-1.2,2.33-2.13,3.18-2.38,1.18-.35,3.02.63,3.77,1.95-.79,1.11-1.68,2.34-3.28,3.15Z"/>
          <path class="cls-40" d="M29.58,525.74c-.9,1.77-2.01,2.58-3.4,3.65-1.15-2.33-2.13-4.72-1.04-7.61,1.85.9,2.78,2.31,4.44,3.96Z"/>
          <path class="cls-12" d="M107.72,532.93c-1.47-.69-2.63-1.56-3.98-3.04l3.59-3.42c.34-.04,1.07.37,1.71.72-.12,1.68-.42,3.23-1.32,5.74Z"/>
          <rect class="cls-68" x="14.98" y="499.3" width="104.63" height="6.4" rx="3.2" ry="3.2"/>
          <rect class="cls-58" x="18.18" y="499.3" width="98.23" height=".98" rx=".49" ry=".49"/>
          <path class="cls-68" d="M43.73,502.5s4.97-32.54,22.29-32.54,24.27,32.54,24.27,32.54h-8.94s-1.55-26.32-15.33-26.32-13.53,26.32-13.53,26.32h-8.76Z"/>
        </g>
        <path class="cls-26" d="M59.69,464.35c-.29,3.99-.59,7.99-.88,11.98-.06.84.05,1.93.87,2.13.25.06.51,0,.77.02.89.04,1.55.81,2.21,1.41s1.69,1.1,2.41.57c.42-.31.61-.9,1.08-1.14,1.24-.62,2.54,1.8,3.75,1.13.41-.23.6-.74,1.02-.94.88-.43,2.16.75,2.79,0,.53-1.88.82-3.83.84-5.78.39.21,1.01-.34,1.16-.76s.06-.88-.04-1.31c-.35-1.59-.71-3.17-1.06-4.76-.27-1.2-.67-2.57-1.24-3.66s-1.59-2.02-2.81-2.15c-.43-.05-.85,0-1.28.06-1.34.16-2.68.33-3.98.7-1.91.55-3.79,1.72-5.62,2.5Z"/>
        <path class="cls-41" d="M108.77,363.86c1.84-.01,3.01-1.99,1.96-3.5-.82-1.17-1.85-2.26-2.9-3.2-10.02-8.97-24.07-12.84-37.81-14.64-2.52-.33-5.16-.59-7.54.23s-4.41,3.05-4.03,5.4c.37,2.22,2.7,4.41,1.51,6.36-.39.64-1.09,1.05-1.7,1.51-3.31,2.45-4.72,6.63-4.63,10.57.07,3.32,1.06,6.55,2.18,9.71.37,1.04,1.45,1.66,2.53,1.45,6.11-1.15,12.05-3.07,17.61-5.69,6.94-3.26,15.38-5.81,23.04-6.98,1.46-.22,2.93-.4,4.4-.58,1.74-.21,3.47-.42,5.21-.63.05,0,.11-.01.17-.01Z"/>
        <path class="cls-41" d="M103.3,362.21c4.25,15.36,3.78,31.47,1.89,47.16-.55,4.54-1.23,9.07-1.95,13.58-.15.95.25,1.89,1.23,2.17.84.24,2.02-.29,2.17-1.23,2.59-16.17,4.68-32.7,2.7-49.06-.56-4.58-1.41-9.11-2.64-13.56-.61-2.19-4.02-1.26-3.41.94h0Z"/>
        <path class="cls-32" d="M53.62,394.09c-.53-7.5,11.35-23.03,16.94-28.07,5.58-5.04,14.38-6.63,20.92-2.92,5.68,3.22,8.88,9.75,9.59,16.23.71,6.49-.73,13.01-2.43,19.31-2.07,7.68-4.65,15.45-9.66,21.63-5.36,6.63-13.41,11.01-21.89,11.93.02-2.58-.13-5.79-.11-8.37,10.23-1.73,19.52-8.37,24.47-17.49,4.95-9.12,5.45-20.53,1.31-30.05-1.33-3.06-3.35-6.12-6.49-7.21-4.85-1.68-9.93,2.04-12.93,6.21-3,4.17-15.46,15.96-19.74,18.79Z"/>
        <path class="cls-41" d="M73.99,370.53c1.87-2.28,3.93-4.62,6.74-5.5,4.1-1.28,8.75,1.19,10.82,4.95s1.94,8.43.59,12.51-3.78,7.7-6.19,11.25c-4.63,6.82-9.29,13.62-13.44,20.74-1.55,2.66-3.04,5.39-3.86,8.35-1.28,4.64-.84,9.56-.21,14.33,1.19,9.04,3.02,17.99,5.47,26.77-4.2.97-8.41,1.94-12.61,2.92-.66.15-1.39.3-1.98-.04-.51-.3-.77-.89-.99-1.44-2.93-7.27-5.72-14.6-8.37-21.98-1.6-4.47-2.2-8.8-2.87-13.42-.74-5.06-2.76-10.22-1.28-15.35,1.43-4.95,4.97-9.38,7.66-13.68,6.49-10.35,12.73-20.92,20.5-30.39Z"/>
        <ellipse class="cls-11" cx="115.19" cy="327.96" rx="1.17" ry="1.84"/>
        <path class="cls-11" d="M111.89,325.01c.19-.34.41-.67.65-.98.03-.03.05-.07.08-.1.02-.03.11-.15.01-.02-.11.14,0,0,.03-.03.03-.04.07-.08.1-.12.12-.15.25-.29.38-.44.14-.15.29-.3.44-.43.07-.07.15-.13.23-.19.13-.1-.09.07-.05.03s.09-.07.14-.1c.18-.13.37-.23.57-.33.09-.05-.2.08-.1.04.02,0,.05-.02.07-.03.05-.02.1-.03.15-.05.09-.03.47-.09.12-.04.24-.03.44-.08.62-.26.15-.15.27-.4.26-.62-.02-.43-.39-.95-.88-.88-.53.07-1.01.22-1.47.5-.41.25-.79.56-1.13.9-.56.56-1.05,1.2-1.48,1.87-.08.13-.17.26-.24.4-.23.4-.11.98.32,1.21s.97.11,1.21-.32h0Z"/>
        <path class="cls-24" d="M155.66,353.29c-2.17-.4-4.32.53-5.86,2.27,3.35.4,6.7.74,10.06.89-.91-1.64-2.39-2.83-4.19-3.16Z"/>
        <path class="cls-29" d="M149.8,355.56c-1,1.14-1.75,2.62-2.06,4.31-.79,4.29,1.48,8.31,5.06,8.97,3.59.66,7.13-2.28,7.92-6.58.39-2.13.03-4.19-.87-5.81-3.35-.15-6.7-.49-10.06-.89Z"/>
        <line class="cls-2" x1="154.23" y1="355.56" x2="152.8" y2="368.84"/>
        <ellipse class="cls-24" cx="154.05" cy="356.74" rx="1.63" ry="1.18"/>
        <circle class="cls-24" cx="159.86" cy="359.72" r=".71"/>
        <circle class="cls-24" cx="156.81" cy="366.41" r=".71"/>
        <circle class="cls-24" cx="156.81" cy="362.13" r="1.09"/>
        <circle class="cls-24" cx="149.36" cy="358.54" r=".71"/>
        <circle class="cls-24" cx="150.08" cy="365.7" r=".71"/>
        <circle class="cls-24" cx="150.54" cy="361.94" r="1.09"/>
        <polyline class="cls-4" points="153.52 352.41 154.23 354.39 156.81 352.41"/>
      </g>
    </g>
  </g>
</svg>