<?xml version="1.0" encoding="UTF-8"?>
<svg id="Layer_2" data-name="Layer 2" xmlns="http://www.w3.org/2000/svg" viewBox="0 0 108.83 169.99">
  <defs>
    <style>
      .cls-1 {
        opacity: .5;
      }

      .cls-1, .cls-2, .cls-3 {
        fill: #9ca841;
      }

      .cls-2 {
        opacity: .2;
      }

      .cls-4 {
        fill: #e18770;
      }
    </style>
  </defs>
  <g id="Layer_9" data-name="Layer 9">
    <g>
      <g>
        <circle class="cls-2" cx="48.41" cy="48.41" r="48.41"/>
        <circle class="cls-1" cx="48.41" cy="48.41" r="31.28"/>
        <circle class="cls-3" cx="48.41" cy="48.41" r="20.75"/>
      </g>
      <path class="cls-4" d="M98.12,98.65h-.29c-2.17,0-3.95.62-5.66,1.68-1.5-4.38-5.32-7.53-10.24-7.53-2.17,0-4.25.62-5.96,1.68-1.5-4.38-5.32-7.53-10.24-7.53-1.92,0-3.7.48-5.28,1.32v-31.66c0-6.14-4.64-11.11-10.82-11.11s-11.19,4.98-11.19,11.11v63.53l-6.79-6.77c-4.37-4.34-12.1-3.72-15.83,0-3.72,3.72-6.16,11.21-.83,16.54l31.26,31.05c.64.64,1.35,1.17,2.1,1.63,5.7,4.65,12.23,7.4,26.04,7.4,31.54,0,34.46-17.02,34.46-38.01v-22.22c0-6.14-4.53-11.11-10.71-11.11"/>
    </g>
  </g>
</svg>