<?xml version="1.0" encoding="UTF-8"?>
<svg width="2160px" height="3840px" viewBox="0 0 2160 3840" version="1.1" xmlns="http://www.w3.org/2000/svg" xmlns:xlink="http://www.w3.org/1999/xlink">
    <title>少年</title>
    <g id="少年" stroke="none" fill="none" fill-rule="evenodd" stroke-width="1">
        <g id="_图层_2" transform="translate(11, 1283)">
            <g id="编组" transform="translate(28, 430)" fill-rule="nonzero">
                <path d="M58.1253184,166.52431 C34.9839636,168.102655 17.0772865,188.784416 9.68075479,210.785999 C2.28422304,232.787582 2.71931314,256.530787 0,279.580065 C4.3237079,289.458327 5.77854043,297.62218 8.51145014,308.058305 C11.2443598,318.480824 15.935175,329.107439 24.9089084,335.094264 C31.7343844,339.638809 40.137062,340.917813 47.8055251,343.81598 C46.146744,328.672033 45.1813879,313.460054 44.9366497,298.234469 C44.1888386,253.482949 49.7770271,210.500264 58.1253184,166.52431 L58.1253184,166.52431 Z" id="路径" fill="#DB5937"></path>
                <path d="M187.075148,333.420674 C185.497946,339.543564 183.784779,345.788911 180.276865,351.054596 C175.762805,357.844201 168.583818,362.470384 161.064917,365.599861 C137.243734,375.532548 110.213762,371.91324 84.720201,367.980985 C68.1323908,365.422977 49.0020228,360.960071 41.9590018,345.720879 C39.321268,340.006182 38.8725814,333.556739 38.5462638,327.270572 C35.1335258,261.38828 41.0480319,195.016157 56.0314473,130.766635 C59.3762025,116.439073 63.1832409,102.165937 68.8530088,88.6003352 C78.424991,65.6871217 93.7755137,44.5835622 115.013349,31.7663133 C136.264782,18.9490644 163.811424,15.4250013 186.245757,26.0380099 C207.252451,35.9843039 222.018322,59.4689872 219.774888,82.9264575 C217.490665,106.710482 214.948107,129.882218 213.873979,154.142467 C211.209052,214.609403 202.221722,274.804211 187.088744,333.407068 L187.075148,333.420674 Z" id="路径" fill="#7B3C63"></path>
                <path d="M206.654202,2.02267625 C185.497946,0.580395591 164.3009,-0.0863190545 143.103854,0.0089258949 C124.666911,0.0905644229 105.128646,1.11104602 89.8732994,11.4519262 C73.4078583,22.6227982 65.1955326,42.542599 60.7222625,61.9317494 C56.2489924,81.3345062 54.5358251,101.540042 46.867362,119.908711 C43.2098858,128.671246 47.8191216,140.399981 48.2406152,149.883657 C54.9301255,153.883945 63.2920134,149.080878 69.5192405,144.373056 C115.32607,109.785533 158.943853,72.2862361 200.005482,32.1745059 C204.478752,27.8068447 209.087988,23.1398422 210.93712,17.1666232 C212.786253,11.1934042 212.908623,2.44447531 206.667799,2.02267625 L206.654202,2.02267625 Z" id="路径" fill="#E7633F"></path>
                <path d="M60.6270865,212.160247 C87.3579347,211.779268 114.075186,211.411894 140.806035,211.030914 C140.806035,197.642196 140.806035,184.239871 140.806035,170.851152 C120.560748,171.54508 95.8829814,168.551667 76.1815577,173.068999 C58.6963742,177.082893 60.0152411,195.76451 60.6270865,212.160247 Z" id="路径" fill="#C39B41"></path>
                <path d="M64.4205284,307.527655 C86.3653854,308.276008 108.269453,305.813246 130.078344,303.350483 C132.03625,303.132781 134.048541,302.887865 135.748112,301.88099 C139.772696,299.472653 140.275768,293.93484 140.330155,289.240624 C140.561296,268.790173 140.806035,248.326115 141.037176,227.875664 C124.055066,227.902877 77.9083215,219.371651 64.4749146,230.773832 C56.9696103,237.141637 60.5862968,307.541261 64.4069318,307.541261 L64.4205284,307.527655 Z" id="路径" fill="#AC863F"></path>
            </g>
            <path d="M475,481.965784 C476.268884,474.40392 477.537768,466.855631 478.820152,459.293766 C480.183527,451.161707 481.776382,442.554486 487.216386,436.390955 C487.769835,435.766456 488.431275,435.141957 489.268198,435.101229 C490.901549,435.033349 491.616984,437.151214 491.643982,438.780341 C491.738473,444.210765 490.550581,451.188859 495.329145,453.686854 C498.649843,438.305179 501.957041,422.93708 505.277738,407.555406 C509.030396,405.396812 513.457992,409.931216 513.889952,414.261979 C514.321913,418.579166 512.661564,422.93708 513.309505,427.227115 C513.862955,424.28111 514.429903,421.335105 514.983353,418.389101 C515.442311,415.986138 515.982261,413.406687 517.737101,411.70968 C519.491941,410.012672 522.90713,409.890488 524.027527,412.062657 C524.756461,418.932143 525.471896,425.801629 526.200829,432.671115 C524.675468,426.887714 526.997257,420.289749 531.789319,416.746398 C535.528478,423.425819 536.486891,431.612182 534.381083,438.983982 C535.555476,436.214466 536.71637,433.44495 537.890763,430.675434 C542.399352,452.560041 532.504754,474.879082 520.112885,493.437554 C516.832684,498.352088 512.16211,503.687479 506.330642,502.927219" id="路径" fill="#E1826E" fill-rule="nonzero"></path>
            <path d="M259.357416,468.206498 C244.178679,485.818045 241.714686,511.929847 248.779946,534.063095 C255.831593,556.196343 271.173689,574.826292 288.339957,590.523246 C305.519837,606.206621 324.755314,619.472991 342.329978,634.721848 C351.382768,642.570325 360.639756,651.287838 372.387962,653.691264 C381.549658,655.565122 390.69774,648.531366 398.062491,642.787584 C445.885725,605.432636 489.624993,562.944947 518.416948,509.594314 C519.233741,508.073502 520.064148,506.457639 519.996082,504.733146 C519.914402,502.628451 518.512241,500.822487 517.042013,499.301674 C505.157674,487.053705 485.377669,484.066396 475.249435,470.324772 C448.567529,500.442284 417.624685,526.784922 383.605254,548.320709 C365.254636,524.612334 344.998169,502.384035 323.067275,481.920964 C314.640693,474.058909 305.724036,466.291904 294.928754,462.204721 C284.147086,458.117539 266.871912,459.488985 259.343803,468.206498 L259.357416,468.206498 Z" id="路径" fill="#9B8E40" fill-rule="nonzero"></path>
            <path d="M487.313849,1155 L420,1179.35213 C431.758657,1205.85378 444.134745,1232.08334 457.141987,1258 C475.212175,1251.78272 493.268641,1245.56545 511.338829,1239.36178 C512.683459,1238.89922 514.165297,1238.31423 514.741567,1237.0354 C515.276675,1235.86541 514.878775,1234.49135 514.467153,1233.28054 C505.740775,1207.0918 496.520452,1181.0527 487.313849,1155 Z" id="路径" fill="#E8CDA6" fill-rule="nonzero"></path>
            <path d="M368.301857,987.633209 C390.323306,982.136031 410.889354,974.439981 430,962.848401 C429.265498,959.210762 428.585404,955.736002 428.027727,952.682015 C425.797018,940.466063 422.12451,928.508004 417.105415,917.147169 L390.85378,896 C376.77583,900.994967 362.697881,905.97636 348.619932,910.971327 C344.70259,912.355802 338.527335,910.401249 334.950039,912.491534 C331.971227,914.228914 328.978812,915.979867 326,917.717247 C326.530473,920.554062 326.7209,923.445171 327.605022,926.186973 C328.897201,930.163944 328.978812,934.697419 331.331938,938.145032 C335.072456,943.615064 336.90871,951.786178 339.261836,957.96202 C342.798326,967.205423 346.117185,976.082348 349.068794,985.529351 C349.123202,985.705803 349.177609,985.895829 349.245619,986.072282 C355.39367,986.886678 361.704944,988.814084 368.315459,987.619636 L368.301857,987.633209 Z" id="路径" fill="#C45E50" fill-rule="nonzero"></path>
            <path d="M488,1155.64397 C468.705216,1100.87691 449.506154,1046.06904 435.257277,989.859669 C433.34284,982.294332 431.059191,972.116504 429.199453,963 C409.986716,974.62014 389.310803,982.335152 367.171713,987.845874 C360.525884,989.043266 354.180895,987.124718 348,986.294708 C368.621215,1052.16485 392.989256,1116.8512 420.912678,1180 L488,1155.64397 Z" id="路径" fill="#E38E76" fill-rule="nonzero"></path>
            <path d="M69.3059809,1199.562 C67.9326249,1201.56956 66.4776834,1203.95952 67.1847578,1206.29484 C67.7558563,1208.17949 69.5507374,1209.38129 71.2232402,1210.41922 C87.1188157,1220.27948 103.014391,1230.13974 118.909967,1240 C137.606644,1217.87587 156.303322,1195.73808 175,1173.61395 L118.529234,1128 C102.130548,1151.85855 85.7318621,1175.71711 69.3195784,1199.57566 L69.3059809,1199.562 Z" id="路径" fill="#BA9F77" fill-rule="nonzero"></path>
            <path d="M215.128658,961.027661 C208.738441,971.673244 207.621175,986.198611 202.647979,997.633763 C195.767255,1013.42516 185.929864,1027.78717 176.174224,1041.90414 C156.444941,1070.45118 136.729283,1098.98461 117,1127.53165 L173.585437,1173 C182.523565,1162.47694 191.448068,1151.95387 200.386196,1141.44442 C226.369444,1110.84178 252.652446,1079.8035 270.065446,1043.63303 C284.3174,1014.01054 292.206388,981.815135 300,949.892 C277.00067,948.27202 229.298861,937.422238 215.128658,961.027661 L215.128658,961.027661 Z" id="路径" fill="#B55A47" fill-rule="nonzero"></path>
            <path d="M188.606762,956.508025 C188.688528,958.779611 188.811177,961.200823 190.14669,963.077942 C191.891034,965.539961 195.188934,966.3561 198.187025,966.981806 C240.664524,975.687287 284.082333,980.067232 327.486514,980.000762 C334.750071,900.167242 339.5879,820.117627 342,740 C341.986372,740.53049 255.396053,746.243462 247.573761,746.950782 C228.208819,748.719083 193.39008,743.808648 188.293325,766.388488 C181.888312,794.844528 186.79428,830.632215 186.821535,859.768371 C186.84879,892.019456 187.448409,924.284144 188.606762,956.508025 L188.606762,956.508025 Z" id="路径" fill="#1D2B3B" fill-rule="nonzero"></path>
            <path d="M363.685998,740 C389.32767,805.074287 405.464357,869.481633 434.95977,933.099541 C435.164032,933.535093 434.524011,934.229255 434.524011,934.705641 C434.524011,945.553624 421.328695,950.848311 410.775166,955.285503 C351.226024,980.275336 284.56857,984.821417 219.477123,989 C221.969118,943.430305 217.706854,897.792555 213.44459,852.345359 C209.958521,815.214497 206.472452,778.097245 203,740.966382 C251.954759,739.292227 315.058057,745.376353 363.713233,740 L363.685998,740 Z" id="路径" fill="#1E425B" fill-rule="nonzero"></path>
            <g id="编组" transform="translate(0, 1189)" fill-rule="nonzero">
                <path d="M51.7820956,19.1449193 L5.18641536,66.9390378 L117.824396,161.640936 C117.824396,161.640936 134.141049,153.909334 128.997017,129.610013 C123.852984,105.310692 105.590308,94.9473457 105.617525,78.2432672 C105.644742,61.5391888 122.383261,50.1667794 122.383261,50.1667794 L70.0311631,0 L51.7684871,19.1312834 L51.7820956,19.1449193 Z" id="路径" fill="#4F3E4E"></path>
                <polygon id="矩形" fill="#262F3B" transform="translate(61.6618, 114.7526) rotate(40) translate(-61.6618, -114.7526)" points="-12.961481 107.859506 136.271603 108.007503 136.285123 121.645776 -12.9479603 121.497779"></polygon>
            </g>
            <g id="编组" transform="translate(453, 1235)" fill-rule="nonzero">
                <path d="M7.34641931,45.3257088 L25.2168219,109.225752 L163.169269,59.4189175 C163.169269,59.4189175 164.676575,41.5214901 141.170749,33.8589001 C117.664923,26.1963102 99.5908304,36.742525 85.2103164,28.4030278 C70.8298025,20.0635306 69.4175518,0 69.4175518,0 L0,20.0906069 L7.34641931,45.3257088 L7.34641931,45.3257088 Z" id="路径" fill="#1E425B"></path>
                <polygon id="矩形" fill="#262F3B" transform="translate(94.7378, 84.3346) rotate(-19.91) translate(-94.7378, -84.3346)" points="20.3629648 77.4841019 169.099382 77.628604 169.112583 91.1850684 20.376166 91.0405663"></polygon>
            </g>
            <path d="M385.86981,275.670861 C393.325066,284.831759 397.77111,296.42199 398.34042,308.229369 C398.543745,312.382309 398.2862,316.603108 399.343491,320.633903 C400.387227,324.651126 403.098229,328.573347 407.124067,329.604797 C408.818443,330.039091 410.661924,329.944089 412.261416,330.649817 C415.623058,332.142704 416.612574,336.648509 415.650168,340.217866 C414.687762,343.773651 412.356301,346.772997 410.675479,350.057348 C406.595421,358.078223 406.649641,367.456267 405.836341,376.413589 C405.036595,385.370911 402.867793,395.02039 395.900518,400.706932 C391.60358,404.222002 386.032471,405.728461 380.583356,406.773482 C371.406614,408.537803 362.040102,409.270674 352.714255,408.944954 C350.599673,408.877095 348.335987,408.782093 346.56028,409.922116 C345.137004,410.844992 344.269484,412.405737 343.483293,413.912196 C337.885074,424.593124 332.991715,435.654059 328.870992,447 C310.531063,445.547828 292.611339,439.141986 277.511057,428.610347 C276.155556,427.660328 274.745835,426.588163 274.19008,425.027418 C273.512329,423.073093 274.35274,420.955908 275.193151,419.069442 C279.774744,408.822808 284.830763,398.793322 290.334097,389.021698 C285.291633,384.665183 280.005179,379.982946 274.962715,375.612859 C253.179814,356.761768 240.790534,326.334017 248.11024,298.457745 C255.4435,270.581474 280.452495,248.418888 308.877351,243.858797 C337.302208,239.298706 367.678986,253.331844 385.86981,275.670861 L385.86981,275.670861 Z" id="路径" fill="#E1826E" fill-rule="nonzero"></path>
            <path d="M394.35842,275.487463 C401.022978,280.12528 408.205436,286.85627 406.828912,294.900624 C405.234324,304.23098 393.786004,307.51439 384.450171,308.855116 C372.933705,310.510501 361.41724,312.165887 349.914403,313.834954 C348.837716,313.985443 347.665626,314.190656 346.929662,314.997828 C346.071038,315.928128 346.084667,317.337258 346.04378,318.609579 C345.539509,332.878731 332.305795,342.87945 320.380461,350.663867 C320.65304,346.094455 320.91199,341.415596 319.644498,337.024036 C318.390634,332.618794 315.296862,328.473489 310.908339,327.22853 C304.271038,325.35425 297.374788,330.99077 295.371332,337.612313 C293.381505,344.233856 294.976092,351.375273 296.802372,358.051539 C297.838172,361.868503 303.071691,364.454189 306.955942,365.124551 C306.656105,365.712829 306.301752,367.067236 306.001915,367.655513 C305.742965,368.189067 306.083689,367.997535 306.083689,368.585813 C306.083689,374.509631 302.390243,379.735725 299.391873,384.838691 C296.393503,389.941657 291.923207,394.428984 286.294449,396.23486 C280.665691,398.040735 273.837586,396.658967 270.185026,391.993789 C271.030021,389.148167 271.861387,385.946842 271.466148,383.005454 C271.070908,380.064066 269.067452,377.122678 266.150856,376.643848 C258.218805,375.330484 251.240781,367.422938 247.302014,360.377288 C243.363246,353.331638 241.346161,345.369369 240.065039,337.393419 C239.642542,334.780372 241.346161,331.250707 243.213328,329.390108 C253.33964,289.099933 291.432564,255.745962 332.605632,251.299677 C355.597676,248.809758 375.359659,262.271739 394.35842,275.501144 L394.35842,275.487463 Z" id="路径" fill="#492528" fill-rule="nonzero"></path>
            <path d="M383.29309,364 C382.71305,364.882029 383.055801,366.205072 383.780852,366.954796 C384.505902,367.68982 385.507791,367.969129 386.470131,368.189636 C389.212141,368.807056 392.006882,369.071665 394.801622,368.983462 C398.360962,368.865858 404.609581,364.999632 398.295049,364.176406 C397.622729,364.088203 382.647136,365.014333 383.29309,364 Z" id="路径" fill="#492528" fill-rule="nonzero"></path>
            <path d="M256.170915,239 C238.024655,260.045849 228.463434,288.561338 230.201838,316.517968 C230.66987,324.110285 232.087337,332.016109 236.714166,338 C243.480568,337.05948 250.24697,336.118959 257,335.178439" id="路径"></path>
            <path d="M314.534555,215.047416 C280.292568,216.215676 248.023202,238.84731 234.174039,270.132215 C225.67136,289.340577 223.95722,312.284653 233.235343,331.139819 C234.418916,333.530676 235.997013,336.043793 238.568223,336.777351 C240.418406,337.307143 242.404632,336.790936 244.254815,336.274728 C310.521291,317.799925 376.202783,297.26029 441.190456,274.66941 C444.305838,273.582657 447.557262,272.414397 449.801969,270.009956 C452.046676,267.59193 452.903746,263.543774 450.781478,261.017073 C445.530223,254.795412 411.982055,268.013047 404.35005,267.225151 C392.881637,266.043307 389.983924,253.124529 382.664819,244.824452 C365.795504,225.670428 340.124217,214.164429 314.534555,215.047416 L314.534555,215.047416 Z" id="路径" fill="#DE9254" fill-rule="nonzero"></path>
            <path d="M210.078974,451.740709 C193.970759,538.567526 183.313304,626.416476 178.215082,714.606138 C176.791376,739.273621 176.818494,765.085894 176.018507,789.780635 C175.950711,791.893044 175.991389,794.29165 177.537126,795.722637 C178.920155,796.999822 181.021816,797.030967 182.906531,796.990082 C248.071581,795.313783 313.23663,793.651113 378.415239,791.974814 C379.703354,791.947558 381.140619,791.852158 382.03552,790.925424 C382.971098,789.971433 383.011775,788.485933 383.001413,787.150345 C382.171111,702.967446 381.344005,693.182224 380.5169,608.999325 C380.299955,587.384613 384.218535,608.045334 380.5169,586.757704 C379.296581,579.725427 357.778284,460.885395 354.293595,454.657196 C346.998797,441.614775 346.863206,428.722267 332.44988,424.988074 C291.108174,414.276116 244.071645,425.792152 210.078974,451.754338 L210.078974,451.740709 Z" id="路径" fill="#AA9B41" fill-rule="nonzero"></path>
            <g id="编组" transform="translate(484, 0)">
                <g id="路径" stroke="#000000">
                    <line x1="0.890365449" y1="0.569410319" x2="0.664451827" y2="0.569410319"></line>
                    <g id="编组">
                        <line x1="0.890365449" y1="0.569410319" x2="0.890365449" y2="0.536240786" id="路径"></line>
                        <line x1="0.664451827" y1="0.569410319" x2="0.664451827" y2="0.536240786" id="路径"></line>
                    </g>
                </g>
                <g transform="translate(0.2259, 0.0166)">
                    <g transform="translate(0.6645, 0.7629)" fill="#000000" fill-rule="nonzero" font-family="Helvetica" font-size="0.5" font-weight="normal">
                        <g id="0,0">
                            <text>
                                <tspan x="0" y="0">0,0</tspan>
                            </text>
                        </g>
                        <g id="0,2" transform="translate(0, 0.2322)">
                            <text>
                                <tspan x="0" y="0">0,2</tspan>
                            </text>
                        </g>
                        <g id="0,4" transform="translate(0, 0.4754)">
                            <text>
                                <tspan x="0" y="0">0,4</tspan>
                            </text>
                        </g>
                        <g id="0,6" transform="translate(0, 0.7187)">
                            <text>
                                <tspan x="0" y="0">0,6</tspan>
                            </text>
                        </g>
                        <g id="0,8" transform="translate(0, 0.9619)">
                            <text>
                                <tspan x="0" y="0">0,8</tspan>
                            </text>
                        </g>
                        <g id="1,0" transform="translate(0, 1.1941)">
                            <text>
                                <tspan x="0" y="0">1,0</tspan>
                            </text>
                        </g>
                    </g>
                    <line x1="0.664451827" y1="0.552825553" x2="0.664451827" y2="1.74692875" id="路径" stroke="#000000"></line>
                    <g id="路径" transform="translate(0.0066, 0)" stroke="#000000">
                        <line x1="0.657807309" y1="0.552825553" x2="0.671096346" y2="0.552825553"></line>
                        <line x1="0.657807309" y1="0.796068796" x2="0.671096346" y2="0.796068796"></line>
                        <line x1="0.657807309" y1="1.02825553" x2="0.671096346" y2="1.02825553"></line>
                        <line x1="0.657807309" y1="1.27149877" x2="0.671096346" y2="1.27149877"></line>
                        <line x1="0.657807309" y1="1.51474201" x2="0.671096346" y2="1.51474201"></line>
                        <line x1="0.657807309" y1="1.74692875" x2="0.671096346" y2="1.74692875"></line>
                    </g>
                </g>
                <rect id="矩形" stroke="#000000" stroke-width="0.5" fill="#000000" fill-rule="nonzero" x="0.704318937" y="0.569410319" width="1" height="1.19410319"></rect>
            </g>
            <g id="编组" transform="translate(50, 791)" fill-rule="nonzero">
                <path d="M325.914517,118.294098 C325.953887,123.890837 324.149439,128.970117 323.240431,134.18557 L303.608578,246.705903 C299.633365,270.413745 59.2890109,257.477243 59.2890109,257.477243 C43.7951778,256.946165 37.7170367,247.482093 35.4784356,234.13707 L20.2830827,143.785816 C18.8313838,135.125168 19.2248349,124.721497 13.2009628,118.934115 L15.9551206,114.372295 C118.333811,115.897441 220.726068,115.665946 323.14546,113.705044 L325.914517,118.294098 L325.914517,118.294098 Z" id="路径" fill="#F1A353"></path>
                <path d="M284.682223,226.552194 C278.319169,227.410089 272.295297,218.000486 269.052717,214.269326 L282.226546,201.25112 L300.298162,214.473587 L284.682223,226.538577 L284.682223,226.552194 Z" id="路径" fill="#CE6D37"></path>
                <path d="M94.0890825,176.086219 C87.0340972,176.780705 81.3765417,167.085137 77.7540781,163.667177 L91.4027612,150.948553 L109.175897,166.104686 C104.630859,168.82816 100.642078,175.446202 94.0890825,176.099836 L94.0890825,176.086219 Z" id="路径" fill="#CE6F39"></path>
                <path d="M199.452574,193.475601 C193.23876,194.755634 186.970677,185.672848 183.578857,181.791897 L198.163683,170.448627 C204.581006,170.257984 211.351078,177.611364 215.08208,182.391061 C210.49634,185.904343 205.992003,192.127481 199.452574,193.475601 L199.452574,193.475601 Z" id="路径" fill="#CE6B35"></path>
                <path d="M134.980863,144.12625 C127.858041,140.395091 121.820602,135.73795 115.728893,130.19568 C126.352073,118.988584 141.520291,122.256753 151.017387,131.366774 L134.980863,144.12625 Z" id="路径" fill="#CF7139"></path>
                <path d="M242.786465,226.402403 C237.563062,228.090957 230.087491,219.525631 226.668537,215.917028 C230.657317,209.680272 235.22949,205.731235 241.036286,201.727728 L256.72006,214.14677 C252.989059,217.56473 249.882152,224.114685 242.786465,226.388786 L242.786465,226.402403 Z" id="路径" fill="#CC6832"></path>
                <path d="M264.30417,244.704149 C258.171759,244.90841 252.473502,237.24183 248.226944,233.183854 L263.666508,220.002239 C269.405467,224.14192 274.031909,228.2816 277.871449,234.041748 C275.008753,238.045255 270.612955,244.499889 264.30417,244.717767 L264.30417,244.704149 Z" id="路径" fill="#CE6C35"></path>
                <path d="M222.476247,246.379086 C215.597637,243.192621 211.188271,239.012088 205.286504,234.273243 C210.14359,228.376922 214.254476,224.291711 220.414021,220.451612 L236.084229,232.952358 L222.46268,246.379086 L222.476247,246.379086 Z" id="路径" fill="#CD6B35"></path>
                <path d="M54.0384738,212.48545 C49.6698098,213.956126 40.6068672,204.546523 41.2580966,199.998322 C42.0314315,194.687547 48.1367072,190.68404 52.0305164,188.055888 C58.3121668,191.242352 62.8979072,194.973512 67.9313679,200.406843 C64.5124135,203.852038 60.9577863,210.047941 54.0249065,212.48545 L54.0384738,212.48545 Z" id="路径" fill="#C66631"></path>
                <path d="M95.2423013,247.114424 C89.3676693,249.007238 81.8378292,239.965304 80.1147848,235.417103 C84.6191215,230.256119 87.8074322,226.579429 93.4107185,223.392964 C99.5159943,226.552194 104.0746,230.855283 107.656362,236.138823 C104.359513,239.842748 101.523952,245.085436 95.2558685,247.114424 L95.2423013,247.114424 Z" id="路径" fill="#CD6D33"></path>
                <path d="M280.055781,158.438107 C273.597756,155.959745 269.703947,151.397926 264.331304,147.625914 L278.427707,132.864685 C284.804329,135.601776 289.539309,140.44956 293.907973,145.120318 L280.055781,158.438107 L280.055781,158.438107 Z" id="路径" fill="#CE6C36"></path>
                <polygon id="路径" fill="#C76730" points="158.357285 229.398225 142.130819 216.965565 157.787459 203.920124 171.870295 216.488957"></polygon>
                <path d="M157.801026,159.473027 C151.872125,161.433928 144.735736,153.168184 141.316782,148.674452 L157.380441,136.160088 L171.693921,147.326332 C168.071457,150.540032 164.761041,157.158074 157.801026,159.459409 L157.801026,159.473027 Z" id="路径" fill="#CD6D35"></path>
                <path d="M114.901289,158.941949 C108.036246,158.62875 101.673192,151.166431 97.9286226,146.522907 C99.746638,142.437696 105.146415,136.486905 109.298003,137.317565 C116.529363,138.761006 122.132649,144.507537 127.858041,149.40979 C125.429498,152.405611 120.762354,159.214297 114.901289,158.955567 L114.901289,158.941949 Z" id="路径" fill="#C86630"></path>
                <path d="M137.382271,245.16714 C131.521206,246.242912 125.76868,239.243584 121.508554,235.389868 C125.280258,230.133563 130.680035,226.075586 137.341569,222.943591 L151.45154,234.028131 C148.141124,238.303985 144.247314,243.887107 137.382271,245.153522 L137.382271,245.16714 Z" id="路径" fill="#CF6F37"></path>
                <path d="M199.791756,160.004104 L183.56529,147.721236 L197.905904,135.397516 C204.01118,138.406955 209.017506,142.723661 213.359036,147.476123 L199.778189,160.004104 L199.791756,160.004104 Z" id="路径" fill="#CE6D37"></path>
                <path d="M73.8874035,193.979444 C67.4565131,193.611775 62.4366197,185.128153 58.9498289,181.383376 L71.3503223,169.849463 C76.6144267,174.125318 82.651866,176.984965 86.8984244,183.07193 C84.3342086,186.653298 79.3957189,194.292643 73.9009708,193.979444 L73.8874035,193.979444 Z" id="路径" fill="#CD6E38"></path>
                <path d="M114.765616,228.363305 C109.325137,228.54033 103.165592,221.813349 99.5295616,217.809842 L115.064096,204.383115 L130.150911,216.911096 L114.765616,228.376922 L114.765616,228.363305 Z" id="路径" fill="#D06F38"></path>
                <path d="M178.613233,175.555141 C172.847139,177.665834 166.619758,170.43501 162.834487,166.063834 C166.782565,160.916468 172.033103,156.545292 178.681069,153.08648 L192.478993,163.503769 C188.856529,166.948963 185.383305,173.090397 178.613233,175.555141 Z" id="路径" fill="#CF713A"></path>
                <path d="M261.929896,209.353455 L246.720976,197.26123 L259.609891,184.774101 C266.067916,187.470341 271.386289,191.432996 276.012732,196.879944 C271.942548,202.245188 268.455757,204.859723 261.916328,209.339838 L261.929896,209.353455 Z" id="路径" fill="#CF6E35"></path>
                <path d="M298.927867,174.1117 L285.034973,163.39483 C290.421182,157.226161 295.67172,152.786898 302.089043,149.082973 L314.245325,158.519811 C310.337949,164.525071 305.589401,168.433257 298.941434,174.125318 L298.927867,174.1117 Z" id="路径" fill="#D0713A"></path>
                <path d="M178.721771,244.990114 C173.186321,246.025034 167.501631,238.303985 164.530397,234.0826 C168.261399,228.649269 173.132052,225.762387 178.762473,222.330809 L192.899578,233.946426 C189.372086,238.249516 185.613949,243.696464 178.721771,244.990114 Z" id="路径" fill="#CA6830"></path>
                <path d="M221.241625,209.298986 C216.506644,211.314357 209.288852,203.361812 206.426156,200.352373 L220.834607,186.176691 C225.895202,188.859313 230.887961,191.732578 234.42902,197.179526 C230.779422,201.210268 227.604679,206.589129 221.241625,209.298986 L221.241625,209.298986 Z" id="路径" fill="#CB662E"></path>
                <path d="M198.068712,228.907999 L185.695353,216.665983 L199.344036,204.369498 L213.901727,215.345098 C209.54663,221.649941 204.4589,224.645762 198.068712,228.907999 Z" id="路径" fill="#D06F38"></path>
                <path d="M94.1162171,211.014774 C88.3772579,212.063312 83.6015756,204.519289 80.0876502,200.73366 C83.7236811,196.212693 87.7260285,191.759812 93.4242858,188.028653 L108.009111,199.453627 C104.481619,203.37543 100.737049,209.802828 94.1162171,211.014774 Z" id="路径" fill="#CE6F39"></path>
                <path d="M135.849168,209.857298 C130.028806,209.666655 125.538036,202.572005 120.640248,199.33107 L134.913026,187.946949 C140.936898,190.575101 145.604042,193.884122 149.25364,199.508096 C146.472348,203.171169 141.7238,210.061559 135.849168,209.857298 Z" id="路径" fill="#C9682E"></path>
                <path d="M114.195791,193.407514 C109.148763,193.353045 104.644426,186.203925 100.777751,182.173184 C104.603724,179.313536 109.16233,173.430832 114.860587,171.960156 C119.731241,171.578869 125.510902,178.864163 128.278627,183.371512 C125.266691,187.443106 119.43276,193.489219 114.182223,193.421132 L114.195791,193.407514 Z" id="路径" fill="#CC6B32"></path>
                <path d="M220.454723,176.440271 L205.286504,164.661245 L219.952733,152.936689 C226.180115,155.523989 230.64375,159.187062 234.673231,164.879123 L220.454723,176.440271 Z" id="路径" fill="#CC6931"></path>
                <path d="M179.033819,211.178183 C172.711467,208.658969 168.20713,204.682697 163.947004,199.371923 C167.881515,194.292643 171.992401,191.882369 177.28364,188.600582 C183.104003,191.732578 188.286703,195.749702 192.560396,200.665573 L179.033819,211.1918 L179.033819,211.178183 Z" id="路径" fill="#D0713A"></path>
                <path d="M55.3002308,246.651433 C50.4024429,246.869311 43.9037161,240.496382 43.8901488,236.193293 C43.8901488,232.543837 50.6873558,225.63983 54.3098194,225.816856 C58.3664359,226.007499 65.5163921,231.141248 67.0223601,235.349016 C68.4062226,239.216349 60.4557969,246.433555 55.3002308,246.651433 L55.3002308,246.651433 Z" id="路径" fill="#CB6B31"></path>
                <path d="M74.1858837,231.154866 C70.9840057,227.968401 64.2410679,224.291711 62.205976,219.130727 C61.3783719,213.874422 69.7765179,208.332152 74.1316145,206.902329 L87.5225193,217.755373 L74.1858837,231.154866 Z" id="路径" fill="#C76630"></path>
                <path d="M135.537121,176.222393 C129.350442,176.903261 124.208443,168.950717 121.535689,165.777869 C125.253123,161.665423 129.784595,155.782719 135.279343,155.67378 C140.706254,155.564841 145.671879,162.863752 148.561709,165.995747 C145.088486,169.645203 141.628829,175.555141 135.537121,176.222393 L135.537121,176.222393 Z" id="路径" fill="#C9672F"></path>
                <path d="M282.118007,189.662737 C277.003143,191.038092 270.58582,183.33066 266.841251,180.116961 L278.441275,167.602597 C283.868187,170.720975 288.5896,174.234257 293.582359,179.626735 C290.841768,181.968923 288.14188,188.04227 282.10444,189.676355 L282.118007,189.662737 Z" id="路径" fill="#CF6E37"></path>
                <path d="M156.68851,193.407514 C150.35259,192.658559 145.61761,185.890726 142.117252,181.914454 L155.453887,171.551635 C161.396356,174.656395 166.226307,177.611364 170.120116,183.562155 C166.389114,186.898411 161.545596,192.004925 156.68851,193.407514 Z" id="路径" fill="#CE6D35"></path>
                <path d="M241.985995,190.792979 C237.6716,192.631324 231.145739,185.65923 227.40117,182.118714 C230.779422,177.366252 235.188788,173.158484 240.547863,169.250299 C245.934073,172.218886 249.895719,175.133003 254.589998,179.626735 C251.23888,182.649792 248.321915,188.09674 241.985995,190.806597 L241.985995,190.792979 Z" id="路径" fill="#CC6830"></path>
                <polygon id="路径" fill="#CC6D37" points="72.1236572 159.690905 56.9961407 147.162924 71.4452932 135.206872 84.3749105 147.08122"></polygon>
                <path d="M261.265099,173.85297 C255.770351,174.1117 250.221334,167.602597 246.110448,163.939524 C248.620395,160.085808 253.816663,153.808201 259.162171,153.821774 C264.982534,153.821774 269.771783,160.371773 272.756585,163.65356 C269.351198,167.07152 266.909087,171.497165 261.265099,173.866588 L261.265099,173.85297 Z" id="路径" fill="#CD6B34"></path>
                <path d="M178.653935,142.492166 C172.236612,139.387405 167.447362,135.097933 162.861622,131.28507 C167.515199,127.03645 172.250179,122.992091 177.256505,123.495934 C182.642715,124.054246 188.585183,127.485823 192.49256,131.216983 L178.653935,142.492166 L178.653935,142.492166 Z" id="路径" fill="#CB6A2F"></path>
                <path d="M52.1933238,175.187472 C48.2181109,175.909193 42.5334209,168.269848 40.6068672,164.729332 C42.8861701,160.916468 47.6618525,154.148635 52.0440837,154.134976 C56.7926315,154.1214 61.7175539,160.75306 63.9290205,164.756567 C61.4462083,168.446874 57.9865521,174.152552 52.2068911,175.20109 L52.1933238,175.187472 Z" id="路径" fill="#CA6A34"></path>
                <path d="M299.253481,138.447807 C294.369261,139.046971 289.023753,131.203365 286.812286,128.316483 C295.644585,121.167363 307.19034,122.651657 317.067319,124.490002 C312.834328,131.148896 306.918994,137.508208 299.239914,138.447807 L299.253481,138.447807 Z" id="路径" fill="#D07339"></path>
                <path d="M260.396793,140.163595 C255.390467,142.546635 247.507878,135.016229 244.997931,129.596516 C251.944378,121.507798 263.978555,122.801448 273.217872,128.234779 C269.581841,132.034025 266.786982,137.126922 260.396793,140.163595 L260.396793,140.163595 Z" id="路径" fill="#CE6C32"></path>
                <path d="M231.064335,132.26552 C231.186441,135.806037 223.914379,141.865767 220.414021,141.293837 C215.5298,140.490412 207.362298,134.825586 206.982414,129.964185 C206.629665,125.456835 215.136349,123.046561 218.406063,124.013394 C222.123498,125.116401 230.698019,127.267945 231.064335,132.279138 L231.064335,132.26552 Z" id="路径" fill="#D07338"></path>
                <path d="M239.679558,157.3351 C234.062704,157.062752 229.775444,150.008954 227.238362,147.094837 C229.816145,143.390912 234.347617,137.712469 238.458502,137.943964 C243.926116,138.298016 249.447999,144.071781 252.229291,148.211461 C249.271624,151.602187 244.672316,157.566595 239.679558,157.3351 L239.679558,157.3351 Z" id="路径" fill="#CD6D35"></path>
                <path d="M33.4704782,160.521564 C29.3460253,157.130839 25.8320999,151.683891 25.1808705,145.896508 C24.9095249,143.486234 29.6445055,138.556746 32.1137503,138.093755 C37.5813639,138.611215 42.2213734,143.649642 45.4775205,148.415722 C42.343479,153.222654 39.724994,155.809954 33.4704782,160.535182 L33.4704782,160.521564 Z" id="路径" fill="#C96A33"></path>
                <path d="M91.7555105,140.258917 C85.8266094,139.945717 81.3087053,133.817901 77.8083473,131.312304 C81.0780616,125.919826 85.0939763,123.182734 89.9646296,123.591255 C93.8855733,123.918072 102.731439,126.532607 102.256585,131.012722 C100.574242,134.38983 95.2694358,139.605283 91.7555105,140.258917 L91.7555105,140.258917 Z" id="路径" fill="#CD6B30"></path>
                <path d="M53.4143789,140.367856 C49.8054826,142.206201 39.9285032,135.234107 41.4344712,131.462096 C43.1303812,127.526675 49.0185804,124.503619 51.81344,123.67296 C55.6665473,122.5291 61.6497175,125.7428 64.1189624,130.059506 C61.5411793,133.695344 58.6377815,137.712469 53.4279462,140.367856 L53.4143789,140.367856 Z" id="路径" fill="#CF723A"></path>
                <path d="M47.5804488,182.472766 C44.6499164,188.260148 41.0274529,190.901918 36.4959815,194.4152 C32.7514124,186.775855 29.5359672,178.959484 33.117729,169.536264 C39.141601,172.491233 42.1671043,177.107522 47.5804488,182.472766 Z" id="路径" fill="#CE7135"></path>
                <path d="M302.25185,206.017199 C297.449033,203.770333 293.690897,200.924303 289.281531,196.062902 L300.976526,184.88304 C302.075475,184.760484 304.449749,186.094986 306.552678,187.238845 C306.172794,192.75388 305.19595,197.805925 302.25185,206.003582 L302.25185,206.017199 Z" id="路径" fill="#CB6C32"></path>
                <rect id="矩形" fill="#93371E" x="0" y="96.0024626" width="341" height="20.9298986" rx="3.20000005"></rect>
                <rect id="矩形" fill="#D78E5E" x="10.4196706" y="96.0024626" width="320.147092" height="3.21369946" rx="0.49000001"></rect>
                <path d="M93.6956314,106.460603 C93.6956314,106.460603 109.90853,0 166.321278,0 C222.734026,0 245.404949,106.460603 245.404949,106.460603 L216.289568,106.460603 C216.289568,106.460603 211.24254,20.357969 166.321278,20.357969 C121.400016,20.357969 122.22762,106.460603 122.22762,106.460603 L93.6956314,106.460603 L93.6956314,106.460603 Z" id="路径" fill="#93371E"></path>
            </g>
            <path d="M195.901323,772.693263 C194.945132,785.718351 194.002409,798.743439 193.046218,811.768527 C192.844206,814.498499 193.221295,818.084133 195.860921,818.722485 C196.66897,818.912632 197.517421,818.749648 198.352404,818.790394 C201.247912,818.939796 203.375774,821.438874 205.517103,823.408257 C207.658432,825.377639 210.971432,826.993891 213.314773,825.268983 C214.688456,824.250337 215.281025,822.335283 216.80285,821.561112 C220.816159,819.523819 225.018012,827.442095 228.950516,825.241819 C230.270328,824.508394 230.876365,822.824233 232.23658,822.158717 C235.091686,820.773359 239.239669,824.61705 241.259791,822.158717 C242.983628,816.033259 243.899417,809.663325 243.980222,803.293392 C245.246165,803.986071 247.239351,802.179672 247.737648,800.821477 C248.235945,799.463282 247.926193,797.955686 247.616441,796.543164 C246.471705,791.368442 245.326969,786.193719 244.182234,781.018997 C243.320315,777.107396 242.027437,772.625354 240.182393,769.066883 C238.337348,765.521995 235.037816,762.479639 231.091845,762.058598 C229.718162,761.909197 228.331012,762.07218 226.957329,762.248745 C222.634268,762.778441 218.270805,763.308137 214.082419,764.530513 C207.900847,766.32333 201.840481,770.153439 195.914791,772.693263 L195.901323,772.693263 Z" id="路径" fill="#E38E76" fill-rule="nonzero"></path>
            <path d="M355.299726,443.606656 C361.329261,443.565961 365.140254,437.122537 361.69675,432.198404 C359.029055,428.373045 355.667215,424.846118 352.2101,421.753275 C319.449171,392.534042 273.499485,379.904931 228.597823,374.031241 C220.363356,372.959598 211.734179,372.104997 203.935254,374.777322 C196.136329,377.449648 189.507924,384.720543 190.773718,392.384826 C191.971459,399.628591 199.593444,406.736705 195.714398,413.112304 C194.434993,415.20133 192.162008,416.544275 190.147626,418.036436 C179.313518,426.012717 174.726716,439.632081 175.01254,452.491799 C175.257533,463.316751 178.483266,473.829706 182.158152,484.139185 C183.369503,487.530461 186.881061,489.538096 190.433451,488.873406 C210.400331,485.115872 229.822785,478.875925 248.020276,470.32991 C270.695683,459.694869 298.298161,451.406591 323.341828,447.581231 C328.11918,446.848716 332.923753,446.278981 337.728327,445.695682 C343.403984,445.017427 349.079641,444.325607 354.755298,443.647351 C354.932237,443.620221 355.122787,443.620221 355.313337,443.606656 L355.299726,443.606656 Z" id="路径" fill="#EAB84B" fill-rule="nonzero"></path>
            <path d="M340.233519,436.97336 C347.296321,462.158531 350.512907,488.199509 351.074099,514.308408 C351.648978,540.634655 349.623213,566.960902 346.406627,593.069801 C344.599864,607.754359 342.39616,622.370996 340.041893,636.974048 C339.836578,638.26455 340.384083,639.541468 341.725467,639.921827 C342.875226,640.247849 344.490363,639.527884 344.695677,638.250966 C348.952521,611.897551 352.716611,585.421877 354.646563,558.783193 C356.562827,532.361856 356.672328,505.723172 353.483117,479.396925 C351.690041,464.644446 348.89777,450.014225 344.887303,435.696442 C344.05236,432.721495 339.384888,433.984828 340.219831,436.97336 L340.219831,436.97336 L340.233519,436.97336 Z" id="路径" fill="#EAB84B" fill-rule="nonzero"></path>
            <path d="M175.055904,543.699687 C173.325272,519.225135 212.216807,468.592814 230.490651,452.154277 C248.778121,435.715741 277.558402,430.543914 298.980089,442.638659 C317.580981,453.13163 328.060165,474.416209 330.390387,495.57862 C332.720608,516.74103 328.005657,538.012034 322.432203,558.563599 C315.645943,583.608273 307.210813,608.924433 290.831127,629.082342 C273.265889,650.692705 246.924845,665.000069 219.180218,668 C219.26198,659.597478 218.744153,649.118081 218.825916,640.715559 C252.321148,635.082204 282.736673,613.431117 298.939208,583.676144 C315.141743,553.934746 316.763359,516.727455 303.245349,485.682919 C298.898327,475.719347 292.289219,465.715052 281.987186,462.158572 C266.1117,456.68811 249.486727,468.823578 239.675267,482.411501 C229.863808,495.999424 189.078115,534.441981 175.069531,543.686112 L175.055904,543.699687 Z" id="路径" fill="#7B3C63" fill-rule="nonzero"></path>
            <path d="M242.147746,466.11853 C248.268225,458.663266 255.058132,450.976302 264.279836,448.114134 C277.736693,443.929918 292.983244,452.012134 299.800474,464.319454 C306.617705,476.626774 306.153204,491.918925 301.740448,505.275707 C297.327691,518.632488 289.34921,530.476409 281.439037,542.11589 C266.260795,564.440796 250.959596,586.711184 237.338798,610.003776 C232.256614,618.699313 227.365695,627.640179 224.687986,637.357918 C220.493818,652.541035 221.941967,668.650949 224.004897,684.270206 C227.912167,713.859565 233.90969,743.162708 241.956481,771.907046 C228.158079,775.096318 214.373339,778.271961 200.574937,781.461234 C198.416375,781.96552 195.998239,782.428919 194.071928,781.311311 C192.391528,780.329996 191.544498,778.408255 190.820423,776.609178 C181.202527,752.798671 172.03547,728.797353 163.360237,704.632482 C158.114112,690.00817 156.160477,675.819997 153.933606,660.691398 C151.501809,644.118085 144.875843,627.217668 149.739439,610.426286 C154.425431,594.207337 166.037947,579.705689 174.877121,565.626551 C196.162181,531.730311 216.668519,497.138973 242.147746,466.13216 L242.147746,466.11853 Z" id="路径" fill="#EAB84B" fill-rule="nonzero"></path>
            <ellipse id="椭圆形" fill="#492528" fill-rule="nonzero" cx="376" cy="327" rx="4" ry="6"></ellipse>
            <path d="M364.235469,316.425067 C364.858218,315.391562 365.58927,314.395868 366.333861,313.450589 C367.63351,311.812105 369.461141,309.871132 371.329387,308.648571 C371.911521,308.270459 372.520731,307.930159 373.170556,307.665481 C373.197632,307.665481 373.333012,307.602462 373.48193,307.552047 C373.644386,307.501632 373.806842,307.451217 373.969299,307.400803 C374.131755,307.350388 374.294211,307.312576 374.456667,307.287369 C374.551433,307.262162 374.957573,307.199143 374.808655,307.22435 C375.444942,307.148728 376,306.770616 376,306.115223 C376,305.573263 375.444942,304.930473 374.808655,305.006095 C371.938597,305.346396 369.528831,306.934465 367.511668,308.787212 C365.778803,310.387885 364.276083,312.215424 362.949358,314.13119 C362.678598,314.521905 362.407838,314.925225 362.164154,315.328544 C361.406025,316.576312 363.477341,317.710647 364.235469,316.450275 L364.235469,316.450275 L364.235469,316.425067 Z" id="路径" fill="#492528" fill-rule="nonzero"></path>
            <path d="M508.239752,410.282695 C501.120497,409.055246 494.055901,411.906508 489,417.251026 C500,418.478475 511,419.539707 522,420 C518.993789,414.949559 514.170186,411.305569 508.239752,410.295481 L508.239752,410.282695 Z" id="路径" fill="#1D2B3B" fill-rule="nonzero"></path>
            <path d="M489.347986,416.013697 C486.030474,419.753065 483.552665,424.615612 482.520245,430.19042 C479.904779,444.312354 487.407035,457.530264 499.272989,459.69444 C511.138942,461.872314 522.867239,452.174613 525.482705,438.05268 C526.776672,431.039654 525.579064,424.273179 522.605693,418.944923 C511.524379,418.45182 500.443065,417.314942 489.361751,416 L489.347986,416.013697 Z" id="路径" fill="#E7633F" fill-rule="nonzero"></path>
            <line x1="504" y1="417" x2="499" y2="460" id="路径" stroke="#1D2B3B" stroke-width="0.53"></line>
            <ellipse id="椭圆形" fill="#1D2B3B" fill-rule="nonzero" cx="503" cy="421" rx="5" ry="4"></ellipse>
            <circle id="椭圆形" fill="#1D2B3B" fill-rule="nonzero" cx="521.5" cy="430.5" r="2.5"></circle>
            <circle id="椭圆形" fill="#1D2B3B" fill-rule="nonzero" cx="512.5" cy="452.5" r="2.5"></circle>
            <circle id="椭圆形" fill="#1D2B3B" fill-rule="nonzero" cx="512.5" cy="438.5" r="3.5"></circle>
            <circle id="椭圆形" fill="#1D2B3B" fill-rule="nonzero" cx="488.5" cy="426.5" r="2.5"></circle>
            <circle id="椭圆形" fill="#1D2B3B" fill-rule="nonzero" cx="490.5" cy="450.5" r="2.5"></circle>
            <circle id="椭圆形" fill="#1D2B3B" fill-rule="nonzero" cx="491.5" cy="437.5" r="3.5"></circle>
            <polyline id="路径" stroke="#1D2B3B" stroke-width="0.71" stroke-linecap="round" stroke-linejoin="round" points="502 406 504.391909 413 513 406"></polyline>
        </g>
    </g>
</svg>