<?xml version="1.0" encoding="UTF-8"?>
<svg width="2160px" height="3840px" viewBox="0 0 2160 3840" version="1.1" xmlns="http://www.w3.org/2000/svg" xmlns:xlink="http://www.w3.org/1999/xlink">
    <title>婴儿</title>
    <g id="婴儿" stroke="none" fill="none" fill-rule="evenodd" stroke-width="1">
        <g id="_图层_2" transform="translate(181, 2018)">
            <path d="M319.646212,401 C356.750341,410.703314 388.583525,438.788941 402.83306,474.418514 C405.627629,481.408776 407.81348,488.952722 406.70672,496.399773 C405.627629,503.722246 401.44961,510.26956 396.427687,515.709507 C379.162231,534.410188 350.787672,541.40045 326.369779,534.244082 C313.21317,530.382136 301.453845,522.935084 289.500837,516.221664 C265.677829,502.836351 240.374528,492.039511 214.227323,484.121828 C190.072287,476.799355 174.660654,449.267413 159,430.829732 C160.563298,421.264839 162.126597,411.699946 163.689895,402.135052" id="路径" fill="#D58535" fill-rule="nonzero"></path>
            <path d="M342.345771,456.756338 C333.078205,462.511821 323.976625,469.460007 319.315178,479.209656 C312.067111,494.354205 317.461665,512.993649 328.167778,526.002428 C338.873892,539.011206 354.020137,547.568154 368.806746,555.83386 C381.864332,563.128761 394.921917,570.437531 407.979502,577.732433 C414.148658,581.185723 420.884934,584.749962 427.925517,583.862369 C433.776533,583.127331 438.756121,579.396669 443.154756,575.52732 C465.867209,555.584224 481.580574,528.054985 487.030456,498.584138 C488.469004,490.803834 488.953131,481.927909 483.793724,475.853447 C481.99554,473.731546 479.616404,472.122784 477.140442,470.805264 C458.522317,460.903059 432.434811,468.475334 422.268153,486.726456 C423.042755,485.353461 387.507864,451.236621 384.049817,449.62786 C370.397448,443.3315 354.172291,449.405962 342.345771,456.742469 L342.345771,456.756338 Z" id="路径" fill="#E29E86" fill-rule="nonzero"></path>
            <path d="M131.427221,526.261564 C150.758394,550.61943 197.050739,579.668953 223.776501,595.598444 C238.78724,604.552728 255.404295,612.123042 272.893745,612.001479 C293.526587,611.846248 313.688613,600.013307 323.880407,582.07706 C329.793309,571.669608 332.341257,558.549576 327.328446,547.671574 C323.589608,539.561512 316.250409,533.776519 309.174314,528.309839 C279.74828,505.571217 239.659636,483.469221 216.548083,454.212103 C208.765762,444.358239 204.348395,432.926649 195.624442,423.598694 C183.05087,410.146508 167.292364,399.822095 153.88794,387.25565 C154.524927,387.864597 155.175761,388.459704 155.812749,389.06865 C146.534893,383.352856 137.603226,377.083473 129.073138,370.302022 C125.597404,367.534082 121.997043,364.91838 118.576699,362.095081 C114.131637,358.427562 116.250311,360.378959 111.819097,356.68376 C109.686575,354.898439 107.51251,353.071599 106.141603,350.649652 C104.493745,347.715637 104.202947,344.186514 102.762802,341.15562 C98.2346548,331.620069 83.8332076,321.032701 72.4089826,322.070679 C70.8857526,322.209076 69.4317604,322.555068 68.0470058,323.122496 C53.1747421,329.32268 37.7762716,352.061301 26.6843878,363.603608 C13.6123049,377.20803 -0.055222384,393.026804 -0.000166784127,411.91799 C0.0417104337,430.172549 1.32953215,447.665926 9.18109039,464.149005 C19.428274,485.669733 33.6635506,507.73021 54.0332899,520.130578 C62.1064089,525.04367 70.7749723,528.863426 79.4712308,532.558626 C111.431366,546.176887 144.000792,558.36966 177.041036,569.095425 C194.959759,574.908097 213.709336,580.347098 232.361979,577.786754 C251.014623,575.22641 269.584181,562.46621 272.92144,543.934856 C275.746339,528.24064 267.437812,512.850897 258.727706,499.50943 C245.198654,478.805244 229.924811,459.249752 213.113891,441.10591" id="路径" fill="#D58535" fill-rule="nonzero"></path>
            <path d="M263.345771,530.756338 C254.078205,536.511821 244.976625,543.460007 240.315178,553.209656 C233.067111,568.354205 238.461665,586.993649 249.167778,600.002428 C259.873892,613.011206 275.020137,621.568154 289.806746,629.83386 C302.864332,637.128761 315.921917,644.437531 328.979502,651.732433 C335.148658,655.185723 341.884934,658.749962 348.925517,657.862369 C354.776533,657.127331 359.756121,653.396669 364.154756,649.52732 C386.867209,629.584224 402.580574,602.054985 408.030456,572.584138 C409.469004,564.803834 409.953131,555.927909 404.793724,549.853447 C402.99554,547.731546 400.616404,546.122784 398.140442,544.805264 C379.522317,534.903059 353.434811,542.475334 343.268153,560.726456 C344.042755,559.353461 308.507864,525.236621 305.049817,523.62786 C291.397448,517.3315 275.172291,523.405962 263.345771,530.742469 L263.345771,530.756338 Z" id="路径" fill="#F0B096" fill-rule="nonzero"></path>
            <path d="M523,289.632484 C526.925852,287.207821 530.851705,284.783159 534.777557,282.358496 C537.538139,280.654304 540.284849,278.963968 543.04543,277.259777 C549.634759,273.200198 556.210215,269.14062 562.799543,265.067187 C565.754337,263.252154 568.944959,261.353989 572.551749,262.213013 C574.618717,262.7118 576.325006,264.360571 576.435985,266.480419 C576.768919,272.521293 565.046851,273.047791 569.832784,280.169372 C569.888273,280.238648 569.957634,280.307924 570.040868,280.34949 C570.900949,280.765146 571.913624,280.66816 572.856939,280.515752 C579.363034,279.42119 585.341982,276.012807 591.903566,275.19535 C593.790194,274.959811 595.815546,275.056797 597.743791,275.486309 C603.625634,276.774844 604.707671,284.727738 599.463953,287.678899 C596.883711,289.133696 594.442191,290.824033 592.167139,292.708342 C597.036306,290.3391 602.626831,289.466221 607.995399,290.242113 C608.217355,297.211287 600.365651,301.25701 593.76245,303.570831 C596.842094,304.859366 600.199183,302.060612 603.223338,301.437128 C606.733022,300.702801 609.077436,305.025628 606.566555,307.588843 C606.566555,307.588843 606.552683,307.602698 606.538811,307.616554 C603.140105,311.066502 599.158763,313.948387 594.816742,316.095945 C596.412054,316.068235 598.021237,316.428471 599.450081,317.148942 C595.801674,324.519916 585.966234,325.69761 577.739978,325.905438 C563.340562,326.265674 548.927273,326.639764 534.527856,327" id="路径" fill="#E0806C" fill-rule="nonzero"></path>
            <path d="M382.354613,235 C389.595563,239.409967 395.910666,245.197179 402.61269,250.386194 C434.727132,275.232253 476.929156,286.417154 517.030752,280.699499 C521.466525,280.059567 526.123395,279.252696 530.33807,280.782969 C539.389257,284.08001 541.614053,295.710081 542.415532,305.364708 C542.899183,311.249302 543.382835,317.133895 543.880304,323.004576 C544.032309,324.757434 544.156677,326.593761 543.479565,328.221414 C542.608993,330.294237 540.591476,331.615836 538.643053,332.700939 C527.947451,338.641178 515.828533,341.367845 503.903076,344.024955 C486.588362,347.878459 469.287467,351.731963 451.972753,355.585467 C438.499611,358.590366 424.998833,361.595264 411.276956,363.111625 C395.482289,364.864483 378.899961,364.502782 364.570066,357.588733 C342.045738,346.73771 329.608992,322.23944 321,298.645421" id="路径" fill="#D88870" fill-rule="nonzero"></path>
            <path d="M206.747278,218.693262 C161.324425,237.613892 119.860381,266.029388 85.7759995,301.562579 C76.5065925,311.223295 67.5958233,321.713257 62.9335323,334.276334 C59.4988859,343.550068 58.5333227,353.639228 59.1954232,363.521076 C60.8092932,387.679776 72.0512079,410.580786 88.0105886,428.782736 C103.956176,446.970865 124.412322,460.750169 146.013351,471.627113 C154.993089,476.146503 164.317671,480.23745 174.207797,481.992688 C195.298457,485.724295 216.789135,478.537496 236.21075,469.484894 C270.226163,453.646295 301.593174,431.588352 326.366768,403.366346 C351.140361,375.144341 369.155013,340.633886 375.982924,303.690977 C380.190021,280.969637 378.879614,254.406123 361.692588,238.995968 C352.230069,230.510018 339.512221,226.888977 327.208187,223.765484 C306.269259,218.458309 285.137218,213.869815 263.881033,210" id="路径" fill="#F0B096" fill-rule="nonzero"></path>
            <path d="M286,475.89316 C286,476.959161 286,478.025162 286,479.10684 C286,483.16705 286,471.83295 286,475.89316 Z" id="路径"></path>
            <path d="M256,506.152657 C259.077366,514.14718 262.837045,521.862174 267.251186,529.199805 C270.258929,534.217347 274.728769,538.312444 279.699899,541.38726 C280.632857,541.960294 281.649362,542.519352 282.735492,542.40754 C284.559632,542.239823 285.743234,540.185287 285.659686,538.340397 C285.576137,536.495507 284.559632,534.846287 283.5849,533.280926 C288.416783,537.236258 293.248667,541.19159 298.094474,545.146923 C300.865497,547.411106 305.43281,549.493595 307.465821,546.544567 C310.264693,542.463446 302.369368,537.473857 304.179584,532.861632 C307.744316,535.391368 311.601468,537.50181 315.653565,539.123077 C316.530824,539.472488 317.477706,539.807923 318.410663,539.598276 C320.680395,539.095124 321.056363,535.838614 320.039857,533.728172 C319.023351,531.617729 317.199211,529.898627 316.697921,527.606491 C318.605609,528.389172 320.596846,529.185829 322.657707,529.004135 C324.704643,528.836418 326.821203,527.368892 326.9883,525.314355 C327.141472,523.455489 325.762923,521.862174 324.481848,520.520436 C321.348782,517.249949 318.229641,513.965486 315.096576,510.694999 C315.528243,511.212128 316.4612,510.694999 316.530824,510.02413 C316.600447,509.353261 316.168781,508.752274 315.751039,508.22117 C309.192488,499.891212 302.327594,491.81283 295.184205,484" id="路径" fill="#E0806C" fill-rule="nonzero"></path>
            <path d="M141.409651,367.628884 C144.767294,389.103507 153.721007,409.273273 163.54522,428.637914 C171.103371,443.532724 179.435298,458.399771 191.567027,469.851978 C198.157955,476.084755 205.729923,481.165371 213.260438,486.218223 C223.789342,493.283888 234.332063,500.363434 244.860967,507.429099 C248.743673,510.038814 252.695466,512.676292 257.18614,513.981149 C263.390179,515.78574 270.02256,514.869563 276.364773,513.717402 C288.427415,511.52413 300.351882,508.497971 312,504.680569 C308.932524,495.10236 305.865048,485.510269 302.783755,475.932059 C295.557224,453.3608 288.28924,430.636845 285.470479,407.093883 C284.420352,398.279154 283.992011,389.381136 282.499725,380.635815 C280.440924,368.54506 276.364773,356.912394 272.30244,345.335254 C267.24525,330.898532 262.18806,316.475692 257.13087,302.03897 C252.875093,289.89269 248.508776,277.538188 240.840086,267.224261 C230.38027,253.148457 211.975414,241.515791 193.9989,242.015524 C178.841148,242.431968 176.43691,251.232815 169.956521,262.796074 C151.026603,296.583555 135.081255,327.219944 141.409651,367.615002 L141.409651,367.628884 Z" id="路径" fill="#EC9D7F" fill-rule="nonzero"></path>
            <g id="编组" transform="translate(119, 0)" fill-rule="nonzero">
                <path d="M70.1858203,194.126007 C61.5183361,184.747736 49.5502739,178.467892 36.8888129,176.642034 C24.2273519,174.816176 10.969568,177.458137 0,183.986962 C8.43172866,194.706961 5.36690624,211.955785 15.2547723,221.375552 C17.59846,223.616378 20.4968667,225.179423 23.4091414,226.604145 C35.7793749,232.607345 59.6600275,240.021434 71.8777133,229.45359 C80.7670851,221.749023 77.2723555,201.775245 70.1996883,194.126007 L70.1858203,194.126007 Z" id="路径" fill="#C7B6A5"></path>
                <path d="M125.810267,321.963723 C130.400567,340.194638 147.056005,351.205114 159.62039,356.004907 C179.853765,363.750971 201.903845,371.635357 222.969298,366.19928 C231.498103,363.999951 239.236433,359.725784 246.752875,355.354791 C255.711587,350.14003 264.79511,344.44114 270.508716,336.086457 C274.890996,329.682122 276.98506,322.157375 278.746293,314.715621 C281.686304,302.211261 283.821972,289.540913 285.139429,276.801405 C286.304339,265.541948 286.789718,253.964349 283.253385,243.161357 C276.499681,222.537462 255.988946,208.207244 234.32717,201.387941 C215.910499,195.592226 196.287315,194.222832 176.899886,193.309903 C157.054814,192.36931 136.377664,191.677697 118.917884,182.728227 C114.28598,180.362911 109.667945,177.347479 104.398114,177.209157 C88.505415,176.780357 78.4233974,188.897413 70.1858203,194.568639 C32.8532322,220.268972 102.983581,231.445435 125.810267,321.977555 L125.810267,321.963723 Z" id="路径" fill="#C2B4A3"></path>
                <path d="M95.3561946,41.6115439 C101.707727,28.3879065 96.742992,10.1846566 84.7887978,2.8120638 C81.6407675,0.875547859 77.9934901,-0.383187503 74.4016847,0.142438252 C70.8098792,0.668064008 67.3428855,3.24086376 66.2889194,7.00323759 C63.1547571,2.36943158 57.205396,0.626567238 52.0187734,1.85763809 C46.8321508,3.08870893 42.4221348,6.86491502 39.1492928,11.388063 C36.4034338,15.1781013 34.2816336,19.8119073 34.614465,24.6117004 C34.9472964,29.4114935 38.4004222,34.1559575 42.8520421,34.3357769 C36.8749449,34.6262543 31.91021,40.8507698 31.8536997,47.3380982 C31.7992662,53.8254266 36.1538102,59.8424583 41.77034,62.0971161 C47.3868698,64.351774 53.904818,63.0930386 58.9250248,59.5658131 C59.8125752,58.9433616 60.6446537,58.2517487 61.4906002,57.5739682" id="路径" fill="#F5C3AC"></path>
                <path d="M163.600498,254.476143 C172.309587,256.412659 181.198958,258.003368 190.116066,257.533071 C197.840528,257.131936 205.398574,255.181588 212.887281,253.258904 C225.839969,249.92533 239.056149,246.467266 250.233737,239.150002 C273.726086,223.782365 284.043859,192.272484 277.290156,165.078267 C275.279299,157.000229 271.978721,149.28183 270.037205,141.18996 C264.892186,119.653136 269.648902,96.4287773 262.81199,75.3622503 C256.460458,55.7481103 240.068511,39.9931699 220.639479,32.9663835 C210.169158,29.1763451 198.99157,27.7792872 187.89719,26.9216873 C177.177246,26.0917519 166.166074,25.7597777 155.945376,29.0795193 C146.626097,32.0949513 138.513332,37.9874926 131.107834,44.3779953 C107.684824,64.6145868 89.5039092,91.3661713 81.7239754,121.285343 C74.6790442,148.396566 74.77612,186.407607 92.1804283,210.157592 C109.099358,233.243629 136.252852,248.376117 163.600498,254.476143 L163.600498,254.476143 Z" id="路径" fill="#E0806C"></path>
                <ellipse id="椭圆形" fill="#60201D" cx="181.129619" cy="159.918836" rx="7.32229068" ry="10.4571861"></ellipse>
                <ellipse id="椭圆形" fill="#60201D" cx="250.608172" cy="149.46165" rx="7.32229068" ry="10.4571861"></ellipse>
                <path d="M194.74797,115.959924 C205.35697,117.343149 216.049179,114.881008 226.408556,112.211382 C223.773641,112.32204 221.11099,111.630427 218.864378,110.23337 C217.741072,109.541757 216.603898,108.296854 217.061541,107.05195 C217.325033,106.332673 218.032299,105.890041 218.697962,105.502738 C231.17914,98.1716416 243.410693,86.6908686 243.285882,72.2499925 C243.174938,58.9156971 231.886406,47.6147433 219.114001,43.6863824 C173.044589,29.494487 144.21307,109.334273 194.74797,115.946092 L194.74797,115.959924 Z" id="路径" fill="#391A1C"></path>
                <path d="M250.289209,59.4136583 C253.853278,58.4868971 257.666971,57.5048069 260.121603,54.8905104 C264.143316,50.616343 262.909066,43.9215308 260.509906,38.6791055 C255.767059,28.3464097 244.686547,18.7744881 233.176128,21.6101007 C231.525839,13.8363724 223.135714,9.10574061 215.147761,6.74042471 C205.953293,4.01547013 196.273447,3.11637345 186.690676,2.24494127 C153.04697,-0.811987462 117.017971,-3.20496787 87.5069208,12.4254822 C70.2412922,21.5686039 56.7200168,36.3829509 47.8722489,53.147646 C39.024481,69.9123412 34.6838049,88.5858877 33.2692715,107.273267 C31.5496426,130.151819 34.8224847,154.883894 50.6181079,172.257209 C51.7136779,173.474447 52.9201917,174.71935 53.2668911,176.282395 C53.6829304,178.177415 52.7399081,180.072434 52.212925,181.953621 C50.3268805,188.68993 53.89095,195.744381 58.4673817,201.19429 C61.601544,204.928999 65.8174083,208.511554 70.8514831,208.484205 C80.8918969,208.42856 86.5084267,208.539218 87.395977,203.296793 C88.5608869,196.353 85.3989887,178.633879 89.074002,172.603015 C97.3531829,159.005907 107.268785,146.321727 118.404769,134.716464 C140.898624,111.270789 168.343346,92.2376035 198.256567,78.1701984 C214.912005,70.3411411 232.357917,64.0336321 250.303077,59.3998261 L250.289209,59.4136583 Z" id="路径" fill="#EDA28A"></path>
                <path d="M113.39843,158.480281 C113.185787,161.016195 113.185787,161.016195 113.39843,158.480281 C113.25975,156.114965 113.925413,153.749649 113.675789,151.384333 C113.134938,146.266398 108.086995,142.407199 102.941977,142.019895 C97.7969581,141.632592 92.7906192,144.067069 88.8521144,147.400643 C81.1415204,153.943301 76.8008443,164.2345 77.4803751,174.304383 C77.9102823,180.681053 80.4203857,187.085388 85.218705,191.318058 C90.0170243,195.550729 97.2838431,197.196768 103.094524,194.527142" id="路径" fill="#E0806C"></path>
                <path d="M226.672048,165.631558 C226.672048,165.631558 249.082695,168.729983 245.35221,176.227066 C241.621725,183.724149 233.079052,186.54593 233.079052,186.54593 C233.079052,186.54593 234.146886,169.366267 226.672048,165.631558 L226.672048,165.631558 Z" id="路径" fill="#CE7061"></path>
                <path d="M162.407853,129.695355 C166.498905,126.5416 171.53298,124.881729 176.705735,125.061549 C178.397628,125.116878 178.397628,122.488749 176.705735,122.43342 C171.116941,122.253601 165.514279,124.024129 161.076527,127.426865 C160.521808,127.855665 160.216713,128.56111 160.605016,129.225058 C160.923979,129.778348 161.839266,130.137987 162.407853,129.695355 L162.407853,129.695355 Z" id="路径" fill="#391A1C"></path>
                <path d="M240.83125,113.594608 C240.942194,113.539279 241.03927,113.497782 241.150213,113.442453 C241.441441,113.304131 240.886722,113.539279 241.302761,113.373292 C241.483045,113.304131 241.663328,113.234969 241.843612,113.165808 C242.897578,112.778505 243.97928,112.488027 245.07485,112.280544 C248.084201,111.727253 251.218363,112.031563 253.894882,113.580776 C255.364888,114.438376 256.682345,112.169885 255.226208,111.312286 C250.524964,108.559666 244.312112,108.933137 239.513792,111.312286 C238.002183,112.059227 239.333509,114.327718 240.845118,113.580776 L240.845118,113.580776 L240.83125,113.594608 Z" id="路径" fill="#391A1C"></path>
                <path d="M226.672048,212.329256 C226.672048,212.329256 218.836642,216.631088 212.082938,212.329256 C212.082938,212.329256 209.919534,219.494365 214.787193,220.213643 C219.654852,220.93292 226.672048,212.329256 226.672048,212.329256 L226.672048,212.329256 Z" id="路径" fill="#391A1C"></path>
            </g>
            <path d="M215,160.610126 C215,160.610126 227.336591,152.022868 228,166 L215,160.610126 Z" id="路径" fill="#CE7061" fill-rule="nonzero"></path>
            <path d="M319.184074,326.48677 C319.184074,326.48677 318.165305,345.55726 307.729799,342.311219 C297.294293,339.051187 308.142814,310.130643 308.142814,310.130643 C308.142814,310.130643 297.679774,317.042471 300.474507,299.385129 C303.255473,281.727786 311.584603,285.253658 318.922498,289.605032 C318.922498,289.605032 313.264197,275.081798 325.751009,268.253919 C338.251588,261.42604 337.191517,284.707987 337.191517,284.707987 C337.191517,284.707987 345.685853,269.317277 357.566911,273.57071 C369.447968,277.838134 360.91233,289.367175 351.123881,295.005772 C351.123881,295.005772 379.60813,296.460894 377.928537,308.731487 C376.235177,321.002081 359.687053,317.504192 359.687053,317.504192 C359.687053,317.504192 377.43292,327.214331 369.860983,336.140943 C362.275279,345.067555 335.360485,329.90071 335.360485,329.90071 C335.360485,329.90071 347.35168,343.654408 339.091385,347.879858 C330.83109,352.091316 317.201604,344.312011 319.211609,326.48677 L319.184074,326.48677 Z" id="路径" fill="#F5C3AC" fill-rule="nonzero"></path>
        </g>
    </g>
</svg>