<?xml version="1.0" encoding="UTF-8"?>
<svg width="2160px" height="3840px" viewBox="0 0 2160 3840" version="1.1" xmlns="http://www.w3.org/2000/svg" xmlns:xlink="http://www.w3.org/1999/xlink">
    <title>小孩</title>
    <g id="小孩" stroke="none" fill="none" fill-rule="evenodd" stroke-width="1">
        <g id="_图层_2" transform="translate(-433, 3581.0021) scale(-1, 1) translate(433, -3581.0021)translate(-1513, 1661.0021)">
            <path d="M413.818768,836.561384 C413.906061,838.143088 414.778998,840.402666 415.365113,841.871392 C417.42275,847.043314 413.831238,850.382468 413.706533,855.968647 C413.64418,858.918651 415.153114,862.70972 415.464877,865.647172 C416.163227,872.363139 415.377584,878.275701 415.377584,885.029328 C415.377584,889.435505 414.791469,887.665502 414.504647,892.071679 C414.417353,893.327 413.556887,892.875084 412.871007,893.929554 C398.692017,895.084449 384.438202,895.297854 370.2218,894.594874 C362.727012,873.982503 357.938329,852.378429 355.992927,830.510737 C355.194813,821.434766 354.17223,812.383901 353,803.358143 L411.711248,797.997922 C412.422068,810.864963 413.120418,823.71945 413.831238,836.58649 L413.818768,836.561384 Z" id="路径" fill="#BA9F77" fill-rule="nonzero"></path>
            <path d="M330.461363,616.997922 C330.874311,617.450233 331.312288,617.877415 331.787805,618.25434 C335.053855,620.90538 339.283453,622.023591 343.412942,622.815134 C347.329699,623.568984 351.283998,624.084115 355.263324,624.373091 C358.416752,624.599246 361.620234,624.687196 364.648526,625.591816 C370.730137,627.401057 375.435252,632.225699 381.204023,634.851611 C385.733947,636.912135 390.764416,637.540343 395.494558,639.060608 C401.663764,641.045747 406.631664,644.789871 411.774755,648.546558 C403.240478,671.65207 406.669205,700.650179 407.995647,724.773389 C409.334603,749.059933 410.661044,773.346477 412,797.633021 L353.085957,802.997922 C349.907502,778.548044 345.515227,754.2615 340.647435,730.100597 C333.827522,696.265283 325.643625,666.8023 328.634377,631.949287 C328.972244,628.066958 330.298686,622.300003 330.461363,616.997922 L330.461363,616.997922 Z" id="路径" fill="#B55A47" fill-rule="nonzero"></path>
            <g id="编组" transform="translate(291, 825.9979)" fill-rule="nonzero">
                <path d="M126.956718,17.9891159 L130.434253,65.416108 L1.28841573,65.767605 C1.28841573,65.767605 -5.39045909,51.3562268 11.7586819,37.873805 C28.9078229,24.3913832 42.1651383,32.3628337 51.5431824,21.0898218 C60.9212266,9.81680991 62.7164881,0 62.7164881,0 L126.831175,0 C126.831175,0 126.944164,17.9891159 126.944164,17.9891159 L126.956718,17.9891159 Z" id="路径" fill="#4F3E4E"></path>
                <polygon id="矩形" fill="#262F3B" transform="translate(65.5003, 65.8206) rotate(179.84) translate(-65.5003, -65.8206)" points="0.0170840025 59.8263094 130.98347 59.8263331 130.983472 71.8148925 0.0170861633 71.8148689"></polygon>
            </g>
            <path d="M327.437134,607.085642 L327.571774,606.997922 C329.591372,609.441532 330.105451,613.088148 329.983051,616.997922 C327.571774,614.303687 326.262095,610.481632 327.437134,607.085642 L327.437134,607.085642 Z" id="路径" fill="#B55A47" fill-rule="nonzero"></path>
            <path d="M428.950165,653.658726 C407.353253,655.360011 385.768905,657.048695 364.171993,658.74998 C353.153674,659.619526 342.085099,660.489072 331.054216,659.669934 C329.433505,659.543913 327.737413,659.354881 326.443357,658.371916 C325.061356,657.300737 324.445737,655.536441 324.0437,653.835156 C321.518407,643.299789 324.119082,632.310746 326.116702,621.674562 C330.752688,596.999624 332.159817,571.719784 330.287833,546.691987 C333.767964,545.45698 337.260658,544.234575 340.740789,542.999568 C349.397143,539.937254 364.310194,539.937254 373.418839,538.752655 C390.153619,536.585092 404.425923,535.74075 420.884303,531.997922 C421.638122,532.363384 425.14338,535.060236 425.897199,535.425697 C431.148804,569.24977 433.020787,603.590529 431.475458,637.792665" id="路径" fill="#793946" fill-rule="nonzero"></path>
            <path d="M430.005327,538.997922 C431.309586,539.983221 432.042455,541.713811 431.831289,543.355975 C430.874833,550.998358 432.092141,561.369261 432.675953,569.04954 C433.918104,585.496452 434.62613,601.955997 434.986354,618.440806 C435.359,635.860386 428.06757,641.784811 417,654.997922" id="路径"></path>
            <path d="M255.280717,801.997922 L324,801.997922 C323.786547,816.559579 321.438565,831.309695 318.086099,845.343665 C317.257399,848.79876 316.956054,852.379495 317.207175,855.922539 C316.026906,855.922539 314.859193,855.997922 313.678924,855.997922 C309.573094,855.696387 304.525561,854.892292 300.469955,854.151017 C295.535426,853.233846 288.679821,853.334358 283.682511,853.68615 C273.788341,852.266419 263.89417,850.859253 254,849.439523 C254.678027,833.646596 255.318386,817.815977 255.280717,802.010486 L255.280717,801.997922 Z" id="路径" fill="#E8CDA6" fill-rule="nonzero"></path>
            <path d="M253.534864,766.034604 C252.948207,759.600251 253.335151,762.804909 252.661119,756.370557 C252.074462,750.812479 252.199283,752.289626 251.787374,746.706511 C250.401865,727.941736 250.48924,707.66226 245.184362,689.510877 C244.435438,686.969684 243.711478,684.42849 243,681.874778 C268.825395,682.575797 294.276327,681.774633 318.516499,674.038388 C323.122382,672.598796 326.829555,672.060513 330,671.997922 C328.926542,690.261969 327.753228,708.513497 326.579914,726.777544 C325.381636,745.492246 320.625968,766.284968 322.635581,784.937078 C323.209756,790.232275 323.409469,795.60258 323.334577,800.997922 L255.02023,800.997922 C254.995265,789.318447 254.583357,777.651489 253.534864,766.034604 Z" id="路径" fill="#E2836D" fill-rule="nonzero"></path>
            <path d="M307.142908,629.010431 C313.07392,633.288407 326.695143,639.517739 330.314065,645.709546 C333.782199,651.63867 330.892088,662.858974 330.477419,669.863846 C330.439722,670.551824 330.389459,671.239803 330.351762,671.927782 C327.160074,671.977816 323.42806,672.51569 318.791315,673.9667 C294.388719,681.697076 268.767249,682.497633 242.768808,681.797146 C238.659823,667.212002 235.066032,652.476753 232,637.641434 L307.142908,628.997922 L307.142908,629.010431 Z" id="路径" fill="#B55A47" fill-rule="nonzero"></path>
            <path d="M390.082213,541.48778 C390.798743,541.663871 391.213576,542.56948 390.886738,543.223531 C373.32546,578.580016 356.568708,616.514972 340.817612,652.714177 C301.408445,653.129248 260.930768,653.519163 221.634738,650.550778 C220.767359,650.487888 219.761703,650.349531 219.284016,649.620013 C218.944607,649.091741 218.982319,648.425112 219.032602,647.796217 C222.112425,608.200978 225.204819,568.593161 228.284642,528.997922 C273.438622,529.224325 318.580031,530.356336 363.683728,532.381378" id="路径" fill="#AA4750" fill-rule="nonzero"></path>
            <path d="M226,231.281521 C225.736538,231.281521 225.447985,231.36925 225.197069,231.281521 C169.242811,212.996267 128.519152,179.759466 92.6883535,139.541934 C86.8671034,133.012381 81.1336738,126.194576 77.5832131,118.198694 C72.6401688,107.082162 71.3604974,93.083102 61.2485844,86.3154275 C56.5815477,83.1947776 50.8104807,82.2798883 45.5914289,80.1869223 C29.3571666,73.6699025 17.488842,55.4347796 0,56.0112852 C0.250915954,66.3257224 9.35916509,73.8077625 15.4815144,82.1169628 C16.2342622,83.1446467 16.9619185,84.2224615 17.2379261,85.4632018 C17.6143,87.1551204 17.0999223,88.8846372 16.5980904,90.5389577 C15.4187854,94.3990387 14.2269346,98.2591196 13.0476296,102.119201 C11.8306872,106.079543 10.6137449,110.127615 10.7517486,114.263416 C11.2410348,127.786233 25.0915954,136.070367 36.219718,143.790529 C56.7195515,158.015178 72.5523482,177.967285 86.5409126,198.621225 C93.7422005,209.248981 100.604752,220.227653 109.700455,229.288817 C118.19396,237.74841 128.381148,244.290495 138.467969,250.744851 C161.564783,265.533473 184.649051,280.322095 207.808593,294.997922" id="路径" fill="#E0806C" fill-rule="nonzero"></path>
            <path d="M276.003055,66.0481369 C275.33616,69.9355801 272.504998,73.0052763 270.32815,76.2888448 C262.677723,87.8505285 262.45123,103.802884 252.573622,113.552944 C247.590778,118.472006 240.795991,121.063635 234.101868,123.089131 C231.88727,123.75591 229.483929,124.485591 228.099806,126.347538 C225.872625,129.34175 227.369995,133.669519 229.559426,136.701473 C231.748858,139.733427 234.642934,142.538928 235.246915,146.212499 C238.078076,163.284539 227.09317,183.816277 239.739024,195.629575 C247.011963,202.410585 257.606798,203.781883 267.220164,206.33577 C276.833529,208.889657 287.23962,214.374851 289.202559,224.124911 C290.926421,232.704964 286.572724,244.467939 294.311232,248.556674 C296.009929,249.449905 297.972867,249.676358 299.885474,249.865069 C313.399551,251.261529 326.963959,252.293148 340.540951,252.947346 C342.793297,253.060572 345.24697,253.098314 347.071496,251.764758 C348.656947,250.607331 349.411923,248.644739 350.028487,246.770211 C352.456994,239.272101 353.727871,231.409149 353.76562,223.533617 C353.778203,220.702955 353.67754,217.746485 354.960999,215.230341 C356.395454,212.43742 359.251782,210.751604 361.906782,209.065787 C387.122992,193.10085 404.424534,165.22197 407.545103,135.544046 C411.143823,101.274159 393.187969,63.6074768 360.862398,51.64321 C333.708415,41.5786322 302.502725,54.3229038 276.015638,66.0355562 L276.003055,66.0481369 Z" id="路径" fill="#E0806C" fill-rule="nonzero"></path>
            <ellipse id="椭圆形" fill="#412127" fill-rule="nonzero" cx="272" cy="115.497922" rx="5" ry="7.5"></ellipse>
            <path d="M243.281678,152.997922 C243.281678,152.997922 255.24131,161.465923 257.577669,162.047308 C259.914027,162.628693 252.033552,166.129642 246.779902,162.047308 C241.526252,157.964973 243.281678,152.997922 243.281678,152.997922 L243.281678,152.997922 Z" id="路径" fill="#412127" fill-rule="nonzero"></path>
            <path d="M268.22238,65.7480872 C263.80771,69.2755143 264.648003,76.2043888 266.504171,81.5459212 C272.511633,98.9059015 284.46385,113.431342 296.227941,127.503256 C303.85328,136.624175 311.829786,145.997053 322.540376,151.099224 C315.45433,167.741121 311.804702,185.84438 311.917577,203.94764 C311.967744,211.733175 309.634992,219.909247 308.895033,227.669587 C308.769617,229.00497 308.656742,230.441137 309.296367,231.612746 C310.199368,233.275676 312.256202,233.86778 314.11237,234.270915 C352.389564,242.837523 391.645008,245.911424 430.73741,248.947531 C432.129536,249.060912 433.747412,249.07351 434.62533,247.977488 C435.290038,247.146023 435.264955,245.961816 435.202247,244.903588 C433.998246,224.923233 432.781703,204.955476 431.577702,184.975122 C441.272418,168.05607 450.139382,150.683491 453.525634,131.459014 C456.899345,112.234537 454.742177,91.4731088 444.35767,74.9697893 C435.691372,61.2002259 421.832821,51.2100486 406.720102,45.3016083 C391.607383,39.3931679 375.240496,37.3397015 359.02411,37.0373506 C340.851222,36.6972058 322.578001,38.5365071 305.057281,43.3867193 C290.270645,47.4936522 280.224763,56.1232505 268.22238,65.7228913 L268.22238,65.7480872 Z" id="路径" fill="#412127" fill-rule="nonzero"></path>
            <path d="M313.404467,154.155515 C312.594049,152.721836 314.430153,151.27547 315.949686,150.641099 C317.431232,150.019415 318.92544,149.397731 320.406986,148.788735 C321.407346,148.37005 322.445694,147.951365 323.522031,148.002115 C326.510447,148.141676 328.080632,151.516531 329.005016,154.358513 C330.169992,157.936366 331.34763,161.666469 330.904433,165.409258 C330.473898,169.063236 328.485841,172.412716 325.902634,175.039012 C323.509368,177.474997 320.356335,177.906369 317.152651,179.0863 C315.291222,179.771421 313.265176,180.304292 311.340434,179.796795 C309.428353,179.301986 307.73154,177.449622 308.035447,175.483072" id="路径" fill="#E0806C" fill-rule="nonzero"></path>
            <path d="M292.803959,36.3058088 C295.655126,36.2807751 294.524707,34.1153622 297.237712,32.4881733 C300.541046,30.4979961 305.929375,25.6289463 309.370871,23.5261176 C319.004549,17.643204 326.088506,9.59487743 336.965645,5.22650112 C347.02637,1.18356259 358.029111,-0.29342424 368.893689,0.0445303744 C401.19854,1.0208437 432.523695,18.7071352 449.819099,45.7309874 C467.101943,72.7548397 469.852628,108.327692 456.915615,137.642126 C454.15237,143.888028 451.276083,150.096379 451.188161,156.905539 C450.962078,173.915921 456.262485,190.525764 460.520395,206.997922 C379.89643,170.623993 305.841453,120.043452 242.877139,58.3479597 C238.10426,53.6666625 233.168099,48.5097254 232,41.9634193 C246.419117,41.7130826 260.875914,41.375128 275.21967,39.8230401 C279.879507,39.3223666 286.034008,39.372434 290.191436,36.8565496 C291.296734,36.1931572 291.560499,36.3183256 292.829079,36.3058088 L292.803959,36.3058088 Z" id="路径" fill="#E4B26E" fill-rule="nonzero"></path>
            <path d="M249.306899,320.355639 C229.473046,315.721283 210.565775,307.132612 194,295.231887 C201.825857,272.148259 209.639193,249.064631 217.465051,225.981002 C217.665393,225.401708 217.878256,224.797226 218.354068,224.419426 C219.00518,223.903098 219.931761,223.966065 220.758172,224.066812 C255.980791,228.361147 289.92623,238.461022 325.261541,240.828573 C332.661672,241.319714 340.124409,241.836042 347.299155,243.788013 C363.601981,248.220875 377.250277,259.920107 386.95434,273.823176 C396.658403,287.713651 402.831439,303.770185 408.215629,319.864498 C423.429096,365.250967 433.23333,412.476065 437.390425,460.192305 C439.769486,487.545082 441.146837,514.973419 443,542.363977 C437.490596,547.401321 435.988032,547.779121 429.201448,550.864494 C426.233883,552.211984 422.82807,552.060864 419.585035,551.884557 C351.243387,548.207296 282.914261,544.542628 214.572614,540.865367 C213.057528,540.789807 211.354621,540.600906 210.42804,539.404537 C209.739364,538.510409 209.689279,537.288853 209.676758,536.142857 C209.33868,506.208441 211.61757,476.248839 216.500905,446.704817 C225.566378,391.835549 235.783818,337.709289 249.306899,283.84749 C252.161772,272.488279 259.687117,261.972824 266.661521,252.590771 C268.226692,250.48768 271.319471,248.976477 273.172634,247.11266 C276.891481,243.359839 282.26315,238.020254 287.522126,238.360275 C291.554008,238.624735 295.58589,238.876603 299.630293,239.141063" id="路径" fill="#F4C651" fill-rule="nonzero"></path>
            <path d="M292.915534,229.197049 C299.234185,229.844538 304.791553,233.430633 309.866775,237.1786 C323.113105,246.96565 334.976436,258.545748 345,271.483082 C338.123074,275.106532 332.235817,280.510578 328.086823,286.997922 C321.197209,275.915894 312.949973,265.643227 303.586188,256.466311 C294.996375,248.04895 282.841218,241.947608 275,233.667216 C278.578032,229.109887 287.421606,228.62427 292.902846,229.184597 L292.915534,229.197049 Z" id="路径" fill="#2B3A55" fill-rule="nonzero"></path>
            <path d="M235.941428,315.997922 C249.956886,356.949345 273.602443,394.590925 304.464254,425.059085 C310.176595,430.697142 316.204885,436.18418 320.350124,443.042977 C324.495363,449.901773 326.555345,458.535048 323.623347,465.997922 C315.497161,460.787754 306.827545,453.17386 300.723428,445.698401 C280.490111,420.931222 262.544259,399.071167 245.255579,372.189717 C234.943032,356.143908 231.290672,360.070412 231,341.029385 C233.98255,327.324376 234.943032,321.107412 235.941428,315.997922 L235.941428,315.997922 Z" id="路径" fill="#2B3A55" fill-rule="nonzero"></path>
            <path d="M343.081263,270.498354 C341.165824,267.949286 340.064133,264.985838 339,261.884263 C344.658684,259.925374 350.730502,259.536107 357.403243,259.284968 C374.554564,258.657118 391.680847,256.936812 408.857207,256.996335 C432.03027,257.074938 456.117235,260.804363 475.209035,273.976638 C503.252071,293.301836 500.109749,321.555049 506.244163,350.812821 C515.458303,394.77482 521.505083,439.69115 520.966757,484.419126 C520.904161,489.831186 516.872975,494.414485 512.403616,497.453275 C507.934257,500.492065 506.043855,503.329943 501.123805,505.552529 C489.218034,510.952032 475.709803,511.190615 462.627226,511.278514 C440.067604,511.41664 417.570579,510.688335 395.010958,510.474867 C390.716868,511.579881 386.310105,512.04449 381.890823,511.994262 C382.992514,502.01146 383.831301,492.028658 384.657569,482.045856 C387.699738,410.860316 392.770019,329.50362 343.081263,270.510911 L343.081263,270.498354 Z" id="路径" fill="#619093" fill-rule="nonzero"></path>
            <path d="M314.271193,389.824252 C315.359801,368.021269 316.448408,346.205735 317.524503,324.402753 C318.387881,306.993002 314.333757,282.892987 328.485652,269.713291 C332.026754,266.412091 335.718009,264.340996 339.584441,262.997922 C340.648023,266.098289 341.761656,269.060583 343.663591,271.608657 C393.314094,330.565829 388.246439,411.890828 385.218359,483.061185 C384.392519,493.040098 383.554166,503.01901 382.453046,512.997922 C374.945409,512.92261 367.375209,511.391255 360.192904,509.094222 C348.781296,505.454116 336.281081,506.521043 328.598267,497.295256 C318.675674,485.358218 315.397339,469.266437 314.033452,453.789708 C312.156542,432.539018 313.207612,411.137703 314.271193,389.824252 L314.271193,389.824252 Z" id="路径" fill="#2B3A55" fill-rule="nonzero"></path>
            <path d="M357.094,290.406956 C370.120466,303.298508 375.384067,321.895951 385.646196,337.044779 C392.46237,347.102196 398.609549,360.532986 409.818369,365.310886 C415.384911,367.693566 421.506845,368.458531 427.527799,369.160795 C442.384534,370.916453 457.670436,372.446385 472.135872,368.609016 C479.936605,366.539847 488.317975,361.348113 492.723243,354.626448 C495.689541,350.086816 498.21405,343.879308 499.665642,338.662493 C500.637578,335.163716 501.331818,328.956208 502.215396,325.44489 C504.979734,314.472022 499.993829,304.427146 494.212703,294.683239 C478.800576,268.661868 446.247033,256.221771 416.117019,252.221377 C389.357224,248.672438 361.739096,248.910706 335.799767,256.334635 C331.167293,257.663919 325.651241,260.523135 326.017295,265.301035 C326.269746,268.486302 329.147686,270.743577 331.785798,272.587019 C339.005893,277.640809 350.84584,284.224529 357.106622,290.406956 L357.094,290.406956 Z" id="路径" fill="#E95C48" fill-rule="nonzero"></path>
            <path d="M512.754165,401.590921 C513.93341,401.10314 515.388648,401.403313 516.291899,402.303833 C519.265102,405.305565 520.933608,410.258424 523.279553,413.760445 C535.64908,432.258622 531.860442,452.908041 529.79049,475.045819 C528.949965,484.063524 526.353117,494.344458 518.136038,498.234203 C513.93341,500.222851 509.078433,500.085271 504.424179,499.897663 C473.487817,498.659448 442.564,497.408726 411.627639,496.170512 C409.708229,496.095468 407.688459,495.982903 406.070133,494.944804 C403.799459,493.48146 402.971479,490.604799 402.356766,487.978283 C396.197093,461.525515 394.490952,434.047155 397.338703,407.031562 C397.55197,405.005392 397.815419,402.891672 398.957028,401.203197 C400.650625,398.701754 403.812005,397.713683 406.747572,396.96325 C441.033491,388.208197 478.731694,391.83529 512.741619,401.578414 L512.754165,401.590921 Z" id="路径" fill="#E55D47" fill-rule="nonzero"></path>
            <path d="M411.215567,412.574145 C413.374538,418.738925 415.545989,424.891149 417.704961,431.055928 C417.954553,431.746484 418.216624,432.487262 418.778206,432.951818 C419.427146,433.504263 420.338157,433.579596 421.18677,433.642374 C431.382605,434.383152 441.590921,435.111374 451.786756,435.852152 C475.260889,437.547153 500.457208,439.669042 523.9563,440.937154 C525.52873,441.025043 527.151079,441.100376 528.611192,440.535376 C531.593817,439.405376 533.128808,435.902374 532.991533,432.700707 C532.854257,429.499039 531.406623,426.523372 529.996428,423.660704 C531.319266,422.882259 528.636151,412.0217 527.10116,411.984034 C526.814129,410.515033 525.641047,408.003921 525.354016,406.534921 C523.581912,397.645585 513.58575,394.657362 504.999783,391.92025 C496.413816,389.183138 487.291227,388.706027 478.293433,388.254026 C467.011872,387.689026 455.730311,387.124026 444.42379,387.011026 C430.396717,386.872915 415.52103,387.701582 403.87756,395.586473 C403.128784,396.088695 402.355049,396.691362 402.092977,397.54514 C401.731069,398.76303 402.492325,399.993474 403.228621,401.035586 C404.988245,403.534142 410.17976,409.673811 411.190608,412.561589 L411.215567,412.574145 Z" id="路径" fill="#97B766" fill-rule="nonzero"></path>
            <path d="M455.368853,359.874685 C456.030826,359.627893 456.839904,360.06952 457.036044,360.783917 C459.757489,361.784074 462.577003,365.966545 462.944766,368.992991 C463.30027,372.019438 461.91503,375.214742 459.500055,376.890328 C455.699839,379.527103 448.982039,379.877807 445.439257,376.86435 C442.068098,373.993772 440.057662,369.00598 441.442902,364.667641 C442.815883,360.316312 451.678966,357.484701 455.381111,359.861696 L455.368853,359.874685 Z" id="路径" fill="#2B3A55" fill-rule="nonzero"></path>
            <path d="M323,279.393944 C323.931405,270.814905 335.257295,266.78213 343.105939,270.22627 C350.954582,273.67041 355.673703,281.761008 359.213043,289.613647 C379.5301,334.700572 377.890827,386.300053 375.854154,435.782954 C375.49401,444.56238 374.885492,454.218496 374.599861,462.997923" id="路径"></path>
            <path d="M374,483.997922 C373.780952,487.202792 373.552381,490.407661 373.333333,493.625001 C373.152381,496.256236 372.885714,498.002079 372.666667,500.620844 C372.542857,502.092341 372.219048,503.538896 372,504.997922" id="路径"></path>
            <g id="编组" transform="translate(193, 834.9979)" fill-rule="nonzero">
                <path d="M126.967265,17.9887366 L130.4448,65.4147287 L1.29896616,65.7662184 C1.29896616,65.7662184 -5.37990848,51.355144 11.769232,37.8730064 C28.9183726,24.3908689 42.1756876,32.3621514 51.5537315,21.0893771 C60.9317754,9.81660293 60.1910732,0 60.1910732,0 L128.762527,0 C128.762527,0 126.967265,17.9887366 126.967265,17.9887366 L126.967265,17.9887366 Z" id="路径" fill="#CB5E43"></path>
                <polygon id="矩形" fill="#262F3B" transform="translate(65.5003, 65.8207) rotate(179.84) translate(-65.5003, -65.8207)" points="0.0170839395 59.8265094 130.983471 59.8265407 130.983473 71.8148474 0.0170868052 71.8148161"></polygon>
            </g>
            <path d="M300.423535,28.9979225 C300.423535,28.9979225 423.012656,128.945709 456,137.664131 L450.263071,156.997923 C450.263071,156.997923 335.159635,102.463817 289,36.5229004 L300.436116,28.9979225 L300.423535,28.9979225 Z" id="路径" fill="#E95C48" fill-rule="nonzero"></path>
            <path d="M313,156.997922 C313,156.997922 322.319784,150.247922 323.866582,156.997922 C325.41338,163.747922 313,156.997922 313,156.997922 Z" id="路径" fill="#C16C5F" fill-rule="nonzero"></path>
        </g>
    </g>
</svg>