<?xml version="1.0" encoding="UTF-8"?>
<svg width="2160px" height="3840px" viewBox="0 0 2160 3840" version="1.1" xmlns="http://www.w3.org/2000/svg" xmlns:xlink="http://www.w3.org/1999/xlink">
    <title>大人</title>
    <g id="大人" stroke="none" fill="none" fill-rule="evenodd" stroke-width="1">
        <g id="_图层_2" transform="translate(66, 1407)">
            <path d="M409.524398,333.891418 C422.494148,327.622777 435.838386,321.23993 450.156291,320.085181 C453.589093,319.806011 457.583626,320.085181 459.65579,322.889573 C460.741804,324.361561 461.091325,326.290374 462.164856,327.775052 C464.361849,330.795166 469.492328,332.064122 469.33005,335.807541 C469.24267,337.82518 467.482578,339.373306 467.02071,341.327498 C465.909731,346.060702 472.563125,350.451289 470.653239,354.918012 C469.816884,356.884894 467.495061,357.988885 466.970779,360.069972 C466.671189,361.237411 467.033193,362.480988 466.858433,363.686496 C466.434013,366.592404 463.275836,368.077082 460.542077,369.016109 C440.18244,375.995365 419.061346,380.677811 397.690593,382.961931 C397.153828,383.025379 396.542165,383.050758 396.130229,382.695451 C395.79319,382.403591 395.680844,381.934077 395.593463,381.489943 C393.583714,371.668226 392.734876,361.592719 393.071914,351.56797 C393.221709,347.075867 392.697427,343.433964 395.755741,340.553435 C398.913919,337.571389 405.617245,335.794851 409.536881,333.891418 L409.524398,333.891418 Z" id="路径" fill="#E18770" fill-rule="nonzero"></path>
            <path d="M226.131661,181.119807 C218.532094,185.926172 213.311304,193.676748 208.804148,201.477654 C193.354616,228.189463 183.63919,258.23553 180.52174,288.961031 C179.41999,299.743896 177.754846,310.438685 178.030284,321.271878 C178.581158,342.661457 177.529488,364.0762 179.39495,385.390286 C180.534259,398.437929 182.399721,411.8882 189.298175,422.998198 C196.184109,434.108197 209.367542,442.273984 222.08774,439.430428 C283.585388,425.690769 345.696511,413.712605 403,387.403423 C402.899841,370.606312 401.034379,353.821784 397.453693,337.414719 C352.670084,344.863325 307.460799,349.720018 262.126315,351.94705 C277.18773,321.82549 286.114404,288.621315 288.192704,254.964183 C289.106655,240.167627 288.65594,224.981026 283.660508,211.027472 C278.665076,197.073917 265.832199,184.001109 251.622136,180" id="路径" fill="#3A7151" fill-rule="nonzero"></path>
            <g id="编组" transform="translate(15, 1026)" fill-rule="nonzero">
                <path d="M42.806343,9.61719943 L4.08479317,81.1786432 L143.183076,147.264146 C143.183076,147.264146 158.522047,134.453687 146.225929,109.893031 C133.917339,85.3323753 111.445123,79.3325401 106.806019,61.4577712 C102.166915,43.5830024 106.980609,27.2799159 106.980609,27.2799159 L49.565467,0 L42.7938723,9.61719943 L42.806343,9.61719943 Z" id="路径" fill="#A44C3C"></path>
                <polygon id="矩形" fill="#522E30" transform="translate(73.8736, 114.6485) rotate(25.41) translate(-73.8736, -114.6485)" points="-4.27820879 107.101347 152.024014 107.115732 152.025402 122.19574 -4.27682115 122.181355"></polygon>
            </g>
            <g id="编组" transform="translate(303, 1067)" fill-rule="nonzero">
                <path d="M4.97863619,11.6158136 L0.709455657,93.1518156 L154.412401,93.1518156 C154.412401,93.1518156 162.764064,74.9395216 141.156783,57.9789317 C119.549501,41.0183418 96.7224545,45.2491015 84.885747,31.0547775 C73.0490395,16.8479365 70.4103623,0 70.4103623,0 L6.97009066,0 L4.97863619,11.6283306 L4.97863619,11.6158136 Z" id="路径" fill="#A44C3C"></path>
                <rect id="矩形" fill="#522E30" x="0" y="85.866898" width="155.993118" height="15.133102"></rect>
            </g>
            <path d="M197,561.590988 C199.054173,605.11814 210.289499,648.195011 229.754043,687.194339 C244.584172,716.912878 264.136394,744.292457 276.524061,775.111682 C293.972008,818.488741 296.326792,866.206007 298.468643,912.910141 C300.973732,967.60676 303.478822,1022.30338 305.983911,1077 C328.24163,1075.38649 350.486823,1073.77299 372.744542,1072.15948 C374.197493,1072.05942 375.813276,1071.85929 376.727634,1070.73359 C377.404008,1069.90808 377.504211,1068.76987 377.59189,1067.7067 C382.263881,1007.269 386.948398,946.831301 391.62039,886.381092 C392.88546,870.095933 394.138005,853.798267 393.987699,837.475585 C393.536783,789.020358 380.710726,741.640803 367.972346,694.886638 C355.359222,648.595261 342.746097,602.291377 330.132972,556" id="路径" fill="#1D2B3B" fill-rule="nonzero"></path>
            <path d="M150.118723,747.310295 C151.218947,767.246184 152.306668,787.432523 148.418378,807.01778 C145.33025,822.545734 139.191502,837.272245 133.090262,851.886052 C108.060175,911.793899 83.0300874,971.714268 58,1031.62211 C78.954259,1041.41474 99.9210205,1051.20737 120.87528,1061 C132.902724,1045.73502 142.604696,1028.81706 152.26916,1011.9492 C175.561395,971.313546 198.866131,930.677894 222.158366,890.029719 C227.997052,879.848891 233.860744,869.617974 237.92407,858.610658 C241.249746,849.631995 243.33767,840.240087 245.425595,830.89827 C264.954564,743.265513 284.471031,655.632757 304,568 C303.074812,572.157484 166.597073,569.540273 149.06851,586.408138 C134.177983,600.74645 144.017483,636.911555 145.017687,655.094287 C146.718032,685.824608 148.418378,716.567452 150.118723,747.297772 L150.118723,747.310295 Z" id="路径" fill="#2A4B5F" fill-rule="nonzero"></path>
            <g id="编组" transform="translate(0, 189)" fill-rule="nonzero">
                <path d="M32.4717428,13.1948032 C28.5589357,13.6573924 24.5461208,14.1574887 21.0333452,15.9328308 C16.532992,18.1957669 13.257735,22.3340643 10.7200359,26.6974051 C1.96934921,41.7503056 0.794256998,59.8913012 0.356722664,77.3071571 C-0.0933126514,94.848037 -0.0183067656,112.388917 0.0566991202,129.929797 C0.144205987,151.546462 0.244213835,173.163128 0.331720702,194.792295 C0.544237378,243.089102 0.781756017,291.76098 10.3575074,339.095101 C12.620185,350.309762 15.6454224,361.886993 23.108508,370.551162 C35.3594694,384.753899 56.1986047,387.554439 74.9375751,386.916816 C87.1260316,386.504236 99.2519831,385.066459 111.352933,383.628682 C131.929547,381.190712 152.518663,378.74024 173.095278,376.30227 C183.971131,375.014522 195.697051,373.326697 203.510164,365.650218 C208.460553,360.774278 211.160765,354.072987 213.073415,347.396701 C216.123654,336.719643 217.498762,325.642509 218.723858,314.602882 C228.012087,230.999272 229.487203,146.532996 223.124204,62.6543336 C222.261636,51.3021462 221.224054,39.774925 217.148735,29.1478772 C213.073415,18.5083271 205.522822,8.70643839 194.959493,4.44311689 C172.945266,-4.44609597 141.217776,2.41772661 118.315979,4.39310725 C89.6512297,6.86858425 61.0364843,9.79414798 32.4592418,13.1697984 L32.4717428,13.1948032 Z" id="路径" fill="#222E42"></path>
                <path d="M122.216285,94.6104912 C122.441303,97.7736007 122.541311,101.29928 120.453647,103.68724 C118.478492,105.950176 115.190734,106.412765 112.202999,106.712823 C82.8756981,109.613382 53.33588,110.376029 23.8960698,109.000764 C22.1834354,108.92575 20.3332903,108.775721 19.0456892,107.650504 C17.4705656,106.275239 17.2705499,103.937288 17.195544,101.849386 C16.8830195,92.6976226 16.8705185,83.5458592 17.1455401,74.3940957 C17.6830823,56.9282302 20.3832942,37.3994672 34.1843772,26.6849027 C43.485107,19.4710126 55.9110821,17.9207139 67.6745052,17.5456416 C82.4256627,17.0705501 107.340118,13.8949382 115.690773,29.3604182 C124.578971,45.8135886 120.941185,76.2694571 122.216285,94.6104912 L122.216285,94.6104912 Z" id="路径" fill="#34636D"></path>
                <path d="M18.0206088,126.391615 C13.1827291,183.515122 14.7078488,241.176233 22.5334629,297.962175 C23.8335649,307.401494 26.0712405,318.016039 34.2093791,322.979496 C40.0348363,326.53018 47.3479101,326.142605 54.1484438,325.642509 C72.9999231,324.254741 91.8514024,322.854472 110.702882,321.466704 C113.590608,298.162214 114.978217,274.657685 114.840706,251.17816 C114.590687,209.057544 117.69093,168.024637 118.928527,125.916524 C118.953529,125.228891 118.953529,124.478747 118.515995,123.953645 C118.028457,123.35353 117.165889,123.241008 116.390828,123.190998 C84.7383442,120.678014 49.4855779,122.165801 18.0206088,126.404118 L18.0206088,126.391615 Z" id="路径" fill="#39596A"></path>
                <path d="M99.9395371,171.237757 C102.714755,174.16332 101.152132,179.364322 97.8768752,181.727278 C94.6016182,184.090233 90.3262827,184.390291 86.3009668,184.615334 C66.3744032,185.728049 45.5727708,188.541091 25.7212131,187.665922 C26.2962582,168.499729 35.4344753,172.100423 52.3358015,171.875379 C59.5488676,171.77536 95.5641937,166.624368 99.9395371,171.225254 L99.9395371,171.237757 Z" id="路径" fill="#222E42"></path>
            </g>
            <path d="M308.147934,38.2464462 C314.516314,43.3954865 320.659486,49.3106035 323.749839,56.9211362 C325.000995,59.9854431 325.714153,63.2381296 326.840193,66.352671 C331.206725,78.3461673 341.291036,87.162329 351,95.4259107 C350.11168,102.270367 343.18028,106.264013 337.662685,110.370686 C336.524134,111.224673 335.373071,112.166571 334.79754,113.472669 C334.222009,114.766208 334.297078,116.235569 334.372147,117.642136 C334.897632,126.89785 335.410606,136.153564 335.936091,145.396719 C336.211345,150.35738 336.424042,155.644565 333.984289,159.964735 C331.56956,164.234671 326.902751,166.82175 322.123338,167.838999 C317.343925,168.856249 312.38935,168.492048 307.522356,168.140407 C299.001989,167.512475 290.481622,166.871985 281.961255,166.244053 C280.272196,166.118466 278.545602,165.99288 276.9191,166.482667 C272.940426,167.663179 270.838485,171.945673 269.524772,175.889084 C266.409396,185.232709 265.058148,195.15403 265.583634,205 C246.978955,204.786503 229.087436,198.318806 211.608798,191.93902 C210.595362,191.574819 209.544391,191.172943 208.868768,190.331514 C207.51752,188.673775 208.24319,186.224841 209.043929,184.228018 C214.686639,170.036761 220.329349,155.845503 225.959548,141.641687 C221.405343,139.77045 218.002201,135.877274 215.074498,131.896186 C206.403992,120.09107 200.310866,106.251454 198.534226,91.6959962 C196.745074,77.153097 199.422546,61.9194729 206.979523,49.3733967 C222.131013,24.218451 257.050755,13.6189632 284.1758,23.8919265 C292.921375,27.2074061 300.916257,32.3815637 308.172957,38.2464462 L308.147934,38.2464462 Z" id="路径" fill="#DB816A" fill-rule="nonzero"></path>
            <path d="M186.09641,89.4608987 C181.423019,70.805032 184.659405,50.2985834 194.843399,33.9934559 C205.027392,17.6883285 222.034037,5.79708909 240.840062,1.82083868 C257.98416,-1.79279769 275.72805,0.958067369 293.222027,1.72080723 C304.830531,2.22096451 316.538999,1.84584655 328.01005,3.74644422 C339.4811,5.6470419 350.964647,10.0984417 358.811945,18.6761391 C360.6863,20.726784 362.335732,23.0275075 363.235422,25.6533332 C365.422169,32.0803543 362.623133,39.2075956 358.574527,44.65931 C347.840722,59.1013516 329.621995,65.4908609 312.415419,70.7300084 C294.196692,76.2942582 275.578102,81.4958939 256.534659,81.6209333 C260.383334,85.4096247 261.145571,91.4990396 259.821027,96.7381872 C258.496483,101.977335 255.410046,106.553774 252.386087,111.030182 C249.487085,104.7282 243.501646,98.2136511 236.791456,99.9892095 C234.004916,100.726941 231.743194,102.85261 230.193728,105.278373 C226.844881,110.542528 226.632454,117.882336 230.393659,122.846397 C234.154864,127.810458 241.977171,129.460977 247.000441,125.759814 C245.838341,128.060537 244.38884,130.77389 243.226741,133.074614 C239.140647,141.20217 234.354795,149.092151 227.794554,155.394133 C225.470354,157.632336 222.921232,159.720493 219.947256,160.958382 C216.960784,162.183768 213.461988,162.458854 210.550491,161.070918 C205.43975,158.645155 203.715344,152.193126 203.765327,146.528845 C203.81531,140.877067 205.039888,135.062739 203.415447,129.648536 C198.692074,129.623529 194.555998,125.659782 192.331764,121.495973 C190.107529,117.332163 189.445257,112.530653 188.820472,107.854183 C187.995756,101.639729 187.633381,95.5253057 186.108906,89.4483947 L186.09641,89.4608987 Z" id="路径" fill="#283951" fill-rule="nonzero"></path>
            <path d="M310.153338,83.532311 C309.793103,85.753716 310.071995,88.0736069 310.943531,90.1636973 C311.536177,91.5753291 312.709846,93.063561 314.325095,92.9979037 C315.614969,92.9431893 316.637573,91.8160725 316.904844,90.6232984 C317.172115,89.4305243 316.835121,88.1939786 316.405163,87.044976 C315.63821,84.9658285 313.895136,82.6240519 311.6059,83.0508242" id="路径" fill="#283951" fill-rule="nonzero"></path>
            <path d="M314.013391,128.535497 C313.856214,129.492251 315.113626,130.098973 316.161469,130.343995 C320.339744,131.300749 324.806175,131.207407 328.918959,130.087305 C329.796528,129.842283 330.71339,129.527254 331.289704,128.885529 C334.511822,125.291868 325.788528,127.90544 324.714489,128.092123 C323.810724,128.243804 313.934803,128.990538 314.013391,128.535497 L314.013391,128.535497 Z" id="路径" fill="#283951" fill-rule="nonzero"></path>
            <path d="M308.589819,132.858044 C308.5682,134.182965 308.297969,135.962145 307.303516,136 C306.50363,132.113565 307.379181,127.936909 308.827623,124.403785 C310.04907,121.438486 311.778553,118.914826 313,116 C310.189591,120.618297 308.708721,126.940063 308.589819,132.858044 Z" id="路径" fill="#A85D4E" fill-rule="nonzero"></path>
            <path d="M297.652972,75.541662 C296.595325,76.6738399 295.751725,77.9629534 295.172538,79.3529539 C295.046627,79.6556154 294.933308,79.9919058 295.046627,80.3057769 C295.210311,80.7317448 295.751725,80.9559385 296.255367,80.9895675 C297.602608,81.1016643 298.861712,80.2945672 299.69272,79.3305346 C300.523728,78.3665019 301.065143,77.234324 301.870969,76.2590817 C302.827888,75.1044844 304.162538,74.1965002 305.660871,73.6696451 C306.441516,73.4006127 307.436208,72.6271447 306.794065,72.1451283 C306.580017,71.9881928 306.290423,71.9881928 306.013421,72.0106122 C302.689387,72.2123864 299.478672,73.6135967 297.287832,75.8443234" id="路径" fill="#283951" fill-rule="nonzero"></path>
            <path d="M173.574932,113.797562 C165.528449,115.318799 158.141105,119.171769 151.002494,123.186838 C144.809065,126.678202 138.404213,130.618456 135.033893,136.890443 C131.178546,144.072678 132.073981,152.776151 133.081346,160.868635 C133.529064,164.447283 134.126021,168.337661 136.787455,170.756677 C126.589439,173.923844 118.294223,181.82929 113.058412,191.156221 C107.822602,200.483151 105.397464,211.156751 104.290606,221.805412 C103.706086,227.354187 103.681212,233.576297 107.362447,237.765935 C109.364741,240.035321 112.250033,241.381991 115.185072,242.142609 C128.392746,245.559159 141.836716,238.189886 152.905295,230.197155 C162.344678,223.388995 171.34878,215.870092 179.059475,207.141682 C186.77017,198.400802 193.125275,188.537697 199.045099,178.487556 C205.151472,168.125685 210.971803,157.102949 211.879675,145.095149 C213.670546,121.52844 195.214625,109.707678 173.587369,113.797562 L173.574932,113.797562 Z" id="路径" fill="#283951" fill-rule="nonzero"></path>
            <path d="M184.865917,201.937802 C185.189212,201.937802 183.33648,203.849913 183.67221,203.849913 C161.961669,229.094785 149.71374,261.450712 143.6706,294.269045 C137.615025,327.087378 137.378771,360.668057 137.154951,394.036278 C136.744614,456.073676 139.492626,518.048586 135.078398,579.923516 C134.916751,582.223049 134.854578,584.822521 136.458622,586.459688 C137.876148,587.909394 140.101914,588.084358 142.116294,588.171841 C171.834618,589.371597 201.60268,589.271617 231.321004,587.846907 C251.079337,586.909597 271.869729,584.160156 291.603194,582.822927 C305.35569,581.898115 318.871932,578.636278 332.512518,576.611689 C335.360006,576.186775 339.301725,575.461923 342,574.474623 C340.980375,481.680974 339.973185,388.874827 338.953561,296.081177 C338.86652,288.220274 338.75461,280.209401 336.342327,272.73592 C334.303078,266.462194 330.721958,260.825839 327.190576,255.264469 C320.48841,244.754104 313.786244,234.243739 307.096512,223.745872 C306.773217,223.745872 309.372016,224.545709 309.04872,224.545709 C267.070034,219.134308 226.8073,196.076492 184.878351,201.950299 L184.865917,201.937802 Z" id="路径" fill="#F1BF5D" fill-rule="nonzero"></path>
            <path d="M206.53668,223.415916 C218.888336,234.767409 223.357025,252.302644 225.039059,268.997492 C228.930333,307.818345 220.959498,346.902602 209.699909,384.268457 C220.131033,386.96522 231.415727,381.910357 238.683622,373.95804 C245.951518,366.005723 249.855344,355.582418 252.830286,345.234372 C258.039571,327.097069 260.876436,308.357698 263.336725,289.643413 C264.730052,279.082134 265.997854,268.295079 263.851377,257.859231 C261.893188,248.313943 257.186002,239.596498 252.541578,231.029569 C245.424313,217.922044 237.76729,204.224994 225.089269,196.360478 C212.699956,188.68411 196.344053,187.893895 183.264352,194.328498 C176.322822,197.740218 156.803691,212.365457 168.828982,216.178555 C173.297671,217.595924 181.569765,213.933343 186.653526,214.497782 C193.933974,215.300539 201.139107,218.448854 206.53668,223.415916 L206.53668,223.415916 Z" id="路径" fill="#222E42" fill-rule="nonzero"></path>
            <path d="M310.961464,190.118816 C312.514517,190.656146 314.307473,191.468388 314.560002,193.080377 C314.787278,194.517421 313.638271,195.767025 312.57765,196.779204 C309.143255,200.053166 305.721487,203.314632 302.287093,206.588594 C309.421037,207.86319 315.393348,212.974069 319.320174,219.009656 C323.247,225.045242 325.418749,232.005535 327.552619,238.86586 C327.880907,239.928023 328.209195,241.065162 327.830401,242.102334 C326.896044,244.689013 323.07023,244.189172 320.481807,243.189489 C294.231418,233.042706 267.981029,222.895923 241.743266,212.749141 C223.535925,205.713871 204.406853,198.553642 185,200.865409 C185.366167,200.827921 193.863768,176.07327 198.598687,173.374125 C207.500334,168.31323 225.619289,170.23762 235.442667,170.999878 C261.478407,173.01174 286.504031,181.571526 310.961464,190.10632 L310.961464,190.118816 Z" id="路径" fill="#BF5D3F" fill-rule="nonzero"></path>
            <g id="编组" transform="translate(407, 319)" fill-rule="nonzero">
                <path d="M78.2069354,23.2197188 L48.6055562,60.4122102 L3.21259386,26.8591985 C-1.61644468,23.9675571 -0.876410204,16.1651108 4.59231916,9.28499849 L4.59231916,9.28499849 C10.0610485,2.40488614 18.6780602,-1.54619288 24.1217036,0.572682304 L78.2069354,23.2072548 L78.2069354,23.2197188 Z" id="路径" fill="#222E42"></path>
                <path d="M114.430996,36.8054479 L77.1909558,83.6076615 L20.0703284,41.3921895 C13.9995371,37.7527098 14.915173,27.9311001 21.8012565,19.2811038 L21.8012565,19.2811038 C28.6873401,10.6311074 39.5244551,5.65798274 46.3729098,8.32527267 L114.430996,36.8054479 L114.430996,36.8054479 Z" id="路径" fill="#222E42"></path>
                <path d="M75.6105432,82.6728636 C68.5488583,78.4351132 71.0072779,65.1859114 80.7907846,52.8839713 C90.5742912,40.5820313 104.685118,33.0164005 112.649896,36.1199295 C121.028591,39.3730261 119.448179,53.0584669 108.736493,66.5320203 C98.0248078,79.9931097 83.0359739,87.1349654 75.6105432,82.6728636 L75.6105432,82.6728636 Z" id="路径" fill="#2A4B5F"></path>
                <path d="M80.8785853,76.35363 C75.7610587,73.275029 77.5421586,63.6653068 84.6414724,54.7535671 C91.7407862,45.8418274 101.963296,40.3452159 107.7456,42.6011947 C113.816391,44.9693493 112.674982,54.8906708 104.910891,64.6499606 C97.1468008,74.4092504 86.2720569,79.5942626 80.8911282,76.35363 L80.8785853,76.35363 Z" id="路径" fill="#222E42"></path>
            </g>
            <g id="编组" transform="translate(360, 325)" fill-rule="nonzero">
                <path d="M78.2069354,23.2197188 L48.6055562,60.4122102 L3.21259386,26.8591985 C-1.61644468,23.9675571 -0.876410204,16.1651108 4.59231916,9.28499849 L4.59231916,9.28499849 C10.0610485,2.40488614 18.6780602,-1.54619288 24.1217036,0.572682304 L78.2069354,23.2072548 L78.2069354,23.2197188 Z" id="路径" fill="#222E42"></path>
                <path d="M114.418453,36.8054479 L77.1784129,83.6076615 L20.0577855,41.3921895 C13.9869942,37.7527098 14.90263,27.9311001 21.7887136,19.2811038 L21.7887136,19.2811038 C28.6747971,10.6311074 39.5119122,5.65798274 46.3603669,8.32527267 L114.418453,36.8054479 L114.418453,36.8054479 Z" id="路径" fill="#222E42"></path>
                <path d="M75.6105432,82.6728636 C68.5488583,78.4351132 71.0072779,65.1859114 80.7907846,52.8839713 C90.5742912,40.5820313 104.685118,33.0164005 112.649896,36.1199295 C121.028591,39.3730261 119.448179,53.0584669 108.736493,66.5320203 C98.0248078,79.9931097 83.0359739,87.1349654 75.6105432,82.6728636 L75.6105432,82.6728636 Z" id="路径" fill="#2A4B5F"></path>
                <path d="M80.8785853,76.35363 C75.7610587,73.275029 77.5421586,63.6653068 84.6414724,54.7535671 C91.7407862,45.8418274 101.963296,40.3452159 107.7456,42.6011947 C113.816391,44.9693493 112.674982,54.8906708 104.910891,64.6499606 C97.1468008,74.4092504 86.2720569,79.5942626 80.8911282,76.35363 L80.8785853,76.35363 Z" id="路径" fill="#222E42"></path>
            </g>
            <path d="M355.524398,368.891418 C368.494148,362.622777 381.838386,356.23993 396.156291,355.085181 C399.589093,354.806011 403.583626,355.085181 405.65579,357.889573 C406.741804,359.361561 407.091325,361.290374 408.164856,362.775052 C410.361849,365.795166 415.492328,367.064122 415.33005,370.807541 C415.24267,372.82518 413.482578,374.373306 413.02071,376.327498 C411.909731,381.060702 418.563125,385.451289 416.653239,389.918012 C415.816884,391.884894 413.495061,392.988885 412.970779,395.069972 C412.671189,396.237411 413.033193,397.480988 412.858433,398.686496 C412.434013,401.592404 409.275836,403.077082 406.542077,404.016109 C386.18244,410.995365 365.061346,415.677811 343.690593,417.961931 C343.153828,418.025379 342.542165,418.050758 342.130229,417.695451 C341.79319,417.403591 341.680844,416.934077 341.593463,416.489943 C339.583714,406.668226 338.734876,396.592719 339.071914,386.56797 C339.221709,382.075867 338.697427,378.433964 341.755741,375.553435 C344.913919,372.571389 351.617245,370.794851 355.536881,368.891418 L355.524398,368.891418 Z" id="路径" fill="#E18770" fill-rule="nonzero"></path>
            <g id="编组" transform="translate(126, 434)" fill="#222E42" fill-rule="nonzero">
                <path d="M0.313229741,113.752655 C-0.701634621,114.154519 1.00233517,115.284761 2.02972872,114.93313 C28.6793151,106.041887 54.6523253,95.1413238 79.673117,82.3319059 C86.3637043,78.9035029 93.0417624,75.3118425 98.8678356,70.5522647 C106.761225,64.0973227 112.925586,55.5577107 116.571581,46.0259968 C118.450959,41.1031617 119.653761,35.5272974 117.749324,30.6170205 C114.754848,22.9062533 105.646127,19.8797143 97.6274458,17.9206269 C67.0938106,10.4233499 31.1225071,4.43306327 0,0" id="路径"></path>
                <path d="M211.906185,51.1120892 C214.236614,51.1246475 216.967977,50.9362737 218.245955,48.9897445 C218.997706,47.8469435 219.010235,46.3776279 218.997706,45.0087783 C218.947589,37.2603363 218.884943,29.5244525 218.834827,21.7760105 C198.537539,22.943928 178.240252,24.1118455 157.955494,25.279763 C142.732529,26.1588408 97.1388074,24.6267339 84.0583334,33.5179769 C80.0740511,36.2305596 96.0612971,47.5706619 99.7072913,54.1260699 C103.428461,60.8196187 137.194627,53.4604825 144.210973,53.0209437 C166.763514,51.6144193 189.316056,51.099531 211.906185,51.099531 L211.906185,51.1120892 Z" id="路径"></path>
            </g>
            <path d="M173.131661,215.693024 C168.298987,223.275788 160.311304,228.222161 155.804148,236.005793 C140.354616,262.658457 130.63919,292.637996 127.52174,323.295464 C126.41999,334.054453 124.754846,344.725562 125.030284,355.534767 C125.581158,376.876985 124.529488,398.244311 126.39495,419.511204 C127.534259,432.529956 129.399721,445.950445 136.298175,457.035844 C143.184109,468.121243 156.367542,476.268949 169.08774,473.431689 C230.585388,459.722453 292.696511,447.770811 350,421.519883 C349.899841,404.759965 348.034379,388.012601 344.453693,371.641864 C299.670084,379.073978 254.460799,383.919917 209.126315,386.142018 C224.18773,356.087154 233.114404,322.956499 235.192704,289.373892 C236.106655,274.610099 235.65594,259.457124 230.660508,245.534466 C225.665076,231.611807 212.832199,218.567946 198.622136,214.575696 C198.622136,214.575696 179.42916,205.837941 173.156701,215.680469 L173.131661,215.693024 Z" id="路径" fill="#D09145" fill-rule="nonzero"></path>
            <path d="M247.530993,111 C247.088042,109.786143 246.410588,108.65559 245.524686,107.655943 C244.169777,106.144571 242.189526,104.942615 240.052939,105.002118 C237.916352,105.061621 235.805821,106.763401 236.014268,108.703192 C237.134673,107.38223 239.362456,107.667843 241.13426,108.084363 C242.293749,108.358076 243.453239,108.631789 244.5997,108.905501 C245.785245,109.191115 247.009874,109.476728 248,110.131259" id="路径" fill="#A85D4E" fill-rule="nonzero"></path>
            <path d="M168.451848,288.886798 C171.001035,289.214956 173.586639,288.777412 176.099409,288.242636 C180.093136,287.379701 184.47531,285.909067 186.332574,282.250712 C186.890968,281.156852 187.170164,279.941452 187.412944,278.750359 C188.991012,271.093338 187.595029,264.979874 180.675807,260.738127 C175.893046,257.809013 170.284835,256.824539 165.295712,259.814423 C154.1764,266.462663 153.290254,286.942157 168.451848,288.886798 Z" id="路径" fill="#68854F" fill-rule="nonzero"></path>
            <path d="M331.08652,400 C305.654621,405.886718 279.908904,410.487262 254,413.789265 C257.439457,425.513233 257.841146,438.090527 255.142301,450 C257.627749,449.356913 260.113196,448.701459 262.598643,448.058372 C261.770161,438.399703 261.305708,428.7163 261.192733,419.020529 C270.820703,417.264408 280.461225,415.508286 290.089195,413.764531 C301.700501,411.649765 313.374571,409.522632 324.508872,405.664111 C326.354128,410.363591 327.508982,428.642097 332.831354,425.550334 C338.906891,422.025723 330.195274,400.21024 331.073967,400 L331.08652,400 Z" id="路径" fill="#F6C870" fill-rule="nonzero"></path>
            <path d="M299,271 C298.962343,272.875611 298.924686,274.751223 298.887029,276.626834 C298.849372,278.314884 274.372385,279.153393 272,278.976865 C273.782427,273.38313 273.217573,272.478423 279.669456,272.048136 C286.221757,271.606815 292.422594,272.169499 298.987448,271.011033 L299,271 Z" id="路径" fill="#4F7190" fill-rule="nonzero"></path>
            <path d="M136.511992,558.684366 C131.623597,561.300495 133.227993,566.910078 134.193138,579.764326 C134.606771,585.298445 131.560925,592.530532 133.879779,597.259687 C137.527275,604.693015 153.445897,601.297078 160.452597,600.768822 C209.386693,597.159067 258.320788,593.549312 307.254883,589.952135 C319.488407,589.046552 331.809672,588.140969 343.704768,585.122359 C344.356554,571.739854 343.930386,558.30704 342.41373,545 C337.475197,546.169711 332.41132,546.735701 327.372512,547.263958 C288.152537,551.439702 248.832287,554.57151 209.449364,556.659382 C196.75207,557.338569 184.029706,555.841841 171.319877,556.82289 C159.512521,557.74105 148.444692,560.420067 136.524527,558.671788" id="路径" fill="#D09145" fill-rule="nonzero"></path>
            <path d="M314,98 C314,98 307.748503,100.25 306,98" id="路径" stroke="#A85D4E" stroke-width="0.68"></path>
        </g>
    </g>
</svg>