<?xml version="1.0" encoding="UTF-8"?>
<svg id="Layer_2" data-name="Layer 2" xmlns="http://www.w3.org/2000/svg" viewBox="0 0 472.08 251.5">
  <defs>
    <style>
      .cls-1 {
        fill: none;
      }

      .cls-2 {
        fill: #f0b096;
      }

      .cls-3 {
        fill: #e0806c;
      }

      .cls-4 {
        fill: #391a1c;
      }

      .cls-5 {
        fill: #c2b4a3;
      }

      .cls-6 {
        fill: #3f342d;
      }

      .cls-7 {
        fill: #3f342e;
      }

      .cls-8 {
        fill: #234e44;
      }

      .cls-9 {
        fill: #244f45;
      }

      .cls-10 {
        fill: #e29e86;
      }

      .cls-11 {
        fill: #244e44;
      }

      .cls-12 {
        fill: #ec9d7f;
      }

      .cls-13 {
        fill: #60201d;
      }

      .cls-14 {
        fill: #45332b;
      }

      .cls-15 {
        fill: #eda28a;
      }

      .cls-16 {
        fill: #f5c3ac;
      }

      .cls-17 {
        fill: #d58535;
      }

      .cls-18 {
        fill: #234c42;
      }

      .cls-19 {
        fill: #41342b;
      }

      .cls-20 {
        fill: #ce7061;
      }

      .cls-21 {
        fill: #d88870;
      }

      .cls-22 {
        fill: #538352;
      }

      .cls-23 {
        fill: #c7b6a5;
      }

      .cls-24 {
        fill: #bf5333;
      }

      .cls-25 {
        fill: #784837;
      }
    </style>
  </defs>
  <g id="Layer_7" data-name="Layer 7">
    <g>
      <g>
        <path class="cls-22" d="M417.29,39.19c-2.31,25.28-11.07,51.01-28.27,70.1l-3.98-.09c-2.32-1.88-3.03-4.56-2.13-8.03-2.07,1.07-3.86.13-5.6-1.42,6.06,6.99,2.82,26.21-4.78,30.47-1.12.62-2.55.27-3.83-.14-6.96,10.83-15.88,20.45-26.75,28.84-4.91,5.54-9.63,7.58-14.15,6.12l-3.07-2.16c-5.72-18.62-5.8-34.89,5.75-51.02-7.29,12.6-12.95,9.83-13.05-3.28,1.19,11.31.61,22.13-1.76,32.44-10.28-3.57-23.83-11.88-31.72-19.71-4-3.98-5.29-5.34-3.34-10.88-2.44,3.1-5.72,2.42-7.99-.41,10.55,12.16,22.57,22.62,36.04,31.4,4.81,3.88,8.49,7.9,10.94,13.52,1.32,3.05,3.29,14.15-.85,14.97-3.81,6.01-10.09,10.14-18.82,12.39-7.85,4.22-15.31,5.55-22.37,3.99-3.2,2.09-4.48-.38-5.59-3.56l-6.39-26.74c3.36,8.52,3.96,16.65,1.8,24.37-10.02-3.48-19.02-9.55-26.99-18.21l12.2,11.53c1.74,3.6-.75,5.99-4.47,6.75,6.97-.42,19.38-.83,18.47,8.24-.57.86-1.18,1.68-1.91,2.36-7.01,6.5-60.23,1.9-64.35-4.95-.12-.2,4.05-.39-.91,1.56-2.93-7.51-.48-15.63,6.95-22.08-15.52-6.12-23.5-20.31-22.86-36.42.76-18.89,13.91-33.77,33.99-34.05-7.61-15.24-7.36-31,1.37-46.22,13.71-23.92,46.15-31.97,68.68-12.7,4.16-19.75,18.63-32.99,37.66-35.68,27.55-3.89,51.47,16.45,53.83,43.57,12.12-8.68,25.99-9.99,38.22-4.85Z"/>
        <path class="cls-8" d="M417.29,39.19c25.38,10.67,35.13,40.46,21.88,65.96,10.96-.14,19.93,4.05,26.31,12.37,6.65,8.67,8.38,19.93,4.69,31.01-2.89,8.67-9.7,17.08-20.4,21.49,5.84,4.72,8.8,9.41,8.97,15.37.88,30.41-64.97,29.91-94.65,30.75l-.86-3.11c12.25-13,28.57-29.56,45.92-34.27-10.87,1.42-10.67-5.01-6.23-13.06-12.23,19.77-28.2,36.44-47.93,50.02l-3.26-.45-5.72.31c-.26-1.65-.46-3.3-.45-4.94,0-1.63.02-3.22.47-4.66,5.77-18.53,11.96-37.46,20.05-54.86l2.84-2.81c12.18-1.79,23.85-5.03,35.03-9.73-6.72,2.43-24.62,8.67-30.5,5.33-2.63-1.49-1.31-8.06-.28-10.65,3.48-7.28,6.39-14.74,8.73-22.39l3.16-1.68c15.48-14.13,27.51-45.26,28.92-66.7.08-1.21.36-2.54.84-2.91s1.92-.2,2.49-.4Z"/>
        <path class="cls-14" d="M327.8,165.05c1.11.05,2.8.27,2.92,1.04,1.08,6.58,3.77,45.6,2.48,48.38-.3.65-.9,1.17-1.58,1.66.31,1.6.08,4.82-.99,4.82h-4.55c-2.36.02-4.66.06-4.62-1.59l.1-3.72c-2.8-6.74-3.86-14.24-3.17-22.48-1.63-8.23-1.51-15.97.38-23.24-.84-5.39-.25-12.88-3.45-17.43-6.65-9.45-17.23-14.78-26.16-21.93-11.71-9.37-20.8-20.65-29.55-32.85-.73-1.02,1.48-2.93,2.3-2.13l15.51,15.14c5.44-12.21,5.89-24.25,6.75-37.94,8.27,9.23,1.14,29.04-1.93,43.25,9.93,9.06,21.01,15.82,32.58,23.33.74-21.44-1.94-41.41,1.75-61.86l4.93,41.14c8.3-8.25,11.49-17.84,16.33-28.28,3.12,6.7.36,12.78-2.53,18.37l-11.38,22.01c-1.76,11.53,3.03,23.07,3.88,34.31Z"/>
        <path class="cls-9" d="M266.61,188.67c.55-1,1.65-2.2,2.34-1.82,7.89,4.39,19.97,18.02,25.88,25.34l.07,3.64-25.67-.35c-23.16-.25-62.05-8.01-69.79-27.84-.07-.42-.85-2.64.36-3.79,22.04,7.53,44.8,9.98,66.81,4.81Z"/>
        <path class="cls-6" d="M385.04,109.2c-1.74,12.9-11.19,23.05-10.37,32.87,9.98-.25,19.58-2.58,29.03-6.4,3.1-1.25,6.06-4.39,9.8-.96-9.91,10.47-25.87,13.19-40.04,14.89-5,.6-6.33,5.35-7.84,9.16-7.59,19.11-13.79,37.85-19.62,56.84-.74,1.86-2.27,3.89-3.59,4.79-1.6,1.08-5.33.7-7.9.33l-.04-5.36-.52-5.54c6.77-16.65,13.17-33.46,19.2-50.42,4.11-10.46,9.29-20.23,15.56-29.31,4.68-4.38,11.43-14.28,8.91-21.5-4.34-12.48-11.4-24.17-5.13-37.01,1.56,10.84,2.43,20.06,8.37,28.23,2.77-4.48,1.03-8.79,4.28-12.28,1.01,7.99.82,14.94-.09,21.68Z"/>
        <path class="cls-11" d="M334.47,215.36l-2.84.76c-1.27-6.49-.9-12.33-1.39-18.9l-2.43-32.17c8.16-3.68,14.69-10.42,21.49-16.78l19.42-18.18c.04,1.69.02,3.68-.89,5.26-16.03,27.95-20.57,53.85-33.34,80.01Z"/>
        <path class="cls-19" d="M277.59,186.3l5.5.98c5.36,3.89,23.62,21.39,24.16,26.54.1,1,.02,2.03-.12,3.06.78.74,2.09,2.95,1.47,3.72-.32.39-9.21,1.06-11.52-.55-1.06-.74-1.45-3-2.18-4.21-2.76-1.62-4.49-4.81-6.98-7.36l-14.73-15.09-6.59-4.71c-2.76-1.98-5.49-5.75-9.98-5.56-17.06.74-30.78-1.1-24.84-4.38,3.98-2.2,13.45,1.06,19.64-2.54-7.17-6-14.66-11.83-18.01-20.01,2.27-2.21,4.94.33,6.73,1.95,8.48,7.69,16.35,14.68,26.4,20.64-.41-14.62-4.87-27.5-11.14-41.8,4.2-.22,6.31,3.6,7.9,6.66,11.65,22.4,7.68,37.09,14.28,42.68Z"/>
        <path class="cls-18" d="M321.56,215.63c-4.66.27-9.55-.9-14.44,1.25-8.21-11.58-18.55-21.25-29.54-30.58,14.71-3.55,28.44-8.68,41.18-16.39,2.43,15.68,3.19,30.6,2.79,45.71Z"/>
        <path class="cls-7" d="M364.1,216.14c-1.66,1.59-2.59,4.73-5.71,4.68l-9.89-.15,3.23-5.38c3.01-5.02,23.09-16.29,38.19-35.04,6.58-8.17,10.25-18.38,18.86-25.29,1.09-.88,3.38.85,2.44,2.44-3.52,5.92-7.69,11.39-8.82,18.44,10.27,1.39,20.91-5.25,22.72-1.96.7,1.27-.44,2.67-2.7,3.43l-23.35,7.85c-3.96,1.33-25.68,22.09-34.96,30.98Z"/>
        <circle class="cls-24" cx="214.92" cy="134.26" r="6.6"/>
        <circle class="cls-24" cx="240.3" cy="89.2" r="6.6"/>
        <circle class="cls-25" cx="423.81" cy="112.04" r="6.6"/>
        <circle class="cls-25" cx="437" cy="153.86" r="6.6"/>
        <circle class="cls-24" cx="308.76" cy="48.36" r="6.6"/>
        <circle class="cls-24" cx="399.08" cy="75.36" r="6.6"/>
        <circle class="cls-24" cx="352.15" cy="68.76" r="6.6"/>
      </g>
      <g>
        <path class="cls-17" d="M105.35,167.01c12.26,3.2,22.78,12.48,27.48,24.24.92,2.31,1.64,4.8,1.28,7.26-.36,2.42-1.74,4.58-3.39,6.37-5.7,6.17-15.08,8.48-23.15,6.12-4.35-1.27-8.23-3.73-12.18-5.95-7.87-4.42-16.23-7.98-24.87-10.6-7.98-2.42-13.07-11.51-18.25-17.6.52-3.16,1.03-6.32,1.55-9.48"/>
        <path class="cls-10" d="M112.75,185.22c-3.06,1.9-6.07,4.18-7.61,7.4-2.39,4.99-.61,11.13,2.92,15.42,3.54,4.29,8.54,7.11,13.43,9.83,4.31,2.41,8.63,4.81,12.94,7.22,2.04,1.14,4.27,2.31,6.59,2.02,1.93-.24,3.58-1.47,5.03-2.75,7.51-6.57,12.7-15.65,14.5-25.36.48-2.56.63-5.49-1.07-7.49-.6-.7-1.38-1.23-2.2-1.66-6.15-3.26-14.77-.77-18.13,5.25.26-.45-11.48-11.7-12.63-12.22-4.51-2.08-9.87-.08-13.78,2.35Z"/>
        <path class="cls-17" d="M43.38,208.33c6.38,8.05,21.66,17.64,30.48,22.9,4.96,2.96,10.44,5.46,16.21,5.41,6.81-.05,13.47-3.96,16.83-9.88,1.95-3.44,2.79-7.77,1.14-11.36-1.23-2.68-3.66-4.59-5.99-6.4-9.71-7.51-22.94-14.81-30.57-24.47-2.57-3.26-4.03-7.03-6.91-10.11-4.15-4.44-9.35-7.85-13.77-12,.21.2.42.4.64.6-3.06-1.89-6.01-3.96-8.82-6.2-1.15-.91-2.33-1.78-3.46-2.71-1.47-1.21-.77-.57-2.23-1.79-.7-.59-1.42-1.19-1.87-1.99-.54-.97-.64-2.13-1.12-3.14-1.5-3.15-6.25-6.65-10.02-6.3-.5.05-.98.16-1.44.35-4.91,2.05-9.99,9.56-13.65,13.37C4.49,159.1-.02,164.33,0,170.57s.44,11.81,3.03,17.25c3.38,7.11,8.08,14.39,14.8,18.49,2.66,1.62,5.53,2.88,8.4,4.11,10.55,4.5,21.3,8.52,32.2,12.06,5.91,1.92,12.1,3.72,18.26,2.87s12.28-5.06,13.39-11.18c.93-5.18-1.81-10.27-4.69-14.67-4.46-6.84-9.51-13.3-15.06-19.29"/>
        <path class="cls-2" d="M86.85,209.57c-3.06,1.9-6.07,4.18-7.61,7.4-2.39,4.99-.61,11.13,2.92,15.42,3.54,4.29,8.54,7.11,13.43,9.83,4.31,2.41,8.63,4.81,12.94,7.22,2.04,1.14,4.27,2.31,6.59,2.02,1.93-.24,3.58-1.47,5.03-2.75,7.51-6.57,12.7-15.65,14.5-25.36.48-2.56.63-5.49-1.07-7.49-.6-.7-1.38-1.23-2.2-1.66-6.15-3.26-14.77-.77-18.13,5.25.26-.45-11.48-11.7-12.63-12.22-4.51-2.08-9.87-.08-13.78,2.35Z"/>
        <path class="cls-3" d="M172.74,129.83c1.29-.8,2.59-1.6,3.88-2.4.91-.56,1.82-1.12,2.72-1.68,2.17-1.34,4.34-2.68,6.51-4.02.97-.6,2.03-1.23,3.21-.94.68.16,1.24.71,1.28,1.41.11,1.99-3.75,2.17-2.17,4.52.02.02.04.05.07.06.28.14.62.11.93.05,2.14-.36,4.12-1.48,6.27-1.75.62-.08,1.29-.04,1.92.09,1.94.42,2.29,3.05.57,4.02-.85.48-1.65,1.04-2.4,1.66,1.61-.78,3.45-1.07,5.21-.81.07,2.3-2.52,3.63-4.69,4.4,1.01.43,2.12-.5,3.12-.7,1.16-.24,1.93,1.18,1.1,2.03,0,0,0,0,0,0-1.12,1.14-2.43,2.09-3.86,2.8.53,0,1.05.11,1.52.35-1.2,2.43-4.44,2.82-7.15,2.89-4.75.12-9.49.24-14.24.36"/>
        <path class="cls-21" d="M126.26,112.04c2.4,1.45,4.48,3.35,6.7,5.05,10.62,8.16,24.58,11.84,37.85,9.96,1.47-.21,3.01-.47,4.4.03,2.99,1.08,3.73,4.9,3.99,8.08.16,1.93.32,3.87.48,5.8.05.58.09,1.18-.13,1.71-.29.68-.95,1.12-1.6,1.47-3.54,1.95-7.54,2.85-11.49,3.72-5.73,1.27-11.45,2.53-17.18,3.8-4.46.99-8.92,1.97-13.46,2.47-5.22.58-10.71.46-15.45-1.81-7.45-3.57-11.56-11.62-14.41-19.37"/>
        <path class="cls-2" d="M68.26,106.25c-15.05,6.26-28.79,15.65-40.09,27.41-3.07,3.2-6.02,6.66-7.57,10.82-1.14,3.07-1.46,6.4-1.24,9.67.54,7.99,4.26,15.56,9.55,21.58,5.29,6.02,12.06,10.57,19.22,14.17,2.98,1.49,6.07,2.85,9.34,3.43,6.99,1.23,14.11-1.14,20.55-4.13,11.27-5.24,21.66-12.53,29.87-21.87,8.21-9.33,14.18-20.74,16.44-32.97,1.39-7.51.96-16.3-4.73-21.4-3.13-2.8-7.35-4-11.43-5.04-6.94-1.76-13.94-3.27-20.98-4.55"/>
        <path class="cls-1" d="M94.33,191.48v.94c0,1.18,0-2.12,0-.94Z"/>
        <path class="cls-3" d="M84.54,201.32c1.01,2.61,2.25,5.14,3.69,7.54.99,1.64,2.46,2.98,4.08,3.98.3.19.64.37,1,.34.6-.06.99-.73.96-1.33s-.36-1.14-.68-1.65c1.59,1.29,3.17,2.59,4.76,3.88.91.74,2.41,1.42,3.07.46.92-1.33-1.67-2.97-1.08-4.47,1.17.83,2.44,1.52,3.77,2.05.29.12.6.22.9.16.75-.17.87-1.23.54-1.92s-.93-1.25-1.1-2c.63.25,1.28.51,1.96.46s1.36-.53,1.42-1.21c.05-.61-.4-1.13-.82-1.57-1.03-1.07-2.05-2.14-3.08-3.21.14.17.45,0,.47-.22s-.12-.42-.26-.59c-2.15-2.72-4.4-5.36-6.75-7.92"/>
        <path class="cls-12" d="M46.4,155.69c1.11,7.07,4.07,13.71,7.32,20.09,2.5,4.91,5.26,9.8,9.27,13.57,2.18,2.05,4.68,3.73,7.17,5.39,3.48,2.33,6.97,4.66,10.45,6.99,1.28.86,2.59,1.73,4.08,2.16,2.05.59,4.25.29,6.35-.09,3.99-.72,7.93-1.72,11.79-2.97-1.02-3.16-2.03-6.31-3.05-9.47-2.39-7.43-4.8-14.92-5.73-22.66-.35-2.9-.49-5.83-.98-8.71-.68-3.98-2.03-7.81-3.37-11.62-1.67-4.75-3.35-9.5-5.02-14.26-1.41-4-2.85-8.07-5.39-11.46-3.46-4.64-9.55-8.46-15.5-8.3-5.01.14-5.81,3.04-7.95,6.84-6.26,11.12-11.53,21.21-9.44,34.51Z"/>
        <g>
          <path class="cls-23" d="M62.69,98.62c-2.86-3.1-6.8-5.17-10.97-5.78s-8.54.27-12.16,2.43c2.78,3.54,1.77,9.24,5.03,12.35.77.74,1.73,1.26,2.69,1.73,4.08,1.98,11.95,4.43,15.97.94,2.93-2.55,1.78-9.14-.56-11.67Z"/>
          <path class="cls-5" d="M81.02,140.86c1.51,6.02,7,9.66,11.14,11.25,6.67,2.56,13.94,5.16,20.88,3.37,2.81-.73,5.36-2.14,7.84-3.59,2.95-1.72,5.95-3.61,7.83-6.37,1.44-2.11,2.14-4.6,2.71-7.06.97-4.13,1.67-8.32,2.11-12.53.38-3.72.54-7.55-.62-11.12-2.22-6.82-8.99-11.55-16.13-13.8-6.07-1.92-12.54-2.37-18.93-2.67-6.54-.31-13.35-.54-19.11-3.5-1.53-.78-3.05-1.78-4.78-1.82-5.24-.14-8.56,3.86-11.27,5.73-12.31,8.49,10.81,12.19,18.33,42.1Z"/>
          <path class="cls-16" d="M70.98,48.22c2.09-4.37.46-10.39-3.48-12.82-1.04-.64-2.24-1.06-3.42-.88-1.18.17-2.33,1.03-2.67,2.27-1.03-1.53-3-2.11-4.7-1.7s-3.16,1.66-4.24,3.15c-.9,1.25-1.6,2.78-1.49,4.37.11,1.59,1.25,3.15,2.71,3.21-1.97.09-3.61,2.15-3.62,4.29s1.42,4.13,3.27,4.88c1.85.74,4,.33,5.65-.84.29-.21.57-.43.85-.66"/>
          <path class="cls-3" d="M93.47,118.56c2.87.64,5.8,1.17,8.74,1.01,2.55-.13,5.04-.78,7.51-1.41,4.27-1.1,8.62-2.24,12.31-4.66,7.74-5.08,11.14-15.49,8.92-24.48-.66-2.67-1.75-5.22-2.39-7.89-1.7-7.12-.13-14.79-2.38-21.75-2.09-6.48-7.5-11.69-13.9-14.01-3.45-1.25-7.13-1.71-10.79-2-3.53-.28-7.16-.38-10.53.71-3.07,1-5.75,2.94-8.19,5.06-7.72,6.69-13.71,15.53-16.27,25.41-2.32,8.96-2.29,21.52,3.45,29.37,5.58,7.63,14.52,12.63,23.54,14.64Z"/>
          <ellipse class="cls-13" cx="99.25" cy="87.32" rx="2.41" ry="3.45"/>
          <ellipse class="cls-13" cx="122.15" cy="83.86" rx="2.41" ry="3.45"/>
          <path class="cls-4" d="M103.74,72.79c3.5.46,7.02-.36,10.43-1.24-.87.04-1.75-.19-2.49-.65-.37-.23-.74-.64-.6-1.05.09-.24.32-.38.54-.51,4.11-2.42,8.14-6.21,8.11-10.99-.04-4.4-3.76-8.14-7.96-9.44-15.18-4.69-24.69,21.69-8.03,23.88Z"/>
          <path class="cls-15" d="M122.04,54.11c1.18-.3,2.43-.63,3.24-1.49,1.32-1.41.92-3.62.13-5.36-1.56-3.42-5.22-6.58-9.01-5.64-.54-2.57-3.31-4.13-5.94-4.91-3.03-.9-6.22-1.2-9.38-1.48-11.09-1.01-22.96-1.8-32.69,3.37-5.69,3.02-10.15,7.92-13.06,13.46-2.91,5.54-4.35,11.71-4.81,17.89-.57,7.56.51,15.73,5.72,21.47.36.4.76.81.87,1.33.14.63-.17,1.25-.35,1.87-.62,2.22.55,4.56,2.06,6.36,1.03,1.23,2.42,2.42,4.08,2.41,3.31-.02,5.16.02,5.45-1.71.39-2.3-.66-8.15.55-10.14,2.73-4.49,6-8.68,9.67-12.52,7.41-7.75,16.46-14.04,26.32-18.68,5.49-2.59,11.24-4.67,17.15-6.2Z"/>
          <path class="cls-3" d="M76.93,86.84q-.11,1.26,0,0c-.05-.78.18-1.56.09-2.34-.18-1.69-1.84-2.96-3.54-3.09-1.7-.13-3.35.68-4.64,1.78-2.54,2.16-3.97,5.56-3.75,8.89.14,2.11.97,4.23,2.55,5.62s3.97,1.94,5.89,1.06"/>
          <path class="cls-20" d="M114.26,89.2s7.39,1.02,6.16,3.5c-1.23,2.48-4.05,3.41-4.05,3.41,0,0,.35-5.68-2.11-6.91Z"/>
          <path class="cls-4" d="M93.34,77.77c.35-.27.72-.51,1.11-.72.17-.09.34-.17.52-.25-.2.09.12-.05.16-.06.1-.04.21-.07.31-.11.39-.13.8-.22,1.2-.28.11-.02.11-.02,0,0,.05,0,.11-.01.16-.02.11-.01.22-.02.33-.02.22-.01.44-.01.66,0,.5.02.97-.45.95-.95-.02-.53-.42-.93-.95-.95-1.92-.06-3.89.54-5.41,1.72-.2.16-.36.31-.44.57-.06.23-.03.53.1.73.25.39.88.66,1.3.34h0Z"/>
          <path class="cls-4" d="M119.19,72.46s.07-.03.11-.05c.15-.07-.28.11-.07.03.06-.02.12-.05.18-.07.35-.13.7-.23,1.07-.29.05,0,.1-.02.15-.03.21-.04-.03,0-.03,0,0-.01.36-.03.39-.04.25-.01.51,0,.76.01.18.01-.12-.02,0,0,.06.01.12.02.18.03.13.03.27.06.4.1.06.02.12.04.18.06.08.03.21.09.06.02.15.07.29.14.43.22.43.25,1.06.11,1.3-.34s.12-1.03-.34-1.3c-1.71-1.01-3.95-.87-5.7,0-.45.22-.61.89-.34,1.3.29.46.82.58,1.3.34h0Z"/>
          <path class="cls-4" d="M114.26,104.64s-2.58,1.42-4.81,0c0,0-.71,2.37.89,2.6,1.6.24,3.92-2.6,3.92-2.6Z"/>
        </g>
        <path class="cls-20" d="M71.06,87.32s3.99-3.01,4.21,1.89l-4.21-1.89Z"/>
        <path class="cls-16" d="M105.59,142.17s-.34,6.23-3.8,5.17c-3.46-1.06.14-10.51.14-10.51,0,0-3.47,2.26-2.55-3.51.93-5.77,3.69-4.62,6.12-3.2,0,0-1.88-4.75,2.27-6.98,4.15-2.23,3.8,5.37,3.8,5.37,0,0,2.82-5.03,6.76-3.64,3.94,1.39,1.11,5.16-2.14,7,0,0,9.46.48,8.9,4.48-.56,4.01-6.06,2.87-6.06,2.87,0,0,5.89,3.17,3.38,6.09-2.52,2.91-11.45-2.04-11.45-2.04,0,0,3.98,4.49,1.24,5.87-2.74,1.38-7.27-1.17-6.6-6.99Z"/>
      </g>
    </g>
  </g>
</svg>