<?xml version="1.0" encoding="UTF-8"?>
<svg id="Layer_2" data-name="Layer 2" xmlns="http://www.w3.org/2000/svg" viewBox="0 0 383.56 518.53">
  <defs>
    <style>
      .cls-1 {
        fill: none;
      }

      .cls-2 {
        fill: #e0806c;
      }

      .cls-3 {
        fill: #2b3a55;
      }

      .cls-4 {
        fill: #97b766;
      }

      .cls-5 {
        fill: #fbc963;
      }

      .cls-6 {
        fill: #793946;
      }

      .cls-7 {
        fill: #2f4852;
      }

      .cls-8 {
        fill: #262f3b;
      }

      .cls-9 {
        fill: #e8cda6;
      }

      .cls-10 {
        fill: #e55d47;
      }

      .cls-11 {
        fill: #492f14;
      }

      .cls-12 {
        fill: #b55a47;
      }

      .cls-13 {
        fill: #47744e;
      }

      .cls-14 {
        fill: #e4b26e;
      }

      .cls-15 {
        fill: #412127;
      }

      .cls-16 {
        fill: #aa4750;
      }

      .cls-17 {
        fill: #ba9f77;
      }

      .cls-18 {
        fill: #cb5e43;
      }

      .cls-19 {
        fill: #30563d;
      }

      .cls-20 {
        fill: #c16c5f;
      }

      .cls-21 {
        fill: #9ca841;
      }

      .cls-22 {
        fill: #4f3e4e;
      }

      .cls-23 {
        fill: #7f8f43;
      }

      .cls-24 {
        fill: #619093;
      }

      .cls-25 {
        fill: #f4c651;
      }

      .cls-26 {
        fill: #e95c48;
      }

      .cls-27 {
        fill: #e2836d;
      }
    </style>
  </defs>
  <g id="Layer_7" data-name="Layer 7">
    <g>
      <g>
        <g>
          <path class="cls-21" d="M167.01,0v334.02c92.24,0,167.01-74.77,167.01-167.01S259.25,0,167.01,0Z"/>
          <path class="cls-23" d="M0,167.01c0,92.24,74.77,167.01,167.01,167.01V0C74.77,0,0,74.77,0,167.01Z"/>
          <g>
            <path class="cls-11" d="M161.52,128.07c-7.99.63-6.01,343.07-6.01,343.07h13.98l-3.99-331.17-3.98-11.9"/>
            <path class="cls-11" d="M74.66,205.96s89.83,107.05,86.34,108.68c-3.5,1.63,1.4-27.46,1.4-27.46l-80.18-81.23h-7.56"/>
            <polyline class="cls-11" points="164.53 203.11 118.61 154.04 122.8 167.01 160.11 219.37 160.51 203.96"/>
            <polyline class="cls-11" points="160.38 188.68 186.76 157.68 186.76 167.01 164.53 203.11"/>
            <polyline class="cls-11" points="162.39 278.49 220.34 222.94 216.66 235.68 167.3 297.74"/>
          </g>
        </g>
        <g id="_9fj2sm.tif" data-name="9fj2sm.tif">
          <g>
            <path class="cls-5" d="M191.99,158.82h-2.39c-1.45,0-2.82.4-4.19.73l-1.35.32c-.41.1-.81.25-1.26.4l-3.39,1.16c-.32.54-.81,1.08-1.39,1.35-.1.49-.54.79-.84,1.24-.19.28-.27.62-.73.53-.93,2.1-2.21,4.08-2.77,6.46l-.6,2.57-.14,1.52v5.09c.29,2.91,1.14,5.63,2.43,8.24,2.55,5.16,6.49,9.3,11.53,12.1,7.56,4.21,16.36,4.65,23.76,0,.7-.44,1.25-1.03,2.04-1.28,1.76-.54,3.21,1.06,4.85-1.17.85-1.15,1.03-2.27.51-3.58-.75-1.87,1.36-4.65,1.34-7.67l-.02-4.67-.43-2.41-1.05-3.49c-.8-2.68-3.39-6.38-5.44-8.55-2.49-2.63-5.33-4.74-8.64-6.25-.77-.35-1.47-.66-2.27-.92l-2.84-.9-4.14-.81-2.58-.04Z"/>
            <path class="cls-7" d="M173.09,173.58l.6-2.57c.56-2.38,1.84-4.36,2.77-6.46.62-1.4.01-3.12.23-4.71l1.33,2.94c.59-.27,1.07-.8,1.39-1.35l-1.08-1.4-.78-2.18c2.03.97,4,1.65,6.19,1.84.15.01.27.12.31.18l1.35-.32c1.37-.33,2.75-.72,4.19-.72h2.39c.05-.46.5-.49.83-.7,2.47-1.59,4.21-3.85,5.72-6.32.72-1.18,1.31-2.36,1.77-3.67.1-.28-.13-.62-.4-.67-1.72-.34-3.4-.72-5.16-.82-4.59-.26-9.14.78-12.59,3.81-1.85,1.62-3.38,3.44-4.74,5.49-.13.19-.36.31-.5.3-.25-.02-.28-.26-.4-.43l-1.84-2.52c-1.18-1.62-3.68-3.73-4.53-2.26-.24.42-.13,1.15.4,1.44,1.27.69,2.26,1.57,3.2,2.68.7.83,1.47,1.55,1.93,2.69-3.6.99-8.24,3.37-10.41,6.31s-3.23,6.65-3.44,10.42l-.2,3.69.15,1.85c3.5-.93,6.77-2.34,9.46-4.7l1.86-1.82Z"/>
          </g>
        </g>
        <g id="_9fj2sm.tif-2" data-name="9fj2sm.tif">
          <g>
            <path class="cls-5" d="M266.96,205.03h-2.39c-1.45,0-2.82.4-4.19.73l-1.35.32c-.41.1-.81.25-1.26.4l-3.39,1.16c-.32.54-.81,1.08-1.39,1.35-.1.49-.54.79-.84,1.24-.19.28-.27.62-.73.53-.93,2.1-2.21,4.08-2.77,6.46l-.6,2.57-.14,1.52v5.09c.29,2.91,1.14,5.63,2.43,8.24,2.55,5.16,6.49,9.3,11.53,12.1,7.56,4.21,16.36,4.65,23.76,0,.7-.44,1.25-1.03,2.04-1.28,1.76-.54,3.21,1.06,4.85-1.17.85-1.15,1.03-2.27.51-3.58-.75-1.87,1.36-4.65,1.34-7.67l-.02-4.67-.43-2.41-1.05-3.49c-.8-2.68-3.39-6.38-5.44-8.55-2.49-2.63-5.33-4.74-8.64-6.25-.77-.35-1.47-.66-2.27-.92l-2.84-.9-4.14-.81-2.58-.04Z"/>
            <path class="cls-7" d="M248.06,219.78l.6-2.57c.56-2.38,1.84-4.36,2.77-6.46.62-1.4.01-3.12.23-4.71l1.33,2.94c.59-.27,1.07-.8,1.39-1.35l-1.08-1.4-.78-2.18c2.03.97,4,1.65,6.19,1.84.15.01.27.12.31.18l1.35-.32c1.37-.33,2.75-.72,4.19-.72h2.39c.05-.46.5-.49.83-.7,2.47-1.59,4.21-3.85,5.72-6.32.72-1.18,1.31-2.36,1.77-3.67.1-.28-.13-.62-.4-.67-1.72-.34-3.4-.72-5.16-.82-4.59-.26-9.14.78-12.59,3.81-1.85,1.62-3.38,3.44-4.74,5.49-.13.19-.36.31-.5.3-.25-.02-.28-.26-.4-.43l-1.84-2.52c-1.18-1.62-3.68-3.73-4.53-2.26-.24.42-.13,1.15.4,1.44,1.27.69,2.26,1.57,3.2,2.68.7.83,1.47,1.55,1.93,2.69-3.6.99-8.24,3.37-10.41,6.31s-3.23,6.65-3.44,10.42l-.2,3.69.15,1.85c3.5-.93,6.77-2.34,9.46-4.7l1.86-1.82Z"/>
          </g>
        </g>
        <g id="_9fj2sm.tif-3" data-name="9fj2sm.tif">
          <g>
            <path class="cls-5" d="M238.07,85.29h-2.39c-1.45,0-2.82.4-4.19.73l-1.35.32c-.41.1-.81.25-1.26.4l-3.39,1.16c-.32.54-.81,1.08-1.39,1.35-.1.49-.54.79-.84,1.24-.19.28-.27.62-.73.53-.93,2.1-2.21,4.08-2.77,6.46l-.6,2.57-.14,1.52v5.09c.29,2.91,1.14,5.63,2.43,8.24,2.55,5.16,6.49,9.3,11.53,12.1,7.56,4.21,16.36,4.65,23.76,0,.7-.44,1.25-1.03,2.04-1.28,1.76-.54,3.21,1.06,4.85-1.17.85-1.15,1.03-2.27.51-3.58-.75-1.87,1.36-4.65,1.34-7.67l-.02-4.67-.43-2.41-1.05-3.49c-.8-2.68-3.39-6.38-5.44-8.55-2.49-2.63-5.33-4.74-8.64-6.25-.77-.35-1.47-.66-2.27-.92l-2.84-.9-4.14-.81-2.58-.04Z"/>
            <path class="cls-7" d="M219.17,100.05l.6-2.57c.56-2.38,1.84-4.36,2.77-6.46.62-1.4.01-3.12.23-4.71l1.33,2.94c.59-.27,1.07-.8,1.39-1.35l-1.08-1.4-.78-2.18c2.03.97,4,1.65,6.19,1.84.15.01.27.12.31.18l1.35-.32c1.37-.33,2.75-.72,4.19-.72h2.39c.05-.46.5-.49.83-.7,2.47-1.59,4.21-3.85,5.72-6.32.72-1.18,1.31-2.36,1.77-3.67.1-.28-.13-.62-.4-.67-1.72-.34-3.4-.72-5.16-.82-4.59-.26-9.14.78-12.59,3.81-1.85,1.62-3.38,3.44-4.74,5.49-.13.19-.36.31-.5.3-.25-.02-.28-.26-.4-.43l-1.84-2.52c-1.18-1.62-3.68-3.73-4.53-2.26-.24.42-.13,1.15.4,1.44,1.27.69,2.26,1.57,3.2,2.68.7.83,1.47,1.55,1.93,2.69-3.6.99-8.24,3.37-10.41,6.31s-3.23,6.65-3.44,10.42l-.2,3.69.15,1.85c3.5-.93,6.77-2.34,9.46-4.7l1.86-1.82Z"/>
          </g>
        </g>
        <g id="_9fj2sm.tif-4" data-name="9fj2sm.tif">
          <g>
            <path class="cls-5" d="M96.96,89.57l2.03-.28c1.23-.17,2.45,0,3.66.13l1.19.12c.36.04.72.11,1.13.19l3.02.59c.33.43.81.82,1.34.99.14.41.55.61.86.96.19.22.3.49.68.37,1.04,1.69,2.36,3.22,3.12,5.19l.81,2.12.29,1.28.59,4.34c.1,2.52-.31,4.93-1.1,7.31-1.57,4.7-4.45,8.69-8.41,11.67-5.95,4.47-13.41,5.87-20.26,2.78-.65-.29-1.19-.73-1.88-.85-1.57-.26-2.61,1.28-4.27-.43-.86-.88-1.15-1.81-.85-3,.42-1.68-1.7-3.81-2.04-6.38l-.52-3.98.09-2.1.49-3.1c.37-2.38,2.15-5.83,3.64-7.92,1.81-2.54,3.99-4.67,6.64-6.34.61-.39,1.17-.74,1.83-1.05l2.31-1.1,3.43-1.18,2.19-.33Z"/>
            <path class="cls-7" d="M114.81,99.95l-.81-2.12c-.75-1.97-2.08-3.5-3.12-5.19-.69-1.12-.37-2.66-.75-3.99l-.79,2.66c-.53-.16-1.01-.56-1.34-.99l.75-1.32.41-1.95c-1.61,1.07-3.22,1.88-5.06,2.29-.13.03-.21.13-.25.19l-1.19-.12c-1.21-.12-2.43-.29-3.66-.13l-2.03.28c-.1-.38-.49-.35-.79-.5-2.29-1.07-4.04-2.79-5.61-4.72-.75-.92-1.4-1.86-1.94-2.93-.11-.22.04-.54.26-.62,1.43-.49,2.81-1.01,4.3-1.3,3.88-.76,7.88-.4,11.18,1.78,1.77,1.17,3.29,2.54,4.68,4.13.13.15.34.22.46.2.21-.05.2-.26.29-.42l1.27-2.37c.82-1.52,2.7-3.61,3.6-2.46.26.33.24.97-.17,1.27-1,.73-1.75,1.61-2.41,2.66-.5.79-1.07,1.49-1.33,2.52,3.19.43,7.42,1.91,9.62,4.17,2.27,2.33,3.53,5.3,4.15,8.48l.6,3.13.09,1.59c-3.09-.38-6.05-1.21-8.61-2.9l-1.8-1.34Z"/>
          </g>
        </g>
        <g id="_9fj2sm.tif-5" data-name="9fj2sm.tif">
          <g>
            <path class="cls-5" d="M48.85,188.07l2.03-.28c1.23-.17,2.45,0,3.66.13l1.19.12c.36.04.72.11,1.13.19l3.02.59c.33.43.81.82,1.34.99.14.41.55.61.86.96.19.22.3.49.68.37,1.04,1.69,2.36,3.22,3.12,5.19l.81,2.12.29,1.28.59,4.34c.1,2.52-.31,4.93-1.1,7.31-1.57,4.7-4.45,8.69-8.41,11.67-5.95,4.47-13.41,5.87-20.26,2.78-.65-.29-1.19-.73-1.88-.85-1.57-.26-2.61,1.28-4.27-.43-.86-.88-1.15-1.81-.85-3,.42-1.68-1.7-3.81-2.04-6.38l-.52-3.98.09-2.1.49-3.1c.37-2.38,2.15-5.83,3.64-7.92,1.81-2.54,3.99-4.67,6.64-6.34.61-.39,1.17-.74,1.83-1.05l2.31-1.1,3.43-1.18,2.19-.33Z"/>
            <path class="cls-7" d="M66.69,198.45l-.81-2.12c-.75-1.97-2.08-3.5-3.12-5.19-.69-1.12-.37-2.66-.75-3.99l-.79,2.66c-.53-.16-1.01-.56-1.34-.99l.75-1.32.41-1.95c-1.61,1.07-3.22,1.88-5.06,2.29-.13.03-.21.13-.25.19l-1.19-.12c-1.21-.12-2.43-.29-3.66-.13l-2.03.28c-.1-.38-.49-.35-.79-.5-2.29-1.07-4.04-2.79-5.61-4.72-.75-.92-1.4-1.86-1.94-2.93-.11-.22.04-.54.26-.62,1.43-.49,2.81-1.01,4.3-1.3,3.88-.76,7.88-.4,11.18,1.78,1.77,1.17,3.29,2.54,4.68,4.13.13.15.34.22.46.2.21-.05.2-.26.29-.42l1.27-2.37c.82-1.52,2.7-3.61,3.6-2.46.26.33.24.97-.17,1.27-1,.73-1.75,1.61-2.41,2.66-.5.79-1.07,1.49-1.33,2.52,3.19.43,7.42,1.91,9.62,4.17s3.53,5.3,4.15,8.48l.6,3.13.09,1.59c-3.09-.38-6.05-1.21-8.61-2.9l-1.8-1.34Z"/>
          </g>
        </g>
      </g>
      <g>
        <path class="cls-19" d="M157.7,454.76l.96,4.56v3.16c-.27.6-.64.54-1.1-.03l-7.77-17.16c-2.41-5.32-5.34-10.4-10.68-13.67,2.84,15.06,8.07,27.77,13.33,41.93l-9.85-11.24c-3.81-4.35-9.07-7.41-14.9-8.11,2.14,6.7,5.54,11.33,8.71,16.48l8.75,14.17c2.17,3.51,7.9,6.74,12.11,8.1,8.62,2.78,19.18,2.71,27.48.22,3.64-1.47,1.79-8.55,2.36-10.85,3.96-1.86,6.89-4.14,7.74-8.7,4.53-.1,5.78-8.35,4.94-12.33,1.16-2.89,2.44-5.81,2.31-9.67-5.5,2.99-8.76,7-13.14,11.31-.8-8.19.66-15.24,2.84-22.5l4.78-15.88c-10.89,8.08-16.09,19.92-18.48,32.55-2.31.42-1.89-5.41-1.14-7.71l1.82-34.8c-6.19,12.84-6.79,25.69-9.74,39.84-5.73-17.35-10.98-34.55-19.43-51.8-.88,5.07,1.89,9.38,2.62,14.37l5.49,37.76Z"/>
        <path class="cls-13" d="M199.76,461.29l-4.94,12.33c1.65,6.87-1.99,14.66,4.94,14.7l23.8.11c2.4.01,4.76-.54,6.44-2.74-1.51-.83-5.32-1.8-5.92-4.13-1.65-6.39.26-13.12,2.67-19.04l4.34-10.67c-2.6.95-4.74,2.34-6.05,4.56l-10.11,17.15c.62-9.33,5.06-16.75,9.39-24.17-9.69,3.32-14.31,11.1-18.18,19.79-2.81-2.18-5.91-4.6-6.38-7.89Z"/>
      </g>
      <g>
        <path class="cls-17" d="M341.04,493.45c.03.56.35,1.37.55,1.89.74,1.84-.55,3.04-.6,5.02-.02,1.05.52,2.4.63,3.45.25,2.39-.03,4.5-.03,6.91,0,1.57-.21.94-.31,2.51-.03.45-.34.29-.59.66-5.09.41-10.2.49-15.3.24-2.69-7.35-4.41-15.05-5.1-22.84-.29-3.23-.65-6.46-1.07-9.68l21.06-1.91c.25,4.58.51,9.17.76,13.75Z"/>
        <path class="cls-12" d="M311.13,415.38c.15.16.31.31.47.45,1.17.95,2.68,1.34,4.16,1.62,1.4.27,2.82.45,4.24.55,1.13.08,2.27.11,3.36.43,2.17.64,3.85,2.36,5.92,3.3,1.62.73,3.42.96,5.11,1.5,2.21.71,3.98,2.04,5.82,3.38-3.05,8.23-1.83,18.55-1.35,27.14.48,8.65.95,17.29,1.43,25.94l-21.06,1.91c-1.14-8.71-2.71-17.35-4.45-25.96-2.44-12.05-5.36-22.54-4.29-34.95.12-1.38.6-3.44.65-5.33Z"/>
        <g>
          <path class="cls-22" d="M342.78,496.39l1.24,16.9-46.02.13s-2.38-5.14,3.73-9.94c6.11-4.8,10.84-1.97,14.18-5.98s3.98-7.52,3.98-7.52h22.85s.04,6.41.04,6.41Z"/>
          <rect class="cls-8" x="297.55" y="511.29" width="46.67" height="4.27" transform="translate(643.19 1025.97) rotate(179.84)"/>
        </g>
        <path class="cls-12" d="M310.2,411.84l.05-.03c.74.87.92,2.18.88,3.57-.88-.96-1.36-2.33-.93-3.54Z"/>
        <path class="cls-6" d="M346.61,428.19c-7.69.6-15.38,1.21-23.06,1.81-3.92.31-7.87.62-11.79.32-.58-.04-1.18-.11-1.64-.46-.49-.38-.71-1.01-.86-1.61-.9-3.74.03-7.64.74-11.42,1.65-8.76,2.15-17.73,1.49-26.62,1.24-.44,2.48-.87,3.72-1.31,3.08-1.09,8.39-1.09,11.63-1.51,5.96-.77,11.04-1.07,16.9-2.4.27.13,1.52,1.09,1.79,1.22,1.87,12.01,2.54,24.2,1.99,36.34"/>
        <path class="cls-1" d="M346.91,387.73c.47.35.73.96.66,1.54-.34,2.71.09,6.38.3,9.1.45,5.83.7,11.65.83,17.49.14,6.17-2.49,8.27-6.48,12.95"/>
        <path class="cls-9" d="M284.38,481.16h24.48c-.08,5.18-.91,10.44-2.11,15.43-.29,1.23-.4,2.5-.31,3.77-.42,0-.84.03-1.26.03-1.46-.11-3.26-.39-4.7-.66-1.76-.32-4.2-.29-5.98-.17-3.52-.5-7.05-1.01-10.57-1.51.24-5.62.47-11.26.46-16.89Z"/>
        <path class="cls-27" d="M283.85,468.67c-.21-2.3-.07-1.15-.31-3.45-.21-1.99-.17-1.46-.31-3.45-.5-6.7-.46-13.96-2.37-20.44-.27-.91-.53-1.82-.78-2.73,9.26.25,18.38-.04,27.07-2.8,1.65-.52,2.98-.71,4.12-.73-.39,6.53-.81,13.05-1.23,19.58-.43,6.69-2.13,14.12-1.41,20.78.2,1.89.28,3.81.25,5.74h-24.48c-.01-4.17-.16-8.34-.53-12.5Z"/>
        <path class="cls-12" d="M302.99,419.71c2.11,1.53,6.96,3.76,8.25,5.97,1.24,2.12.21,6.13.06,8.64-.01.25-.03.49-.05.74-1.14.02-2.47.21-4.12.73-8.69,2.76-17.81,3.05-27.07,2.8-1.46-5.22-2.74-10.49-3.83-15.79l26.75-3.09Z"/>
        <path class="cls-16" d="M332.49,388.64c.25.06.4.38.29.62-6.25,12.57-12.21,26.07-17.82,38.94-14.02.15-28.43.29-42.42-.77-.31-.02-.67-.07-.83-.33-.12-.19-.11-.43-.09-.65,1.1-14.09,2.19-28.17,3.29-42.26,16.07.08,32.13.48,48.18,1.21"/>
        <path class="cls-2" d="M274.2,278.28c-.1,0-.2.03-.29,0-19.95-6.53-34.47-18.39-47.25-32.75-2.08-2.33-4.12-4.76-5.39-7.62-1.76-3.97-2.22-8.97-5.83-11.38-1.67-1.12-3.72-1.44-5.58-2.19-5.79-2.33-10.02-8.84-16.26-8.63.09,3.68,3.34,6.35,5.52,9.32.27.36.53.75.63,1.19.13.6-.05,1.22-.23,1.81-.42,1.38-.84,2.75-1.26,4.13-.43,1.41-.87,2.86-.82,4.34.17,4.83,5.11,7.79,9.08,10.54,7.31,5.08,12.95,12.2,17.94,19.57,2.57,3.79,5.02,7.71,8.26,10.95,3.03,3.02,6.66,5.35,10.26,7.66,8.23,5.28,16.47,10.56,24.73,15.8"/>
        <path class="cls-2" d="M292.31,219.16c-.24,1.38-1.24,2.47-2.02,3.64-2.72,4.11-2.8,9.79-6.31,13.25-1.77,1.75-4.19,2.67-6.57,3.39-.79.24-1.64.5-2.13,1.16-.79,1.07-.26,2.6.52,3.68s1.81,2.07,2.02,3.38c1.01,6.07-2.9,13.37,1.6,17.57,2.58,2.41,6.35,2.9,9.77,3.81,3.42.91,7.12,2.86,7.81,6.33.61,3.05-.94,7.23,1.82,8.69.6.32,1.3.4,1.98.47,4.81.5,9.63.86,14.45,1.1.8.04,1.67.05,2.32-.42.56-.41.83-1.11,1.05-1.77.86-2.66,1.31-5.46,1.33-8.26,0-1-.03-2.06.43-2.95.51-.99,1.53-1.59,2.47-2.19,8.96-5.68,15.12-15.59,16.22-26.14,1.28-12.19-5.11-25.58-16.6-29.84-9.66-3.58-20.75.95-30.17,5.12Z"/>
        <ellipse class="cls-15" cx="290.67" cy="236.81" rx="1.73" ry="2.84"/>
        <path class="cls-15" d="M280.21,250.51s4.24,3,5.06,3.2-1.96,1.45-3.82,0c-1.86-1.45-1.24-3.2-1.24-3.2Z"/>
        <path class="cls-15" d="M289.11,219.38c-1.57,1.25-1.27,3.71-.61,5.61,2.14,6.16,6.41,11.32,10.6,16.32,2.72,3.24,5.57,6.57,9.39,8.38-2.53,5.91-3.83,12.34-3.79,18.77.02,2.77-.81,5.67-1.08,8.42-.05.47-.09.98.14,1.4.32.59,1.06.8,1.72.95,13.65,3.04,27.66,4.13,41.6,5.21.5.04,1.07.04,1.39-.34.24-.3.23-.71.2-1.09-.43-7.09-.86-14.19-1.29-21.28,3.46-6.01,6.62-12.18,7.83-19.01s.43-14.2-3.27-20.06c-3.09-4.89-8.03-8.44-13.43-10.53-5.39-2.1-11.23-2.83-17.02-2.94-6.48-.12-13,.53-19.25,2.26-5.28,1.46-8.86,4.52-13.14,7.93Z"/>
        <path class="cls-2" d="M305.35,250.67c-.28-.51.36-1.02.9-1.24.53-.22,1.05-.44,1.58-.66.35-.15.72-.3,1.1-.28,1.05.05,1.61,1.24,1.94,2.24.41,1.26.83,2.58.67,3.9-.15,1.29-.86,2.47-1.77,3.4-.84.86-1.96,1.01-3.09,1.43-.66.24-1.37.43-2.05.25s-1.28-.83-1.17-1.52"/>
        <path class="cls-14" d="M297.71,208.63c1.02,0,.61-.78,1.58-1.37,1.18-.71,3.09-2.45,4.32-3.2,3.43-2.1,5.96-4.98,9.83-6.54,3.58-1.45,7.5-1.97,11.37-1.86,11.51.35,22.67,6.67,28.82,16.33,6.16,9.66,7.14,22.37,2.53,32.85-.98,2.23-2.01,4.45-2.04,6.89-.08,6.08,1.81,12.02,3.32,17.91-28.72-13-55.09-31.08-77.52-53.13-1.7-1.67-3.46-3.52-3.88-5.85,5.14-.09,10.28-.21,15.39-.77,1.66-.18,3.85-.16,5.33-1.06.39-.24.49-.19.94-.2Z"/>
        <path class="cls-25" d="M282.65,309.88c-7.09-1.65-13.84-4.7-19.76-8.92,2.79-8.2,5.59-16.4,8.38-24.6.07-.2.15-.42.32-.55.23-.19.56-.16.86-.12,12.58,1.53,24.71,5.11,37.34,5.95,2.65.18,5.31.36,7.87,1.05,5.82,1.58,10.7,5.73,14.17,10.67,3.47,4.94,5.67,10.64,7.6,16.36,5.43,16.13,8.94,32.9,10.42,49.85.85,9.72,1.34,19.46,2,29.19-1.97,1.79-2.5,1.93-4.93,3.02-1.06.48-2.28.43-3.44.36-24.42-1.3-48.83-2.61-73.25-3.91-.54-.03-1.15-.09-1.48-.52-.25-.32-.26-.75-.27-1.16-.12-10.63.7-21.28,2.44-31.77,3.24-19.49,6.89-38.72,11.72-57.86,1.02-4.03,3.71-7.77,6.2-11.1.56-.75,1.67-1.28,2.33-1.95,1.33-1.33,3.25-3.23,5.13-3.11,1.44.09,2.88.18,4.32.28"/>
        <path class="cls-3" d="M297.83,277.27c2.23.23,4.19,1.52,5.98,2.87,4.67,3.51,8.85,7.68,12.39,12.33-2.42,1.3-4.5,3.24-5.97,5.58-2.43-3.98-5.34-7.67-8.64-10.97-3.03-3.03-7.32-5.22-10.08-8.19,1.26-1.64,4.38-1.81,6.31-1.61Z"/>
        <path class="cls-3" d="M277.8,308.07c4.96,14.56,13.33,27.94,24.25,38.77,2.02,2,4.16,3.96,5.62,6.39s2.19,5.51,1.16,8.16c-2.88-1.85-5.95-4.56-8.11-7.21-7.16-8.8-13.52-16.57-19.63-26.13-3.65-5.7-4.95-4.31-5.05-11.08,1.06-4.87,1.39-7.08,1.75-8.9Z"/>
        <path class="cls-24" d="M315.84,291.95c-.68-.91-1.08-1.96-1.46-3.07,2.02-.7,4.19-.84,6.58-.93,6.13-.22,12.25-.83,18.39-.82,8.28.03,16.89,1.36,23.71,6.05,10.02,6.89,8.9,16.95,11.09,27.37,3.29,15.66,5.45,31.66,5.26,47.6-.02,1.93-1.46,3.56-3.06,4.64-1.6,1.08-2.27,2.09-4.03,2.89-4.26,1.93-9.08,2.01-13.75,2.04-8.06.05-16.1-.21-24.16-.29-1.54.39-3.11.56-4.69.54.4-3.56.69-7.11.99-10.67,1.09-25.36,2.9-54.35-14.85-75.36Z"/>
        <path class="cls-3" d="M305.52,334.56c.39-7.77.78-15.54,1.17-23.32.31-6.21-1.14-14.79,3.92-19.49,1.27-1.18,2.58-1.92,3.97-2.4.38,1.11.78,2.16,1.46,3.07,17.75,21.01,15.94,50,14.85,75.36-.3,3.56-.59,7.11-.99,10.67-2.69-.03-5.39-.57-7.96-1.39-4.08-1.3-8.55-.91-11.29-4.2-3.55-4.25-4.72-9.99-5.21-15.51-.67-7.58-.29-15.2.09-22.8Z"/>
        <path class="cls-26" d="M321.23,298.95c4.61,4.6,6.48,11.23,10.12,16.64,2.42,3.59,4.59,8.38,8.57,10.09,1.97.85,4.14,1.12,6.28,1.37,5.27.62,10.68,1.17,15.81-.19,2.77-.74,5.74-2.59,7.29-4.99,1.05-1.62,1.95-3.84,2.46-5.7.34-1.25.59-3.46.91-4.72.98-3.92-.79-7.5-2.84-10.98-5.46-9.28-17-13.72-27.68-15.15-9.49-1.27-19.27-1.18-28.47,1.47-1.64.47-3.6,1.5-3.47,3.2.09,1.14,1.11,1.94,2.04,2.6,2.56,1.8,6.76,4.15,8.97,6.36Z"/>
        <path class="cls-10" d="M376.44,338.47c.42-.17.94-.07,1.26.26,1.06,1.07,1.65,2.84,2.49,4.1,4.41,6.62,3.06,14,2.32,21.92-.3,3.23-1.23,6.9-4.15,8.29-1.5.71-3.23.66-4.89.59-11.03-.44-22.06-.89-33.09-1.33-.68-.03-1.4-.07-1.98-.44-.81-.52-1.11-1.55-1.32-2.49-2.2-9.46-2.8-19.29-1.79-28.95.08-.72.17-1.48.58-2.08.6-.9,1.73-1.25,2.78-1.52,12.23-3.13,25.67-1.83,37.8,1.65Z"/>
        <path class="cls-4" d="M339.9,342.78l2.33,6.58c.09.25.18.51.39.68.23.2.56.23.87.25,3.66.26,7.31.52,10.97.79,8.41.6,17.45,1.36,25.87,1.81.56.03,1.14.06,1.67-.14,1.07-.4,1.62-1.65,1.57-2.79s-.57-2.2-1.07-3.22c.48-.28-.49-4.15-1.04-4.16-.1-.52-.52-1.42-.63-1.94-.63-3.17-4.22-4.23-7.3-5.21-3.08-.98-6.35-1.14-9.57-1.31-4.04-.2-8.09-.4-12.14-.44-5.03-.05-10.36.25-14.53,3.06-.27.18-.54.39-.64.7-.13.43.14.87.41,1.24.63.89,2.49,3.08,2.85,4.11Z"/>
        <path class="cls-3" d="M356.03,324c.24-.08.54.07.61.31,1,.34,2.02,1.78,2.16,2.83s-.38,2.14-1.26,2.72c-1.39.91-3.84,1.03-5.13,0-1.23-.99-1.96-2.71-1.46-4.2s3.73-2.47,5.08-1.65Z"/>
        <path class="cls-1" d="M308.57,295.13c.33-3.06,4.42-4.5,7.24-3.27s4.53,4.12,5.8,6.92c7.32,16.1,6.73,34.54,5.99,52.21-.13,3.14-.35,6.59-.45,9.72"/>
        <path class="cls-1" d="M326.84,368.25l-.31,3.45c-.09.94-.21,1.57-.31,2.51-.06.53-.21,1.05-.31,1.57"/>
        <g>
          <path class="cls-18" d="M307.72,499.28l1.24,16.9-46.02.13s-2.38-5.14,3.73-9.94c6.11-4.8,10.84-1.97,14.18-5.98,3.34-4.02,3.08-7.52,3.08-7.52h24.43s-.64,6.41-.64,6.41Z"/>
          <rect class="cls-8" x="262.49" y="514.19" width="46.67" height="4.27" transform="translate(573.08 1031.86) rotate(179.84)"/>
        </g>
        <path class="cls-26" d="M300.84,206.15s43.59,35.59,55.32,38.7l-2.04,6.89s-40.93-19.42-57.34-42.9l4.07-2.68Z"/>
        <path class="cls-20" d="M305.42,251.73s3.21-2.23,3.74,0-3.74,0-3.74,0Z"/>
      </g>
    </g>
  </g>
</svg>