<?xml version="1.0" encoding="UTF-8"?>
<svg id="Layer_2" data-name="Layer 2" xmlns="http://www.w3.org/2000/svg" viewBox="0 0 584.37 695.1">
  <defs>
    <style>
      .cls-1 {
        fill: #34636d;
      }

      .cls-2 {
        fill: #283951;
      }

      .cls-3 {
        fill: #397151;
      }

      .cls-4, .cls-5 {
        fill: #396f50;
      }

      .cls-6 {
        fill: #a44c3c;
      }

      .cls-7 {
        fill: #db816a;
      }

      .cls-8 {
        fill: #1d2b3b;
      }

      .cls-9 {
        fill: #3a7151;
      }

      .cls-10 {
        fill: #a85d4e;
      }

      .cls-11 {
        fill: #39596a;
      }

      .cls-12 {
        fill: #214b46;
      }

      .cls-13 {
        fill: #2a4b5f;
      }

      .cls-14 {
        fill: #244c4b;
      }

      .cls-15 {
        fill: #522e30;
      }

      .cls-16 {
        fill: #4a2920;
      }

      .cls-17 {
        fill: #bf5d3f;
      }

      .cls-5 {
        fill-rule: evenodd;
      }

      .cls-18 {
        fill: #d09145;
      }

      .cls-19 {
        fill: #4f7190;
      }

      .cls-20 {
        fill: none;
        stroke: #a85d4e;
        stroke-miterlimit: 10;
        stroke-width: .68px;
      }

      .cls-21 {
        fill: #f1bf5d;
      }

      .cls-22 {
        fill: #68854f;
      }

      .cls-23 {
        fill: #f6c870;
      }

      .cls-24 {
        fill: #222e42;
      }

      .cls-25 {
        fill: #e18770;
      }
    </style>
  </defs>
  <g id="Layer_7" data-name="Layer 7">
    <g>
      <g>
        <path class="cls-14" d="M378.3,444.29s131.33,159.76,118.93,168.93c-12.39,9.17-106.55-11.48-106.55-11.48l-63.34-120.7-6.82-36.75"/>
        <polygon class="cls-16" points="290.35 675.34 263.57 683.43 227.84 683.43 201.6 675.34 201.6 590.5 290.35 590.5 290.35 675.34"/>
        <g>
          <path class="cls-14" d="M407.49,539.52c-3.21-5.58-6.44-11.21-9.64-16.79,0,0,0,0,0,0h0c-17.04-29.73-33.04-57.93-38.05-67.57l-6.99-6.57,1.15-4.24c-3.64-4.86-29.94-31.28-33.77-31.21-1.81.03-3.51.07-5.1,1.09-.75,9.11-34.87,78.36-40.8,79.57-2.99.61-32.53-42.34-34.98-49.69-2.71-2.57-4.57-4.18-8.01-1.46l-28.68,24.07c5.48-16.94,9.79-34.16,12.93-51.64.99-6.73.46-9.5-6.52-8.82-3.48.34-44.42,16.49-47.31,19.93l-10.9,11.12-20.18-19.78L.13,620.16s-4.28,13.22,36.8-5.61c0,0,3.02.84,8.45,1.97-4.77,14.5-8.63,31.38-1.91,34.14,12.13,4.99,100.3-30.51,100.3-30.51,0,0-10.65,23.58,4.72,23.58,24.75,0,75.55-27.38,75.55-27.38,0,0,18.06,31.38,38.03,27.38,19.98-4,19.25-28.17,19.25-28.17,0,0,71.37,37.17,85.65,28.17s-2.74-28.25-2.74-28.25h0s72.6,45.4,91.89,41.02c25.93-5.89-8.67-48.89-48.65-116.99Z"/>
          <path class="cls-14" d="M349.3,406.16l.1-45.93s-19.15-26.39-28.88-60.2c-9.73-33.81-132.12-11.8-132.12-11.8l-51.36,48.21s-87.37,110.4-69.31,108.65c18.06-1.75,77.35-30.23,77.35-30.23"/>
          <path class="cls-9" d="M320.52,237.91l6.13,4.67c7.03,10.77,47.38,84.9,51.65,96.4-5.9.44-13.02-1.07-18.7-2.53-9.31-2.4-19.5-7.35-28.87-10.19-.99,1.29,5.53,27.86,2.54,32.27-27.13-16.79-48.37-41.16-69.68-64.54-6.43,13.43-11.45,31.06-26.33,37.37v-39.92c0-.2-2.47-3.4-3.4-1.72-28.23,25.14-58.09,43.69-96.83,46.73,9.07-19.81,22.32-37.34,32.99-56.25,1.01-1.79.6-4.23.98-4.9-3.81-4.61,4.68-14.76,10.19-15.29,1.83-14.98,9.65-31.96,20.39-42.47l3.43,1.8c-.7,3.23,2.82,22.77,5.8,21.86l51.62-42.27,3.83-.7c4.24.15,50.42,31.95,54.24,39.7Z"/>
          <path class="cls-3" d="M278.05,64.62c3.14,8.85,6.86,16.89,10.19,25.48l4.95,6.46c15.35,35.99,31.19,71.8,47.52,107.45,5.71,14.88-31.42-2.76-35.06-6.04l-2.12.86c-.98,4.19-4.3,3.17-7.58,1.81-13.41-5.57-26.01-14.76-36.66-24.53-5.09,10.67-19.56,37.19-30.74,40.72-1.57.5-3.33-.31-4.87-1.01-1.32-.32-2.92-.75-3.4-1.91-1.09-2.65-1.19-25.34,3.4-26.97-1.09,4.64-8.93,11.19-13.59,10.19-1.03-3.42-5.08.01-6.82.83-8.41,3.97-19.53,10.62-28.85,8.53,19.96-37.58,35.56-76.8,50.95-116.39,2.65-6.83,5.92-13.4,8.49-20.39,8.38-22.76,17.48-45.58,22.11-69.65,2.29-.5,1.91,1.77,2.49,3.4,7.05,19.88,12.34,40.7,19.58,61.15Z"/>
          <path class="cls-12" d="M303.53,198.84c2.76,1.29,14.26,33.36,16.99,39.08l-55.24-36.97-53.06,43.51c-9.25,1.88-10.61-20.53-10.63-26.93,2.97-6.32,4.35-14.37,8.49-20.39,3.59-5.21,7.74-7.89,13.59-10.19v28.88c17.61-9.86,26.32-28.43,34.83-45.84,10.89,12.41,24.03,20.44,38.77,27.53,2.32,1.12,5.15.8,6.25,1.32Z"/>
          <path class="cls-4" d="M376.59,402.71c-9.1-13.92-21.7-26.43-27.18-42.47l-13.57-18.68c-1.06,16.66,7.62,32.81,5.94,49.25l-80.75-58.82c-29.81,19.36-57.85,39.91-92.11,50.78-5.82,1.85-18.13,2.62-21.63,5.55,0,0-78.58,47.62-61.57,46.51,9.66-.63,29.58-9.78,45-17.57-.04.11-.07.21-.08.28-.43,2.08-.71,4.6-.88,7.37-20.38,20.04-47.94,49.49-38.3,53.46,6.33,2.61,121.2-70.55,121.2-70.55-.65,22.23-10.48,44.69-16.14,66.24,1.24,1.31,9.28-5.58,10.97-6.85,9.74-7.36,18.62-16.03,28.08-23.72,1.71,8.67,33.41,53.35,38.48,54.24,3.93.69,17.59-24.05,20.19-28.72,8.87-15.94,18.9-35.24,22.91-52.7,2.59-.71,2.82.68,4.26,1.67,7.1,4.88,27.11,23.67,31.41,30.6,6.84,7.39,59.49,21.45,61.1,14.33.78-3.46-32.55-52.92-37.31-60.2Z"/>
        </g>
      </g>
      <path class="cls-5" d="M240.65,679.97c-2.97-18.77-21.26-28.92-36.44-33.72,0,0,12.48,10.92,18.93,19.45,6.45,8.53,9.36,15.71,9.15,14.46-.21-1.25-15.7-11.96-23.4-16.02-7.7-4.06-22.67-3.54-22.67-3.54,0,0,30.01,16.72,30.27,17.06-13.56-7.72-32.48,6.99-31.41,6.66,10.2-3.19,28.6-2.59,37.65,4.37,0,0,47.63,1.04,47.74.21.1-.83,2.18-5.3,10.92-9.05,8.74-3.74,21.42-1.98,20.9-2.5-.52-.52-14.14-2.29-21.95-1.77-7.8.52-14.98,5.1-14.46,4.47.52-.62,4.89-8.84,15.39-12.69,10.5-3.85,14.98-3.43,14.98-3.43,0,0-14.66-3.33-25.59.83-10.92,4.16-16.38,13.21-16.07,12.58.31-.62-1.4-11.34,7.12-19.24,8.53-7.9,14.9-9.19,14.04-9.26-16.59-1.28-34.41,15.62-35.11,31.12Z"/>
      <g>
        <path class="cls-25" d="M448.76,414.59c-4.31-2.05-8.74-4.13-13.5-4.51-1.14-.09-2.47,0-3.15.91-.36.48-.48,1.11-.84,1.6-.73.99-2.43,1.4-2.38,2.63.03.66.61,1.16.77,1.81.37,1.55-1.84,2.98-1.21,4.44.28.64,1.05,1,1.22,1.68.1.38-.02.79.04,1.18.14.95,1.19,1.44,2.1,1.74,6.76,2.28,13.78,3.81,20.88,4.56.18.02.38.03.52-.09.11-.1.15-.25.18-.39.67-3.21.95-6.5.84-9.78-.05-1.47.13-2.66-.89-3.6s-3.28-1.56-4.58-2.18Z"/>
        <path class="cls-9" d="M509.45,364.14c2.52,1.59,4.25,4.14,5.74,6.71,5.12,8.8,8.33,18.7,9.37,28.83.36,3.55.92,7.08.83,10.65-.18,7.05.17,14.11-.45,21.13-.38,4.3-1,8.73-3.28,12.39-2.28,3.66-6.65,6.35-10.86,5.42-20.37-4.53-40.94-8.48-59.92-17.14.03-5.54.65-11.07,1.84-16.48,14.83,2.46,29.8,4.06,44.82,4.79-4.99-9.93-7.94-20.87-8.63-31.96-.3-4.88-.15-9.88,1.5-14.48,1.65-4.6,5.9-8.91,10.61-10.22"/>
        <g>
          <path class="cls-6" d="M565.38,646.77l12.87,23.79-46.25,21.97s-5.1-4.26-1.01-12.42,11.56-10.16,13.11-16.1-.06-11.36-.06-11.36l19.09-9.07,2.25,3.2Z"/>
          <rect class="cls-15" x="529.06" y="679.18" width="51.97" height="5.01" transform="translate(1348.88 1059.3) rotate(154.59)"/>
        </g>
        <g>
          <path class="cls-6" d="M482.36,661.04l1.42,27.01h-51.2s-2.78-6.03,4.42-11.65c7.2-5.62,14.8-4.22,18.75-8.92s4.82-10.29,4.82-10.29h21.13s.66,3.85.66,3.85Z"/>
          <rect class="cls-15" x="432.05" y="685.63" width="51.97" height="5.01" transform="translate(916.07 1376.28) rotate(-180)"/>
        </g>
        <path class="cls-8" d="M519.13,489.78c-.68,14.43-4.4,28.71-10.84,41.64-4.91,9.85-11.38,18.93-15.48,29.15-5.77,14.38-6.55,30.2-7.26,45.68-.83,18.13-1.66,36.27-2.49,54.4-7.37-.54-14.73-1.07-22.1-1.61-.48-.03-1.01-.1-1.32-.47-.22-.28-.26-.65-.29-1.01-1.55-20.04-3.1-40.07-4.64-60.11-.42-5.4-.83-10.8-.78-16.21.15-16.06,4.4-31.77,8.61-47.27,4.18-15.35,8.35-30.69,12.53-46.04"/>
        <path class="cls-13" d="M534.56,551.25c-.37,6.6-.73,13.28.57,19.77,1.02,5.14,3.06,10.02,5.08,14.86,8.3,19.84,16.6,39.68,24.9,59.51-6.95,3.24-13.9,6.49-20.85,9.73-3.99-5.05-7.21-10.66-10.41-16.24-7.73-13.46-15.45-26.91-23.18-40.37-1.94-3.37-3.88-6.76-5.23-10.4-1.1-2.97-1.8-6.08-2.49-9.18-6.48-29.02-12.95-58.03-19.43-87.05.31,1.38,45.57.51,51.38,6.1,4.94,4.75,1.67,16.72,1.34,22.74-.56,10.18-1.13,20.35-1.69,30.53Z"/>
        <g>
          <path class="cls-24" d="M573.6,370.54c1.3.15,2.63.32,3.8.91,1.49.75,2.58,2.12,3.42,3.57,2.9,4.99,3.29,11.01,3.44,16.79.15,5.82.12,11.63.1,17.45-.03,7.17-.06,14.34-.09,21.51-.07,16.02-.15,32.16-3.32,47.86-.75,3.72-1.75,7.56-4.23,10.43-4.06,4.71-10.98,5.64-17.19,5.43-4.04-.14-8.06-.61-12.08-1.09-6.83-.81-13.65-1.62-20.48-2.43-3.61-.43-7.5-.99-10.09-3.53-1.64-1.62-2.54-3.84-3.17-6.05-1.01-3.54-1.47-7.22-1.88-10.88-3.08-27.73-3.57-55.74-1.46-83.56.29-3.77.63-7.59,1.98-11.11s3.86-6.78,7.36-8.19c7.3-2.95,17.82-.67,25.42-.01,9.51.82,19,1.79,28.48,2.91Z"/>
          <path class="cls-1" d="M543.83,397.55c-.07,1.05-.11,2.22.58,3.01.66.75,1.75.91,2.74,1,9.73.96,19.53,1.21,29.29.76.57-.03,1.18-.07,1.61-.45.52-.46.59-1.23.61-1.92.1-3.03.11-6.07.02-9.1-.18-5.79-1.07-12.27-5.65-15.82-3.08-2.39-7.21-2.91-11.11-3.03-4.89-.16-13.16-1.21-15.93,3.92-2.95,5.46-1.74,15.56-2.16,21.64Z"/>
          <path class="cls-11" d="M578.39,408.09c1.6,18.94,1.1,38.07-1.5,56.9-.43,3.13-1.17,6.65-3.87,8.3-1.93,1.18-4.36,1.05-6.61.88-6.25-.46-12.51-.92-18.76-1.38-.96-7.73-1.42-15.52-1.37-23.31.08-13.97-.95-27.58-1.35-41.54,0-.23,0-.48.14-.65.16-.2.45-.23.7-.25,10.5-.83,22.19-.34,32.63,1.06Z"/>
          <path class="cls-24" d="M551.22,422.96c-.92.97-.4,2.7.68,3.48s2.5.88,3.84.96c6.61.37,13.51,1.3,20.1,1.01-.19-6.36-3.22-5.16-8.83-5.24-2.39-.03-14.34-1.74-15.79-.21Z"/>
        </g>
        <path class="cls-7" d="M482.38,316.46c-2.11,1.7-4.15,3.66-5.17,6.17-.41,1.01-.65,2.09-1.02,3.11-1.45,3.96-4.79,6.87-8.01,9.6.29,2.26,2.59,3.58,4.42,4.93.38.28.76.59.95,1.02.19.43.17.91.14,1.38-.17,3.06-.35,6.11-.52,9.17-.09,1.64-.16,3.38.65,4.81.8,1.41,2.35,2.26,3.93,2.6s3.23.22,4.84.1c2.82-.21,5.65-.42,8.47-.63.56-.04,1.13-.08,1.67.08,1.32.39,2.01,1.8,2.45,3.11,1.03,3.08,1.48,6.36,1.31,9.61,6.16-.07,12.09-2.21,17.89-4.31.33-.12.68-.25.91-.53.45-.55.21-1.36-.06-2.01-1.87-4.69-3.74-9.37-5.61-14.06,1.51-.62,2.64-1.9,3.61-3.22,2.87-3.9,4.89-8.47,5.48-13.27s-.29-9.83-2.8-13.97c-5.02-8.31-16.59-11.81-25.58-8.41-2.9,1.09-5.55,2.8-7.95,4.74Z"/>
        <path class="cls-2" d="M522.76,333.64c1.55-6.19.48-12.99-2.9-18.39-3.38-5.41-9.02-9.35-15.26-10.67-5.69-1.2-11.58-.29-17.38-.03-3.85.17-7.74.04-11.54.67s-7.62,2.1-10.22,4.95c-.62.68-1.17,1.44-1.47,2.31-.73,2.13.2,4.5,1.55,6.3,3.56,4.79,9.61,6.91,15.32,8.65,6.05,1.84,12.22,3.57,18.54,3.61-1.28,1.26-1.53,3.28-1.09,5.01.44,1.74,1.46,3.26,2.47,4.74.96-2.09,2.95-4.25,5.17-3.66.93.25,1.68.95,2.19,1.76,1.11,1.74,1.18,4.18-.07,5.83s-3.85,2.19-5.51.97c.39.77.87,1.66,1.25,2.43,1.36,2.69,2.94,5.31,5.12,7.4.77.74,1.62,1.44,2.61,1.84s2.15.5,3.12.04c1.7-.8,2.27-2.95,2.25-4.82s-.42-3.8.11-5.6c1.57,0,2.94-1.32,3.68-2.7s.96-2.97,1.16-4.52c.28-2.06.39-4.09.9-6.1Z"/>
        <path class="cls-2" d="M481.9,331.26c.13.84.03,1.72-.28,2.51-.21.54-.63,1.1-1.21,1.07-.46-.02-.83-.45-.92-.9s.03-.92.18-1.36c.27-.79.89-1.67,1.71-1.51"/>
        <path class="cls-2" d="M479.94,346.41c.05.34-.35.56-.68.64-1.32.34-2.74.31-4.04-.09-.28-.09-.57-.2-.75-.43-1.02-1.28,1.74-.35,2.08-.28.29.06,3.41.32,3.39.16Z"/>
        <path class="cls-10" d="M482.11,347.65c.01.43.11,1.02.49,1.03.31-1.28-.03-2.65-.58-3.81-.47-.97-1.13-1.8-1.6-2.76,1.08,1.52,1.65,3.59,1.69,5.54Z"/>
        <path class="cls-2" d="M485.63,329.08c.35.42.63.9.82,1.41.04.11.08.24.04.35-.05.16-.23.24-.4.25-.45.04-.86-.26-1.13-.61s-.45-.77-.72-1.13c-.32-.43-.75-.76-1.25-.96-.26-.1-.58-.39-.37-.56.07-.06.17-.06.26-.05,1.09.07,2.15.59,2.87,1.42"/>
        <path class="cls-2" d="M526.93,341.34c2.68.51,5.15,1.79,7.53,3.12,2.07,1.16,4.2,2.47,5.33,4.56,1.29,2.39.99,5.28.65,7.97-.15,1.19-.35,2.48-1.24,3.29,3.4,1.05,6.17,3.68,7.91,6.78s2.55,6.65,2.92,10.19c.19,1.85.2,3.92-1.03,5.31-.67.76-1.63,1.2-2.61,1.45-4.4,1.13-8.89-1.32-12.58-3.97-3.15-2.27-6.15-4.76-8.72-7.67-2.57-2.91-4.69-6.19-6.66-9.53-2.04-3.45-3.98-7.11-4.28-11.1-.6-7.84,5.56-11.77,12.77-10.41Z"/>
        <path class="cls-21" d="M523.29,370.55c-.11,0,.51.63.4.63,7.24,8.38,11.32,19.11,13.34,30,2.02,10.89,2.1,22.03,2.17,33.1.14,20.58-.78,41.14.69,61.67.05.76.08,1.62-.46,2.17-.47.48-1.21.54-1.89.57-9.91.4-19.84.36-29.75-.11-6.59-.31-13.52-1.23-20.1-1.67-4.59-.31-9.09-1.39-13.64-2.06-.95-.14-2.26-.38-3.16-.71.34-30.79.68-61.58,1.01-92.37.03-2.61.06-5.27.87-7.75.68-2.08,1.87-3.95,3.05-5.8,2.23-3.49,4.47-6.97,6.7-10.46.11,0-.76.27-.65.27,14-1.79,27.43-9.44,41.41-7.5Z"/>
        <path class="cls-24" d="M516.03,377.98c-4.08,3.75-5.56,9.55-6.11,15.07-1.29,12.83,1.35,25.75,5.07,38.1-3.45.89-7.17-.78-9.57-3.41s-3.69-6.07-4.67-9.5c-1.72-6-2.66-12.19-3.47-18.38-.46-3.49-.88-7.06-.17-10.51.65-3.15,2.2-6.04,3.74-8.87,2.35-4.33,4.88-8.86,9.07-11.46,4.09-2.54,9.5-2.8,13.82-.67,2.29,1.13,8.74,5.96,4.77,7.22-1.48.47-4.21-.74-5.89-.56-2.4.27-4.79,1.31-6.57,2.95Z"/>
        <path class="cls-17" d="M481.31,366.77c-.51.18-1.1.45-1.18.98-.08.48.3.89.65,1.23,1.13,1.08,2.25,2.17,3.38,3.25-2.34.42-4.3,2.12-5.59,4.12s-2,4.31-2.71,6.59c-.11.35-.22.73-.09,1.08.31.86,1.56.69,2.41.36,8.62-3.37,17.24-6.73,25.86-10.1,5.98-2.33,12.26-4.71,18.63-3.94-.12-.01-2.91-8.23-4.46-9.12-2.92-1.68-8.88-1.04-12.1-.79-8.55.67-16.77,3.51-24.8,6.34Z"/>
        <g>
          <path class="cls-24" d="M423.58,417.43l9.78,12.37,15.01-11.16c1.59-.96,1.35-3.56-.46-5.85h0c-1.81-2.29-4.66-3.6-6.46-2.9l-17.88,7.53Z"/>
          <path class="cls-24" d="M411.6,421.95l12.31,15.57,18.88-14.04c2.01-1.21,1.7-4.48-.57-7.36h0c-2.28-2.88-5.86-4.53-8.12-3.65l-22.5,9.47Z"/>
          <path class="cls-13" d="M424.43,437.21c2.33-1.41,1.52-5.82-1.71-9.91s-7.9-6.61-10.53-5.58c-2.77,1.08-2.25,5.64,1.29,10.12s8.5,6.85,10.95,5.37Z"/>
          <path class="cls-24" d="M422.69,435.11c1.69-1.02,1.1-4.22-1.24-7.19s-5.73-4.79-7.64-4.04c-2.01.79-1.63,4.09.94,7.34s6.16,4.97,7.94,3.89Z"/>
        </g>
        <g>
          <path class="cls-24" d="M439.3,419.62l9.78,12.37,15.01-11.16c1.59-.96,1.35-3.56-.46-5.85h0c-1.81-2.29-4.66-3.6-6.46-2.9l-17.88,7.53Z"/>
          <path class="cls-24" d="M427.33,424.14l12.31,15.57,18.88-14.04c2.01-1.21,1.7-4.48-.57-7.36h0c-2.28-2.88-5.86-4.53-8.12-3.65l-22.5,9.47Z"/>
          <path class="cls-13" d="M440.16,439.4c2.33-1.41,1.52-5.82-1.71-9.91-3.23-4.09-7.9-6.61-10.53-5.58-2.77,1.08-2.25,5.64,1.29,10.12s8.5,6.85,10.95,5.37Z"/>
          <path class="cls-24" d="M438.42,437.3c1.69-1.02,1.1-4.22-1.24-7.19-2.35-2.97-5.73-4.79-7.64-4.04-2.01.79-1.63,4.09.94,7.34s6.16,4.97,7.94,3.89Z"/>
        </g>
        <path class="cls-25" d="M466.5,426.08c-4.31-2.05-8.74-4.13-13.5-4.51-1.14-.09-2.47,0-3.15.91-.36.48-.48,1.11-.84,1.6-.73.99-2.43,1.4-2.38,2.63.03.66.61,1.16.77,1.81.37,1.55-1.84,2.98-1.21,4.44.28.64,1.05,1,1.22,1.68.1.38-.02.79.04,1.18.14.95,1.19,1.44,2.1,1.74,6.76,2.28,13.78,3.81,20.88,4.56.18.02.38.03.52-.09.11-.1.15-.25.18-.39.67-3.21.95-6.5.84-9.78-.05-1.47.13-2.66-.89-3.6s-3.28-1.56-4.58-2.18Z"/>
        <g>
          <path class="cls-24" d="M542.74,485.4c.33.13-.23.5-.57.39-8.82-2.94-17.42-6.54-25.69-10.76-2.22-1.13-4.42-2.32-6.35-3.89-2.61-2.13-4.65-4.95-5.86-8.1-.62-1.63-1.02-3.47-.39-5.09.99-2.55,4-3.54,6.66-4.19,10.11-2.48,22.01-4.45,32.31-5.92"/>
          <path class="cls-24" d="M472.72,464.71c-.77,0-1.67-.06-2.1-.7-.25-.38-.25-.86-.25-1.31.02-2.56.04-5.11.05-7.67,6.72.39,13.43.77,20.15,1.16,5.04.29,20.13-.21,24.45,2.72,1.32.9-3.97,4.64-5.18,6.8s-12.41-.22-14.73-.36c-7.46-.46-14.93-.63-22.4-.63Z"/>
        </g>
        <path class="cls-18" d="M527.18,375.62c1.6,2.5,4.25,4.14,5.74,6.71,5.12,8.8,8.33,18.7,9.37,28.83.36,3.55.92,7.08.83,10.65-.18,7.05.17,14.11-.45,21.13-.38,4.3-1,8.73-3.28,12.39s-6.65,6.35-10.86,5.42c-20.37-4.53-40.94-8.48-59.92-17.14.03-5.54.65-11.07,1.84-16.48,14.83,2.46,29.8,4.06,44.82,4.79-4.99-9.93-7.94-20.87-8.63-31.96-.3-4.88-.15-9.88,1.5-14.48,1.65-4.6,5.9-8.91,10.61-10.22,0,0,6.36-2.88,8.43.36Z"/>
        <path class="cls-10" d="M502.79,340.79c.14-.42.36-.82.64-1.16.43-.53,1.06-.95,1.74-.93s1.35.61,1.29,1.29c-.36-.46-1.07-.36-1.63-.22-.37.1-.74.19-1.1.29-.38.1-.77.2-1.08.43"/>
        <path class="cls-22" d="M528.16,399.39c-.87.11-1.75-.04-2.61-.22-1.37-.29-2.86-.8-3.5-2.04-.19-.37-.29-.79-.37-1.2-.54-2.61-.06-4.7,2.3-6.14,1.63-1,3.55-1.33,5.26-.31,3.8,2.27,4.1,9.25-1.08,9.92Z"/>
        <path class="cls-23" d="M474.33,436.28c8.4,1.97,16.91,3.52,25.46,4.62-1.14,3.93-1.27,8.15-.38,12.14-.82-.22-1.64-.43-2.46-.65.27-3.24.43-6.49.46-9.74-3.18-.59-6.36-1.18-9.55-1.76-3.84-.71-7.69-1.42-11.37-2.71-.61,1.58-.99,7.7-2.75,6.67-2.01-1.18.87-8.5.58-8.57Z"/>
        <path class="cls-19" d="M485.66,393.46c.01.7.02,1.41.04,2.11.01.64,8.1.95,8.88.88-.59-2.1-.4-2.44-2.53-2.61s-4.21.05-6.38-.39Z"/>
        <path class="cls-18" d="M539.13,489.01c1.62.86,1.09,2.71.77,6.95-.14,1.82.87,4.21.11,5.77-1.21,2.45-6.47,1.33-8.79,1.16-16.19-1.19-32.37-2.38-48.56-3.57-4.05-.3-8.12-.6-12.06-1.59-.22-4.41-.07-8.84.43-13.23,1.63.39,3.31.57,4.98.75,12.97,1.38,25.98,2.41,39.01,3.1,4.2.22,8.41-.27,12.61.06,3.91.3,7.57,1.18,11.51.61"/>
        <path class="cls-20" d="M479.95,336.35s2.16.97,2.77,0"/>
      </g>
    </g>
  </g>
</svg>