{
	"asset":{
		"version":"2.0",
		"generator":"Created using the official Cinema 4D glTF Exporter 1.000x284978"
	},
	"scenes":[{
		"nodes":[0]
	}],
	"nodes":[{
		"name":"tree2",
		"translation":[0.0,
		10.687243461608887,
		0.0],
		"rotation":[0.0,
		0.0,
		7.450580596923828e-9,
		-1.0],
		"scale":[0.9899535775184631,
		0.9132703542709351,
		0.9899535179138184],
		"mesh":0
	}],
	"buffers":[{
		"uri":"data:application/octet-stream;base64,",
		"byteLength":280
	}],
	"meshes":[{
		"name":"tree2",
		"primitives":[{
			"attributes":{
				"POSITION":1,
				"NORMAL":2,
				"TEXCOORD_0":3
			},
			"indices":0,
			"material":0
		}]
	}],
	"accessors":[{
		"bufferView":0,
		"type":"SCALAR",
		"min":[0],
		"componentType":5123,
		"count":12,
		"byteOffset":0,
		"max":[7]
	},
	{
		"bufferView":1,
		"type":"VEC3",
		"min":[-5.55596399307251,
		-11.752473831176758,
		-5.619619846343994],
		"componentType":5126,
		"count":8,
		"byteOffset":0,
		"max":[5.55596399307251,
		11.752473831176758,
		5.619619846343994]
	},
	{
		"bufferView":1,
		"type":"VEC3",
		"min":[-1.0,
		0.0,
		0.0],
		"componentType":5126,
		"count":8,
		"byteOffset":12,
		"max":[0.0,
		0.0,
		1.0]
	},
	{
		"bufferView":1,
		"type":"VEC2",
		"min":[0.010025599971413613,
		-0.9950839877128601],
		"componentType":5126,
		"count":8,
		"byteOffset":24,
		"max":[0.9899740219116211,
		-0.004915714263916016]
	}],
	"bufferViews":[{
		"buffer":0,
		"byteOffset":0,
		"byteLength":24,
		"target":34963
	},
	{
		"buffer":0,
		"byteOffset":24,
		"byteLength":256,
		"target":34962,
		"byteStride":32
	}],
	"images":[{
		"uri":"data:image/png;base64,"
	}],
	"samplers":[{
		"magFilter":9729,
		"minFilter":9729,
		"wrapS":10497,
		"wrapT":10497
	}],
	"textures":[{
		"sampler":0,
		"source":0
	}],
	"materials":[{
		"doubleSided":true,
		"pbrMetallicRoughness":{
			"baseColorTexture":{
				"index":0
			},
			"baseColorFactor":[1.0,
			1.0,
			1.0,
			1.0],
			"metallicFactor":1.0,
			"roughnessFactor":1.0
		},
		"emissiveFactor":[0.0,
		0.0,
		0.0],
		"alphaMode":"BLEND",
		"name":"tree2"
	}]
}