<?xml version="1.0" encoding="UTF-8"?>
<svg id="Layer_2" data-name="Layer 2" xmlns="http://www.w3.org/2000/svg" viewBox="0 0 267.44 454.59">
  <defs>
    <style>
      .cls-1 {
        fill: none;
      }

      .cls-2 {
        fill: #e0806c;
      }

      .cls-3 {
        fill: #2b3a55;
      }

      .cls-4 {
        fill: #97b766;
      }

      .cls-5 {
        fill: #793946;
      }

      .cls-6 {
        fill: #262f3b;
      }

      .cls-7 {
        fill: #e8cda6;
      }

      .cls-8 {
        fill: #e55d47;
      }

      .cls-9 {
        fill: #b55a47;
      }

      .cls-10 {
        fill: #e4b26e;
      }

      .cls-11 {
        fill: #412127;
      }

      .cls-12 {
        fill: #aa4750;
      }

      .cls-13 {
        fill: #ba9f77;
      }

      .cls-14 {
        fill: #cb5e43;
      }

      .cls-15 {
        fill: #c16c5f;
      }

      .cls-16 {
        fill: #4f3e4e;
      }

      .cls-17 {
        fill: #619093;
      }

      .cls-18 {
        fill: #f4c651;
      }

      .cls-19 {
        fill: #e95c48;
      }

      .cls-20 {
        fill: #e2836d;
      }
    </style>
  </defs>
  <g id="Layer_13" data-name="Layer 13">
    <g>
      <path class="cls-13" d="M207.57,419.28c.04.79.49,1.93.78,2.67,1.04,2.6-.78,4.27-.84,7.07-.03,1.48.73,3.38.89,4.85.35,3.37-.05,6.34-.05,9.73,0,2.21-.29,1.33-.44,3.53-.04.63-.48.4-.82.93-7.16.58-14.36.69-21.54.33-3.78-10.34-6.21-21.18-7.18-32.16-.41-4.55-.92-9.1-1.51-13.63l29.65-2.69c.36,6.45.71,12.91,1.07,19.36Z"/>
      <path class="cls-9" d="M165.46,309.36c.21.23.43.44.67.63,1.65,1.33,3.77,1.89,5.85,2.29,1.97.38,3.96.64,5.97.78,1.59.11,3.2.16,4.73.61,3.06.9,5.43,3.33,8.33,4.64,2.28,1.03,4.81,1.35,7.19,2.11,3.11,1,5.61,2.87,8.19,4.76-4.29,11.58-2.57,26.12-1.9,38.22.67,12.17,1.34,24.35,2.02,36.52l-29.65,2.69c-1.6-12.26-3.81-24.43-6.26-36.55-3.43-16.96-7.55-31.73-6.04-49.2.17-1.94.84-4.84.92-7.5Z"/>
      <g>
        <path class="cls-16" d="M210.02,423.42l1.75,23.8-64.79.18s-3.35-7.23,5.25-13.99c8.6-6.76,15.26-2.77,19.96-8.42s5.61-10.58,5.61-10.58h32.17s.06,9.03.06,9.03Z"/>
        <rect class="cls-6" x="146.34" y="444.41" width="65.71" height="6.01" transform="translate(359.63 894.33) rotate(179.84)"/>
      </g>
      <path class="cls-9" d="M164.15,304.38l.07-.04c1.04,1.23,1.3,3.06,1.24,5.03-1.24-1.35-1.91-3.28-1.31-4.98Z"/>
      <path class="cls-5" d="M215.42,327.39c-10.82.85-21.65,1.7-32.47,2.55-5.52.43-11.07.87-16.6.46-.81-.06-1.67-.16-2.31-.65-.69-.53-1-1.42-1.2-2.27-1.27-5.26.04-10.76,1.04-16.08,2.33-12.33,3.03-24.96,2.09-37.48,1.75-.62,3.49-1.23,5.24-1.85,4.34-1.53,11.81-1.53,16.38-2.12,8.39-1.08,15.55-1.5,23.8-3.37.38.18,2.14,1.53,2.51,1.71,2.63,16.9,3.57,34.07,2.8,51.16"/>
      <path class="cls-1" d="M215.83,270.44c.66.49,1.03,1.35.93,2.17-.49,3.81.13,8.98.43,12.81.63,8.2.99,16.41,1.17,24.63.19,8.69-3.51,11.64-9.12,18.23"/>
      <path class="cls-7" d="M127.8,401.98h34.47c-.11,7.3-1.28,14.7-2.97,21.73-.41,1.73-.56,3.53-.44,5.3-.59,0-1.18.04-1.77.04-2.06-.15-4.59-.55-6.62-.93-2.47-.46-5.91-.41-8.42-.24-4.96-.71-9.92-1.42-14.89-2.13.34-7.91.66-15.85.64-23.78Z"/>
      <path class="cls-20" d="M127.05,384.39c-.29-3.24-.1-1.62-.44-4.86-.29-2.8-.23-2.05-.44-4.86-.7-9.44-.65-19.65-3.33-28.78-.38-1.28-.74-2.56-1.1-3.84,13.03.35,25.88-.05,38.11-3.94,2.32-.73,4.19-1,5.8-1.03-.54,9.19-1.13,18.38-1.72,27.56-.61,9.42-3,19.88-1.99,29.26.29,2.66.39,5.36.35,8.08h-34.47c-.02-5.88-.22-11.74-.75-17.59Z"/>
      <path class="cls-9" d="M154,315.46c2.97,2.15,9.8,5.29,11.62,8.41,1.74,2.98.29,8.64.08,12.17-.02.35-.04.69-.06,1.04-1.6.03-3.47.3-5.8,1.03-12.23,3.89-25.08,4.3-38.11,3.94-2.06-7.35-3.86-14.76-5.4-22.24l37.67-4.35Z"/>
      <path class="cls-12" d="M195.53,271.72c.36.09.57.54.41.87-8.8,17.7-17.19,36.7-25.09,54.83-19.75.21-40.03.4-59.72-1.09-.44-.03-.94-.1-1.18-.47-.17-.26-.15-.6-.13-.91,1.54-19.83,3.09-39.66,4.63-59.49,22.62.11,45.24.68,67.84,1.7"/>
      <path class="cls-2" d="M113.47,116.34c-.13,0-.27.04-.4,0-28.09-9.19-48.54-25.89-66.52-46.1-2.92-3.28-5.8-6.71-7.59-10.73-2.48-5.58-3.13-12.62-8.2-16.02-2.35-1.57-5.24-2.03-7.86-3.08-8.15-3.28-14.11-12.44-22.89-12.16.12,5.18,4.7,8.94,7.77,13.12.38.51.74,1.06.88,1.68.19.85-.07,1.72-.32,2.55-.59,1.94-1.19,3.88-1.78,5.82-.61,1.99-1.22,4.03-1.15,6.11.24,6.79,7.2,10.96,12.78,14.84,10.29,7.15,18.24,17.17,25.26,27.55,3.61,5.34,7.06,10.86,11.63,15.41,4.26,4.25,9.38,7.54,14.45,10.79,11.59,7.43,23.19,14.86,34.82,22.24"/>
      <path class="cls-2" d="M138.96,33.1c-.33,1.94-1.75,3.48-2.84,5.13-3.83,5.79-3.95,13.78-8.88,18.65-2.49,2.46-5.89,3.76-9.25,4.77-1.11.34-2.31.7-3,1.63-1.12,1.5-.36,3.67.73,5.18s2.54,2.92,2.85,4.76c1.42,8.55-4.08,18.83,2.25,24.74,3.64,3.4,8.94,4.08,13.75,5.36,4.81,1.28,10.02,4.02,11,8.91.86,4.3-1.32,10.19,2.56,12.23.85.45,1.83.56,2.79.66,6.77.7,13.55,1.21,20.35,1.54,1.13.05,2.36.08,3.27-.59.79-.58,1.17-1.56,1.48-2.5,1.22-3.75,1.85-7.69,1.87-11.64,0-1.41-.05-2.9.6-4.16.72-1.4,2.15-2.24,3.48-3.08,12.62-7.99,21.28-21.95,22.84-36.81,1.8-17.16-7.19-36.01-23.37-42.01-13.59-5.04-29.21,1.34-42.47,7.2Z"/>
      <ellipse class="cls-11" cx="136.65" cy="57.95" rx="2.44" ry="4"/>
      <path class="cls-11" d="M121.92,77.23s5.97,4.22,7.13,4.51c1.16.29-2.76,2.04-5.38,0-2.62-2.04-1.75-4.51-1.75-4.51Z"/>
      <path class="cls-11" d="M134.46,33.41c-2.21,1.77-1.79,5.23-.86,7.9,3.02,8.68,9.02,15.94,14.93,22.98,3.83,4.56,7.84,9.25,13.21,11.8-3.56,8.32-5.39,17.37-5.33,26.42.02,3.9-1.14,7.98-1.52,11.86-.06.67-.12,1.38.2,1.97.46.83,1.49,1.12,2.42,1.33,19.22,4.28,38.94,5.82,58.57,7.34.7.05,1.51.06,1.95-.48.34-.42.32-1.01.29-1.54-.61-9.99-1.21-19.97-1.82-29.96,4.87-8.46,9.32-17.15,11.02-26.76s.61-19.99-4.6-28.24c-4.35-6.89-11.31-11.88-18.9-14.83-7.59-2.95-15.81-3.98-23.96-4.13-9.13-.17-18.3.75-27.1,3.18-7.43,2.05-12.47,6.37-18.5,11.17Z"/>
      <path class="cls-2" d="M157.32,77.45c-.4-.71.51-1.43,1.27-1.75.74-.31,1.48-.62,2.22-.92.5-.21,1.01-.42,1.55-.39,1.48.07,2.27,1.74,2.73,3.16.58,1.78,1.16,3.63.94,5.48-.22,1.82-1.21,3.48-2.49,4.78-1.19,1.21-2.76,1.42-4.35,2.01-.92.34-1.94.6-2.89.36s-1.8-1.16-1.64-2.14"/>
      <path class="cls-10" d="M146.57,18.28c1.43-.01.86-1.1,2.22-1.92,1.66-1,4.36-3.45,6.08-4.51,4.83-2.96,8.38-7.01,13.84-9.21C173.76.6,179.28-.14,184.72.02c16.2.49,31.91,9.39,40.58,22.99,8.67,13.6,10.05,31.5,3.56,46.25-1.38,3.14-2.83,6.26-2.87,9.7-.11,8.56,2.55,16.92,4.68,25.21-40.43-18.3-77.57-43.76-109.14-74.8-2.39-2.35-4.87-4.95-5.46-8.24,7.23-.13,14.48-.29,21.67-1.08,2.33-.25,5.42-.23,7.51-1.49.55-.34.69-.27,1.32-.28Z"/>
      <path class="cls-18" d="M125.36,160.82c-9.98-2.32-19.49-6.61-27.82-12.56,3.93-11.55,7.87-23.09,11.8-34.64.1-.29.21-.59.44-.78.33-.26.79-.22,1.21-.17,17.72,2.15,34.8,7.2,52.57,8.38,3.73.25,7.48.5,11.08,1.48,8.2,2.22,15.06,8.07,19.95,15.02,4.88,6.95,7.98,14.98,10.7,23.03,7.65,22.7,12.59,46.32,14.67,70.19,1.2,13.68,1.89,27.4,2.82,41.1-2.77,2.52-3.53,2.71-6.94,4.25-1.49.67-3.2.6-4.84.51-34.38-1.84-68.75-3.67-103.13-5.51-.76-.04-1.62-.13-2.08-.73-.35-.45-.37-1.06-.38-1.63-.17-14.97.98-29.96,3.43-44.73,4.56-27.44,9.7-54.51,16.5-81.46,1.43-5.68,5.22-10.94,8.73-15.63.79-1.05,2.34-1.81,3.27-2.74,1.87-1.88,4.57-4.54,7.22-4.38,2.03.13,4.06.26,6.09.39"/>
      <path class="cls-3" d="M146.73,114.91c3.13.33,5.9,2.14,8.42,4.04,6.57,4.95,12.46,10.81,17.44,17.36-3.41,1.83-6.34,4.57-8.4,7.85-3.42-5.61-7.51-10.8-12.16-15.45-4.26-4.26-10.3-7.35-14.19-11.53,1.77-2.3,6.16-2.55,8.89-2.27Z"/>
      <path class="cls-3" d="M118.53,158.28c6.99,20.5,18.77,39.34,34.15,54.58,2.85,2.82,5.85,5.57,7.92,9,2.07,3.43,3.09,7.76,1.63,11.49-4.05-2.61-8.37-6.42-11.41-10.16-10.09-12.39-19.03-23.33-27.64-36.79-5.14-8.03-6.96-6.07-7.1-15.6,1.49-6.86,1.96-9.97,2.46-12.53Z"/>
      <path class="cls-17" d="M172.08,135.59c-.96-1.28-1.52-2.76-2.06-4.32,2.85-.99,5.9-1.18,9.26-1.3,8.63-.32,17.24-1.18,25.89-1.15,11.66.04,23.77,1.91,33.39,8.51,14.11,9.69,12.53,23.86,15.61,38.54,4.63,22.05,7.68,44.58,7.41,67.02-.03,2.72-2.06,5.01-4.31,6.54-2.25,1.53-3.2,2.95-5.68,4.07-5.99,2.71-12.79,2.83-19.37,2.87-11.35.07-22.67-.3-34.02-.4-2.16.56-4.38.79-6.6.76.56-5.01.98-10.02,1.39-15.03,1.53-35.71,4.08-76.52-20.91-106.1Z"/>
      <path class="cls-3" d="M157.56,195.57c.55-10.94,1.09-21.89,1.64-32.83.44-8.74-1.61-20.83,5.52-27.45,1.78-1.66,3.64-2.7,5.59-3.37.54,1.56,1.09,3.04,2.06,4.32,25,29.59,22.45,70.4,20.91,106.1-.42,5.01-.84,10.02-1.39,15.03-3.78-.04-7.59-.81-11.21-1.96-5.75-1.83-12.04-1.29-15.9-5.92-5-5.99-6.64-14.06-7.33-21.83-.95-10.67-.41-21.4.12-32.1Z"/>
      <path class="cls-19" d="M179.67,145.43c6.5,6.47,9.13,15.82,14.25,23.42,3.4,5.05,6.47,11.8,12.06,14.2,2.78,1.19,5.83,1.58,8.84,1.94,7.41.88,15.04,1.65,22.26-.27,3.89-1.04,8.08-3.65,10.27-7.02,1.48-2.28,2.74-5.4,3.46-8.02.48-1.76.83-4.87,1.27-6.64,1.38-5.51-1.11-10.56-3.99-15.45-7.69-13.07-23.94-19.32-38.97-21.33-13.36-1.78-27.13-1.66-40.08,2.07-2.31.67-5.06,2.1-4.88,4.5.12,1.6,1.56,2.74,2.88,3.66,3.6,2.54,9.51,5.84,12.63,8.95Z"/>
      <path class="cls-8" d="M257.41,201.08c.59-.24,1.32-.1,1.77.36,1.49,1.51,2.33,4.01,3.51,5.77,6.21,9.32,4.31,19.71,3.27,30.86-.42,4.54-1.73,9.72-5.85,11.68-2.11,1-4.55.93-6.88.84-15.53-.63-31.06-1.25-46.59-1.88-.96-.04-1.98-.09-2.79-.62-1.14-.74-1.56-2.18-1.86-3.51-3.09-13.32-3.95-27.16-2.52-40.76.11-1.02.24-2.08.81-2.93.85-1.26,2.44-1.76,3.91-2.14,17.21-4.41,36.14-2.58,53.22,2.32Z"/>
      <path class="cls-4" d="M205.97,207.15l3.28,9.27c.12.35.26.72.54.95.33.27.79.32,1.22.35,5.15.37,10.3.74,15.44,1.11,11.85.85,24.56,1.92,36.42,2.55.79.04,1.61.08,2.35-.2,1.5-.57,2.28-2.33,2.21-3.93s-.8-3.1-1.51-4.54c.67-.39-.69-5.84-1.46-5.85-.15-.74-.73-1.99-.88-2.73-.89-4.46-5.94-5.96-10.27-7.33-4.33-1.37-8.94-1.61-13.48-1.84-5.69-.28-11.39-.57-17.09-.62-7.08-.07-14.59.35-20.46,4.31-.38.25-.77.55-.9.99-.18.61.2,1.23.57,1.75.89,1.25,3.51,4.33,4.02,5.78Z"/>
      <path class="cls-3" d="M228.67,180.71c.34-.12.76.1.85.44,1.4.48,2.85,2.51,3.03,3.98s-.53,3.02-1.77,3.83c-1.95,1.28-5.4,1.45-7.22-.01-1.73-1.39-2.76-3.81-2.06-5.92s5.26-3.48,7.16-2.33Z"/>
      <path class="cls-1" d="M161.86,140.06c.47-4.31,6.22-6.34,10.2-4.61s6.37,5.8,8.17,9.75c10.31,22.67,9.47,48.62,8.44,73.51-.18,4.42-.49,9.27-.64,13.69"/>
      <path class="cls-1" d="M187.58,243c-.15,1.62-.29,3.24-.44,4.86-.12,1.33-.29,2.21-.44,3.53-.08.75-.29,1.47-.44,2.21"/>
      <g>
        <path class="cls-14" d="M160.66,427.49l1.75,23.8-64.79.18s-3.35-7.23,5.25-13.99c8.6-6.76,15.26-2.77,19.96-8.42,4.71-5.66,4.33-10.58,4.33-10.58h34.4s-.9,9.03-.9,9.03Z"/>
        <rect class="cls-6" x="96.98" y="448.48" width="65.71" height="6.01" transform="translate(260.92 902.62) rotate(179.84)"/>
      </g>
      <path class="cls-19" d="M150.97,14.78s61.38,50.11,77.89,54.48l-2.87,9.7s-57.62-27.34-80.74-60.4l5.72-3.78Z"/>
      <path class="cls-15" d="M157.42,78.96s4.51-3.14,5.27,0c.75,3.14-5.27,0-5.27,0Z"/>
    </g>
  </g>
</svg>