<?xml version="1.0" encoding="UTF-8"?>
<svg id="Layer_2" data-name="Layer 2" xmlns="http://www.w3.org/2000/svg" viewBox="0 0 267.06 769.47">
  <defs>
    <style>
      .cls-1, .cls-2, .cls-3, .cls-4 {
        fill: none;
      }

      .cls-5 {
        fill: #d07339;
      }

      .cls-6 {
        fill: #ca6830;
      }

      .cls-7 {
        fill: #ce6f39;
      }

      .cls-8 {
        fill: #cf6f37;
      }

      .cls-9 {
        font-family: MyriadPro-Regular, 'Myriad Pro';
        font-size: .5px;
      }

      .cls-10 {
        fill: #ca6a34;
      }

      .cls-11 {
        fill: #492528;
      }

      .cls-12 {
        fill: #cb6c32;
      }

      .cls-13 {
        fill: #cd6d33;
      }

      .cls-14 {
        fill: #1e425b;
      }

      .cls-15 {
        fill: #d0713a;
      }

      .cls-16 {
        fill: #c66631;
      }

      .cls-17 {
        fill: #cb662e;
      }

      .cls-18 {
        fill: #c9682e;
      }

      .cls-19 {
        fill: #c76730;
      }

      .cls-20 {
        fill: #ce6b35;
      }

      .cls-21 {
        fill: #cc6d37;
      }

      .cls-22 {
        fill: #262f3b;
      }

      .cls-23 {
        fill: #1d2b3b;
      }

      .cls-24 {
        fill: #cd6e38;
      }

      .cls-25 {
        fill: #e38e76;
      }

      .cls-26 {
        fill: #e8cda6;
      }

      .cls-27 {
        fill: #b55a47;
      }

      .cls-28 {
        fill: #e7633f;
      }

      .cls-29 {
        fill: #e1826e;
      }

      .cls-30 {
        fill: #cf723a;
      }

      .cls-31 {
        fill: #7b3c63;
      }

      .cls-32 {
        fill: #ac863f;
      }

      .cls-33 {
        fill: #9b8e40;
      }

      .cls-34 {
        fill: #ce6d35;
      }

      .cls-35 {
        fill: #cb6b31;
      }

      .cls-36 {
        fill: #aa9b41;
      }

      .cls-37 {
        fill: #cd6b34;
      }

      .cls-38 {
        fill: #d07338;
      }

      .cls-39 {
        fill: #ce7135;
      }

      .cls-40 {
        fill: #eab84b;
      }

      .cls-41 {
        fill: #db5937;
      }

      .cls-42 {
        fill: #cf7139;
      }

      .cls-43 {
        fill: #cf713a;
      }

      .cls-44 {
        fill: #cc6830;
      }

      .cls-45 {
        fill: #ce6d37;
      }

      .cls-46 {
        stroke-width: .5px;
      }

      .cls-46, .cls-3 {
        stroke: #000;
      }

      .cls-46, .cls-3, .cls-4 {
        stroke-miterlimit: 10;
      }

      .cls-47 {
        fill: #c76630;
      }

      .cls-48 {
        fill: #d06f38;
      }

      .cls-49 {
        fill: #ba9f77;
      }

      .cls-50 {
        fill: #c45e50;
      }

      .cls-51 {
        fill: #de9254;
      }

      .cls-52 {
        fill: #cc6931;
      }

      .cls-53 {
        fill: #cb6a2f;
      }

      .cls-2 {
        stroke-linecap: round;
        stroke-linejoin: round;
      }

      .cls-2, .cls-4 {
        stroke: #1d2b3b;
      }

      .cls-54 {
        fill: #f1a353;
      }

      .cls-55 {
        fill: #ce6c36;
      }

      .cls-56 {
        fill: #d78e5e;
      }

      .cls-57 {
        fill: #c9672f;
      }

      .cls-58 {
        fill: #cc6832;
      }

      .cls-59 {
        fill: #ce6c32;
      }

      .cls-60 {
        fill: #c86630;
      }

      .cls-61 {
        fill: #4f3e4e;
      }

      .cls-62 {
        fill: #ce6c35;
      }

      .cls-63 {
        fill: #cf6e37;
      }

      .cls-64 {
        fill: #cf6e35;
      }

      .cls-4 {
        stroke-width: .75px;
      }

      .cls-65 {
        fill: #93371e;
      }

      .cls-66 {
        fill: #c96a33;
      }

      .cls-67 {
        fill: #cc6b32;
      }

      .cls-68 {
        fill: #c39b41;
      }

      .cls-69 {
        fill: #cd6d35;
      }

      .cls-70 {
        fill: #cd6b35;
      }

      .cls-71 {
        fill: #cd6b30;
      }
    </style>
  </defs>
  <g id="_中景植物" data-name="中景植物">
    <g>
      <g>
        <path class="cls-41" d="M37.19,442.26c-9.98.68-17.69,9.59-20.88,19.07-3.19,9.48-3,19.7-4.17,29.63,1.86,4.25,2.49,7.77,3.67,12.27,1.18,4.49,3.2,9.07,7.07,11.64,2.94,1.96,6.56,2.51,9.87,3.75-.72-6.52-1.13-13.07-1.24-19.63-.32-19.27,2.08-37.79,5.69-56.73Z"/>
        <path class="cls-31" d="M92.78,514.14c-.68,2.64-1.42,5.33-2.93,7.6-1.95,2.92-5.04,4.92-8.28,6.27-10.27,4.28-21.92,2.72-32.91,1.03-7.15-1.1-15.4-3.02-18.43-9.59-1.14-2.46-1.33-5.24-1.47-7.95-1.47-28.38,1.08-56.97,7.54-84.64,1.44-6.17,3.08-12.32,5.53-18.17,4.12-9.87,10.74-18.96,19.9-24.48,9.16-5.52,21.04-7.04,30.7-2.47,9.05,4.28,15.42,14.4,14.45,24.51s-2.08,20.23-2.54,30.68c-1.15,26.05-5.02,51.98-11.54,77.22Z"/>
        <path class="cls-28" d="M101.22,371.4c-9.12-.62-18.26-.91-27.4-.87-7.94.04-16.37.47-22.95,4.93-7.1,4.81-10.64,13.39-12.56,21.74-1.93,8.36-2.67,17.06-5.98,24.97-1.58,3.77.41,8.83.59,12.91,2.89,1.73,6.49-.35,9.17-2.37,19.75-14.9,38.55-31.05,56.25-48.33,1.93-1.88,3.91-3.89,4.71-6.47s.85-6.34-1.84-6.52Z"/>
        <path class="cls-68" d="M38.27,461.91c11.52-.16,23.04-.32,34.56-.48,0-5.77,0-11.54,0-17.31-8.73.3-19.36-.99-27.86.96-7.54,1.73-6.97,9.78-6.71,16.84Z"/>
        <path class="cls-32" d="M39.91,502.99c9.46.32,18.9-.74,28.3-1.8.84-.09,1.71-.2,2.44-.63,1.74-1.04,1.95-3.42,1.98-5.45.1-8.81.2-17.62.31-26.44-7.32.01-27.21-3.66-33,1.25-3.23,2.74-1.67,33.07-.03,33.07Z"/>
      </g>
      <path class="cls-29" d="M204.21,392.77c.55-3.26,1.1-6.52,1.66-9.79.59-3.51,1.28-7.23,3.65-9.89.24-.27.53-.54.89-.56.71-.03,1.02.88,1.03,1.59.04,2.34-.48,5.36,1.6,6.44,1.44-6.64,2.88-13.28,4.32-19.92,1.63-.93,3.55,1.03,3.74,2.89s-.53,3.75-.25,5.6c.24-1.27.48-2.55.73-3.82.2-1.04.43-2.15,1.2-2.88s2.25-.79,2.73.16c.31,2.96.63,5.93.94,8.89-.66-2.5.34-5.35,2.42-6.88,1.62,2.88,2.04,6.42,1.12,9.6.51-1.2,1.02-2.39,1.52-3.59,1.96,9.45-2.34,19.09-7.72,27.1-1.42,2.12-3.45,4.43-5.99,4.1"/>
      <path class="cls-33" d="M111.72,386.75c-6.53,7.6-7.59,18.87-4.56,28.43,3.04,9.55,9.64,17.6,17.03,24.37s15.68,12.5,23.24,19.08c3.9,3.39,7.88,7.15,12.94,8.19,3.94.81,7.89-2.23,11.06-4.71,20.59-16.12,39.42-34.46,51.82-57.49.35-.65.71-1.35.68-2.1-.04-.91-.64-1.69-1.27-2.34-5.12-5.29-13.63-6.58-17.99-12.51-11.49,13-24.81,24.37-39.46,33.66-7.9-10.23-16.62-19.83-26.06-28.66-3.63-3.39-7.47-6.74-12.11-8.51-4.64-1.76-12.08-1.17-15.32,2.59Z"/>
      <path class="cls-26" d="M210.16,682.73l-28.76,10.49c5.02,11.42,10.31,22.72,15.87,33.88,7.72-2.68,15.43-5.35,23.15-8.03.57-.2,1.21-.45,1.46-1,.23-.51.06-1.09-.12-1.62-3.73-11.28-7.67-22.5-11.6-33.72Z"/>
      <path class="cls-50" d="M158.37,610.46c9.49-2.37,18.35-5.69,26.59-10.7-.32-1.57-.61-3.07-.85-4.39-.96-5.28-2.54-10.44-4.71-15.34l-11.31-9.13c-6.07,2.16-12.13,4.31-18.2,6.47-1.69.6-4.35-.25-5.89.66-1.29.75-2.57,1.5-3.86,2.26.23,1.23.31,2.47.69,3.66.55,1.72.59,3.68,1.61,5.17,1.61,2.36,2.4,5.89,3.42,8.56,1.52,3.99,2.95,7.83,4.22,11.91.02.08.05.16.07.23,2.65.35,5.37,1.18,8.22.67Z"/>
      <path class="cls-25" d="M210.16,682.73c-8.27-23.59-16.5-47.2-22.61-71.41-.82-3.26-1.8-7.64-2.6-11.57-8.23,5.01-17.09,8.33-26.59,10.7-2.85.52-5.57-.31-8.22-.67,8.84,28.37,19.28,56.24,31.25,83.44l28.76-10.49Z"/>
      <path class="cls-49" d="M29.46,701.62c-.59.86-1.22,1.88-.92,2.89.24.81,1.02,1.33,1.74,1.77,6.85,4.23,13.7,8.46,20.55,12.7,8.06-9.5,16.12-19,24.17-28.49l-24.34-19.58c-7.07,10.24-14.14,20.48-21.21,30.72Z"/>
      <path class="cls-27" d="M92.87,599.22c-2.75,4.58-3.23,10.84-5.37,15.76-2.96,6.8-7.19,12.98-11.39,19.06-8.48,12.29-16.97,24.58-25.45,36.86l24.34,19.58c3.84-4.53,7.69-9.06,11.53-13.59,11.18-13.18,22.48-26.54,29.97-42.11,6.13-12.75,9.53-26.61,12.88-40.36-9.89-.7-30.41-5.37-36.51,4.8Z"/>
      <path class="cls-23" d="M80.95,597.4c.04.98.09,2.02.66,2.83.75,1.06,2.17,1.42,3.46,1.68,18.27,3.75,36.94,5.64,55.61,5.61,3.12-34.4,5.21-68.89,6.24-103.41,0,.23-37.25,2.69-40.61,3-8.33.76-23.3-1.36-25.49,8.38-2.76,12.26-.64,27.68-.63,40.23.01,13.9.27,27.8.77,41.69Z"/>
      <path class="cls-14" d="M156.86,504.1c11.03,28.02,17.98,55.75,30.67,83.15.09.19-.19.49-.19.69,0,4.67-5.68,6.95-10.22,8.86-25.63,10.76-54.32,12.72-82.34,14.52,1.07-19.62-.76-39.27-2.6-58.84-1.5-15.99-3-31.97-4.5-47.96,21.07-.72,48.23,1.9,69.17-.42Z"/>
      <g>
        <path class="cls-61" d="M22.23,705.49l-20.07,20.55,48.51,40.71s7.03-3.32,4.81-13.77c-2.22-10.44-10.08-14.9-10.07-22.08.01-7.18,7.22-12.07,7.22-12.07l-22.55-21.56-7.86,8.22Z"/>
        <rect class="cls-22" x="-5.63" y="743.65" width="64.22" height="5.87" transform="translate(486.09 157.65) rotate(40)"/>
      </g>
      <g>
        <path class="cls-14" d="M198.18,736.81l7.71,27.66,59.54-21.56s.65-7.75-9.5-11.07c-10.15-3.32-17.95,1.25-24.15-2.36-6.21-3.61-6.82-12.3-6.82-12.3l-29.96,8.7,3.17,10.93Z"/>
        <rect class="cls-22" x="203.76" y="750.81" width="64.22" height="5.87" transform="translate(-242.53 125.33) rotate(-19.91)"/>
      </g>
      <path class="cls-29" d="M166.34,303.71c3.22,3.96,5.14,8.96,5.39,14.06.09,1.79-.02,3.62.43,5.36.45,1.74,1.62,3.43,3.36,3.88.73.19,1.53.15,2.22.45,1.46.64,1.88,2.59,1.47,4.13-.41,1.54-1.43,2.83-2.15,4.25-1.76,3.46-1.74,7.51-2.09,11.38-.35,3.87-1.29,8.04-4.3,10.49-1.86,1.52-4.27,2.17-6.62,2.62-3.97.76-8.02,1.08-12.05.94-.91-.03-1.89-.07-2.66.42-.62.4-.99,1.07-1.33,1.72-2.42,4.61-4.54,9.39-6.32,14.29-7.93-.62-15.68-3.4-22.2-7.94-.59-.41-1.2-.87-1.43-1.55-.3-.84.07-1.76.43-2.57,1.98-4.42,4.16-8.76,6.55-12.98-2.18-1.88-4.47-3.9-6.65-5.79-9.42-8.14-14.78-21.28-11.61-33.32,3.17-12.04,13.98-21.61,26.27-23.58s25.43,4.09,33.29,13.74Z"/>
      <path class="cls-11" d="M169.62,304.28c2.87,1.99,5.95,4.87,5.36,8.31-.69,4-5.61,5.4-9.62,5.98-4.95.71-9.9,1.42-14.85,2.13-.46.07-.97.15-1.28.5-.37.4-.36,1-.38,1.55-.22,6.11-5.91,10.4-11.03,13.74.12-1.96.23-3.96-.32-5.85-.54-1.89-1.87-3.66-3.76-4.2-2.85-.8-5.82,1.61-6.68,4.45s-.17,5.89.61,8.75c.45,1.63,2.7,2.75,4.37,3.03-.13.25-.28.83-.41,1.08-.11.23.04.15.04.4,0,2.54-1.59,4.77-2.88,6.96-1.29,2.19-3.21,4.11-5.63,4.88-2.42.77-5.36.18-6.93-1.81.36-1.22.72-2.59.55-3.85-.17-1.26-1.03-2.52-2.29-2.73-3.41-.56-6.41-3.95-8.11-6.97-1.69-3.02-2.56-6.43-3.11-9.85-.18-1.12.55-2.63,1.36-3.43,4.36-17.26,20.74-31.55,38.44-33.45,9.89-1.06,18.39,4.7,26.56,10.37Z"/>
      <path class="cls-11" d="M164.9,342.33c-.26.35-.11.88.22,1.18s.77.41,1.2.49c1.22.24,2.46.35,3.7.31,1.58-.05,4.36-1.59,1.55-1.91-.3-.03-6.96.33-6.67-.07Z"/>
      <path class="cls-1" d="M110.39,288.56c-7.95,9.05-12.14,21.31-11.38,33.33.21,3.27.83,6.67,2.86,9.24,2.96-.4,5.93-.81,8.89-1.21"/>
      <path class="cls-51" d="M135.18,277.9c-14.75.5-28.66,10.27-34.62,23.77-3.66,8.29-4.4,18.19-.4,26.32.51,1.03,1.19,2.11,2.3,2.43.8.23,1.65,0,2.45-.22,28.55-7.97,56.85-16.83,84.84-26.58,1.34-.47,2.74-.97,3.71-2.01s1.34-2.79.42-3.88c-2.26-2.68-16.72,3.02-20,2.68-4.94-.51-6.19-6.08-9.34-9.66-7.27-8.26-18.33-13.23-29.35-12.85Z"/>
      <path class="cls-36" d="M90.23,379.88c-6.97,37.34-11.57,75.12-13.78,113.04-.62,10.61-.61,21.71-.95,32.33-.03.91-.01,1.94.66,2.55.6.55,1.5.56,2.32.54,28.17-.72,56.34-1.44,84.51-2.16.56-.01,1.18-.05,1.57-.45.4-.41.42-1.05.42-1.62-.36-36.21-.72-40.41-1.07-76.61-.09-9.29,1.6-.41,0-9.57-.53-3.02-9.83-54.13-11.33-56.81-3.15-5.61-3.21-11.15-9.44-12.76-17.87-4.61-38.2.34-52.9,11.51Z"/>
      <g>
        <g>
          <line class="cls-3" x1="95.82" y1=".5" x2="95.65" y2=".5"/>
          <g>
            <line class="cls-3" x1="95.82" y1=".5" x2="95.82" y2=".47"/>
            <line class="cls-3" x1="95.65" y1=".5" x2="95.65" y2=".47"/>
          </g>
        </g>
        <g>
          <g>
            <text class="cls-9" transform="translate(95.82 .69)"><tspan x="0" y="0">0,0</tspan></text>
            <text class="cls-9" transform="translate(95.82 .9)"><tspan x="0" y="0">0,2</tspan></text>
            <text class="cls-9" transform="translate(95.82 1.12)"><tspan x="0" y="0">0,4</tspan></text>
            <text class="cls-9" transform="translate(95.82 1.34)"><tspan x="0" y="0">0,6</tspan></text>
            <text class="cls-9" transform="translate(95.82 1.56)"><tspan x="0" y="0">0,8</tspan></text>
            <text class="cls-9" transform="translate(95.82 1.77)"><tspan x="0" y="0">1,0</tspan></text>
          </g>
          <line class="cls-3" x1="95.82" y1=".5" x2="95.82" y2="1.58"/>
          <g>
            <line class="cls-3" x1="95.82" y1=".5" x2="95.82" y2=".5"/>
            <line class="cls-3" x1="95.82" y1=".72" x2="95.82" y2=".72"/>
            <line class="cls-3" x1="95.82" y1=".93" x2="95.82" y2=".93"/>
            <line class="cls-3" x1="95.82" y1="1.15" x2="95.82" y2="1.15"/>
            <line class="cls-3" x1="95.82" y1="1.37" x2="95.82" y2="1.37"/>
            <line class="cls-3" x1="95.82" y1="1.58" x2="95.82" y2="1.58"/>
          </g>
        </g>
        <rect class="cls-46" x="95.67" y=".5" width=".12" height="1.08"/>
      </g>
      <g>
        <path class="cls-54" d="M161.89,576.82c.02,2.41-.76,4.59-1.15,6.84l-8.48,48.43c-1.72,10.21-105.55,4.64-105.55,4.64-6.69-.23-9.32-4.3-10.29-10.05l-6.56-38.89c-.63-3.73-.46-8.21-3.06-10.7l1.19-1.96c44.23.65,88.46.56,132.7-.28l1.2,1.97Z"/>
        <path class="cls-45" d="M144.07,623.42c-2.75.37-5.35-3.68-6.75-5.28l5.69-5.6,7.81,5.69-6.75,5.19Z"/>
        <path class="cls-7" d="M61.74,601.69c-3.05.3-5.49-3.88-7.06-5.35l5.9-5.48,7.68,6.52c-1.97,1.17-3.69,4.02-6.52,4.3Z"/>
        <path class="cls-20" d="M107.26,609.18c-2.68.55-5.39-3.36-6.86-5.03l6.3-4.88c2.77-.08,5.7,3.08,7.31,5.14-1.98,1.51-3.92,4.19-6.75,4.77Z"/>
        <path class="cls-42" d="M79.41,587.94c-3.07-1.6-5.68-3.61-8.32-6,4.59-4.82,11.14-3.42,15.24.51l-6.93,5.49Z"/>
        <path class="cls-58" d="M125.97,623.35c-2.26.73-5.48-2.96-6.96-4.51,1.72-2.68,3.7-4.39,6.21-6.1l6.77,5.35c-1.61,1.47-2.96,4.29-6.02,5.27Z"/>
        <path class="cls-62" d="M135.27,631.23c-2.65.09-5.11-3.21-6.95-4.96l6.67-5.68c2.48,1.78,4.48,3.56,6.14,6.04-1.23,1.72-3.13,4.5-5.86,4.59Z"/>
        <path class="cls-70" d="M117.2,631.95c-2.97-1.37-4.87-3.17-7.42-5.21,2.1-2.54,3.88-4.3,6.53-5.95l6.77,5.38-5.88,5.78Z"/>
        <path class="cls-16" d="M44.44,617.36c-1.89.63-5.8-3.42-5.52-5.37.33-2.29,2.97-4.01,4.66-5.14,2.71,1.37,4.69,2.98,6.87,5.32-1.48,1.48-3.01,4.15-6.01,5.2Z"/>
        <path class="cls-13" d="M62.24,632.27c-2.54.82-5.79-3.07-6.54-5.03,1.95-2.22,3.32-3.81,5.74-5.18,2.64,1.36,4.61,3.21,6.15,5.49-1.43,1.6-2.65,3.85-5.36,4.72Z"/>
        <path class="cls-55" d="M142.07,594.1c-2.79-1.07-4.47-3.03-6.79-4.66l6.09-6.35c2.76,1.18,4.8,3.26,6.69,5.28l-5.98,5.73Z"/>
        <polygon class="cls-19" points="89.5 624.64 82.5 619.29 89.26 613.67 95.34 619.09 89.5 624.64"/>
        <path class="cls-69" d="M89.27,594.55c-2.56.84-5.64-2.71-7.12-4.65l6.94-5.38,6.18,4.81c-1.57,1.38-3,4.23-6,5.22Z"/>
        <path class="cls-60" d="M70.73,594.32c-2.97-.14-5.72-3.35-7.33-5.35.78-1.76,3.12-4.32,4.91-3.96,3.13.62,5.55,3.09,8.02,5.21-1.05,1.29-3.07,4.22-5.6,4.11Z"/>
        <path class="cls-8" d="M80.44,631.43c-2.53.46-5.02-2.55-6.86-4.21,1.63-2.26,3.96-4.01,6.84-5.36l6.09,4.77c-1.43,1.84-3.11,4.25-6.08,4.79Z"/>
        <path class="cls-45" d="M107.4,594.77l-7.01-5.29,6.2-5.31c2.64,1.3,4.8,3.15,6.68,5.2l-5.87,5.39Z"/>
        <path class="cls-24" d="M53.01,609.4c-2.78-.16-4.95-3.81-6.45-5.42l5.36-4.96c2.27,1.84,4.88,3.07,6.71,5.69-1.11,1.54-3.24,4.83-5.62,4.69Z"/>
        <path class="cls-48" d="M70.67,624.2c-2.35.07-5.01-2.82-6.58-4.54l6.71-5.78,6.52,5.39-6.65,4.93Z"/>
        <path class="cls-43" d="M98.26,601.47c-2.49.91-5.18-2.2-6.82-4.09,1.71-2.21,3.97-4.09,6.85-5.58l5.96,4.48c-1.57,1.48-3.07,4.12-5.99,5.19Z"/>
        <path class="cls-64" d="M134.25,616.01l-6.57-5.2,5.57-5.37c2.79,1.16,5.09,2.86,7.09,5.21-1.76,2.31-3.26,3.44-6.09,5.36Z"/>
        <path class="cls-15" d="M150.23,600.85l-6-4.61c2.33-2.66,4.6-4.56,7.37-6.16l5.25,4.06c-1.69,2.58-3.74,4.27-6.61,6.72Z"/>
        <path class="cls-6" d="M98.3,631.35c-2.39.45-4.85-2.88-6.13-4.69,1.61-2.34,3.72-3.58,6.15-5.06l6.11,5c-1.52,1.85-3.15,4.2-6.12,4.75Z"/>
        <path class="cls-17" d="M116.67,615.99c-2.05.87-5.16-2.55-6.4-3.85l6.22-6.1c2.18,1.15,4.35,2.39,5.87,4.74-1.57,1.74-2.95,4.05-5.7,5.22Z"/>
        <path class="cls-48" d="M106.66,624.43l-5.35-5.27,5.9-5.29,6.29,4.72c-1.88,2.71-4.08,4-6.84,5.84Z"/>
        <path class="cls-7" d="M61.75,616.73c-2.48.45-4.55-2.79-6.06-4.43,1.57-1.95,3.3-3.86,5.76-5.47l6.3,4.92c-1.52,1.69-3.14,4.46-6,4.97Z"/>
        <path class="cls-18" d="M79.78,616.23c-2.51-.08-4.45-3.13-6.57-4.53l6.17-4.9c2.6,1.13,4.62,2.56,6.2,4.97-1.2,1.58-3.26,4.54-5.79,4.46Z"/>
        <path class="cls-67" d="M70.42,609.15c-2.18-.02-4.13-3.1-5.8-4.84,1.66-1.23,3.62-3.76,6.09-4.4,2.11-.17,4.6,2.97,5.8,4.91-1.3,1.75-3.82,4.35-6.09,4.33Z"/>
        <path class="cls-52" d="M116.33,601.85l-6.55-5.07,6.33-5.05c2.69,1.11,4.62,2.69,6.36,5.14l-6.14,4.98Z"/>
        <path class="cls-15" d="M98.43,616.8c-2.73-1.09-4.68-2.79-6.51-5.08,1.7-2.18,3.48-3.23,5.76-4.64,2.52,1.35,4.75,3.08,6.6,5.19l-5.84,4.53Z"/>
        <path class="cls-35" d="M44.98,632.07c-2.12.09-4.92-2.65-4.93-4.5,0-1.57,2.94-4.54,4.5-4.47,1.76.08,4.84,2.29,5.49,4.1.6,1.66-2.84,4.77-5.07,4.87Z"/>
        <path class="cls-47" d="M53.14,625.4c-1.38-1.37-4.3-2.95-5.18-5.18-.36-2.27,3.27-4.65,5.15-5.27l5.79,4.67-5.76,5.77Z"/>
        <path class="cls-57" d="M79.65,601.76c-2.67.29-4.89-3.13-6.05-4.5,1.61-1.77,3.57-4.3,5.94-4.35,2.34-.05,4.49,3.09,5.74,4.45-1.5,1.57-3,4.11-5.63,4.4Z"/>
        <path class="cls-63" d="M142.97,607.54c-2.21.59-4.98-2.73-6.6-4.11l5.01-5.39c2.34,1.34,4.38,2.85,6.54,5.17-1.18,1.01-2.35,3.62-4.96,4.32Z"/>
        <path class="cls-34" d="M88.78,609.15c-2.74-.32-4.79-3.23-6.29-4.95l5.76-4.46c2.57,1.34,4.65,2.61,6.34,5.17-1.61,1.44-3.7,3.63-5.8,4.24Z"/>
        <path class="cls-44" d="M125.63,608.03c-1.86.79-4.69-2.21-6.3-3.74,1.46-2.04,3.36-3.86,5.68-5.54,2.33,1.28,4.04,2.53,6.07,4.47-1.45,1.3-2.71,3.65-5.44,4.81Z"/>
        <polygon class="cls-21" points="52.25 594.64 45.71 589.25 51.96 584.1 57.54 589.21 52.25 594.64"/>
        <path class="cls-37" d="M133.96,600.73c-2.37.11-4.77-2.69-6.55-4.27,1.08-1.66,3.33-4.36,5.64-4.35,2.51,0,4.58,2.82,5.87,4.23-1.47,1.47-2.53,3.37-4.96,4.39Z"/>
        <path class="cls-53" d="M98.27,587.23c-2.77-1.33-4.84-3.18-6.82-4.83,2.01-1.83,4.06-3.57,6.22-3.35,2.33.24,4.89,1.72,6.58,3.32l-5.98,4.85Z"/>
        <path class="cls-10" d="M43.64,601.31c-1.72.31-4.17-2.98-5.01-4.5.98-1.64,3.05-4.55,4.94-4.56,2.05,0,4.18,2.85,5.13,4.57-1.07,1.59-2.57,4.04-5.07,4.49Z"/>
        <path class="cls-5" d="M150.37,585.5c-2.11.26-4.42-3.12-5.37-4.36,3.81-3.08,8.81-2.44,13.07-1.65-1.83,2.86-4.39,5.6-7.7,6.01Z"/>
        <path class="cls-59" d="M133.58,586.23c-2.17,1.03-5.57-2.22-6.65-4.55,3-3.48,8.2-2.92,12.19-.59-1.57,1.63-2.78,3.82-5.54,5.13Z"/>
        <path class="cls-38" d="M120.91,582.83c.05,1.53-3.09,4.13-4.6,3.88-2.11-.34-5.64-2.78-5.8-4.88-.15-1.94,3.52-2.98,4.94-2.56,1.6.47,5.31,1.4,5.47,3.56Z"/>
        <path class="cls-69" d="M124.63,593.63c-2.43-.11-4.28-3.15-5.38-4.41,1.11-1.59,3.07-4.04,4.85-3.94,2.36.15,4.75,2.64,5.95,4.42-1.28,1.46-3.26,4.03-5.42,3.92Z"/>
        <path class="cls-66" d="M35.55,595c-1.78-1.46-3.3-3.8-3.58-6.3-.12-1.04,1.93-3.16,3-3.36,2.36.22,4.37,2.39,5.77,4.44-1.35,2.07-2.49,3.18-5.19,5.21Z"/>
        <path class="cls-71" d="M60.73,586.28c-2.56-.13-4.51-2.77-6.03-3.85,1.41-2.32,3.15-3.5,5.25-3.32,1.7.14,5.52,1.27,5.31,3.19-.73,1.46-3.02,3.7-4.53,3.98Z"/>
        <path class="cls-30" d="M44.17,586.32c-1.56.79-5.83-2.21-5.18-3.83.73-1.69,3.27-2.99,4.48-3.35,1.66-.49,4.25.89,5.31,2.75-1.12,1.56-2.37,3.29-4.62,4.44Z"/>
        <path class="cls-39" d="M41.65,604.44c-1.26,2.49-2.83,3.63-4.79,5.14-1.62-3.29-3.01-6.65-1.46-10.71,2.6,1.27,3.91,3.26,6.25,5.57Z"/>
        <path class="cls-12" d="M151.66,614.58c-2.07-.97-3.7-2.19-5.6-4.28l5.05-4.81c.47-.05,1.5.52,2.41,1.02-.16,2.37-.58,4.55-1.86,8.08Z"/>
        <rect class="cls-65" x="21.09" y="567.22" width="147.31" height="9.01" rx="4.5" ry="4.5"/>
        <rect class="cls-56" x="25.6" y="567.22" width="138.3" height="1.38" rx=".69" ry=".69"/>
        <path class="cls-65" d="M61.57,571.73s7-45.82,31.38-45.82,34.17,45.82,34.17,45.82h-12.58s-2.18-37.06-21.59-37.06-19.05,37.06-19.05,37.06h-12.33Z"/>
      </g>
      <path class="cls-25" d="M84.04,518.02c-.41,5.62-.83,11.24-1.24,16.86-.09,1.18.08,2.72,1.23,3,.35.08.72.01,1.08.03,1.26.06,2.19,1.14,3.12,1.99.93.85,2.37,1.55,3.39.8.6-.44.85-1.27,1.52-1.6,1.75-.88,3.57,2.54,5.28,1.59.57-.32.84-1.05,1.43-1.33,1.24-.6,3.05,1.06,3.93,0,.75-2.65,1.15-5.39,1.18-8.14.55.3,1.42-.48,1.64-1.07s.08-1.24-.05-1.85c-.5-2.23-1-4.47-1.49-6.7-.38-1.69-.94-3.62-1.74-5.16-.8-1.53-2.24-2.84-3.96-3.03-.6-.06-1.2,0-1.8.08-1.88.23-3.78.46-5.6.98-2.69.78-5.33,2.43-7.91,3.52Z"/>
      <path class="cls-40" d="M153.14,376.53c2.6-.02,4.24-2.8,2.76-4.93-1.15-1.65-2.6-3.18-4.09-4.51-14.11-12.63-33.89-18.08-53.23-20.62-3.54-.47-7.26-.83-10.62.32s-6.21,4.3-5.67,7.61c.52,3.13,3.8,6.2,2.13,8.95-.55.9-1.53,1.48-2.4,2.13-4.66,3.44-6.64,9.33-6.52,14.89.1,4.68,1.49,9.22,3.07,13.67.52,1.47,2.04,2.33,3.56,2.04,8.6-1.62,16.96-4.32,24.8-8.01,9.76-4.59,21.65-8.18,32.43-9.83,2.06-.32,4.13-.56,6.19-.81,2.44-.3,4.89-.59,7.33-.89.08,0,.16-.01.24-.01Z"/>
      <path class="cls-40" d="M145.44,374.2c6.03,21.74,5.31,44.57,2.61,66.76-.76,6.27-1.7,12.52-2.7,18.76-.21,1.33.34,2.68,1.74,3.06,1.19.33,2.85-.4,3.06-1.74,3.64-22.71,6.58-45.94,3.82-68.92-.78-6.5-1.98-12.94-3.73-19.25-.85-3.08-5.66-1.77-4.8,1.32h0Z"/>
      <path class="cls-31" d="M75.49,419.09c-.74-10.56,15.98-32.43,23.84-39.53s20.24-9.33,29.46-4.11c8,4.53,12.51,13.72,13.51,22.86,1,9.14-1.03,18.32-3.42,27.19-2.92,10.81-6.55,21.75-13.59,30.45-7.55,9.33-18.88,15.51-30.82,16.8.03-3.63-.19-8.15-.15-11.78,14.41-2.43,27.49-11.78,34.45-24.63,6.97-12.84,7.67-28.91,1.85-42.31-1.87-4.3-4.71-8.62-9.14-10.15-6.83-2.36-13.98,2.88-18.2,8.75-4.22,5.87-21.76,22.47-27.79,26.45Z"/>
      <path class="cls-40" d="M104.18,385.92c2.63-3.21,5.54-6.51,9.49-7.74,5.77-1.8,12.31,1.67,15.24,6.97s2.72,11.87.83,17.61c-1.89,5.74-5.32,10.84-8.71,15.84-6.51,9.6-13.08,19.17-18.92,29.2-2.18,3.74-4.28,7.59-5.43,11.76-1.8,6.53-1.18,13.46-.29,20.17,1.68,12.72,4.25,25.33,7.7,37.69-5.92,1.37-11.83,2.74-17.75,4.11-.93.21-1.96.42-2.79-.06-.72-.42-1.08-1.25-1.39-2.02-4.13-10.24-8.06-20.56-11.78-30.95-2.25-6.29-3.09-12.39-4.04-18.9-1.04-7.13-3.89-14.39-1.8-21.62,2.01-6.97,6.99-13.21,10.79-19.26,9.13-14.58,17.93-29.45,28.86-42.79Z"/>
      <ellipse class="cls-11" cx="162.18" cy="325.99" rx="1.64" ry="2.58"/>
      <path class="cls-11" d="M157.53,321.84c.27-.48.58-.94.91-1.39.04-.05.07-.1.11-.14.03-.04.16-.2.02-.02-.15.19,0,0,.04-.05.05-.06.09-.12.14-.17.17-.21.35-.41.54-.61.2-.21.4-.42.62-.61.1-.09.21-.18.32-.27.18-.15-.13.09-.06.05s.13-.09.19-.14c.25-.18.52-.32.8-.46.13-.07-.28.11-.14.06.03-.01.07-.03.1-.04.07-.03.14-.05.21-.07.13-.04.66-.12.17-.06.34-.04.63-.11.88-.36.22-.22.38-.57.36-.88-.03-.6-.55-1.33-1.24-1.24-.75.1-1.43.31-2.07.7-.58.35-1.12.79-1.6,1.27-.79.79-1.48,1.69-2.09,2.63-.12.18-.23.37-.34.56-.32.57-.16,1.38.45,1.7s1.36.16,1.7-.45h0Z"/>
      <path class="cls-23" d="M219.16,361.65c-3.06-.56-6.09.74-8.25,3.19,4.72.56,9.44,1.05,14.16,1.26-1.29-2.31-3.36-3.98-5.9-4.45Z"/>
      <path class="cls-28" d="M210.91,364.84c-1.41,1.6-2.47,3.68-2.9,6.07-1.11,6.04,2.08,11.7,7.13,12.63,5.05.93,10.05-3.22,11.16-9.26.55-3,.04-5.9-1.23-8.17-4.72-.21-9.44-.7-14.16-1.26Z"/>
      <line class="cls-4" x1="217.15" y1="364.84" x2="215.14" y2="383.54"/>
      <ellipse class="cls-23" cx="216.9" cy="366.51" rx="2.3" ry="1.66"/>
      <circle class="cls-23" cx="225.07" cy="370.7" r="1"/>
      <circle class="cls-23" cx="220.78" cy="380.13" r="1"/>
      <circle class="cls-23" cx="220.78" cy="374.1" r="1.54"/>
      <circle class="cls-23" cx="210.29" cy="369.04" r="1"/>
      <circle class="cls-23" cx="211.3" cy="379.12" r="1"/>
      <circle class="cls-23" cx="211.95" cy="373.83" r="1.54"/>
      <polyline class="cls-2" points="216.14 360.41 217.15 363.19 220.78 360.41"/>
    </g>
  </g>
</svg>