<?xml version="1.0" encoding="UTF-8"?>
<svg id="Layer_2" data-name="Layer 2" xmlns="http://www.w3.org/2000/svg" xmlns:xlink="http://www.w3.org/1999/xlink" viewBox="0 0 3047.88 4639.88">
  <defs>
    <style>
      .cls-1 {
        fill: #1d4040;
      }

      .cls-2 {
        fill: #1b3f3b;
      }

      .cls-3 {
        fill: #192e35;
      }

      .cls-4 {
        fill: #518249;
      }

      .cls-5 {
        fill: #234d44;
      }

      .cls-6 {
        fill: #224d46;
      }

      .cls-7 {
        fill: #e5a033;
      }

      .cls-8 {
        fill: #406545;
      }

      .cls-9 {
        fill: url(#linear-gradient);
      }

      .cls-10 {
        fill: #47744e;
      }

      .cls-11 {
        fill: #416447;
      }

      .cls-12 {
        fill: #426646;
      }

      .cls-13 {
        fill: #2b5742;
      }

      .cls-14 {
        stroke-width: 3.26px;
      }

      .cls-14, .cls-15 {
        stroke: #192119;
      }

      .cls-14, .cls-15, .cls-16 {
        stroke-linecap: round;
        stroke-linejoin: round;
      }

      .cls-14, .cls-15, .cls-16, .cls-17, .cls-18 {
        fill: none;
      }

      .cls-15 {
        stroke-width: 2.51px;
      }

      .cls-19 {
        fill: #245145;
      }

      .cls-20 {
        fill: #8ea553;
      }

      .cls-21 {
        fill: #8da552;
      }

      .cls-16 {
        stroke: #1a3b3a;
        stroke-width: 4.52px;
      }

      .cls-22 {
        fill: #8da651;
      }

      .cls-17 {
        stroke: #518856;
        stroke-width: 4px;
      }

      .cls-17, .cls-18 {
        stroke-miterlimit: 10;
      }

      .cls-23 {
        fill: #2b5843;
      }

      .cls-24 {
        fill: #182d34;
      }

      .cls-25 {
        fill: #8da551;
      }

      .cls-26 {
        fill: #43674a;
      }

      .cls-27 {
        fill: #30563d;
      }

      .cls-18 {
        stroke: #5d7c47;
        stroke-width: 5.24px;
      }

      .cls-28 {
        fill: #274d43;
      }

      .cls-29 {
        fill: #f27153;
      }

      .cls-30 {
        fill: #1a3b3a;
      }

      .cls-31 {
        fill: #1b3e3b;
      }

      .cls-32 {
        fill: #6e8748;
      }

      .cls-33 {
        fill: #396247;
      }

      .cls-34 {
        fill: #638148;
      }

      .cls-35 {
        fill: #16423e;
      }

      .cls-36 {
        fill: #538352;
      }

      .cls-37 {
        fill: #265247;
      }

      .cls-38 {
        fill: #518856;
      }

      .cls-39 {
        fill: #94aa57;
      }

      .cls-40 {
        fill: #5d7c47;
      }
    </style>
    <linearGradient id="linear-gradient" x1="1568.13" y1="3337.28" x2="1568.13" y2="4542.34" gradientUnits="userSpaceOnUse">
      <stop offset=".19" stop-color="#1a3b3a"/>
      <stop offset=".99" stop-color="#1a3b3a" stop-opacity="0"/>
    </linearGradient>
  </defs>
  <g id="_前景植物" data-name="前景植物">
    <g>
      <rect class="cls-9" x="329.6" y="3206" width="2477.07" height="1433.89"/>
      <g>
        <circle class="cls-35" cx="1216.26" cy="671" r="162.1"/>
        <circle class="cls-35" cx="1619.66" cy="614.61" r="162.1"/>
        <circle class="cls-35" cx="1412.22" cy="614.61" r="136.38"/>
        <circle class="cls-35" cx="1953.33" cy="628.13" r="136.38"/>
        <circle class="cls-35" cx="1810.86" cy="588.88" r="136.38"/>
      </g>
      <circle class="cls-28" cx="1953.33" cy="537.81" r="236.75"/>
      <circle class="cls-28" cx="961.4" cy="671" r="236.75"/>
      <circle class="cls-28" cx="1119.67" cy="582.49" r="192.07"/>
      <circle class="cls-28" cx="2125.57" cy="740.29" r="125.34"/>
      <g>
        <path class="cls-27" d="M1334.92,3159.48l3.23,6.87-.03,4.76c-.87.9-2.12.82-3.67-.04l-26.12-25.87c-8.09-8.01-17.95-15.68-35.9-20.6,9.55,22.7,27.1,41.85,44.77,63.19l-33.09-16.95c-12.81-6.56-30.47-11.16-50.08-12.22,7.18,10.1,18.61,17.07,29.28,24.83l29.39,21.36c7.28,5.29,26.54,10.16,40.68,12.21,28.95,4.19,64.42,4.09,92.33.33,12.23-2.21,6.02-12.89,7.93-16.35,13.31-2.81,23.16-6.24,26-13.12,15.22-.15,19.41-12.58,16.6-18.58,3.89-4.35,8.19-8.76,7.75-14.58-18.49,4.51-29.44,10.55-44.15,17.04-2.68-12.35,2.21-22.97,9.55-33.9l16.07-23.93c-36.58,12.18-54.07,30.02-62.08,49.06-7.77.64-6.35-8.15-3.85-11.62l6.11-52.44c-20.8,19.35-22.82,38.71-32.71,60.04-19.24-26.15-36.87-52.07-65.27-78.07-2.95,7.64,6.36,14.13,8.8,21.66l18.46,56.91Z"/>
        <path class="cls-10" d="M1476.24,3169.32l-16.6,18.58c5.55,10.36-6.67,22.1,16.59,22.15l79.95.17c8.06.02,15.98-.82,21.63-4.13-5.06-1.25-17.87-2.72-19.9-6.23-5.56-9.63.88-19.77,8.98-28.69l14.6-16.08c-8.74,1.43-15.93,3.52-20.32,6.86l-33.97,25.85c2.08-14.06,17.01-25.24,31.54-36.42-32.55,5.01-48.06,16.73-61.07,29.83-9.43-3.28-19.85-6.94-21.43-11.89Z"/>
      </g>
      <g>
        <path class="cls-32" d="M1580.75,3124.85c10.17,6.47,14.07,22.91,16.92,34.9,3.08,12.98,3.7,25.24,3.43,38.56,1.51.09,2.69.24,2.75.58.74,4.38.74,14.89.71,19.88,0,.46-.38.93-.86,1.39h-22.21s-4.04-1.13-4.04-1.13c-1.43-14.62-4.55-28.75-9.35-42.4l2.28-4.59c2.43-4.07.53-8.91-.69-14.01-8.12-33.95-17.5-65.86-32.05-97.96,18.83,19.14,32.06,41.5,43.12,64.77Z"/>
        <path class="cls-19" d="M1629.51,3134.3l2.89,3.6c-8.85,20.56-16.28,41.7-22.29,63.42.45,7.81-1.01,14.1-4.38,18.89l-2.03-.04-2.6-21.85c-1.03-17.58-1.03-35.2,0-52.87l4.13-2.63c4.48-29.73,12.54-59.07,26.52-86.56,6.34-12.47,12.69-24.02,24.31-32.88l-13.35,43.88-13.2,67.05Z"/>
        <path class="cls-34" d="M1644.23,3158.78l-.32,6.16c-13.02,14.88-20.25,33.53-26.91,51.9l-5.39,3.12-5.89.24c-1.83-14.53,1.6-28.88,7.12-43.07l16.67-42.84c14.02-19.63,31.12-38.65,56.65-44.6-19.5,21.21-35.15,42.69-41.93,69.07Z"/>
        <path class="cls-33" d="M1605.23,3142.82l-1.67,33.13-2.46,22.37c-3.23-25.11-9.42-50.47-20.34-73.47-1.14-27.13-4.9-53.44-10.39-80.85,21.47,27.26,26.96,66.05,34.86,98.82Z"/>
        <path class="cls-5" d="M1634.14,3218.48l-14.47,1.5h-8.06c7.86-21.66,16.09-44.7,32.62-61.2,9.63-9.61,23.35-16.17,37.62-19.49-4.79,9.62-12.51,14.79-18.62,22.34-22.96,28.37-19.07,52.22-29.09,56.86Z"/>
        <path class="cls-37" d="M1570.37,3172.04c3.04,6.4,5.63,12.73,6.85,20.49l4.26,27.64c-5.1,0-16.39-.3-17.94-8.08-6.46-32.49-23.36-59.47-50.8-80.14,25.57,4.57,46.18,19.69,57.62,40.1Z"/>
        <path class="cls-34" d="M1634.14,3218.48c-4.6,2.13-9.41,1.51-14.47,1.5,3.77-3.27,9.57-2.11,14.47-1.5Z"/>
      </g>
      <g>
        <polygon class="cls-24" points="467.19 835.06 524.23 2884 294.94 2928.63 334.82 821.61 467.19 835.06"/>
        <path class="cls-13" d="M571.95,1007.93c41.93,6.88,86.63-5.47,119.08-32.9,28.01,29.64,78.48,30.87,112.1,7.78,33.61-23.09,50.62-65.57,49.69-106.34-.17-7.5-.79-15.44,2.73-22.07,3.93-7.39,12.01-11.35,19.03-15.91,28.49-18.53,43.8-52.65,47.61-86.42,3.81-33.77-2.36-67.79-8.49-101.22-165.06,4.12-330.28,8.24-495.24,1.15-10.85-.47-22.45-.8-31.71,4.88-32.41,19.89-29.52,103.25-33.01,136.26-3.94,37.3-7.72,75.92-3.5,113.37,8.05,71.46,71.77,104.74,119.45,33.7,25.83,34.24,58.65,60.55,102.26,67.71Z"/>
        <path class="cls-24" d="M548.1,827.24s12.77,222.19,7.01,267.14,46.07-53.42,46.07-53.42l-19.34-219.35-33.74,5.63Z"/>
        <path class="cls-24" d="M706.17,839.08s-58.91,148.47-104.99,201.89c-46.07,53.42-159.17,251.48-174.29,293.07-15.12,41.59-22.24,342.56-22.24,342.56l52.9,215.55s-7.9-540.75,90.55-681.9c98.45-141.15,206.85-311.63,201.4-377.42l-43.33,6.25Z"/>
      </g>
      <g>
        <path class="cls-23" d="M3033.79,503.15l-172.59-405.83L1948.23,0s-83.73,440.96,168.55,539.48c-.59,4.35-.81,8.75-.63,13.15,1.17,27.65,18.27,54.06,43.01,66.45-32.27,15.5-54.21,50.42-54.18,86.21.03,35.79,22.04,70.67,54.34,86.11-2.09,36.01,17.17,72.46,48.09,91.02,30.93,18.56,72.15,18.41,102.94-.37,17.48,15.67,47.18,15,63.94-1.43,68.29,22.31,146.79,10.64,205.64-30.57.97,5.93,7.58,8.88,13.28,10.8,16.11,5.44,33.01,10.95,49.8,8.22,22.96-3.73,41.16-22.67,50.25-44.09s167.02,22.11,167.93-1.14c3.05-77.68,52.31-139.95,45.32-217.38,203.83-14,127.27-103.33,127.27-103.33Z"/>
        <polygon class="cls-3" points="2613.47 2790.74 2459.24 2801.76 2479.05 789.36 2613.47 789.36 2613.47 2790.74"/>
        <g>
          <path class="cls-3" d="M2212.24,746.97s30.14,205.4,102.79,394.52c72.65,189.12,172.24,350.51,172.24,350.51l17.95-160.36s-93.47-120.56-159.76-246.83c-66.29-126.26-97.18-337.84-97.18-337.84h-36.04Z"/>
          <path class="cls-3" d="M2389.69,780.93s-3.35,166.02-66.31,241.87l-14.55,27.64,17.87,31.79s63.89-88.72,78.85-185.99c14.96-97.28,20.62-119.65,20.62-119.65l-36.49,4.34Z"/>
        </g>
      </g>
      <path class="cls-13" d="M1203.32,5.39s189.26,605.03-201.54,694.8c-390.8,89.78-429.55,115.72-429.55,115.72,0,0-86.61,281.75-375.8,236.46C-92.77,1007.09,22.81,289.31,22.81,289.31L1203.32,5.39Z"/>
      <path class="cls-36" d="M1723.91,3283.26h-81.31c-8.51-.03-15.7-8-17.96-13.32-3.58-8.47-.95-18.58,7.97-25.21-16.25-7.59-23.88-24.3-20.87-41.21,3.21-18.05,18.19-29.54,39.63-28.36-6.21-17.21-4.06-33.69,5.48-48.31,16.37-25.08,48.68-31.21,73.66-11.72,5.64-23.69,26.69-38,49.76-37.35,24.3.69,44.3,18.75,46.62,45.99,19.5-12.59,41.43-10.69,58.56,3.72,16.49,13.88,21.05,37.77,11.96,57.69,18.44-.42,31.36,8.48,36,22.88,4.63,14.38-.81,29.71-16.71,38.9,8,5.69,12.15,13.88,9.5,21.95-2.8,8.53-9.82,14.89-18.63,15.09l-72.16.39"/>
      <path class="cls-28" d="M1080.07,3283.26h-91.34c-9.56-.03-17.64-8-20.17-13.32-4.02-8.47-1.07-18.58,8.95-25.21-18.25-7.59-26.82-24.3-23.45-41.21,3.6-18.05,20.43-29.54,44.52-28.36-6.98-17.21-4.56-33.69,6.16-48.31,18.38-25.08,54.68-31.21,82.74-11.72,6.33-23.69,29.99-38,55.9-37.35,27.3.69,49.76,18.75,52.37,45.99,21.91-12.59,46.54-10.69,65.78,3.72,18.52,13.88,23.64,37.77,13.44,57.69,20.71-.42,35.23,8.48,40.44,22.88,5.2,14.38-.91,29.71-18.77,38.9,8.98,5.69,13.65,13.88,10.67,21.95-3.15,8.53-11.03,14.89-20.93,15.09l-81.05.39"/>
      <g>
        <g>
          <path class="cls-40" d="M1933.74,3185.71s-31.9-12.29-38.18-33.53c-6.28-21.24,25.62-8.95,38.18,33.53Z"/>
          <path class="cls-40" d="M1933.74,3185.71s7.03-29.23,35.81-38.37c28.78-9.13,1.07,38.56-35.81,38.37Z"/>
          <path class="cls-40" d="M1928.97,3149.99s-29.03-3.95-38.15-23.48c-9.12-19.53,23.01-5.84,38.15,23.48Z"/>
          <path class="cls-40" d="M1932.17,3152.38s9.77-35.27,33.17-38.31c23.41-3.04-1.92,30.83-33.17,38.31Z"/>
          <path class="cls-40" d="M1926.18,3119.68s-34.61-4.62-46.18-27.27c-11.57-22.65,22.97-13.62,46.18,27.27Z"/>
          <path class="cls-40" d="M1924.97,3111.29s8.98-31.61,34.2-38.15c25.22-6.54.51,35.42-34.2,38.15Z"/>
          <path class="cls-40" d="M1918.88,3085.93s7.47-48.67,27.49-51.61c20.03-2.94,6.33,39.91-27.49,51.61Z"/>
          <path class="cls-40" d="M1914.2,3074.25s-34.51-1.24-40.74-17.78c-6.22-16.55,32.6,1.35,40.74,17.78Z"/>
          <path class="cls-40" d="M1906.25,3044.6s-31.15.14-39.29-16.29c-8.14-16.43,27.65-1.95,39.29,16.29Z"/>
          <path class="cls-40" d="M1912.5,3059.68s-16.4-54.75,7.28-66.16c23.67-11.41,1.21,48.36-7.28,66.16Z"/>
          <path class="cls-40" d="M1902.06,3029.85s-36.75-19.05-47.67-45.8,54.73,5.06,47.67,45.8Z"/>
        </g>
        <path class="cls-18" d="M1897.49,3014.19s61.67,161.66,23.36,243.68"/>
      </g>
      <path class="cls-30" d="M2663.98,2745.6s-386.69-41.93-409.31,223.21c0,0-104.38,1.8-97.27,105.83,0,0-142.5-14.53-144.17,96.89,0,0-100.3-40.64-139.16,42.09,0,0-86.67-20.91-141.98,54.84-55.31,75.75,862.12,4.8,862.12,4.8l-1.04-376,29.95-6.33,40.86-145.33Z"/>
      <path class="cls-30" d="M1143.61,3370.06c-16.18-143.67-164.5-149.9-164.5-149.9,59.07-106.08-108.79-119.35-108.79-119.35,53.09-90-79.31-117.09-79.31-117.09-58.51-203.81-307.71-143.6-307.71-143.6-12.27-70.97-163.42-122.89-163.42-122.89v652.83h823.72Z"/>
      <g>
        <path class="cls-38" d="M430.05,3346.54c9.88-66.88,68.71-143.57,129.25-131.27,60.54,12.3,91.43,12.04,134.35-41.96,42.93-54,71.96-17.29,129.41-44.05,57.45-26.76,137.01-105.09,182.32-59.34,45.31,45.75-19.69,133.15-91.19,181.17-71.5,48.02-68.04,136.68-127.98,153.76-59.94,17.08-78.43-22.34-120.62-11.63-42.18,10.71-39.4,52.97-96.69,60.37-57.29,7.4-138.85-107.05-138.85-107.05Z"/>
        <path class="cls-16" d="M1005.38,3069.93c-327.48,306.97-575.33,276.61-575.33,276.61"/>
        <path class="cls-16" d="M961.4,3212.5c-89.21,29.7-194.22,35.96-194.22,35.96,0,0,63-76.39,99.97-144.76"/>
        <path class="cls-16" d="M709.59,3156.69c-62.81,106.59-108.84,164.87-108.84,164.87,0,0,102.5,54.55,201.81,76.04"/>
      </g>
      <g>
        <path class="cls-12" d="M582.09,2891.16c1.24,3.28,2.32,8.66.31,9.52-24.32,10.37-199.37,78.06-210.43,76.33l-10.17-6.75-13.8-18.24c8.92-12.32,22.75-21,41.49-26.04,125.66-77.41,249.42-159.58,371.28-246.49l21.52-8.82c-21.68,47.28-46.95,98.41-91.05,131.78l-96.46,72.98c-5.64,4.27-13.03,6.89-12.68,15.72Z"/>
        <path class="cls-1" d="M524.52,2561.47c-7.3,27.11-17.71,52.84-33.57,76.55-38.55,70.52-80.74,146.19-123.05,214.24-12.16,19.55-27.93,40.55-42.96,56.7-6.65-3.97-4.93-11.48-4.63-19.09,2.25-56.72,19.54-106.74,44.14-157.59,26.6-55,56.12-105.74,100.62-148.83,29.6-35.29,55.49-70.04,93.23-102.27-6.73,29.78-19.47,55.58-33.78,80.29Z"/>
        <path class="cls-2" d="M748.8,2520.87c-36.74,59.13-82.12,111.72-136.12,157.76-88.96,83.97-179.1,165.79-270.42,245.45-6.1,2.99-11.09-.55-13.14-6.42.29-1.43-1.12-5.7-.14-6.83,39.97-61,86.05-118.74,138.26-173.2l7.62,1.74,41.49-42.88c70.47-70.49,152.89-129.23,237.09-188.63,4.02,7.22-3.29,9.96-4.63,13.01Z"/>
        <path class="cls-11" d="M588.02,2758.42l-13.35,20.45-217.41,153.58c-8.75,6.38-15.46,7.83-20.85-2.6-2.18-3-8.32-7.21-7.3-12.18.96,1.51,3.62,3.56,5.35,3.62,1.99.07,5.28-1.44,8.11-4.11l112.47-105.89,130.73-119.97c59.29-54.41,113.77-109.75,163.03-170.44-36.36,82.66-86.03,156.06-152.35,221.17-5.03,4.94-9.86,11.81-8.44,16.38Z"/>
        <path class="cls-31" d="M782.28,2670.67c-113.22,86.81-230.71,163.78-350.32,241.44-27.69,17.98-54.45,30.84-83.97,39.9l-11.23-9.96c-2.79-2.48-.18-8.75-.35-12.21,5.09.48,10.6-1.24,15.98-4.97l123.56-85.79c39.19-27.21,74.62-54.67,112.08-80.66,48.94-33.95,101.38-64.49,159.19-85.29,11.46-4.12,21.99-7.23,35.06-2.45Z"/>
        <path class="cls-8" d="M371.5,2984.94c96.41-33.89,144.62-50.84,144.62-50.84,74.88-21.53,149.44-39.98,223.65-55.34,6.78.58,13.21-4.32,20.77,2.99l-84.46,52.58c-58.7,28.75-120.68,45.23-183.16,63.34l-84.87,24.6c-15.54-10.2-27.36-23.43-36.55-37.33Z"/>
        <polygon class="cls-26" points="516.34 2696.49 464.33 2754.34 328.97 2910.83 324.94 2908.95 524.52 2561.47 518.01 2616.95 472.53 2738.56 516.34 2696.49"/>
        <path class="cls-2" d="M739.78,2878.76c1.43,6.48-2.75,6.8-6.31,7.72l-172.68,44.7c-60.47,15.65-117.35,34.09-174.2,60.37-4.62,2.14-13.03-5.16-15.08-6.62l-9.71-14.68,29.2-7.33,191.09-71.77c49.02-18.41,105.76-16.83,157.69-12.4Z"/>
      </g>
      <g>
        <path class="cls-14" d="M2317.87,3274.19s-70.35-227.79-155.54-327.43"/>
        <path class="cls-29" d="M2127.24,2907.93c13.44-10.49,43.08,33.25,35.09,38.82-17.47,12.18-43.64-32.14-35.09-38.82Z"/>
        <path class="cls-29" d="M2178.9,2926.01c10.49-4.16,29.1,31.74,18.61,35.89-10.49,4.16-29.1-31.73-18.61-35.89Z"/>
        <path class="cls-29" d="M2245.16,3053.43c10.49-4.16,24.09,25.57,13.6,29.73-10.49,4.16-24.09-25.57-13.6-29.73Z"/>
        <path class="cls-29" d="M2153.41,2965.64c5.75-6.44,38.54,21.51,27.64,29.53-10.91,8.02-34.93-21.36-27.64-29.53Z"/>
        <path class="cls-29" d="M2158.21,3002.36c9.3-3.39,15.67,27.51,7.63,27.31-8.04-.21-14.87-24.67-7.63-27.31Z"/>
        <path class="cls-29" d="M2200.27,2982.21c9.89-5.32,30.59,43.89,18.72,47.26-11.87,3.38-34.72-38.66-18.72-47.26Z"/>
        <path class="cls-29" d="M2189.58,3027.89c13.53-9.67,42.49,33.56,29.39,39.35-13.1,5.79-40.64-31.32-29.39-39.35Z"/>
        <path class="cls-29" d="M2243.81,3010.62c18.77-2.54,18.31,27.61,7.21,27.39-11.1-.22-18.01-25.93-7.21-27.39Z"/>
      </g>
      <g>
        <path class="cls-17" d="M2512.27,2810.25c88.15,60.68,111.15,141.24,111.15,141.24"/>
        <path class="cls-39" d="M2512.27,2810.25c32.83-42.91,56.4-158.39,31.64-197.45-24.77-39.06-65.68-22.9-65.68-22.9-27.93-7.67-44.21,5.01-55.4,26.61-35.24-4.51-76.96,19.92-79.14,70.14-18.11,9.94-24.34,32.57-21.77,64.59-16.24,27.29-16,52.24,6.07,74.1,1.91,24.66,15.16,41.14,47.62,43.73,15.66,29.9,51.8,25.88,136.66-58.83Z"/>
        <path class="cls-17" d="M2478.23,2589.9c46.39,87.87,34.04,220.35,34.04,220.35,0,0-35.48-143.84-89.44-193.74"/>
        <path class="cls-17" d="M2343.7,2686.65c99.43,61.13,168.57,123.6,168.57,123.6,0,0-117.32-8.12-190.35-59"/>
        <path class="cls-17" d="M2375.61,2869.08c66.26-9.67,136.66-58.83,136.66-58.83,0,0-92.44,39.08-184.28,15.09"/>
      </g>
      <path class="cls-6" d="M2236.69,3290.44c-29.32-1.57-55.8,12.9-72.54,35.13l-5.73-21.6c25.51-6.83,48.49-21.19,66.13-41.16,3.98-4.5,6.97-9.45,7.55-15.42-31.35,5.56-59.78,21.18-75.52,47.13l-5.26-25.6c29.41-7.82,61.06-26.75,74.62-56.96-30.83,6-59.65,20-76.6,45.28l-4.18-21.88c29.87-7.97,56.97-25.09,73.88-53.06-20.82,2.97-39.93,10.22-56.56,21.95l-18.9,18.78c-1.08-8.03-2.61-14.75-1.94-21.67,27.11-5.81,52.22-18.31,68.69-42.29-24.4-.08-56,12.08-68.78,31.89-2.62-7.06-2.7-12.71-2.36-19.87,25.33-6.61,53.17-18.14,62.75-43.2-24.95,4.69-50.21,14.87-63.95,34.25l-.64-19.4c23.9-6.13,46.4-18.6,58.1-42-22.05,2.08-45.37,15.61-57.66,31.53-2.03-7.06-1.81-13.14-.31-18.98,21.02-6.34,41.04-16.41,51.59-38.33-19.87,1.71-38.68,10.88-51.27,26.63-2.04-6.68-1.56-12.53.34-18.34,19.79-4.82,37.78-15.67,45.6-35.47-18.87,2.96-33.88,10.86-45.9,23.56l-.11-12.27c6.36-2.21,13.04-6.43,18.54-10.17,9.06-6.16,16.7-14.64,18.64-28.14-10.93,1.57-20.26,7.77-26.51,15.74-1.58,2.01-4.54,4.52-8.18,5.89,10.43-22.09,13.66-45.28,3.01-67.87-13.96,21.15-14.56,43.59-10.52,65.59-7.35-9.77-15.54-19.34-28.91-24.89.72,17.13,11.19,33.14,25.92,40.9,1.59.84,3.23,2.69,5.06,2.83-.58,4.24-.41,8.37-1.84,11.89-11.06-14.92-26.14-24.62-43.38-29.37,5.44,21.77,21.95,34.71,41.78,41.22,1.75,5.48,1.41,10.72-.08,18.19-12.56-15.03-30.05-26.13-51.46-31.51,8.63,25.03,27.39,35.84,51.47,44.89.78,6.66.76,12.11-.46,17.05-14.95-17.04-35.97-26.51-57.68-29.63,11.69,24.39,34.49,35.01,57.87,41.33.67,5.97.98,11.14,0,17.41-16.16-17.77-39.67-25.89-64.28-31.18,9.17,18.74,25.09,31.1,44.06,36.43l20.76,5.83c1.33,6.71,1.62,12.12,1.13,19.42-18.55-17.64-43.36-26.19-70.14-25.28,16.84,22.91,42.91,34.77,70.85,36.93,1.5,6.54,2.02,12.82,1.65,20.56-21.18-18.77-48.74-26.23-78.04-27.06,15.71,24.2,51.44,39.12,79.9,37.93l2.04,23.21c-24.66-17.25-53.31-25.39-83.66-21.38,18.08,24.87,56.67,35.42,86.82,34.13l4.25,24.86c-22.96-15.27-57.14-19.07-85.83-12.91,24.14,21.76,56.15,31.07,88.04,24.36,2.22,6.29,3.54,11.99,4.08,19.55-24.19-9.68-50.34-12.62-75.52-2.27,21.63,19.21,52.52,23.71,79.23,13.32l19.31,61.9c1.23,1.65,7.27.09,8.72-2.08-6.88-20.08-13.62-39.04-18.13-61.09,28.52-4.62,54.44-19.88,70.42-45.17Z"/>
      <g>
        <path class="cls-20" d="M2563.74,3035.65c-1.13,3.06-1.79,7.04.08,11.08,8.76,18.92,9.63,38.06,5.48,57.7-5.55,26.24-8.2,48.65-31.04,43.02-16.51-4.07-31.95-10.86-47.01-17.95l-14.18-13.31c-8.41-.1-15.48-10.35-6.32-14.32,0,0-1.23-1.68-3.68-5.05l83.35-70.99,3.27,1.22c2,4.17,4.68,9.57,10.04,8.6Z"/>
        <path class="cls-25" d="M2550.96,3021.36l.67,3.45-85.06,71.81c-2.76-5.32-6.57-8.8-11.45-10.42-7.53,2.01-11.27.41-11.21-4.77.29,4.19-3.22,5.28-7.37,5.97l-102.82-72.56c28.26-52.83,97.66-76.8,153.38-50.68,27.4,12.85,47.57,34.23,63.86,57.2Z"/>
        <path class="cls-21" d="M2476.92,3131.92c.75.67,1.65,1.38,2.68,1.79l10.65,45.99c4.48,18.32-4.37,34.05-24.08,39.5-29.8,8.24-55.55-4.86-80.71-16.88-26.17-18.42-48.6-39.76-56.66-71.43,40.42-7.07,80.62-16.22,120.61-27.45,5.62,4.91,6.85,9.91-.43,12.32,5.17-.54,7.75-.81,7.75-.81,9.99-17.02,17.67,5.34,20.19,16.97Z"/>
        <path class="cls-4" d="M2550.96,3021.36l2.73,5.7-84.33,70.82,82.26,4.45c-27.39,7.57-53.84,2.77-81.87,3.45,1.77,4.69,4.69,7.93,7.32,10.41-1.28.21-2.63-.19-4.83.73,3.41,5,5.59,9.9,4.68,15.01-3.37-7.36-5.61-17.11-14.4-19.63l-14.38,70.79,6.02-66.63c-30.65,25.62-53.8,52.89-86.24,71.79,12.62-20.1,30.49-31.68,46.63-46.37l37.05-33.74-113.13,24.4c-3.96.85-7.21,1.19-9.67-1.63l1-5.57,85.02-22.09-74.69-15.72c-17.39-3.23-22.69-9.24-15.92-18.04,30.4,5.28,60.41,9.83,90.03,13.65l-81.24-62.36.72-5.93,107.54,69.59-71.03-107.31,40.63,51.82,40.51,56.25-21.16-130.03,27.36,124.09c.3,1.37,1.28,3.63,1.76,4.3,1.14,1.58,1.52.05,2.17-.39,1.36-.93.37-3.19.57-4.23l20.04-101.02c3.28,13.9-2.22,26.14-4.15,39.19l-11.33,76.84,84.32-72.57Z"/>
        <path class="cls-22" d="M2328.8,3130.89c-14.1-36.31-12.95-79.95,4.92-116.06l101.12,77.62-113.16-18.18c11.83,7.81,23.91,9.08,35.93,11.61l79.81,16.79-108.61,28.22Z"/>
      </g>
      <g>
        <path class="cls-15" d="M372.43,3297.65s86.73-161.69,165.77-224.4"/>
        <path class="cls-7" d="M570.43,3049.1c-8.6-9.91-30.52,12.15-24.83,17.04,5.68,4.89,30.31-10.73,24.83-17.04Z"/>
        <path class="cls-7" d="M528.74,3055.14c-7.31-4.69-26.66,19.68-19.35,24.37,7.31,4.69,26.66-19.68,19.35-24.37Z"/>
        <path class="cls-7" d="M542.15,3088.83c-3.39-5.71-32.28,10.56-25.23,18.23,7.05,7.67,29.53-10.98,25.23-18.23Z"/>
        <path class="cls-7" d="M486.63,3070.12c-6.53-3.93-15.9,18.47-9.79,19.5,6.1,1.03,14.87-16.44,9.79-19.5Z"/>
        <path class="cls-7" d="M493.2,3095.54c-6.68-5.48-29.58,28.64-21.11,32.94,8.47,4.3,31.92-24.08,21.11-32.94Z"/>
        <path class="cls-7" d="M505.65,3130.52c-8.8-9.3-37.05,19.09-28,25.39,9.04,6.3,35.32-17.66,28-25.39Z"/>
        <path class="cls-7" d="M454.63,3133.14c-13.8-4.68-17.9,18.16-9.49,19.63,8.42,1.47,17.43-16.93,9.49-19.63Z"/>
      </g>
    </g>
  </g>
</svg>