<?xml version="1.0" encoding="UTF-8"?>
<svg id="Layer_2" data-name="Layer 2" xmlns="http://www.w3.org/2000/svg" viewBox="0 0 243.79 305.55">
  <defs>
    <style>
      .cls-1 {
        fill: none;
      }

      .cls-2 {
        fill: #f0b096;
      }

      .cls-3 {
        fill: #e0806c;
      }

      .cls-4 {
        fill: #391a1c;
      }

      .cls-5 {
        fill: #c2b4a3;
      }

      .cls-6 {
        fill: #e29e86;
      }

      .cls-7 {
        fill: #ec9d7f;
      }

      .cls-8 {
        fill: #60201d;
      }

      .cls-9 {
        fill: #eda28a;
      }

      .cls-10 {
        fill: #f5c3ac;
      }

      .cls-11 {
        fill: #d58535;
      }

      .cls-12 {
        fill: #ce7061;
      }

      .cls-13 {
        fill: #d88870;
      }

      .cls-14 {
        fill: #c7b6a5;
      }
    </style>
  </defs>
  <g id="_人物" data-name="人物">
    <g>
      <path class="cls-11" d="M148.32,186.6c17.26,4.51,32.07,17.57,38.69,34.13,1.3,3.25,2.31,6.76,1.8,10.22-.5,3.4-2.44,6.45-4.78,8.98-8.03,8.69-21.23,11.95-32.59,8.62-6.12-1.79-11.59-5.26-17.15-8.38-11.08-6.23-22.85-11.24-35.02-14.93-11.23-3.4-18.4-16.2-25.69-24.78.73-4.45,1.46-8.89,2.18-13.34"/>
      <path class="cls-6" d="M158.74,212.23c-4.31,2.67-8.54,5.89-10.71,10.42-3.37,7.02-.86,15.68,4.12,21.71,4.98,6.03,12.03,10.01,18.91,13.84,6.07,3.39,12.15,6.77,18.22,10.16,2.87,1.6,6.01,3.26,9.28,2.84,2.72-.34,5.04-2.07,7.09-3.87,10.57-9.25,17.87-22.03,20.42-35.7.67-3.61.89-7.73-1.51-10.55-.84-.99-1.94-1.73-3.1-2.34-8.66-4.59-20.8-1.08-25.53,7.39.36-.64-16.17-16.47-17.78-17.21-6.35-2.92-13.9-.11-19.4,3.3Z"/>
      <path class="cls-11" d="M61.08,244.77c8.99,11.33,30.5,24.84,42.92,32.24,6.98,4.16,14.7,7.68,22.82,7.62,9.59-.07,18.96-5.57,23.7-13.91,2.75-4.84,3.93-10.94,1.61-16-1.74-3.77-5.15-6.46-8.43-9.01-13.68-10.58-32.3-20.85-43.04-34.45-3.62-4.58-5.67-9.9-9.72-14.24-5.84-6.25-13.16-11.05-19.39-16.9.3.28.6.56.9.84-4.31-2.66-8.46-5.57-12.42-8.73-1.62-1.29-3.29-2.5-4.88-3.82-2.07-1.71-1.08-.8-3.14-2.52-.99-.83-2-1.68-2.64-2.81-.77-1.37-.9-3-1.57-4.42-2.11-4.43-8.79-9.36-14.11-8.88-.7.06-1.39.22-2.03.49-6.91,2.88-14.07,13.46-19.22,18.82C6.33,175.46-.02,182.82,0,191.6s.62,16.63,4.27,24.29c4.76,10,11.38,20.27,20.84,26.03,3.75,2.28,7.78,4.06,11.82,5.78,14.85,6.33,29.99,12,45.34,16.99,8.32,2.7,17.04,5.23,25.71,4.04s17.3-7.13,18.85-15.74c1.31-7.3-2.55-14.45-6.6-20.66-6.29-9.63-13.39-18.72-21.2-27.15"/>
      <path class="cls-2" d="M122.28,246.51c-4.31,2.67-8.54,5.89-10.71,10.42-3.37,7.02-.86,15.68,4.12,21.71,4.98,6.03,12.03,10.01,18.91,13.84,6.07,3.39,12.15,6.77,18.22,10.16,2.87,1.6,6.01,3.26,9.28,2.84,2.72-.34,5.04-2.07,7.09-3.87,10.57-9.25,17.87-22.03,20.42-35.7.67-3.61.89-7.73-1.51-10.55-.84-.99-1.94-1.73-3.1-2.34-8.66-4.59-20.8-1.08-25.53,7.39.36-.64-16.17-16.47-17.78-17.21-6.35-2.92-13.9-.11-19.4,3.3Z"/>
      <g>
        <path class="cls-3" d="M213.33,191.18c2.1.41,4.2.82,6.3,1.23,1.47.29,2.95.58,4.42.86,3.52.69,7.05,1.38,10.57,2.07,1.58.31,3.27.67,4.22,2.1.55.82.61,1.92-.02,2.68-1.79,2.16-5.95-1.35-6.57,2.59,0,.04,0,.09.01.12.16.41.54.7.91.94,2.56,1.67,5.67,2.4,8.16,4.18.72.52,1.37,1.19,1.9,1.94,1.6,2.29-.54,5.35-3.26,4.7-1.34-.32-2.7-.51-4.07-.58,2.41.73,4.59,2.19,6.17,4.14-2.12,2.45-6.07,1.35-9.05.06.64,1.41,2.67,1.51,3.9,2.25,1.42.86.86,3.07-.8,3.15,0,0-.01,0-.02,0-2.25.11-4.51-.16-6.66-.8.55.49.98,1.12,1.24,1.82-3.57,1.36-7.29-1.33-10.15-3.85-5.02-4.41-10.04-8.83-15.07-13.24"/>
        <path class="cls-13" d="M182.29,128.36c1.09,3.79,1.43,7.75,2.1,11.63,3.17,18.59,14.09,35.74,29.6,46.47,1.72,1.19,3.56,2.38,4.52,4.24,2.06,3.98-.83,8.63-3.59,12.17-1.68,2.15-3.36,4.3-5.04,6.45-.5.64-1.03,1.31-1.77,1.64-.95.43-2.05.24-3.06,0-5.52-1.36-10.52-4.27-15.43-7.14-7.13-4.16-14.26-8.33-21.39-12.49-5.55-3.24-11.11-6.49-16.28-10.31-5.95-4.4-11.51-9.77-14.24-16.64-4.29-10.81-.85-23.06,3.61-33.8"/>
      </g>
      <path class="cls-2" d="M96.11,101.04c-21.19,8.81-40.54,22.04-56.44,38.59-4.32,4.5-8.48,9.38-10.65,15.23-1.61,4.32-2.06,9.01-1.75,13.61.75,11.25,6,21.91,13.44,30.38,7.44,8.47,16.98,14.89,27.06,19.95,4.19,2.1,8.54,4.01,13.16,4.82,9.84,1.74,19.86-1.61,28.93-5.82,15.87-7.37,30.5-17.65,42.06-30.79,11.56-13.14,19.96-29.21,23.15-46.41,1.96-10.58,1.35-22.95-6.66-30.12-4.41-3.95-10.35-5.64-16.09-7.09-9.77-2.47-19.63-4.61-29.54-6.41"/>
      <path class="cls-1" d="M132.81,221.05v1.32c0,1.67,0-2.98,0-1.32Z"/>
      <g>
        <path class="cls-3" d="M58.37,237.03c-.64,3.89-.94,7.84-.89,11.78.03,2.7.86,5.37,2.12,7.75.24.44.52.91.97,1.12.77.36,1.72-.18,2.11-.93s.38-1.65.35-2.49c1,2.7,2.01,5.4,3.01,8.11.57,1.55,1.91,3.44,3.41,2.75,2.07-.96.08-4.79,1.88-6.2.83,1.84,1.88,3.58,3.11,5.17.27.35.57.7.98.84,1.02.33,1.93-.87,2.02-1.95.09-1.07-.24-2.19.09-3.21.58.76,1.19,1.54,2.05,1.95s2.04.32,2.59-.45c.49-.7.32-1.66.12-2.49-.48-2.03-.97-4.06-1.45-6.1.05.31.54.32.73.07s.15-.59.11-.9c-.67-4.84-1.52-9.65-2.55-14.43"/>
        <path class="cls-7" d="M44.61,154.44c-3.69,9.38-4.83,19.55-5.43,29.61-.46,7.74-.6,15.64,1.58,23.09,1.18,4.05,3.03,7.86,4.87,11.66,2.57,5.31,5.14,10.62,7.71,15.93.95,1.96,1.92,3.95,3.41,5.52,2.07,2.18,4.94,3.38,7.77,4.42,5.36,1.97,10.85,3.57,16.43,4.79,1.02-4.55,2.03-9.11,3.05-13.66,2.39-10.73,4.81-21.53,9.21-31.6,1.65-3.77,3.56-7.43,5.02-11.28,2.01-5.32,3.11-10.93,4.19-16.52,1.36-6.96,2.71-13.92,4.07-20.89,1.14-5.86,2.29-11.83,1.63-17.76-.89-8.09-5.56-17.08-12.89-21.13-6.18-3.41-9.22-.46-14.54,2.64-15.53,9.04-29.13,17.53-36.07,35.17Z"/>
      </g>
      <g>
        <path class="cls-14" d="M88.26,90.31c-4.02-4.36-9.58-7.28-15.45-8.13-5.87-.85-12.03.38-17.12,3.42,3.92,4.99,2.49,13.01,7.08,17.39,1.09,1.04,2.43,1.77,3.79,2.43,5.74,2.79,16.82,6.24,22.49,1.32,4.13-3.58,2.5-12.87-.78-16.43Z"/>
        <path class="cls-5" d="M114.07,149.78c2.13,8.48,9.86,13.6,15.69,15.84,9.39,3.61,19.62,7.27,29.4,4.75,3.95-1.02,7.55-3.01,11.04-5.05,4.16-2.43,8.37-5.08,11.03-8.96,2.03-2.98,3.01-6.48,3.82-9.94,1.36-5.82,2.35-11.71,2.97-17.64.54-5.24.77-10.63-.87-15.65-3.13-9.6-12.65-16.26-22.7-19.44-8.55-2.7-17.65-3.34-26.65-3.76-9.21-.43-18.8-.76-26.91-4.92-2.15-1.1-4.29-2.5-6.74-2.57-7.37-.2-12.05,5.44-15.87,8.07-17.33,11.96,15.22,17.16,25.81,59.27Z"/>
        <path class="cls-10" d="M99.94,19.35c2.94-6.15.64-14.62-4.91-18.05-1.46-.9-3.16-1.49-4.82-1.24-1.67.24-3.28,1.44-3.76,3.19-1.46-2.16-4.22-2.97-6.62-2.4s-4.45,2.33-5.97,4.43c-1.27,1.76-2.26,3.92-2.1,6.15.16,2.23,1.76,4.44,3.82,4.52-2.77.13-5.08,3.03-5.1,6.05s2,5.82,4.6,6.87c2.6,1.05,5.63.46,7.96-1.18.41-.29.8-.61,1.19-.93"/>
        <path class="cls-3" d="M131.61,118.38c4.04.9,8.17,1.64,12.3,1.42,3.59-.19,7.09-1.09,10.57-1.99,6.01-1.55,12.14-3.16,17.33-6.56,10.9-7.15,15.69-21.81,12.55-34.46-.93-3.76-2.47-7.35-3.36-11.11-2.39-10.02-.18-20.82-3.35-30.62-2.95-9.13-10.56-16.46-19.57-19.72-4.86-1.76-10.04-2.41-15.2-2.81-4.97-.39-10.09-.54-14.83,1-4.32,1.41-8.09,4.14-11.53,7.12-10.87,9.41-19.31,21.86-22.91,35.78-3.27,12.61-3.22,30.3,4.85,41.35,7.85,10.74,20.45,17.78,33.14,20.62Z"/>
        <ellipse class="cls-8" cx="139.74" cy="74.39" rx="3.4" ry="4.86"/>
        <ellipse class="cls-8" cx="171.98" cy="69.53" rx="3.4" ry="4.86"/>
        <path class="cls-4" d="M146.06,53.94c4.92.65,9.88-.5,14.69-1.74-1.22.05-2.46-.27-3.5-.92-.52-.32-1.05-.9-.84-1.48.12-.33.45-.54.76-.72,5.79-3.41,11.47-8.75,11.41-15.47-.05-6.2-5.29-11.46-11.21-13.29-21.38-6.6-34.76,30.54-11.31,33.62Z"/>
        <path class="cls-9" d="M171.83,27.64c1.66-.43,3.42-.89,4.56-2.1,1.86-1.99,1.3-5.1.18-7.54-2.2-4.81-7.34-9.26-12.69-7.94-.76-3.62-4.66-5.82-8.37-6.92-4.27-1.26-8.76-1.68-13.21-2.09-15.61-1.42-32.33-2.53-46.02,4.74-8.01,4.26-14.29,11.14-18.39,18.94-4.1,7.8-6.12,16.49-6.77,25.18-.8,10.64.72,22.15,8.05,30.23.51.56,1.07,1.15,1.23,1.87.19.88-.24,1.76-.49,2.64-.87,3.13.78,6.41,2.9,8.95,1.45,1.74,3.41,3.4,5.75,3.39,4.66-.02,7.27.02,7.68-2.41.54-3.23-.93-11.47.78-14.28,3.84-6.32,8.44-12.23,13.61-17.63,10.44-10.91,23.17-19.76,37.05-26.31,7.73-3.64,15.83-6.57,24.15-8.73Z"/>
        <path class="cls-3" d="M108.31,73.72q-.15,1.77,0,0c-.07-1.1.25-2.2.13-3.3-.25-2.38-2.59-4.17-4.98-4.35-2.39-.18-4.71.95-6.54,2.51-3.58,3.04-5.59,7.83-5.28,12.52.2,2.97,1.36,5.95,3.59,7.92s5.6,2.74,8.3,1.49"/>
        <path class="cls-12" d="M160.87,77.05s10.4,1.44,8.67,4.93c-1.73,3.49-5.7,4.8-5.7,4.8,0,0,.5-8-2.97-9.73Z"/>
        <path class="cls-4" d="M131.42,60.96c.49-.38,1.01-.72,1.56-1.01.24-.13.49-.24.73-.35-.28.12.17-.06.22-.08.15-.05.29-.1.44-.15.56-.18,1.12-.31,1.7-.4.16-.02.15-.02,0,0,.08,0,.15-.02.23-.02.15-.01.31-.03.46-.03.31-.02.62-.02.93,0,.7.02,1.37-.63,1.34-1.34-.03-.74-.59-1.31-1.34-1.34-2.7-.09-5.47.77-7.62,2.42-.29.22-.51.43-.61.8-.09.32-.05.75.13,1.03.35.54,1.24.94,1.83.48h0Z"/>
        <path class="cls-4" d="M167.81,53.47s.1-.05.15-.07c.22-.1-.39.15-.1.04.08-.03.17-.07.25-.1.49-.18.99-.32,1.5-.41.07-.01.14-.02.21-.04.29-.05-.05,0-.05,0,0-.02.5-.05.55-.05.36-.02.71,0,1.07.02.26.02-.17-.03,0,0,.08.01.17.03.25.04.19.04.38.08.56.14.09.03.17.05.25.08.11.04.3.12.09.03.21.09.4.2.6.31.6.35,1.49.16,1.83-.48s.16-1.45-.48-1.83c-2.41-1.42-5.57-1.23-8.03,0-.63.31-.85,1.25-.48,1.83.41.64,1.16.81,1.83.48h0Z"/>
        <path class="cls-4" d="M160.87,98.78s-3.64,2-6.77,0c0,0-1,3.33,1.25,3.67,2.26.33,5.52-3.67,5.52-3.67Z"/>
      </g>
      <path class="cls-12" d="M100.04,74.39s5.62-4.23,5.93,2.66l-5.93-2.66Z"/>
      <path class="cls-10" d="M148.66,151.62s-.48,8.77-5.36,7.28c-4.88-1.5.19-14.8.19-14.8,0,0-4.89,3.18-3.59-4.94,1.3-8.12,5.2-6.5,8.62-4.5,0,0-2.65-6.68,3.19-9.82s5.35,7.56,5.35,7.56c0,0,3.97-7.08,9.52-5.12,5.55,1.96,1.57,7.26-3.01,9.86,0,0,13.32.67,12.53,6.31-.79,5.64-8.53,4.04-8.53,4.04,0,0,8.3,4.47,4.75,8.57-3.54,4.1-16.13-2.87-16.13-2.87,0,0,5.6,6.33,1.74,8.27-3.86,1.94-10.23-1.64-9.3-9.84Z"/>
    </g>
  </g>
</svg>